<svg width="18" height="18" viewBox="0 0 18 18" fill="none" xmlns="http://www.w3.org/2000/svg">
<path d="M17.9292 6.76154C17.7444 6.18462 17.2592 5.81538 16.6816 5.81538H11.7608L10.236 0.923077C10.0512 0.346154 9.56602 0 8.98845 0C8.41088 0 7.92573 0.369231 7.7409 0.946154L6.21613 5.83846H1.31837C0.740801 5.83846 0.255645 6.20769 0.0708241 6.78462C-0.113997 7.33846 0.0708241 7.93846 0.532877 8.28462L4.52964 11.3077L3.00486 16.2231C2.82004 16.7769 3.00486 17.3769 3.46691 17.7231C3.92897 18.0692 4.55274 18.0692 5.01479 17.7231L8.98845 14.7L12.9621 17.7231C13.1931 17.9077 13.4704 18 13.7476 18C14.0248 18 14.279 17.9077 14.51 17.7231C14.972 17.3769 15.1569 16.7769 14.9951 16.2231L13.4704 11.3077L17.4671 8.28462C17.9292 7.93846 18.114 7.33846 17.9292 6.78462V6.76154Z" fill="url(#paint0_linear_1046_30686)"/>
<defs>
<linearGradient id="paint0_linear_1046_30686" x1="4.68052" y1="4.87273" x2="15.6156" y2="15.3195" gradientUnits="userSpaceOnUse">
<stop stop-color="#D93E1F"/>
<stop offset="1" stop-color="#F0940F"/>
</linearGradient>
</defs>
</svg>
