<svg width="17" height="17" viewBox="0 0 17 17" fill="none" xmlns="http://www.w3.org/2000/svg">
<rect x="3.01123" width="1.14699" height="2.29398" rx="0.573495" fill="url(#paint0_linear_1584_41716)"/>
<rect x="12.187" width="1.14699" height="2.29398" rx="0.573495" fill="url(#paint1_linear_1584_41716)"/>
<path d="M2.65465 16.4127C1.78657 16.4127 1.12571 16.1915 0.672064 15.7491C0.224021 15.3066 0 14.6514 0 13.7833V4.13077C0 3.26269 0.224021 2.60743 0.672064 2.16498C1.12571 1.71694 1.78657 1.49292 2.65465 1.49292H13.6261C14.4998 1.49292 15.1606 1.71694 15.6087 2.16498C16.0567 2.61303 16.2808 3.26829 16.2808 4.13077V13.7833C16.2808 14.6458 16.0567 15.2982 15.6087 15.7407C15.1606 16.1887 14.4998 16.4127 13.6261 16.4127H2.65465ZM2.67986 14.741H13.5925C13.9173 14.741 14.1665 14.657 14.3402 14.489C14.5138 14.3209 14.6006 14.0661 14.6006 13.7245V6.45779C14.6006 6.11616 14.5138 5.86414 14.3402 5.70172C14.1665 5.5337 13.9173 5.4497 13.5925 5.4497H8.13618H2.67986C2.35502 5.4497 2.1086 5.5337 1.94058 5.70172C1.77257 5.86414 1.68856 6.11616 1.68856 6.45779V13.7245C1.68856 14.0661 1.77257 14.3209 1.94058 14.489C2.1086 14.657 2.35502 14.741 2.67986 14.741ZM6.61983 8.15475C6.47982 8.15475 6.37901 8.12955 6.3174 8.07915C6.2614 8.02874 6.23339 7.93073 6.23339 7.78512V7.32308C6.23339 7.17746 6.2614 7.07945 6.3174 7.02905C6.37901 6.97864 6.47982 6.95344 6.61983 6.95344H7.08187C7.22749 6.95344 7.3283 6.97864 7.3843 7.02905C7.44031 7.07945 7.46831 7.17746 7.46831 7.32308V7.78512C7.46831 7.93073 7.44031 8.02874 7.3843 8.07915C7.3283 8.12955 7.22749 8.15475 7.08187 8.15475H6.61983ZM9.19888 8.15475C9.05326 8.15475 8.95245 8.12955 8.89645 8.07915C8.84604 8.02874 8.82084 7.93073 8.82084 7.78512V7.32308C8.82084 7.17746 8.84604 7.07945 8.89645 7.02905C8.95245 6.97864 9.05326 6.95344 9.19888 6.95344H9.66932C9.81493 6.95344 9.91574 6.97864 9.97175 7.02905C10.0278 7.07945 10.0558 7.17746 10.0558 7.32308V7.78512C10.0558 7.93073 10.0278 8.02874 9.97175 8.07915C9.91574 8.12955 9.81493 8.15475 9.66932 8.15475H9.19888ZM11.7779 8.15475C11.6323 8.15475 11.5315 8.12955 11.4755 8.07915C11.4251 8.02874 11.3999 7.93073 11.3999 7.78512V7.32308C11.3999 7.17746 11.4251 7.07945 11.4755 7.02905C11.5315 6.97864 11.6323 6.95344 11.7779 6.95344H12.2484C12.394 6.95344 12.4948 6.97864 12.5508 7.02905C12.6068 7.07945 12.6348 7.17746 12.6348 7.32308V7.78512C12.6348 7.93073 12.6068 8.02874 12.5508 8.07915C12.4948 8.12955 12.394 8.15475 12.2484 8.15475H11.7779ZM4.04078 10.7002C3.89517 10.7002 3.79436 10.675 3.73836 10.6246C3.68235 10.5686 3.65435 10.4706 3.65435 10.3306V9.86012C3.65435 9.7145 3.68235 9.61649 3.73836 9.56609C3.79436 9.51568 3.89517 9.49048 4.04078 9.49048H4.50283C4.64844 9.49048 4.74925 9.51568 4.80526 9.56609C4.86126 9.61649 4.88927 9.7145 4.88927 9.86012V10.3306C4.88927 10.4706 4.86126 10.5686 4.80526 10.6246C4.74925 10.675 4.64844 10.7002 4.50283 10.7002H4.04078ZM6.61983 10.7002C6.47982 10.7002 6.37901 10.675 6.3174 10.6246C6.2614 10.5686 6.23339 10.4706 6.23339 10.3306V9.86012C6.23339 9.7145 6.2614 9.61649 6.3174 9.56609C6.37901 9.51568 6.47982 9.49048 6.61983 9.49048H7.08187C7.22749 9.49048 7.3283 9.51568 7.3843 9.56609C7.44031 9.61649 7.46831 9.7145 7.46831 9.86012V10.3306C7.46831 10.4706 7.44031 10.5686 7.3843 10.6246C7.3283 10.675 7.22749 10.7002 7.08187 10.7002H6.61983ZM9.19888 10.7002C9.05326 10.7002 8.95245 10.675 8.89645 10.6246C8.84604 10.5686 8.82084 10.4706 8.82084 10.3306V9.86012C8.82084 9.7145 8.84604 9.61649 8.89645 9.56609C8.95245 9.51568 9.05326 9.49048 9.19888 9.49048H9.66932C9.81493 9.49048 9.91574 9.51568 9.97175 9.56609C10.0278 9.61649 10.0558 9.7145 10.0558 9.86012V10.3306C10.0558 10.4706 10.0278 10.5686 9.97175 10.6246C9.91574 10.675 9.81493 10.7002 9.66932 10.7002H9.19888ZM11.7779 10.7002C11.6323 10.7002 11.5315 10.675 11.4755 10.6246C11.4251 10.5686 11.3999 10.4706 11.3999 10.3306V9.86012C11.3999 9.7145 11.4251 9.61649 11.4755 9.56609C11.5315 9.51568 11.6323 9.49048 11.7779 9.49048H12.2484C12.394 9.49048 12.4948 9.51568 12.5508 9.56609C12.6068 9.61649 12.6348 9.7145 12.6348 9.86012V10.3306C12.6348 10.4706 12.6068 10.5686 12.5508 10.6246C12.4948 10.675 12.394 10.7002 12.2484 10.7002H11.7779ZM4.04078 13.2372C3.89517 13.2372 3.79436 13.212 3.73836 13.1616C3.68235 13.1056 3.65435 13.0076 3.65435 12.8676V12.4056C3.65435 12.2599 3.68235 12.1619 3.73836 12.1115C3.79436 12.0555 3.89517 12.0275 4.04078 12.0275H4.50283C4.64844 12.0275 4.74925 12.0555 4.80526 12.1115C4.86126 12.1619 4.88927 12.2599 4.88927 12.4056V12.8676C4.88927 13.0076 4.86126 13.1056 4.80526 13.1616C4.74925 13.212 4.64844 13.2372 4.50283 13.2372H4.04078ZM6.61983 13.2372C6.47982 13.2372 6.37901 13.212 6.3174 13.1616C6.2614 13.1056 6.23339 13.0076 6.23339 12.8676V12.4056C6.23339 12.2599 6.2614 12.1619 6.3174 12.1115C6.37901 12.0555 6.47982 12.0275 6.61983 12.0275H7.08187C7.22749 12.0275 7.3283 12.0555 7.3843 12.1115C7.44031 12.1619 7.46831 12.2599 7.46831 12.4056V12.8676C7.46831 13.0076 7.44031 13.1056 7.3843 13.1616C7.3283 13.212 7.22749 13.2372 7.08187 13.2372H6.61983ZM9.19888 13.2372C9.05326 13.2372 8.95245 13.212 8.89645 13.1616C8.84604 13.1056 8.82084 13.0076 8.82084 12.8676V12.4056C8.82084 12.2599 8.84604 12.1619 8.89645 12.1115C8.95245 12.0555 9.05326 12.0275 9.19888 12.0275H9.66932C9.81493 12.0275 9.91574 12.0555 9.97175 12.1115C10.0278 12.1619 10.0558 12.2599 10.0558 12.4056V12.8676C10.0558 13.0076 10.0278 13.1056 9.97175 13.1616C9.91574 13.212 9.81493 13.2372 9.66932 13.2372H9.19888Z" fill="url(#paint2_linear_1584_41716)"/>
<defs>
<linearGradient id="paint0_linear_1584_41716" x1="3.30948" y1="0.620996" x2="4.39464" y2="1.13935" gradientUnits="userSpaceOnUse">
<stop stop-color="#D93E1F"/>
<stop offset="1" stop-color="#F0940F"/>
</linearGradient>
<linearGradient id="paint1_linear_1584_41716" x1="12.4853" y1="0.620996" x2="13.5704" y2="1.13935" gradientUnits="userSpaceOnUse">
<stop stop-color="#D93E1F"/>
<stop offset="1" stop-color="#F0940F"/>
</linearGradient>
<linearGradient id="paint2_linear_1584_41716" x1="4.23346" y1="5.53182" x2="13.2989" y2="14.9824" gradientUnits="userSpaceOnUse">
<stop stop-color="#D93E1F"/>
<stop offset="1" stop-color="#F0940F"/>
</linearGradient>
</defs>
</svg>
