<svg width="42" height="43" viewBox="0 0 42 43" fill="none" xmlns="http://www.w3.org/2000/svg">
<g clip-path="url(#clip0_2493_34807)">
<path d="M25.1028 9.33898V7.4322C25.1028 6.92373 24.658 6.5 24.1242 6.5H18.9202C18.3865 6.5 17.9417 6.92373 17.9417 7.4322V9.33898C11.6702 10.822 7 16.2458 7 22.6864C7 30.3136 13.5383 36.5 21.5 36.5C29.4617 36.5 36 30.3136 36 22.6864C36 16.2458 31.3742 10.822 25.1028 9.33898ZM19.8988 8.36441H23.1457V9C22.612 8.91525 22.0782 8.87288 21.5 8.87288C20.9663 8.87288 20.4325 8.91525 19.8988 8.95763V8.36441ZM21.5 34.6356C14.6058 34.6356 8.95706 29.2966 8.95706 22.6864C8.95706 16.9237 13.227 12.0932 18.9202 10.9492H19.0092C19.8098 10.7797 20.6549 10.6949 21.5 10.6949C22.3451 10.6949 23.2347 10.7797 24.0353 10.9492H24.1242C29.8175 12.0932 34.0874 16.9237 34.0874 22.6864C34.0874 29.2966 28.4387 34.6356 21.5 34.6356Z" fill="url(#paint0_linear_2493_34807)"/>
<path d="M29.5511 22.6864C29.5511 23.1949 29.1508 23.6186 28.617 23.6186H21.5005C20.9667 23.6186 20.5664 23.1949 20.5664 22.6864V13.1949C20.5664 12.6864 20.9667 12.2627 21.5005 12.2627C22.0342 12.2627 22.479 12.6864 22.479 13.1949V21.7542H28.617C29.1508 21.7542 29.5511 22.1779 29.5511 22.6864Z" fill="url(#paint1_linear_2493_34807)"/>
</g>
<defs>
<linearGradient id="paint0_linear_2493_34807" x1="14.5408" y1="14.6212" x2="32.7273" y2="31.4164" gradientUnits="userSpaceOnUse">
<stop stop-color="#D93E1F"/>
<stop offset="1" stop-color="#F0940F"/>
</linearGradient>
<linearGradient id="paint1_linear_2493_34807" x1="22.9027" y1="15.3368" x2="29.5467" y2="20.3587" gradientUnits="userSpaceOnUse">
<stop stop-color="#D93E1F"/>
<stop offset="1" stop-color="#F0940F"/>
</linearGradient>
<clipPath id="clip0_2493_34807">
<rect width="29" height="30" fill="white" transform="translate(7 6.5)"/>
</clipPath>
</defs>
</svg>
