<svg width="40" height="38" viewBox="0 0 40 38" fill="none" xmlns="http://www.w3.org/2000/svg">
<path d="M16.8605 27.8015H5.13629C4.56722 27.8015 4.1059 28.2728 4.1059 28.8541V28.9475C4.1059 29.5288 4.56722 30.0001 5.13629 30.0001H16.8605C17.4295 30.0001 17.8909 29.5288 17.8909 28.9475V28.8541C17.8909 28.2728 17.4295 27.8015 16.8605 27.8015Z" fill="white"/>
<path d="M12.7546 23.6216H1.03039C0.461322 23.6216 0 24.0928 0 24.6741V24.7676C0 25.3489 0.461322 25.8202 1.03039 25.8202H12.7546C13.3236 25.8202 13.785 25.3489 13.785 24.7676V24.6741C13.785 24.0928 13.3236 23.6216 12.7546 23.6216Z" fill="white"/>
<path d="M11.0712 19.5134H7.23603C6.64059 19.5134 6.1579 20.0056 6.1579 20.6127C6.1579 21.2198 6.64059 21.712 7.23603 21.712H11.0712C11.6666 21.712 12.1493 21.2198 12.1493 20.6127C12.1493 20.0056 11.6666 19.5134 11.0712 19.5134Z" fill="white"/>
<path d="M39.2855 8.63035C39.2417 8.33369 39.0786 8.06547 38.8399 7.89479L32.1244 3.09124C31.659 2.75394 31.0185 2.85147 30.6644 3.30663L26.9048 8.15488C26.9924 3.09531 25.0947 1.49412 23.3005 1.11212C20.6787 0.551296 18.3673 2.78238 16.7839 7.29333L37.0417 12.1619L39.0746 9.46752C39.2536 9.22775 39.3292 8.92702 39.2855 8.63035ZM38.2113 13.8525C36.8706 13.3323 20.6986 9.77638 14.7152 8.46373C14.5879 8.43529 14.3333 8.52876 14.2179 8.61816C13.9713 8.8051 13.9514 9.03268 13.9195 9.34154L12.7857 21.4236L12.5788 23.6221L12.4396 25.1258L12.3362 26.2271C12.3003 26.601 12.3123 26.9667 12.368 27.3244C12.4475 27.8608 12.6266 28.3688 12.8852 28.828C13.474 29.8887 14.4924 30.6852 15.7376 30.9534L16.0798 31.0266L29.0452 33.7982C31.1975 34.2574 33.3339 32.9935 34.0181 30.86L39.194 14.7425C39.2019 14.0841 38.7802 14.076 38.2113 13.8525ZM19.9905 15.4943C20.1894 15.287 20.4679 15.1611 20.7702 15.1611C21.0726 15.1611 21.3471 15.287 21.55 15.4943C21.7529 15.7016 21.8722 15.9779 21.8722 16.2908C21.8722 16.6038 21.7489 16.8801 21.55 17.0833C21.3511 17.2865 21.0726 17.4165 20.7702 17.4165C20.1616 17.4165 19.6643 16.9085 19.6643 16.2908C19.6643 15.9779 19.7876 15.6975 19.9905 15.4943ZM30.8792 21.3585L30.6684 22.3583C30.3421 23.9066 29.443 25.2396 28.1302 26.1011C27.1714 26.7351 26.0813 27.0643 24.9714 27.0643C24.5656 27.0643 24.1558 27.0196 23.746 26.9302L23.4835 26.8692C21.9677 26.54 20.6668 25.6216 19.8194 24.2845C18.972 22.9435 18.6816 21.3504 19.0078 19.798L19.2187 18.7983C19.3102 18.3594 19.7359 18.079 20.1616 18.1765C20.5912 18.27 20.8657 18.7007 20.7742 19.1396L20.5634 20.1394C20.3286 21.2651 20.5355 22.4233 21.1561 23.3986C21.7728 24.374 22.7157 25.0404 23.8177 25.2802L24.0802 25.3412C25.1822 25.5809 26.3121 25.3696 27.2669 24.7397C28.2217 24.1098 28.8741 23.1426 29.1128 22.0169L29.3237 21.0172C29.4152 20.5783 29.8369 20.2978 30.2665 20.3913C30.6962 20.4848 30.9707 20.9196 30.8792 21.3585ZM31.4481 19.5013C31.2492 19.7086 30.9707 19.8346 30.6684 19.8346C30.366 19.8346 30.0915 19.7086 29.8886 19.5013C29.6857 19.2941 29.5664 19.0177 29.5664 18.7048C29.5664 18.3919 29.6897 18.1155 29.8886 17.9123C30.0875 17.7091 30.366 17.5791 30.6684 17.5791C31.277 17.5791 31.7743 18.0871 31.7743 18.7048C31.7743 19.0177 31.651 19.2981 31.4481 19.5013Z" fill="white"/>
</svg>
