<svg width="19" height="14" viewBox="0 0 19 14" fill="none" xmlns="http://www.w3.org/2000/svg">
<g clip-path="url(#clip0_1776_4383)">
<path d="M1.23398 2.46999C1.07171 2.47219 0.9107 2.44111 0.760897 2.37868C0.611094 2.31625 0.475672 2.22378 0.362984 2.10699C0.246193 1.9943 0.153729 1.85888 0.0912968 1.70908C0.0288646 1.55928 -0.00221218 1.39827 -1.63171e-05 1.23599C-0.00321891 1.07269 0.0273739 0.91048 0.0898415 0.75956C0.152309 0.608639 0.245303 0.472263 0.362984 0.358992C0.476439 0.24349 0.612093 0.152141 0.761781 0.0904439C0.911468 0.0287473 1.07209 -0.00202113 1.23398 -8.28521e-06C1.39694 -0.00324887 1.55882 0.0269342 1.70966 0.0886787C1.86049 0.150423 1.99708 0.24242 2.11098 0.358992C2.22756 0.472898 2.31955 0.609483 2.3813 0.760318C2.44304 0.911153 2.47322 1.07304 2.46998 1.23599C2.472 1.39788 2.44123 1.55851 2.37953 1.70819C2.31784 1.85788 2.22649 1.99354 2.11098 2.10699C1.99771 2.22467 1.86134 2.31767 1.71042 2.38013C1.55949 2.4426 1.39729 2.47319 1.23398 2.46999ZM5.43398 2.04799C5.32706 2.05013 5.22084 2.03009 5.12205 1.98912C5.02326 1.94816 4.93403 1.88717 4.85998 1.80999C4.78417 1.73492 4.72435 1.64526 4.68414 1.54644C4.64392 1.44762 4.62414 1.34167 4.62598 1.23499C4.62392 1.12799 4.6436 1.02168 4.68382 0.922499C4.72404 0.82332 4.78397 0.733335 4.85998 0.657992C4.93415 0.581046 5.02343 0.520272 5.12221 0.479486C5.22099 0.4387 5.32714 0.418785 5.43398 0.420992H18.024C18.1315 0.41905 18.2384 0.439066 18.3379 0.479816C18.4375 0.520566 18.5277 0.581193 18.603 0.657992C18.6801 0.73271 18.741 0.82249 18.782 0.921752C18.8229 1.02101 18.843 1.12764 18.841 1.23499C18.8426 1.34209 18.8223 1.4484 18.7812 1.54731C18.7401 1.64622 18.6791 1.73563 18.602 1.80999C18.5268 1.88671 18.4368 1.9473 18.3374 1.98805C18.238 2.0288 18.1314 2.04886 18.024 2.04699L5.43398 2.04799ZM1.23398 8.10199C1.07171 8.10413 0.910726 8.07302 0.760932 8.0106C0.611137 7.94817 0.475708 7.85574 0.362984 7.73899C0.246069 7.62619 0.153533 7.4906 0.091097 7.34062C0.0286607 7.19063 -0.00234941 7.02944 -1.63171e-05 6.86699C-0.00314072 6.70384 0.0274917 6.54181 0.0899588 6.39107C0.152426 6.24032 0.245379 6.10411 0.362984 5.99099C0.476185 5.87495 0.611726 5.78304 0.761425 5.72083C0.911124 5.65861 1.07188 5.62737 1.23398 5.62899C1.39694 5.62575 1.55882 5.65593 1.70966 5.71768C1.86049 5.77942 1.99708 5.87142 2.11098 5.98799C2.22753 6.10171 2.31951 6.23812 2.38126 6.38879C2.44301 6.53946 2.47321 6.70119 2.46998 6.86399C2.47213 7.02605 2.44143 7.18687 2.37973 7.33673C2.31803 7.4866 2.22661 7.62242 2.11098 7.73599C1.99802 7.85435 1.86179 7.94805 1.71087 8.01121C1.55994 8.07437 1.39757 8.10562 1.23398 8.10299V8.10199ZM5.43398 7.67999C5.32706 7.68213 5.22084 7.66209 5.12205 7.62112C5.02326 7.58016 4.93403 7.51917 4.85998 7.44199C4.78417 7.36692 4.72435 7.27726 4.68414 7.17844C4.64392 7.07962 4.62414 6.97367 4.62598 6.86699C4.624 6.76015 4.64372 6.65401 4.68394 6.55501C4.72416 6.456 4.78405 6.36618 4.85998 6.29099C4.93415 6.21405 5.02343 6.15327 5.12221 6.11249C5.22099 6.0717 5.32714 6.05179 5.43398 6.05399H18.024C18.1315 6.05192 18.2382 6.07178 18.3378 6.11236C18.4373 6.15293 18.5276 6.21337 18.603 6.28999C18.6802 6.36464 18.7412 6.4544 18.7821 6.55368C18.8231 6.65296 18.8431 6.75962 18.841 6.86699C18.8428 6.97427 18.8226 7.08078 18.7815 7.17988C18.7403 7.27898 18.6792 7.36855 18.602 7.44299C18.5268 7.51971 18.4368 7.5803 18.3374 7.62105C18.238 7.6618 18.1314 7.68186 18.024 7.67999H5.43398ZM1.23398 13.736C1.07163 13.7381 0.910584 13.7068 0.760777 13.6442C0.61097 13.5816 0.475586 13.489 0.362984 13.372C0.246164 13.2591 0.153692 13.1235 0.0912625 12.9735C0.0288332 12.8236 -0.0022309 12.6624 -1.63171e-05 12.5C-0.00245005 12.3377 0.0285181 12.1766 0.0909645 12.0268C0.153411 11.8769 0.246001 11.7415 0.362984 11.629C0.476439 11.5135 0.612093 11.4221 0.761781 11.3604C0.911468 11.2987 1.07209 11.268 1.23398 11.27C1.39694 11.2668 1.55882 11.2969 1.70966 11.3587C1.86049 11.4204 1.99708 11.5124 2.11098 11.629C2.22753 11.7427 2.31951 11.8791 2.38126 12.0298C2.44301 12.1805 2.47321 12.3422 2.46998 12.505C2.47213 12.6671 2.44143 12.8279 2.37973 12.9777C2.31803 13.1276 2.22661 13.2634 2.11098 13.377C1.99737 13.4939 1.86084 13.5862 1.70993 13.648C1.55903 13.7097 1.397 13.7397 1.23398 13.736ZM5.43398 13.314C5.32705 13.3162 5.22082 13.2962 5.12202 13.2552C5.02321 13.2142 4.93399 13.1532 4.85998 13.076C4.78422 13.0009 4.72443 12.9112 4.68422 12.8124C4.644 12.7136 4.6242 12.6077 4.62598 12.501C4.62506 12.3945 4.64567 12.289 4.68657 12.1907C4.72747 12.0924 4.78782 12.0034 4.86398 11.929C4.93815 11.852 5.02743 11.7913 5.12621 11.7505C5.22499 11.7097 5.33114 11.6898 5.43798 11.692H18.028C18.1355 11.6899 18.2422 11.7098 18.3418 11.7504C18.4413 11.7909 18.5316 11.8514 18.607 11.928C18.6842 12.0026 18.7452 12.0924 18.7861 12.1917C18.8271 12.291 18.8471 12.3976 18.845 12.505C18.8467 12.6123 18.8264 12.7187 18.7853 12.8178C18.7442 12.9169 18.6832 13.0065 18.606 13.081C18.5308 13.1577 18.4408 13.2183 18.3414 13.2591C18.242 13.2998 18.1354 13.3199 18.028 13.318L5.43398 13.314Z" fill="#1F222C"/>
</g>
<defs>
<clipPath id="clip0_1776_4383">
<rect width="18.846" height="13.736" fill="white"/>
</clipPath>
</defs>
</svg>
