<svg width="28" height="40" viewBox="0 0 28 40" fill="none" xmlns="http://www.w3.org/2000/svg">
<path d="M26.6193 25.116C26.7893 30.176 22.5593 34.376 17.7193 35.536C17.5593 35.226 17.9293 34.676 17.4293 34.676C21.9693 33.076 25.4893 29.006 25.2193 24.166C25.7593 24.366 26.2093 24.736 26.6193 25.116Z" fill="#408349"/>
<path d="M12.5593 34.6865C12.0593 34.6865 12.2193 34.9765 12.0593 35.2865C11.8693 35.6665 11.5893 36.1565 11.1293 36.2865C10.1093 36.5665 8.34928 35.5165 8.54928 37.3165C8.71928 38.8265 10.0893 38.3065 9.97928 37.0365C11.1393 37.3365 12.4693 36.6565 12.8093 35.4865C12.8793 35.2565 12.8993 35.0165 12.8093 34.7865C12.7693 34.7865 12.6593 34.6865 12.5593 34.6865Z" fill="#2A5161"/>
<path d="M12.7993 4.89651C12.3093 4.74651 10.9893 4.26651 10.5193 4.34651C10.1993 4.40651 9.13931 5.26651 8.66931 5.29651L10.1693 4.24651C9.72931 4.24651 8.79931 3.92651 8.41931 3.99651C8.16931 4.03651 7.21931 4.78651 6.81931 4.79651L8.01931 3.94651L3.93931 3.76651L7.61931 3.53651L6.81931 2.63651C7.14931 2.72651 7.74931 3.45651 7.96931 3.53651C8.37931 3.68651 9.38931 3.58651 9.86931 3.68651L8.96931 2.43651C9.37931 2.59651 10.0393 3.65651 10.3193 3.78651C10.6493 3.94651 12.1893 4.15651 12.6993 4.28651C10.6193 0.786511 5.47931 2.28651 2.72931 4.48651C5.33931 6.91651 9.63931 6.04651 12.7993 4.89651Z" fill="#408349"/>
<path d="M12.6993 4.29645C12.1893 4.16645 10.6493 3.95645 10.3193 3.79645C10.0393 3.66645 9.3793 2.60645 8.9693 2.44645L9.8693 3.69645C9.3893 3.59645 8.3793 3.69645 7.9693 3.54645C7.7493 3.46645 7.1493 2.73645 6.8193 2.64645L7.6193 3.54645L3.9393 3.77645L8.0193 3.95645L6.8193 4.80645C7.2193 4.80645 8.1693 4.04645 8.4193 4.00645C8.7993 3.93645 9.7393 4.25645 10.1693 4.25645L8.6693 5.30645C9.1393 5.27645 10.1993 4.41645 10.5193 4.35645C10.9893 4.27645 12.3093 4.75645 12.7993 4.90645C12.8993 4.93645 13.4993 4.93645 13.5493 5.03645C13.5993 5.11645 13.5393 5.94645 13.4993 6.11645C13.6793 6.08645 14.4693 6.05645 14.6493 6.06645C14.0393 4.68645 14.4493 3.00645 14.1993 1.58645C14.1693 1.43645 14.1293 1.06645 13.9693 1.00645C13.8693 0.976448 13.1793 1.05645 13.1393 1.13645C12.9493 1.50645 13.5093 3.96645 13.4893 4.53645C13.4493 4.60645 12.7893 4.33645 12.6893 4.30645L12.6993 4.29645Z" fill="#A3C660"/>
<path d="M13.9793 1.44653L14.1293 2.69653C14.2293 2.69653 14.0693 1.55653 13.9793 1.44653Z" fill="#C5DB94"/>
<path d="M15.6093 6.09664C20.5193 6.80664 21.5093 12.5966 23.2193 16.2366C24.4293 18.8066 26.4493 22.1466 26.6193 25.1166C26.2593 24.8666 25.6993 24.4966 25.2693 24.6666C24.9093 21.4966 22.8593 17.6566 21.5693 14.8266C20.1493 11.7266 19.3193 7.07664 15.1393 6.74664C10.1793 6.34664 9.2593 11.5566 7.6593 14.9766C5.2893 20.0466 2.1393 24.1066 5.5693 29.8566C8.3193 34.4866 13.0193 35.7066 17.9693 34.7866C17.8793 35.0166 17.8993 35.2566 17.9693 35.4866C15.5993 36.1166 13.1393 36.0466 10.8093 35.2866C10.5493 35.2066 10.2593 35.0866 10.0093 34.9866C1.4893 31.5666 0.679302 26.6266 3.3693 20.4566C3.4493 20.2766 3.6693 19.9866 3.7693 19.7566C4.4893 18.1566 6.4793 15.8866 7.1993 14.2866C8.7693 10.7966 9.6793 6.28664 14.4593 6.05664C14.6393 6.05664 15.4293 6.07664 15.6093 6.10664V6.09664Z" fill="#408349"/>
<path d="M24.7793 23.4265C24.7993 23.6265 24.8193 23.8565 24.8293 24.0565C25.0893 28.7165 22.4493 32.9465 18.0793 34.4865C17.9893 34.4865 17.8693 34.5765 17.8393 34.5865C13.0793 35.4765 7.06931 33.5565 5.13931 28.7365C3.20931 23.9165 5.62931 20.0865 7.90931 15.2165C9.44931 11.9165 10.3393 6.90653 15.1193 7.28653C19.1493 7.60653 19.8493 11.0265 21.2093 14.0065C22.4593 16.7265 24.4293 20.3865 24.7793 23.4365V23.4265Z" fill="#A3C660" stroke="#408349" stroke-miterlimit="10"/>
<path d="M14.4593 9.20644C17.6593 8.95644 18.2693 11.5964 19.3293 13.8264C21.3193 18.0064 24.3893 22.2164 21.6893 26.8564C18.9893 31.4964 12.7793 33.9764 9.3293 29.7264C4.7893 24.1364 9.5793 17.1064 11.4593 11.7164C12.3393 9.76644 13.2193 9.30644 14.4593 9.20644Z" fill="#EEEFAF"/>
<path d="M11.3793 29.5464C15.7093 32.8864 21.0293 28.5064 19.6693 23.3264C19.7993 23.3064 19.7993 23.2464 19.8593 23.3964C21.5593 27.5464 16.9993 32.4164 12.6093 30.5064C12.4893 30.4564 11.4493 29.8364 11.4093 29.7864C11.3693 29.7364 11.4393 29.6264 11.3893 29.5464H11.3793Z" fill="#EEEFAF"/>
<path d="M14.6893 13.3264C15.2393 13.8164 15.7293 13.8364 16.2793 13.3264C16.5293 14.6764 14.4593 14.6664 14.6893 13.3264Z" fill="#DC473D"/>
<path d="M13.3493 11.5864C14.2493 11.4264 14.2493 12.7064 13.3493 12.5464C12.9193 12.4664 12.9093 11.6664 13.3493 11.5864Z" fill="#463E32"/>
<path d="M16.9693 11.2463C17.8593 11.0763 17.8793 12.3763 16.9693 12.2063C16.5193 11.9663 16.5493 11.4863 16.9693 11.2463Z" fill="#463E32"/>
<path d="M12.3793 12.8864C13.0993 12.7064 13.3693 13.3964 12.7293 13.5364C12.1493 13.6564 11.7193 13.0564 12.3793 12.8864Z" fill="#E06B70"/>
<path d="M17.6193 12.3564C17.8093 12.2964 18.3193 12.3464 18.3893 12.5564C18.5493 13.0564 17.2493 13.2064 17.3293 12.6064C17.3293 12.5564 17.5793 12.3764 17.6193 12.3664V12.3564Z" fill="#E06B70"/>
<path d="M21.0393 22.9064C22.2893 27.2864 16.1593 32.5164 12.1893 29.6964C9.30929 27.6464 11.0293 21.7464 13.9393 19.9364C16.8493 18.1264 20.2293 20.0764 21.0393 22.9164V22.9064Z" fill="#A36A39"/>
<path d="M17.6493 34.0666C18.3793 34.6066 18.9993 36.5766 18.9593 37.4066C18.9393 37.7666 18.6893 38.1966 18.8093 38.5366C18.9893 39.0466 20.4793 39.0566 20.6593 38.5366C20.8993 37.8566 20.3093 37.5366 19.6593 37.4566C19.7193 36.5566 19.1393 34.4666 18.4493 33.7666C18.1993 33.8666 17.9093 33.9866 17.6493 34.0666Z" fill="#2A5161"/>
</svg>
