<svg width="20" height="19" viewBox="0 0 20 19" fill="none" xmlns="http://www.w3.org/2000/svg">
<g clip-path="url(#clip0_1046_30739)">
<path fill-rule="evenodd" clip-rule="evenodd" d="M2.30179 0H17.6726C18.9514 0 20 1.01198 20 2.27696V13.3835C20 14.6485 18.9514 15.6605 17.6726 15.6605H8.38875L3.75959 18.8735C3.58056 18.9747 3.42711 19 3.29923 19C3.17136 19 3.04348 19 2.89003 18.8988C2.65985 18.7723 2.48082 18.494 2.48082 18.2157V15.6605H2.30179C1.02302 15.6605 0 14.6485 0 13.3835V2.27696C0 1.01198 1.02302 0 2.30179 0ZM4.83376 6.70447H15.1407C15.5755 6.70447 15.9591 6.29968 15.9591 5.79369C15.9591 5.2877 15.601 4.9082 15.1407 4.9082H4.83376C4.37341 4.9082 4.01535 5.2877 4.01535 5.79369C4.01535 6.29968 4.37341 6.70447 4.83376 6.70447ZM4.83376 10.3728H15.1407C15.601 10.3728 15.9591 9.96805 15.9591 9.46206C15.9591 8.95606 15.5755 8.55127 15.1407 8.55127H4.83376C4.37341 8.55127 4.01535 8.95606 4.01535 9.46206C4.01535 9.96805 4.37341 10.3728 4.83376 10.3728Z" fill="url(#paint0_linear_1046_30739)"/>
</g>
<defs>
<linearGradient id="paint0_linear_1046_30739" x1="5.20058" y1="5.14343" x2="16.755" y2="16.7629" gradientUnits="userSpaceOnUse">
<stop stop-color="#D93E1F"/>
<stop offset="1" stop-color="#F0940F"/>
</linearGradient>
<clipPath id="clip0_1046_30739">
<rect width="20" height="19" fill="white"/>
</clipPath>
</defs>
</svg>
