<svg width="13" height="17" viewBox="0 0 13 17" fill="none" xmlns="http://www.w3.org/2000/svg">
<path d="M13 13.1443V13.9062H0V13.1443L1.44444 11.6205V7.04904C1.44444 4.68713 2.91056 2.60713 5.05556 1.93666V1.7157C5.05556 1.31156 5.20774 0.923978 5.47862 0.638208C5.74951 0.352438 6.11691 0.191895 6.5 0.191895C6.88309 0.191895 7.25049 0.352438 7.52138 0.638208C7.79226 0.923978 7.94444 1.31156 7.94444 1.7157V1.93666C10.0894 2.60713 11.5556 4.68713 11.5556 7.04904V11.6205L13 13.1443ZM7.94444 14.6681C7.94444 15.0722 7.79226 15.4598 7.52138 15.7456C7.25049 16.0314 6.88309 16.1919 6.5 16.1919C6.11691 16.1919 5.74951 16.0314 5.47862 15.7456C5.20774 15.4598 5.05556 15.0722 5.05556 14.6681" fill="url(#paint0_linear_1410_2357)"/>
<defs>
<linearGradient id="paint0_linear_1410_2357" x1="3.38038" y1="4.52321" x2="12.8065" y2="11.8399" gradientUnits="userSpaceOnUse">
<stop stop-color="#D93E1F"/>
<stop offset="1" stop-color="#F0940F"/>
</linearGradient>
</defs>
</svg>
