<svg width="42" height="43" viewBox="0 0 42 43" fill="none" xmlns="http://www.w3.org/2000/svg">
<g clip-path="url(#clip0_2493_21940)">
<path fill-rule="evenodd" clip-rule="evenodd" d="M28.7111 11.5922C28.7111 11.5922 28.3126 11.2765 28.0735 11.2765H25.4832L23.3313 6.97383C23.3313 6.97383 23.0922 6.61856 22.8531 6.53962C22.614 6.46067 22.4147 6.50014 22.2155 6.57909C21.9763 6.69751 21.8169 6.8554 21.7372 7.09225C21.6575 7.28962 21.6974 7.52646 21.7771 7.72383L23.5305 11.2765H17.7522L19.5056 7.72383C19.5056 7.72383 19.6252 7.28962 19.5455 7.09225C19.4658 6.8554 19.3064 6.69751 19.1071 6.57909C18.9079 6.50014 18.6687 6.46067 18.4296 6.53962C18.2304 6.61856 18.0311 6.77646 17.9514 6.97383L15.8394 11.2765H12.6912C12.4521 11.2765 12.213 11.3949 12.0536 11.5922C11.8543 11.7896 11.8145 12.0265 11.8145 12.2633L12.8107 19.2896C12.9701 20.5133 14.0461 21.4607 15.2815 21.4607H25.4832C26.7186 21.4607 27.7945 20.5133 27.9539 19.2896L28.9103 12.2633C28.9502 12.0265 28.9103 11.7896 28.7111 11.5922ZM26.2404 19.0528C26.2005 19.4475 25.8419 19.7238 25.4832 19.7238H15.2815C14.9228 19.7238 14.5641 19.4475 14.5243 19.0528L13.6874 13.0133H27.0772L26.2404 19.0528ZM36.6015 27.5396L33.1743 25.3686H33.1345C33.1345 25.3686 32.9751 25.2502 32.8954 25.2107L30.6239 23.7502C28.472 22.4081 25.8418 22.2107 23.5305 23.2765C22.3748 23.8291 21.0598 24.1054 19.7846 24.1054H18.3101C17.5131 24.1054 16.7958 24.5002 16.3574 25.0923L12.8506 22.5265C10.6986 20.9081 7.66999 20.8291 5.39851 22.2502C5.1594 22.4081 5 22.6844 5 22.9607C5 23.2765 5.11955 23.5528 5.35866 23.6712L17.3537 32.1975C18.4296 32.9475 19.8244 33.2633 21.1395 33.0265L23.929 32.5133C25.2441 32.316 26.5592 32.5923 27.5953 33.3423L27.5953 33.3423C27.9141 33.6186 28.2329 33.8949 28.5118 34.2502L29.9863 36.1449C29.9863 36.1449 30.4247 36.5002 30.7036 36.5002C30.863 36.5002 31.0623 36.4212 31.2217 36.3028C31.5803 36.0265 31.66 35.4739 31.3811 35.1186L29.9066 33.2239C29.7073 32.987 29.4682 32.7502 29.2291 32.5133L32.8555 27.1844L35.6451 28.9607C35.6451 28.9607 35.9639 29.1186 36.1233 29.1186C36.4022 29.1186 36.6812 28.9607 36.8406 28.7239C37.1196 28.3291 37 27.7765 36.6015 27.5396ZM27.8344 31.487C26.5592 30.816 25.0847 30.5396 23.6102 30.816L20.8207 31.3291C19.944 31.487 19.0672 31.3291 18.3499 30.7765L7.59029 23.1581C9.02491 22.7239 10.6189 23.0002 11.8144 23.9081L15.9589 26.9081C16.198 27.9739 17.1544 28.8028 18.3101 28.8028H23.0125C23.4907 28.8028 23.8892 28.4081 23.8892 27.9344C23.8892 27.4607 23.4907 27.066 23.0125 27.066H18.3101C17.9514 27.066 17.6725 26.7896 17.6725 26.4344C17.6725 26.0791 17.9514 25.8028 18.3101 25.8028H19.7846C21.3387 25.8028 22.8531 25.487 24.2478 24.816C26.0012 24.0265 28.0336 24.1449 29.6675 25.1712L31.4209 26.2765L27.8344 31.487ZM17.4334 19.1712C17.9116 19.0922 18.1905 18.658 18.1108 18.1844L17.4334 14.3554C17.3935 14.158 17.274 13.9607 17.0747 13.8028C16.8755 13.6844 16.6364 13.6449 16.3973 13.6844C15.9589 13.7633 15.6401 14.1975 15.7198 14.6712L16.4371 18.5001C16.5168 18.8949 16.8356 19.1712 17.274 19.1712H17.4334ZM21.2192 14.5133V18.3422C21.2192 18.8159 20.8605 19.2107 20.3823 19.2107C19.9041 19.2107 19.5056 18.8159 19.5056 18.3422V14.5133C19.5056 14.0396 19.9041 13.6449 20.3823 13.6449C20.8605 13.6449 21.2192 14.0396 21.2192 14.5133ZM24.3275 18.5001L25.0448 14.6712C25.1245 14.1975 24.8057 13.7633 24.3275 13.6844C24.0884 13.6449 23.8892 13.6844 23.6899 13.8028C23.4907 13.9607 23.3313 14.3554 23.3313 14.3554L22.614 18.1844C22.5343 18.658 22.8531 19.0922 23.3313 19.2107H23.4508C23.8892 19.2107 24.2478 18.8949 24.3275 18.5001Z" fill="url(#paint0_linear_2493_21940)"/>
</g>
<defs>
<linearGradient id="paint0_linear_2493_21940" x1="13.319" y1="14.6188" x2="31.5622" y2="33.2027" gradientUnits="userSpaceOnUse">
<stop stop-color="#D93E1F"/>
<stop offset="1" stop-color="#F0940F"/>
</linearGradient>
<clipPath id="clip0_2493_21940">
<rect width="32" height="30" fill="white" transform="translate(5 6.5)"/>
</clipPath>
</defs>
</svg>
