<svg width="42" height="43" viewBox="0 0 42 43" fill="none" xmlns="http://www.w3.org/2000/svg">
<g clip-path="url(#clip0_2493_17411)">
<path d="M13.929 14.239H13.8193C13.8193 14.239 13.8315 14.239 13.8559 14.239V14.2012C13.8559 14.2012 13.8559 14.239 13.8924 14.239H13.929Z" fill="url(#paint0_linear_2493_17411)"/>
<path d="M35.4884 13.9739C35.4884 13.9739 35.4153 13.7846 35.3423 13.7089L32.1632 8.03003C32.1632 8.03003 32.0901 7.84073 32.017 7.76501C31.8709 7.61358 31.6516 7.5 31.4324 7.5H10.5676C10.5676 7.5 10.2387 7.53786 10.1291 7.65144C10.0195 7.6893 9.94641 7.76501 9.90987 7.87859C9.87333 7.87859 9.83678 7.95431 9.83678 8.03003L6.65773 13.7089C6.65773 13.7089 6.51157 13.8603 6.51157 13.9739C6.14616 14.5796 6 15.2611 6 15.9426C6 17.0405 6.47503 18.1384 7.24239 18.8956V35.6671C7.24239 36.1214 7.6078 36.5 8.04628 36.5H33.9903C34.4287 36.5 34.7576 36.1214 34.7576 35.6671V18.8956C36.0731 17.6841 36.4019 15.6018 35.4884 13.9739ZM11.0426 9.12794H30.9574L33.4056 13.4439H8.5944L11.0426 9.12794ZM27.4494 15.1097C27.5591 15.829 27.3398 16.5862 26.9013 17.154C26.3532 17.9112 25.5128 18.3655 24.5993 18.3655C23.2838 18.3655 22.151 17.4191 21.8222 16.1697C21.8587 15.8668 21.8952 15.6018 21.8952 15.299V15.1097H27.4494ZM20.2875 15.1097V15.3368C20.2875 15.3368 20.2875 15.7533 20.2875 15.9804H20.2509C19.9586 17.3812 18.8258 18.3655 17.4373 18.3655C15.866 18.3655 14.5505 17.0026 14.5505 15.3747C14.5505 15.299 14.5505 15.1854 14.5871 15.1097H20.324H20.2875ZM13.8197 14.2768C13.8197 14.2768 13.8197 14.2768 13.8563 14.2768C13.8563 14.2768 13.8563 14.2641 13.8563 14.2389C13.8563 14.2389 13.8563 14.2768 13.8928 14.2768H13.7832H13.8197ZM13.7101 15.1097H13.637V15.0339C13.637 15.0339 13.7101 15.0718 13.7101 15.1097ZM8.08283 18.6684C8.08283 18.6684 8.04628 18.6684 8.04628 18.6305V18.4791C8.04628 18.4791 8.08283 18.517 8.08283 18.5548V18.6684ZM8.52132 17.9112C7.93666 17.4191 7.57125 16.6997 7.57125 15.9426C7.57125 15.6397 7.6078 15.3747 7.71742 15.1097H12.76L12.2119 16.7755C11.8831 17.7598 10.9695 18.4034 9.94641 18.4034C9.47138 18.4034 8.99635 18.252 8.5944 17.9491C8.55786 17.9491 8.55786 17.9112 8.52132 17.9112ZM23.9781 34.8342H18.0219V28.2089C18.0219 26.5052 19.3739 25.1044 21.0183 25.1044C22.6626 25.1044 23.9781 26.5052 23.9781 28.2089V34.8342ZM33.1864 34.8342H25.5493V28.2089C25.5493 25.5966 23.503 23.4765 21.0183 23.4765C18.5335 23.4765 16.4507 25.5966 16.4507 28.2089V34.8342H8.81364V19.8799C9.17905 19.9935 9.54446 20.0313 9.94641 20.0313C11.5177 20.0313 12.9428 19.0849 13.5639 17.6462C14.2948 19.047 15.7564 19.9935 17.4007 19.9935C18.8624 19.9935 20.1778 19.2742 21.0183 18.1005C21.8222 19.2742 23.1376 19.9935 24.5993 19.9935C26.0609 19.9935 27.3033 19.3499 28.1437 18.1762C28.2533 18.0248 28.363 17.8355 28.4726 17.6841C28.7649 18.3277 29.2034 18.8577 29.7515 19.2742C30.4093 19.8042 31.2132 20.0313 32.0536 20.0313C32.4555 20.0313 32.8209 19.9935 33.1864 19.8799V34.8342ZM33.4787 17.9112C33.4787 17.9112 33.4421 17.9112 33.4421 17.9491C32.6748 18.517 31.5055 18.5548 30.665 17.9491C30.2631 17.6462 29.9708 17.2298 29.7881 16.7755L29.24 15.1097H34.2826C34.6845 16.2454 34.2095 17.3055 33.4787 17.9112Z" fill="url(#paint1_linear_2493_17411)"/>
<path d="M13.6738 15.0342V15.1099H13.7104C13.7104 15.072 13.6738 15.072 13.6738 15.0342Z" fill="url(#paint2_linear_2493_17411)"/>
</g>
<defs>
<linearGradient id="paint0_linear_2493_17411" x1="13.8478" y1="14.2114" x2="13.8626" y2="14.2521" gradientUnits="userSpaceOnUse">
<stop stop-color="#D93E1F"/>
<stop offset="1" stop-color="#F0940F"/>
</linearGradient>
<linearGradient id="paint1_linear_2493_17411" x1="13.8023" y1="15.3505" x2="31.4372" y2="32.7821" gradientUnits="userSpaceOnUse">
<stop stop-color="#D93E1F"/>
<stop offset="1" stop-color="#F0940F"/>
</linearGradient>
<linearGradient id="paint2_linear_2493_17411" x1="13.6833" y1="15.0547" x2="13.7183" y2="15.0708" gradientUnits="userSpaceOnUse">
<stop stop-color="#D93E1F"/>
<stop offset="1" stop-color="#F0940F"/>
</linearGradient>
<clipPath id="clip0_2493_17411">
<rect width="30" height="29" fill="white" transform="translate(6 7.5)"/>
</clipPath>
</defs>
</svg>
