<svg width="32" height="32" viewBox="0 0 32 32" fill="none" xmlns="http://www.w3.org/2000/svg">
<rect width="32" height="32" rx="16" fill="white"/>
<path d="M26 17C26.5523 17 27 16.5523 27 16C27 15.4477 26.5523 15 26 15V17ZM6.29289 15.2929C5.90237 15.6834 5.90237 16.3166 6.29289 16.7071L12.6569 23.0711C13.0474 23.4616 13.6805 23.4616 14.0711 23.0711C14.4616 22.6805 14.4616 22.0474 14.0711 21.6569L8.41421 16L14.0711 10.3431C14.4616 9.95262 14.4616 9.31946 14.0711 8.92893C13.6805 8.53841 13.0474 8.53841 12.6569 8.92893L6.29289 15.2929ZM26 15L7 15V17L26 17V15Z" fill="black"/>
</svg>
