<svg width="66" height="66" viewBox="0 0 66 66" fill="none" xmlns="http://www.w3.org/2000/svg">
<g filter="url(#filter0_d_3963_12064)">
<rect x="4" width="58" height="58" rx="29" fill="white" shape-rendering="crispEdges"/>
<rect x="5" y="1" width="56" height="56" rx="28" stroke="url(#paint0_linear_3963_12064)" stroke-width="2" shape-rendering="crispEdges"/>
<g clip-path="url(#clip0_3963_12064)">
<path d="M51.0001 25.426C51.0001 23.1278 49.5001 21.1783 47.5373 21.1466H47.4894H43.6118L39.7501 13.5706C39.4628 13.0634 38.8405 12.8732 38.2979 13.111C38.0586 13.2695 37.915 13.4755 37.8192 13.7608C37.7235 14.0619 37.7713 14.3314 37.915 14.5691L41.2501 21.1308H24.8618L28.1969 14.585C28.4841 14.0778 28.2926 13.4121 27.766 13.1268C27.2235 12.8732 26.6011 13.1268 26.3618 13.5865L22.4522 21.1625H18.5745C16.5958 21.1625 15.032 23.1278 15.032 25.4418C15.032 27.4706 16.1809 29.1981 17.7607 29.6419L22.516 42.8128C22.9788 44.16 24.0799 45.0317 25.2926 45.0317H41.3139C42.6224 45.0317 43.7075 44.0808 44.1703 42.686L48.3033 29.6419C49.883 29.1981 51.016 27.5023 51.016 25.4418L51.0001 25.426ZM28.9309 41.6082C29.0107 41.7984 28.9628 42.0203 28.8511 42.2105C28.7394 42.4007 28.5479 42.5434 28.3565 42.5909C28.3245 42.5909 28.2447 42.6226 28.133 42.6226C27.7501 42.6226 27.4628 42.369 27.3511 41.9886L25.3724 34.3968C25.2607 33.9848 25.516 33.541 25.9788 33.43C26.2022 33.3508 26.3937 33.3983 26.6171 33.5093C26.7607 33.6202 26.9202 33.8104 26.9522 34.0323L28.9309 41.6241V41.6082ZM40.532 34.3968L38.633 41.9886C38.5533 42.369 38.2182 42.6226 37.8511 42.6226C37.8192 42.6226 37.7394 42.6226 37.6277 42.5909C37.2128 42.48 36.9575 42.0362 37.0692 41.6241L38.9681 34.0323C39.0798 33.5885 39.5266 33.3191 39.9894 33.43C40.1809 33.4617 40.3405 33.6044 40.4522 33.7946C40.5639 33.9848 40.5958 34.2066 40.532 34.3968ZM33.8139 34.0323C33.8139 34.4761 33.8139 41.7984 33.8139 41.7984C33.8139 42.2422 33.4309 42.6226 32.9841 42.6226C32.5373 42.6226 32.2022 42.2422 32.2022 41.7984V34.0323C32.2022 33.5885 32.5373 33.2081 32.9841 33.2081C33.4309 33.2081 33.8139 33.5885 33.8139 34.0323ZM46.0213 30.3235H19.6437C19.2767 30.3235 18.9735 30.0223 18.9735 29.6578V29.42C18.9735 29.0555 19.2767 28.7544 19.6437 28.7544H46.0213C46.3884 28.7544 46.6916 29.0555 46.6916 29.42V29.6578C46.6916 30.0223 46.3884 30.3235 46.0213 30.3235Z" fill="url(#paint1_linear_3963_12064)"/>
</g>
</g>
<defs>
<filter id="filter0_d_3963_12064" x="0" y="0" width="66" height="66" filterUnits="userSpaceOnUse" color-interpolation-filters="sRGB">
<feFlood flood-opacity="0" result="BackgroundImageFix"/>
<feColorMatrix in="SourceAlpha" type="matrix" values="0 0 0 0 0 0 0 0 0 0 0 0 0 0 0 0 0 0 127 0" result="hardAlpha"/>
<feOffset dy="4"/>
<feGaussianBlur stdDeviation="2"/>
<feComposite in2="hardAlpha" operator="out"/>
<feColorMatrix type="matrix" values="0 0 0 0 0 0 0 0 0 0 0 0 0 0 0 0 0 0 0.05 0"/>
<feBlend mode="normal" in2="BackgroundImageFix" result="effect1_dropShadow_3963_12064"/>
<feBlend mode="normal" in="SourceGraphic" in2="effect1_dropShadow_3963_12064" result="shape"/>
</filter>
<linearGradient id="paint0_linear_3963_12064" x1="19.0817" y1="15.701" x2="54.3169" y2="49.3628" gradientUnits="userSpaceOnUse">
<stop stop-color="#D93E1F"/>
<stop offset="1" stop-color="#F0940F"/>
</linearGradient>
<linearGradient id="paint1_linear_3963_12064" x1="24.3889" y1="21.6781" x2="43.8139" y2="42.5316" gradientUnits="userSpaceOnUse">
<stop stop-color="#D93E1F"/>
<stop offset="1" stop-color="#F0940F"/>
</linearGradient>
<clipPath id="clip0_3963_12064">
<rect width="36" height="32" fill="white" transform="translate(15 13)"/>
</clipPath>
</defs>
</svg>
