<svg width="13" height="17" viewBox="0 0 13 17" fill="none" xmlns="http://www.w3.org/2000/svg">
<mask id="path-1-inside-1_2322_35383" fill="white">
<path d="M13 13.1926V13.9545H0V13.1926L1.44444 11.6688V7.09738C1.44444 4.73547 2.91056 2.65547 5.05556 1.985V1.76404C5.05556 1.3599 5.20774 0.972318 5.47862 0.686548C5.74951 0.400778 6.11691 0.240234 6.5 0.240234C6.88309 0.240234 7.25049 0.400778 7.52138 0.686548C7.79226 0.972318 7.94444 1.3599 7.94444 1.76404V1.985C10.0894 2.65547 11.5556 4.73547 11.5556 7.09738V11.6688L13 13.1926ZM7.94444 14.7164C7.94444 15.1206 7.79226 15.5082 7.52138 15.7939C7.25049 16.0797 6.88309 16.2402 6.5 16.2402C6.11691 16.2402 5.74951 16.0797 5.47862 15.7939C5.20774 15.5082 5.05556 15.1206 5.05556 14.7164"/>
</mask>
<path d="M6.5 15L6.35552 15.736L6.5 15.7643L6.64448 15.736L6.5 15ZM7.79996 13.9805L6.35552 14.264L6.64448 15.736L8.08893 15.4524L7.79996 13.9805ZM6.64448 14.264L5.20004 13.9805L4.91107 15.4524L6.35552 15.736L6.64448 14.264ZM13 13.1926H14.5V12.5947L14.0886 12.1607L13 13.1926ZM13 13.9545V15.4545H14.5V13.9545H13ZM0 13.9545H-1.5V15.4545H0V13.9545ZM0 13.1926L-1.08863 12.1607L-1.5 12.5947V13.1926H0ZM1.44444 11.6688L2.53308 12.7007L2.94444 12.2668V11.6688H1.44444ZM5.05556 1.985L5.50307 3.41669L6.55556 3.0877V1.985H5.05556ZM6.5 0.240234V-1.25977V0.240234ZM7.94444 1.985H6.44444V3.0877L7.49693 3.41669L7.94444 1.985ZM11.5556 11.6688H10.0556V12.2668L10.4669 12.7007L11.5556 11.6688ZM11.5 13.1926V13.9545H14.5V13.1926H11.5ZM13 12.4545H0V15.4545H13V12.4545ZM1.5 13.9545V13.1926H-1.5V13.9545H1.5ZM1.08863 14.2245L2.53308 12.7007L0.355814 10.6369L-1.08863 12.1607L1.08863 14.2245ZM2.94444 11.6688V7.09738H-0.0555555V11.6688H2.94444ZM2.94444 7.09738C2.94444 5.34314 4.0292 3.87738 5.50307 3.41669L4.60804 0.553308C1.79191 1.43356 -0.0555555 4.1278 -0.0555555 7.09738H2.94444ZM6.55556 1.985V1.76404H3.55556V1.985H6.55556ZM6.55556 1.76404C6.55556 1.74998 6.55826 1.73797 6.56174 1.72912C6.5652 1.72029 6.56828 1.7174 6.56726 1.71848L4.38999 -0.345384C3.84733 0.227091 3.55556 0.987197 3.55556 1.76404H6.55556ZM6.56726 1.71848C6.56599 1.71982 6.56007 1.72539 6.54785 1.73073C6.5355 1.73613 6.51893 1.74023 6.5 1.74023V-1.25977C5.69241 -1.25977 4.93523 -0.920583 4.38999 -0.345384L6.56726 1.71848ZM6.5 1.74023C6.48107 1.74023 6.4645 1.73613 6.45215 1.73073C6.43993 1.72539 6.43401 1.71982 6.43275 1.71848L8.61001 -0.345384C8.06477 -0.920583 7.30759 -1.25977 6.5 -1.25977V1.74023ZM6.43275 1.71848C6.43172 1.7174 6.4348 1.72029 6.43826 1.72912C6.44174 1.73797 6.44444 1.74998 6.44444 1.76404H9.44444C9.44444 0.987197 9.15267 0.227091 8.61001 -0.345384L6.43275 1.71848ZM6.44444 1.76404V1.985H9.44444V1.76404H6.44444ZM7.49693 3.41669C8.9708 3.87738 10.0556 5.34314 10.0556 7.09738H13.0556C13.0556 4.1278 11.2081 1.43356 8.39196 0.553308L7.49693 3.41669ZM10.0556 7.09738V11.6688H13.0556V7.09738H10.0556ZM10.4669 12.7007L11.9114 14.2245L14.0886 12.1607L12.6442 10.6369L10.4669 12.7007ZM6.44444 14.7164C6.44444 14.7305 6.44174 14.7425 6.43826 14.7513C6.4348 14.7602 6.43172 14.7631 6.43275 14.762L8.61001 16.8259C9.15267 16.2534 9.44444 15.4933 9.44444 14.7164H6.44444ZM6.43275 14.762C6.43401 14.7607 6.43993 14.7551 6.45214 14.7497C6.4645 14.7443 6.48107 14.7402 6.5 14.7402V17.7402C7.30759 17.7402 8.06477 17.4011 8.61001 16.8259L6.43275 14.762ZM6.5 14.7402C6.51893 14.7402 6.5355 14.7443 6.54786 14.7497C6.56007 14.7551 6.56599 14.7607 6.56726 14.762L4.38999 16.8259C4.93523 17.4011 5.69241 17.7402 6.5 17.7402V14.7402ZM6.56726 14.762C6.56828 14.7631 6.5652 14.7602 6.56174 14.7513C6.55826 14.7425 6.55556 14.7305 6.55556 14.7164H3.55556C3.55556 15.4933 3.84733 16.2534 4.38999 16.8259L6.56726 14.762Z" fill="#828282" mask="url(#path-1-inside-1_2322_35383)"/>
</svg>
