<svg width="13" height="17" viewBox="0 0 13 17" fill="none" xmlns="http://www.w3.org/2000/svg">
<path d="M13 13.1926V13.9545H0V13.1926L1.44444 11.6688V7.09738C1.44444 4.73547 2.91056 2.65547 5.05556 1.985V1.76404C5.05556 1.3599 5.20774 0.972318 5.47862 0.686548C5.74951 0.400778 6.11691 0.240234 6.5 0.240234C6.88309 0.240234 7.25049 0.400778 7.52138 0.686548C7.79226 0.972318 7.94444 1.3599 7.94444 1.76404V1.985C10.0894 2.65547 11.5556 4.73547 11.5556 7.09738V11.6688L13 13.1926ZM7.94444 14.7164C7.94444 15.1206 7.79226 15.5082 7.52138 15.7939C7.25049 16.0797 6.88309 16.2402 6.5 16.2402C6.11691 16.2402 5.74951 16.0797 5.47862 15.7939C5.20774 15.5082 5.05556 15.1206 5.05556 14.7164" fill="url(#paint0_linear_2322_35389)"/>
<defs>
<linearGradient id="paint0_linear_2322_35389" x1="3.38038" y1="4.57155" x2="12.8065" y2="11.8883" gradientUnits="userSpaceOnUse">
<stop stop-color="#D93E1F"/>
<stop offset="1" stop-color="#F0940F"/>
</linearGradient>
</defs>
</svg>
