<svg width="197" height="67" viewBox="0 0 197 67" fill="none" xmlns="http://www.w3.org/2000/svg">
<path d="M32.2458 62.8654L32.6324 62.2468H32.7871C33.483 62.8654 34.8748 63.4067 36.344 63.4067C38.1225 63.4067 39.0504 62.9427 39.0504 61.9375C39.0504 59.3858 32.6324 60.5456 32.6324 57.4526C32.6324 56.2927 33.9469 55.2102 36.4987 55.2102C37.8132 55.2102 39.0504 55.4422 40.0556 56.0608L39.669 56.6794H39.5143C38.8184 56.0608 37.8132 55.8288 36.576 55.8288C34.7202 55.8288 34.0243 56.2928 34.0243 57.066C34.0243 59.1538 40.5196 58.3805 40.5196 61.4735C40.5196 63.1747 38.7411 64.0253 36.344 64.0253C34.6429 64.0253 33.251 63.5613 32.1685 62.8654H32.2458Z" fill="url(#paint0_linear_1758_22742)"/>
<path d="M43.5356 61.0096V61.4735C43.5356 62.6334 44.3088 63.484 45.9327 63.484C46.8606 63.484 47.9431 63.1746 48.5617 62.556H48.7164L49.0257 63.02C48.0978 63.7159 47.2472 64.0252 45.9327 64.0252C43.6129 64.0252 42.0664 62.8654 42.0664 60.8549C42.0664 58.8444 43.6902 57.6846 45.778 57.6846C47.8658 57.6846 49.4123 58.8444 49.4123 60.8549V61.0096H43.6129H43.5356ZM43.5356 60.2363V60.391H47.8658V60.2363C47.8658 58.8444 47.0152 58.2258 45.7007 58.2258C44.3862 58.2258 43.5356 58.8444 43.5356 60.2363Z" fill="url(#paint1_linear_1758_22742)"/>
<path d="M56.062 57.7619V58.6898H55.9074C55.9074 58.6898 55.3661 58.5352 54.9795 58.5352C54.1289 58.5352 53.2783 58.9991 52.8144 59.6177V63.8706H51.3452V57.8392H52.8144V58.9991C53.2783 58.4578 54.2836 57.6846 55.5208 57.6846C55.7527 57.6846 55.9074 57.6846 56.062 57.6846V57.7619Z" fill="url(#paint2_linear_1758_22742)"/>
<path d="M63.6398 57.8391L60.5468 63.8705H59.6962L56.5259 57.8391H58.1497L60.5468 62.5559L62.9439 57.8391H63.5625H63.6398Z" fill="url(#paint3_linear_1758_22742)"/>
<path d="M65.0317 56.1382C65.0317 55.6743 65.341 55.365 65.805 55.365C66.2689 55.365 66.5782 55.6743 66.5782 56.1382C66.5782 56.6022 66.2689 56.9115 65.805 56.9115C65.341 56.9115 65.0317 56.6022 65.0317 56.1382ZM65.1091 57.8394H66.5782V63.8707H65.1091V57.8394Z" fill="url(#paint4_linear_1758_22742)"/>
<path d="M75.8573 59.3857V63.8706H74.3881V59.3857C74.3881 58.7671 74.0015 58.3805 73.3829 58.3805C72.6097 58.3805 71.4498 58.9218 70.7538 59.463V63.8706H69.2847V57.8392H70.7538V58.8444C71.4498 58.3032 72.5323 57.6846 73.8469 57.6846C75.1614 57.6846 75.8573 58.2258 75.8573 59.3857Z" fill="url(#paint5_linear_1758_22742)"/>
<path d="M85.5227 58.6899H83.8215C83.8215 58.6899 84.1308 59.3085 84.1308 59.6951C84.1308 61.0869 82.8163 61.7055 81.1152 61.7055C80.5739 61.7055 80.0326 61.7055 79.646 61.5509C79.3367 61.7055 79.182 62.0148 79.182 62.2468C79.182 62.6334 79.3367 62.8654 80.1873 62.8654H83.5122C84.5948 62.8654 85.5227 63.252 85.5227 64.2573C85.5227 65.5718 84.0535 66.1131 81.5791 66.1131C78.8727 66.1131 77.9448 65.5718 77.9448 64.5666C77.9448 64.1799 78.0995 63.8706 78.4088 63.6387C78.1768 63.4067 78.0995 63.1747 78.0995 62.7881C78.0995 62.0922 78.7181 61.6282 79.1047 61.3962C78.4861 61.0869 78.0222 60.5457 78.0222 59.7724C78.0222 58.3806 79.3367 57.762 81.1152 57.762C82.0431 57.762 82.8936 57.9166 83.4349 58.3032L85.4454 57.762H85.6V58.7672L85.5227 58.6899ZM79.9553 64.0253C79.4913 64.0253 79.1047 64.0253 78.7954 63.8706C78.6408 64.0253 78.5634 64.2573 78.5634 64.5666C78.5634 65.2625 79.414 65.5718 81.6564 65.5718C83.7442 65.5718 84.2855 65.1852 84.2855 64.7212C84.2855 64.3346 84.0535 64.1026 82.739 64.1026H79.9553V64.0253ZM82.6617 59.3858C82.6617 58.7672 82.275 58.2259 81.0378 58.2259C79.8006 58.2259 79.414 58.7672 79.414 59.3858V60.0044C79.414 60.623 79.878 61.0869 81.0378 61.0869C82.1977 61.0869 82.6617 60.5457 82.6617 60.0044V59.3858Z" fill="url(#paint6_linear_1758_22742)"/>
<path d="M99.8279 55.4419V63.8703H98.3587V59.7721H93.4872V63.8703H92.0181V55.4419H93.4872V59.1535H98.3587V55.4419H99.8279Z" fill="url(#paint7_linear_1758_22742)"/>
<path d="M108.875 60.0044V63.8706H107.406V63.0974C106.632 63.716 105.859 64.0253 104.854 64.0253C103.076 64.0253 102.07 63.252 102.07 61.9375C102.07 60.7003 103.23 59.8497 105.086 59.8497C106.014 59.8497 106.942 60.0817 107.406 60.391V59.6951C107.406 58.6899 106.787 58.3032 105.705 58.3032C104.777 58.3032 103.849 58.6125 103.153 59.0765H103.076L102.844 58.5352C103.694 58.0713 104.699 57.762 106.014 57.762C107.792 57.762 108.952 58.3806 108.952 60.0817L108.875 60.0044ZM107.406 62.3241V60.855C106.942 60.5457 106.246 60.2364 105.395 60.2364C104.313 60.2364 103.539 60.7003 103.539 61.7055V61.9375C103.539 62.9427 104.235 63.4067 105.086 63.4067C106.014 63.4067 107.019 63.0201 107.406 62.3241Z" fill="url(#paint8_linear_1758_22742)"/>
<path d="M118.541 60.855C118.541 62.8654 117.072 64.0253 115.448 64.0253C114.52 64.0253 113.592 63.6387 113.051 63.0201V65.9584H111.582V57.9166H113.051V58.7672C113.592 58.1486 114.52 57.762 115.448 57.762C117.072 57.762 118.541 58.9218 118.541 60.9323V60.855ZM116.994 60.2364C116.994 58.6899 116.066 58.2259 115.139 58.2259C114.288 58.2259 113.437 58.6899 112.973 59.4631V62.1695C113.515 62.9427 114.288 63.4067 115.139 63.4067C116.066 63.4067 116.994 63.0201 116.994 61.3962V60.159V60.2364Z" fill="url(#paint9_linear_1758_22742)"/>
<path d="M127.588 60.855C127.588 62.8654 126.119 64.0253 124.495 64.0253C123.567 64.0253 122.639 63.6387 122.098 63.0201V65.9584H120.628V57.9166H122.098V58.7672C122.639 58.1486 123.567 57.762 124.495 57.762C126.119 57.762 127.588 58.9218 127.588 60.9323V60.855ZM126.041 60.2364C126.041 58.6899 125.113 58.2259 124.185 58.2259C123.335 58.2259 122.484 58.6899 122.02 59.4631V62.1695C122.562 62.9427 123.335 63.4067 124.185 63.4067C125.113 63.4067 126.041 63.0201 126.041 61.3962V60.159V60.2364Z" fill="url(#paint10_linear_1758_22742)"/>
<path d="M129.521 56.1382C129.521 55.6743 129.83 55.365 130.294 55.365C130.758 55.365 131.067 55.6743 131.067 56.1382C131.067 56.6022 130.758 56.9115 130.294 56.9115C129.83 56.9115 129.521 56.6022 129.521 56.1382ZM129.598 57.8394H131.067V63.8707H129.598V57.8394Z" fill="url(#paint11_linear_1758_22742)"/>
<path d="M140.347 59.3857V63.8706H138.877V59.3857C138.877 58.7671 138.491 58.3805 137.872 58.3805C137.099 58.3805 135.939 58.9218 135.243 59.463V63.8706H133.774V57.8392H135.243V58.8444C135.939 58.3032 137.022 57.6846 138.336 57.6846C139.651 57.6846 140.347 58.2258 140.347 59.3857Z" fill="url(#paint12_linear_1758_22742)"/>
<path d="M143.903 61.0096V61.4735C143.903 62.6334 144.677 63.484 146.3 63.484C147.228 63.484 148.311 63.1746 148.929 62.556H149.084L149.393 63.02C148.465 63.7159 147.615 64.0252 146.3 64.0252C143.981 64.0252 142.434 62.8654 142.434 60.8549C142.434 58.8444 144.058 57.6846 146.146 57.6846C148.233 57.6846 149.78 58.8444 149.78 60.8549V61.0096H143.981H143.903ZM143.903 60.2363V60.391H148.233V60.2363C148.233 58.8444 147.383 58.2258 146.068 58.2258C144.754 58.2258 143.903 58.8444 143.903 60.2363Z" fill="url(#paint13_linear_1758_22742)"/>
<path d="M151.017 63.1746L151.249 62.6334H151.404C152.1 63.0973 153.105 63.484 154.11 63.484C155.347 63.484 155.889 63.0973 155.889 62.4787C155.889 60.8549 151.249 61.7828 151.249 59.3857C151.249 58.2258 152.564 57.6846 154.11 57.6846C155.038 57.6846 155.966 57.8392 156.662 58.3032L156.43 58.8444H156.275C155.811 58.4578 154.884 58.2258 154.033 58.2258C152.873 58.2258 152.409 58.5351 152.409 58.9991C152.409 60.3136 157.126 59.695 157.126 62.0148C157.126 63.4839 155.657 64.0252 154.033 64.0252C152.873 64.0252 151.713 63.7159 150.94 63.1746H151.017Z" fill="url(#paint14_linear_1758_22742)"/>
<path d="M158.595 63.1746L158.827 62.6334H158.982C159.677 63.0973 160.683 63.484 161.688 63.484C162.925 63.484 163.466 63.0973 163.466 62.4787C163.466 60.8549 158.827 61.7828 158.827 59.3857C158.827 58.2258 160.141 57.6846 161.688 57.6846C162.616 57.6846 163.544 57.8392 164.24 58.3032L164.008 58.8444H163.853C163.389 58.4578 162.461 58.2258 161.611 58.2258C160.451 58.2258 159.987 58.5351 159.987 58.9991C159.987 60.3136 164.704 59.695 164.704 62.0148C164.704 63.4839 163.234 64.0252 161.611 64.0252C160.451 64.0252 159.291 63.7159 158.518 63.1746H158.595Z" fill="url(#paint15_linear_1758_22742)"/>
<path d="M0.774414 40.5985L2.77588 37.433H3.77662C7.54862 40.9151 14.6307 43.685 22.4057 43.685C31.4893 43.685 36.6469 41.3108 36.6469 35.771C36.6469 22.2382 3.0838 28.2528 3.0838 11.8709C3.0838 5.77718 10.012 0 23.2525 0C30.1806 0 36.7239 1.34537 41.6506 4.66923L39.7261 7.8348H38.7253C35.1843 4.66922 29.7187 3.08644 23.2525 3.08644C13.553 3.08644 10.0889 5.69804 10.0889 9.73415C10.0889 21.0511 44.0369 16.6193 44.0369 33.2386C44.0369 42.3396 34.6454 46.7714 22.4827 46.7714C13.63 46.7714 6.39392 44.3972 0.851392 40.5985H0.774414Z" fill="url(#paint16_linear_1758_22742)"/>
<path d="M52.0317 25.8137C52.0317 12.4391 62.424 5 73.9709 5C85.5178 5 95.9101 12.4391 95.9101 25.8137C95.9101 39.1882 85.5948 46.6274 73.9709 46.6274C62.347 46.6274 52.0317 39.1091 52.0317 25.8137ZM87.9042 30.1663V21.461C87.9042 11.4894 82.5156 7.76988 74.0479 7.76988C65.5801 7.76988 60.1146 11.4103 60.1146 21.461V30.1663C60.1146 40.1379 65.5801 43.8575 74.0479 43.8575C82.5156 43.8575 87.9042 40.217 87.9042 30.1663Z" fill="url(#paint17_linear_1758_22742)"/>
<path d="M101.079 25.8139C101.079 12.4394 111.471 5.00024 123.018 5.00024C134.565 5.00024 144.957 12.4394 144.957 25.8139C144.957 39.1885 134.642 46.6276 123.018 46.6276C111.394 46.6276 101.079 39.1093 101.079 25.8139ZM136.874 30.1666V21.4613C136.874 11.4897 131.486 7.77013 123.018 7.77013C114.55 7.77013 109.084 11.4105 109.084 21.4613V30.1666C109.084 40.1381 114.55 43.8577 123.018 43.8577C131.486 43.8577 136.874 40.2173 136.874 30.1666Z" fill="url(#paint18_linear_1758_22742)"/>
<path d="M171.207 24.9288L162.509 32.6053V46.059H155.812V5.8562H162.509V29.0441L188.682 5.8562H192.839L176.134 20.6553L196.226 46.1382H187.373L171.207 25.008V24.9288Z" fill="url(#paint19_linear_1758_22742)"/>
<defs>
<linearGradient id="paint0_linear_1758_22742" x1="34.34" y1="57.5965" x2="39.6742" y2="62.4243" gradientUnits="userSpaceOnUse">
<stop stop-color="#D93E1F"/>
<stop offset="1" stop-color="#F0940F"/>
</linearGradient>
<linearGradient id="paint1_linear_1758_22742" x1="43.9765" y1="59.401" x2="47.8128" y2="63.647" gradientUnits="userSpaceOnUse">
<stop stop-color="#D93E1F"/>
<stop offset="1" stop-color="#F0940F"/>
</linearGradient>
<linearGradient id="paint2_linear_1758_22742" x1="52.5717" y1="59.3592" x2="56.1524" y2="61.9675" gradientUnits="userSpaceOnUse">
<stop stop-color="#D93E1F"/>
<stop offset="1" stop-color="#F0940F"/>
</linearGradient>
<linearGradient id="paint3_linear_1758_22742" x1="58.3757" y1="59.4718" x2="62.0176" y2="63.5756" gradientUnits="userSpaceOnUse">
<stop stop-color="#D93E1F"/>
<stop offset="1" stop-color="#F0940F"/>
</linearGradient>
<linearGradient id="paint4_linear_1758_22742" x1="65.4339" y1="57.6676" x2="67.1782" y2="57.9706" gradientUnits="userSpaceOnUse">
<stop stop-color="#D93E1F"/>
<stop offset="1" stop-color="#F0940F"/>
</linearGradient>
<linearGradient id="paint5_linear_1758_22742" x1="70.9937" y1="59.3592" x2="74.7553" y2="63.1773" gradientUnits="userSpaceOnUse">
<stop stop-color="#D93E1F"/>
<stop offset="1" stop-color="#F0940F"/>
</linearGradient>
<linearGradient id="paint6_linear_1758_22742" x1="79.9354" y1="60.0227" x2="84.9696" y2="64.4313" gradientUnits="userSpaceOnUse">
<stop stop-color="#D93E1F"/>
<stop offset="1" stop-color="#F0940F"/>
</linearGradient>
<linearGradient id="paint7_linear_1758_22742" x1="94.0488" y1="57.7235" x2="99.1366" y2="62.2274" gradientUnits="userSpaceOnUse">
<stop stop-color="#D93E1F"/>
<stop offset="1" stop-color="#F0940F"/>
</linearGradient>
<linearGradient id="paint8_linear_1758_22742" x1="103.86" y1="59.4575" x2="107.664" y2="63.4511" gradientUnits="userSpaceOnUse">
<stop stop-color="#D93E1F"/>
<stop offset="1" stop-color="#F0940F"/>
</linearGradient>
<linearGradient id="paint9_linear_1758_22742" x1="113.391" y1="59.9808" x2="118.268" y2="63.937" gradientUnits="userSpaceOnUse">
<stop stop-color="#D93E1F"/>
<stop offset="1" stop-color="#F0940F"/>
</linearGradient>
<linearGradient id="paint10_linear_1758_22742" x1="122.438" y1="59.9808" x2="127.315" y2="63.937" gradientUnits="userSpaceOnUse">
<stop stop-color="#D93E1F"/>
<stop offset="1" stop-color="#F0940F"/>
</linearGradient>
<linearGradient id="paint11_linear_1758_22742" x1="129.923" y1="57.6676" x2="131.667" y2="57.9705" gradientUnits="userSpaceOnUse">
<stop stop-color="#D93E1F"/>
<stop offset="1" stop-color="#F0940F"/>
</linearGradient>
<linearGradient id="paint12_linear_1758_22742" x1="135.483" y1="59.3592" x2="139.245" y2="63.1773" gradientUnits="userSpaceOnUse">
<stop stop-color="#D93E1F"/>
<stop offset="1" stop-color="#F0940F"/>
</linearGradient>
<linearGradient id="paint13_linear_1758_22742" x1="144.344" y1="59.401" x2="148.18" y2="63.647" gradientUnits="userSpaceOnUse">
<stop stop-color="#D93E1F"/>
<stop offset="1" stop-color="#F0940F"/>
</linearGradient>
<linearGradient id="paint14_linear_1758_22742" x1="152.548" y1="59.401" x2="156.395" y2="62.9861" gradientUnits="userSpaceOnUse">
<stop stop-color="#D93E1F"/>
<stop offset="1" stop-color="#F0940F"/>
</linearGradient>
<linearGradient id="paint15_linear_1758_22742" x1="160.126" y1="59.401" x2="163.973" y2="62.9861" gradientUnits="userSpaceOnUse">
<stop stop-color="#D93E1F"/>
<stop offset="1" stop-color="#F0940F"/>
</linearGradient>
<linearGradient id="paint16_linear_1758_22742" x1="22.4057" y1="46.7714" x2="22.4057" y2="0" gradientUnits="userSpaceOnUse">
<stop stop-color="#F0940F"/>
<stop offset="1" stop-color="#D93E1F"/>
</linearGradient>
<linearGradient id="paint17_linear_1758_22742" x1="73.9709" y1="46.6274" x2="73.9709" y2="5" gradientUnits="userSpaceOnUse">
<stop stop-color="#F0940F"/>
<stop offset="1" stop-color="#D93E1F"/>
</linearGradient>
<linearGradient id="paint18_linear_1758_22742" x1="123.018" y1="46.6276" x2="123.018" y2="5.00024" gradientUnits="userSpaceOnUse">
<stop stop-color="#F0940F"/>
<stop offset="1" stop-color="#D93E1F"/>
</linearGradient>
<linearGradient id="paint19_linear_1758_22742" x1="176.019" y1="46.1382" x2="176.019" y2="5.8562" gradientUnits="userSpaceOnUse">
<stop stop-color="#F0940F"/>
<stop offset="1" stop-color="#D93E1F"/>
</linearGradient>
</defs>
</svg>
