<svg width="197" height="67" viewBox="0 0 197 67" fill="none" xmlns="http://www.w3.org/2000/svg">
<path d="M31.4714 62.8651L31.858 62.2465H32.0127C32.7086 62.8651 34.1004 63.4064 35.5696 63.4064C37.3481 63.4064 38.276 62.9425 38.276 61.9372C38.276 59.3855 31.858 60.5454 31.858 57.4524C31.858 56.2925 33.1725 55.21 35.7243 55.21C37.0388 55.21 38.276 55.4419 39.2812 56.0605L38.8946 56.6791H38.7399C38.044 56.0605 37.0388 55.8286 35.8016 55.8286C33.9458 55.8286 33.2499 56.2925 33.2499 57.0658C33.2499 59.1535 39.7452 58.3803 39.7452 61.4733C39.7452 63.1744 37.9667 64.025 35.5696 64.025C33.8684 64.025 32.4766 63.5611 31.394 62.8651H31.4714Z" fill="white"/>
<path d="M42.7612 61.0096V61.4735C42.7612 62.6334 43.5344 63.484 45.1582 63.484C46.0861 63.484 47.1687 63.1746 47.7873 62.556H47.9419L48.2512 63.02C47.3233 63.7159 46.4728 64.0252 45.1582 64.0252C42.8385 64.0252 41.292 62.8654 41.292 60.8549C41.292 58.8444 42.9158 57.6846 45.0036 57.6846C47.0914 57.6846 48.6379 58.8444 48.6379 60.8549V61.0096H42.8385H42.7612ZM42.7612 60.2363V60.391H47.0914V60.2363C47.0914 58.8444 46.2408 58.2258 44.9263 58.2258C43.6117 58.2258 42.7612 58.8444 42.7612 60.2363Z" fill="white"/>
<path d="M55.2876 57.7619V58.6898H55.133C55.133 58.6898 54.5917 58.5352 54.2051 58.5352C53.3545 58.5352 52.5039 58.9991 52.04 59.6177V63.8706H50.5708V57.8392H52.04V58.9991C52.5039 58.4578 53.5092 57.6846 54.7464 57.6846C54.9783 57.6846 55.133 57.6846 55.2876 57.6846V57.7619Z" fill="white"/>
<path d="M62.8654 57.8389L59.7724 63.8702H58.9218L55.7515 57.8389H57.3753L59.7724 62.5557L62.1694 57.8389H62.788H62.8654Z" fill="white"/>
<path d="M64.2573 56.138C64.2573 55.674 64.5666 55.3647 65.0306 55.3647C65.4945 55.3647 65.8038 55.674 65.8038 56.138C65.8038 56.6019 65.4945 56.9112 65.0306 56.9112C64.5666 56.9112 64.2573 56.6019 64.2573 56.138ZM64.3347 57.8391H65.8038V63.8705H64.3347V57.8391Z" fill="white"/>
<path d="M75.0829 59.3857V63.8706H73.6137V59.3857C73.6137 58.7671 73.2271 58.3805 72.6085 58.3805C71.8352 58.3805 70.6754 58.9218 69.9794 59.463V63.8706H68.5103V57.8392H69.9794V58.8444C70.6754 58.3032 71.7579 57.6846 73.0724 57.6846C74.387 57.6846 75.0829 58.2258 75.0829 59.3857Z" fill="white"/>
<path d="M84.7483 58.6896H83.0471C83.0471 58.6896 83.3564 59.3082 83.3564 59.6948C83.3564 61.0867 82.0419 61.7053 80.3407 61.7053C79.7995 61.7053 79.2582 61.7053 78.8716 61.5506C78.5623 61.7053 78.4076 62.0146 78.4076 62.2466C78.4076 62.6332 78.5623 62.8652 79.4128 62.8652H82.7378C83.8204 62.8652 84.7483 63.2518 84.7483 64.257C84.7483 65.5716 83.2791 66.1128 80.8047 66.1128C78.0983 66.1128 77.1704 65.5715 77.1704 64.5663C77.1704 64.1797 77.3251 63.8704 77.6344 63.6384C77.4024 63.4065 77.3251 63.1745 77.3251 62.7878C77.3251 62.0919 77.9437 61.628 78.3303 61.396C77.7117 61.0867 77.2477 60.5454 77.2477 59.7722C77.2477 58.3803 78.5623 57.7617 80.3407 57.7617C81.2686 57.7617 82.1192 57.9164 82.6605 58.303L84.671 57.7617H84.8256V58.7669L84.7483 58.6896ZM79.1809 64.025C78.7169 64.025 78.3303 64.025 78.021 63.8704C77.8663 64.025 77.789 64.257 77.789 64.5663C77.789 65.2622 78.6396 65.5716 80.882 65.5716C82.9698 65.5716 83.5111 65.1849 83.5111 64.721C83.5111 64.3343 83.2791 64.1024 81.9646 64.1024H79.1809V64.025ZM81.8872 59.3855C81.8872 58.7669 81.5006 58.2257 80.2634 58.2257C79.0262 58.2257 78.6396 58.7669 78.6396 59.3855V60.0041C78.6396 60.6227 79.1035 61.0867 80.2634 61.0867C81.4233 61.0867 81.8872 60.5454 81.8872 60.0041V59.3855Z" fill="white"/>
<path d="M99.0535 55.4419V63.8703H97.5843V59.7721H92.7128V63.8703H91.2437V55.4419H92.7128V59.1535H97.5843V55.4419H99.0535Z" fill="white"/>
<path d="M108.101 60.0041V63.8704H106.631V63.0972C105.858 63.7158 105.085 64.0251 104.08 64.0251C102.301 64.0251 101.296 63.2518 101.296 61.9373C101.296 60.7001 102.456 59.8495 104.312 59.8495C105.239 59.8495 106.167 60.0815 106.631 60.3908V59.6948C106.631 58.6896 106.013 58.303 104.93 58.303C104.002 58.303 103.074 58.6123 102.378 59.0762H102.301L102.069 58.535C102.92 58.071 103.925 57.7617 105.239 57.7617C107.018 57.7617 108.178 58.3803 108.178 60.0815L108.101 60.0041ZM106.631 62.3239V60.8547C106.167 60.5454 105.471 60.2361 104.621 60.2361C103.538 60.2361 102.765 60.7001 102.765 61.7053V61.9373C102.765 62.9425 103.461 63.4064 104.312 63.4064C105.239 63.4064 106.245 63.0198 106.631 62.3239Z" fill="white"/>
<path d="M117.766 60.8547C117.766 62.8652 116.297 64.025 114.673 64.025C113.745 64.025 112.818 63.6384 112.276 63.0198V65.9582H110.807V57.9164H112.276V58.7669C112.818 58.1483 113.745 57.7617 114.673 57.7617C116.297 57.7617 117.766 58.9216 117.766 60.932V60.8547ZM116.22 60.2361C116.22 58.6896 115.292 58.2257 114.364 58.2257C113.514 58.2257 112.663 58.6896 112.199 59.4629V62.1692C112.74 62.9425 113.514 63.4064 114.364 63.4064C115.292 63.4064 116.22 63.0198 116.22 61.396V60.1588V60.2361Z" fill="white"/>
<path d="M126.813 60.8547C126.813 62.8652 125.344 64.025 123.72 64.025C122.792 64.025 121.864 63.6384 121.323 63.0198V65.9582H119.854V57.9164H121.323V58.7669C121.864 58.1483 122.792 57.7617 123.72 57.7617C125.344 57.7617 126.813 58.9216 126.813 60.932V60.8547ZM125.267 60.2361C125.267 58.6896 124.339 58.2257 123.411 58.2257C122.56 58.2257 121.71 58.6896 121.246 59.4629V62.1692C121.787 62.9425 122.56 63.4064 123.411 63.4064C124.339 63.4064 125.267 63.0198 125.267 61.396V60.1588V60.2361Z" fill="white"/>
<path d="M128.747 56.138C128.747 55.674 129.056 55.3647 129.52 55.3647C129.984 55.3647 130.293 55.674 130.293 56.138C130.293 56.6019 129.984 56.9112 129.52 56.9112C129.056 56.9112 128.747 56.6019 128.747 56.138ZM128.824 57.8391H130.293V63.8705H128.824V57.8391Z" fill="white"/>
<path d="M139.572 59.3857V63.8706H138.103V59.3857C138.103 58.7671 137.716 58.3805 137.098 58.3805C136.324 58.3805 135.165 58.9218 134.469 59.463V63.8706H133V57.8392H134.469V58.8444C135.165 58.3032 136.247 57.6846 137.562 57.6846C138.876 57.6846 139.572 58.2258 139.572 59.3857Z" fill="white"/>
<path d="M143.129 61.0096V61.4735C143.129 62.6334 143.902 63.484 145.526 63.484C146.454 63.484 147.536 63.1746 148.155 62.556H148.31L148.619 63.02C147.691 63.7159 146.84 64.0252 145.526 64.0252C143.206 64.0252 141.66 62.8654 141.66 60.8549C141.66 58.8444 143.283 57.6846 145.371 57.6846C147.459 57.6846 149.006 58.8444 149.006 60.8549V61.0096H143.206H143.129ZM143.129 60.2363V60.391H147.459V60.2363C147.459 58.8444 146.608 58.2258 145.294 58.2258C143.979 58.2258 143.129 58.8444 143.129 60.2363Z" fill="white"/>
<path d="M150.243 63.1746L150.475 62.6334H150.629C151.325 63.0973 152.331 63.484 153.336 63.484C154.573 63.484 155.114 63.0973 155.114 62.4787C155.114 60.8549 150.475 61.7828 150.475 59.3857C150.475 58.2258 151.789 57.6846 153.336 57.6846C154.264 57.6846 155.192 57.8392 155.888 58.3032L155.656 58.8444H155.501C155.037 58.4578 154.109 58.2258 153.259 58.2258C152.099 58.2258 151.635 58.5351 151.635 58.9991C151.635 60.3136 156.352 59.695 156.352 62.0148C156.352 63.4839 154.882 64.0252 153.259 64.0252C152.099 64.0252 150.939 63.7159 150.166 63.1746H150.243Z" fill="white"/>
<path d="M157.82 63.1746L158.052 62.6334H158.207C158.903 63.0973 159.908 63.484 160.913 63.484C162.151 63.484 162.692 63.0973 162.692 62.4787C162.692 60.8549 158.052 61.7828 158.052 59.3857C158.052 58.2258 159.367 57.6846 160.913 57.6846C161.841 57.6846 162.769 57.8392 163.465 58.3032L163.233 58.8444H163.079C162.615 58.4578 161.687 58.2258 160.836 58.2258C159.676 58.2258 159.212 58.5351 159.212 58.9991C159.212 60.3136 163.929 59.695 163.929 62.0148C163.929 63.4839 162.46 64.0252 160.836 64.0252C159.676 64.0252 158.516 63.7159 157.743 63.1746H157.82Z" fill="white"/>
<path d="M0 39.6678L2.01045 36.5748H3.01568C6.80461 39.9771 13.9185 42.6835 21.7284 42.6835C30.8527 42.6835 36.0335 40.3637 36.0335 34.951C36.0335 21.7284 2.31975 27.6051 2.31975 11.5988C2.31975 5.64473 9.27902 0 22.5789 0C29.5382 0 36.1108 1.31453 41.0596 4.56218L39.1265 7.65519H38.1213C34.5643 4.56218 29.0742 3.01568 22.5789 3.01568C12.836 3.01568 9.35634 5.56741 9.35634 9.51099C9.35634 20.5685 43.4567 16.2383 43.4567 32.4766C43.4567 41.3689 34.0231 45.6992 21.8057 45.6992C12.9133 45.6992 5.64473 43.3794 0.0773232 39.6678H0Z" fill="white"/>
<path d="M49.3335 25.3624C49.3335 12.2944 59.7724 5.02588 71.3712 5.02588C82.9699 5.02588 93.4088 12.2944 93.4088 25.3624C93.4088 38.4303 83.0472 45.6989 71.3712 45.6989C59.6951 45.6989 49.3335 38.353 49.3335 25.3624ZM85.367 29.6153V21.1095C85.367 11.3665 79.9542 7.73226 71.4485 7.73226C62.9427 7.73226 57.4526 11.2892 57.4526 21.1095V29.6153C57.4526 39.3582 62.9427 42.9925 71.4485 42.9925C79.9542 42.9925 85.367 39.4356 85.367 29.6153Z" fill="white"/>
<path d="M100.754 25.3624C100.754 12.2944 111.193 5.02588 122.792 5.02588C134.391 5.02588 144.83 12.2944 144.83 25.3624C144.83 38.4303 134.468 45.6989 122.792 45.6989C111.116 45.6989 100.754 38.353 100.754 25.3624ZM136.711 29.6153V21.1095C136.711 11.3665 131.298 7.73226 122.792 7.73226C114.286 7.73226 108.796 11.2892 108.796 21.1095V29.6153C108.796 39.3582 114.286 42.9925 122.792 42.9925C131.298 42.9925 136.711 39.4356 136.711 29.6153Z" fill="white"/>
<path d="M171.198 24.357L162.46 31.8576V45.0029H155.733V5.72168H162.46V28.3779L188.751 5.72168H192.926L176.147 20.1815L196.329 45.0802H187.436L171.198 24.4344V24.357Z" fill="white"/>
</svg>
