<svg width="25" height="24" viewBox="0 0 25 24" fill="none" xmlns="http://www.w3.org/2000/svg">
<path d="M17.0187 12.4551C17.0115 11.1442 17.6045 10.1547 18.8047 9.42599C18.1332 8.4651 17.1187 7.93643 15.7792 7.83284C14.5111 7.73282 13.1251 8.57226 12.6179 8.57226C12.0821 8.57226 10.8533 7.86856 9.88881 7.86856C7.89559 7.90071 5.77734 9.45814 5.77734 12.6266C5.77734 13.5625 5.9488 14.5293 6.29172 15.5271C6.74895 16.838 8.39925 20.0529 10.121 19.9993C11.0212 19.9779 11.657 19.3599 12.8286 19.3599C13.9645 19.3599 14.5539 19.9993 15.5577 19.9993C17.2937 19.9743 18.7869 17.0524 19.2226 15.7379C16.8937 14.6412 17.0187 12.523 17.0187 12.4551ZM14.9969 6.58976C15.9721 5.4324 15.8828 4.37864 15.8542 4C14.9933 4.05001 13.9967 4.58582 13.4287 5.24666C12.8036 5.95393 12.4357 6.82909 12.5143 7.81498C13.4466 7.88642 14.2968 7.40776 14.9969 6.58976Z" fill="black"/>
</svg>
