<svg width="24" height="24" viewBox="0 0 24 24" fill="none" xmlns="http://www.w3.org/2000/svg">
<path d="M12.1601 7.09333C13.6623 7.09333 14.6756 7.74222 15.2534 8.28444L17.5112 6.08C16.1245 4.79111 14.3201 4 12.1601 4C9.03118 4 6.32895 5.79556 5.0134 8.40889L7.60006 10.4178C8.24895 8.48889 10.0445 7.09333 12.1601 7.09333Z" fill="#EA4335"/>
<path d="M19.84 12.1775C19.84 11.5198 19.7866 11.0398 19.6711 10.542H12.16V13.5109H16.5689C16.48 14.2487 16 15.3598 14.9333 16.1064L17.4578 18.062C18.9689 16.6664 19.84 14.6131 19.84 12.1775Z" fill="#4285F4"/>
<path d="M7.60892 13.582C7.44003 13.0842 7.34226 12.5509 7.34226 11.9998C7.34226 11.4487 7.44003 10.9154 7.60003 10.4176L5.01337 8.40869C4.47115 9.49314 4.16003 10.7109 4.16003 11.9998C4.16003 13.2887 4.47115 14.5065 5.01337 15.5909L7.60892 13.582Z" fill="#FBBC05"/>
<path d="M12.1602 19.9998C14.3202 19.9998 16.1335 19.2887 17.458 18.062L14.9335 16.1065C14.258 16.5776 13.3513 16.9065 12.1602 16.9065C10.0446 16.9065 8.24907 15.5109 7.60907 13.582L5.0224 15.5909C6.33796 18.2043 9.03129 19.9998 12.1602 19.9998Z" fill="#34A853"/>
</svg>
