<svg width="10" height="11" viewBox="0 0 10 11" fill="none" xmlns="http://www.w3.org/2000/svg">
<path d="M4.98047 10.7207C4.29362 10.7207 3.64909 10.5905 3.04688 10.3301C2.44466 10.0729 1.91569 9.71647 1.45996 9.26074C1.00423 8.80501 0.646159 8.27604 0.385742 7.67383C0.128581 7.07161 0 6.42708 0 5.74023C0 5.05339 0.128581 4.40885 0.385742 3.80664C0.646159 3.20443 1.00423 2.67546 1.45996 2.21973C1.91569 1.76074 2.44466 1.40267 3.04688 1.14551C3.64909 0.888346 4.29362 0.759766 4.98047 0.759766C5.66732 0.759766 6.31185 0.888346 6.91406 1.14551C7.51628 1.40267 8.04525 1.76074 8.50098 2.21973C8.95671 2.67546 9.31315 3.20443 9.57031 3.80664C9.83073 4.40885 9.96094 5.05339 9.96094 5.74023C9.96094 6.42708 9.83073 7.07161 9.57031 7.67383C9.31315 8.27604 8.95671 8.80501 8.50098 9.26074C8.04525 9.71647 7.51628 10.0729 6.91406 10.3301C6.31185 10.5905 5.66732 10.7207 4.98047 10.7207ZM4.98047 9.89062C5.55339 9.89062 6.09049 9.7832 6.5918 9.56836C7.0931 9.35352 7.53418 9.05566 7.91504 8.6748C8.2959 8.29395 8.59375 7.85286 8.80859 7.35156C9.02344 6.85026 9.13086 6.31315 9.13086 5.74023C9.13086 5.16732 9.02344 4.63021 8.80859 4.12891C8.59375 3.62435 8.2959 3.18327 7.91504 2.80566C7.53418 2.4248 7.0931 2.12695 6.5918 1.91211C6.09049 1.69727 5.55339 1.58984 4.98047 1.58984C4.40755 1.58984 3.87044 1.69727 3.36914 1.91211C2.86784 2.12695 2.42676 2.4248 2.0459 2.80566C1.66504 3.18327 1.36719 3.62435 1.15234 4.12891C0.9375 4.63021 0.830078 5.16732 0.830078 5.74023C0.830078 6.31315 0.9375 6.85026 1.15234 7.35156C1.36719 7.85286 1.66504 8.29395 2.0459 8.6748C2.42676 9.05566 2.86784 9.35352 3.36914 9.56836C3.87044 9.7832 4.40755 9.89062 4.98047 9.89062ZM4.12598 8.46973C4.02506 8.46973 3.94043 8.43717 3.87207 8.37207C3.80371 8.30697 3.76953 8.22559 3.76953 8.12793C3.76953 8.03027 3.80371 7.94889 3.87207 7.88379C3.94043 7.81869 4.02506 7.78613 4.12598 7.78613H4.73145V5.54492H4.20898C4.10807 5.54492 4.02344 5.51237 3.95508 5.44727C3.88672 5.38216 3.85254 5.30078 3.85254 5.20312C3.85254 5.10547 3.88672 5.02409 3.95508 4.95898C4.02344 4.89388 4.10807 4.86133 4.20898 4.86133H5.12695C5.25065 4.86133 5.34505 4.90202 5.41016 4.9834C5.47526 5.06152 5.50781 5.16732 5.50781 5.30078V7.78613H6.11328C6.21419 7.78613 6.29883 7.81869 6.36719 7.88379C6.43555 7.94889 6.46973 8.03027 6.46973 8.12793C6.46973 8.22559 6.43555 8.30697 6.36719 8.37207C6.29883 8.43717 6.21419 8.46973 6.11328 8.46973H4.12598ZM4.93652 4.0459C4.76074 4.0459 4.611 3.98405 4.4873 3.86035C4.36361 3.73665 4.30176 3.58691 4.30176 3.41113C4.30176 3.2321 4.36361 3.08073 4.4873 2.95703C4.611 2.83333 4.76074 2.77148 4.93652 2.77148C5.11556 2.77148 5.2653 2.83333 5.38574 2.95703C5.50944 3.08073 5.57129 3.2321 5.57129 3.41113C5.57129 3.58691 5.50944 3.73665 5.38574 3.86035C5.2653 3.98405 5.11556 4.0459 4.93652 4.0459Z" fill="#C8C8C8"/>
</svg>
