<svg width="28" height="39" viewBox="0 0 28 39" fill="none" xmlns="http://www.w3.org/2000/svg">
<path d="M3.46691 21.2953L2.85821 21.9717L4.64901 23.0817C4.92248 22.6568 4.73723 22.2145 4.67548 21.7809C4.67548 21.7202 4.64901 21.5728 4.72841 21.5641C4.74605 21.7115 4.97541 22.0497 5.00188 22.2925C5.01952 22.518 4.87838 23.1164 4.89602 23.1597C4.93131 23.3071 5.56647 23.5326 5.58411 23.5673C5.67233 23.706 4.50787 26.2208 4.32261 26.5417C3.75802 26.4376 0.0529192 24.2177 -1.08453e-05 23.9662C-0.0352976 23.8101 1.89665 21.4687 2.06426 21.4514C2.1613 21.4427 2.51417 21.7896 2.61121 21.7722C2.66414 21.7722 3.4228 21.1132 3.46691 21.0698C3.60805 21.1132 3.46691 21.2433 3.46691 21.2866V21.2953Z" fill="#DA355A"/>
<path d="M6.431 16.1011C6.21046 16.1445 5.93699 16.6041 5.8223 16.7775C5.21361 17.7834 4.61373 19.3097 4.61373 20.4804L3.84625 20.3156C3.91682 19.83 3.79332 19.1796 3.84625 18.668C4.04033 16.7602 4.90485 15.0518 6.1046 13.5603C6.19282 14.4015 6.34278 15.26 6.431 16.1011Z" fill="#1E5290"/>
<path d="M26.121 19.4051L25.9005 20.2116C24.1273 19.6132 22.5217 19.3357 21.2779 17.7835C21.3749 16.9597 21.4014 16.1098 21.6043 15.2947C21.9042 16.4654 24.9036 19.1796 26.1122 19.4051H26.121Z" fill="#1E5290"/>
<path d="M25.9005 20.2115L26.121 19.405C26.3504 19.4484 27.2413 19.3357 27.356 19.4571C27.1002 19.8386 28.0882 19.882 27.9912 20.3503C27.9824 20.3936 27.6471 20.6798 27.5766 20.7058C26.9855 20.9139 26.4298 20.4023 25.9005 20.2202V20.2115Z" fill="#E99B83"/>
<path d="M4.62256 20.4803C4.62256 20.6017 4.71078 21.3301 4.72842 21.5643C4.64902 21.5643 4.66667 21.7204 4.67549 21.7811C4.32262 22.1366 4.24323 21.8331 3.9874 21.7811C3.85507 21.7551 3.50221 22.0846 3.46692 21.2955C3.46692 21.2521 3.60807 21.122 3.46692 21.0787C3.62571 20.9052 3.81979 20.5497 3.85507 20.3242L4.62256 20.489V20.4803Z" fill="#E99B83"/>
<path d="M22.5482 5.2959L22.0012 9.89192H13.9735C12.3062 9.89192 7.19847 9.58841 5.9458 9.89192C5.68115 8.47843 5.61939 7.03892 5.45178 5.62542L22.557 5.30457L22.5482 5.2959Z" fill="#EFBE46"/>
<path d="M15.1204 4.91455C17.5375 4.91455 20.1575 5.04463 22.5394 4.91455C22.5394 5.16603 22.5129 5.42618 22.4865 5.66899C19.6459 5.5736 16.8053 5.61696 13.9647 5.61696H5.44298C5.44298 5.61696 5.40769 5.64298 5.39005 5.5129C6.38689 5.41751 13.5413 5.80774 13.8853 5.56493C13.9471 5.52157 13.8765 5.04463 13.9647 4.91455C14.3529 4.91455 14.7322 4.91455 15.1204 4.91455Z" fill="#EBBA95"/>
<path d="M5.55766 4.91455C8.31885 5.00994 11.2035 4.91455 13.9735 4.91455C13.8853 5.04463 13.9559 5.52157 13.8941 5.56493C13.5501 5.80774 6.39572 5.41751 5.39887 5.5129C5.3724 5.31345 5.3283 5.12267 5.34594 4.91455C5.41651 4.91455 5.49591 4.91455 5.56648 4.91455H5.55766Z" fill="#F6D5BA"/>
<path d="M22.3277 3.29278C20.1928 3.13669 17.3963 3.34481 15.1821 3.34481V1.40234C17.3346 1.41102 19.4871 1.40234 21.6396 1.40234C22.1336 1.52375 22.2394 2.87654 22.3277 3.29278Z" fill="#612D38"/>
<path d="M22.5482 4.91437C20.1664 5.04445 17.5375 4.91437 15.1292 4.91437V3.67431C15.1292 3.67431 15.1645 3.67431 15.1821 3.67431C17.7492 3.67431 20.334 3.63095 22.9099 3.72634L22.8834 3.45752C23.2539 3.6483 23.4833 4.80164 23.1834 4.91437C23.0952 4.94906 22.6982 4.91437 22.5482 4.91437Z" fill="#612D38"/>
<path d="M12.2621 3.67444C12.2621 3.83921 12.2886 4.82778 12.2357 4.86247L5.55765 4.9145C5.48708 4.9145 5.40768 4.9145 5.33711 4.9145C5.12539 4.90583 4.64902 4.99255 4.56962 4.77575C4.49905 4.61099 4.69312 3.83921 4.79016 3.66577H12.2709L12.2621 3.67444Z" fill="#97535E"/>
<path d="M12.2621 1.40237C12.2621 2.02674 12.2709 2.66845 12.2621 3.29281C12.2621 3.31016 12.2621 3.3275 12.2621 3.34484C10.8595 3.41422 9.43036 3.27547 8.02771 3.29281L8.24825 1.40237C8.74227 1.41104 9.23628 1.40237 9.73029 1.40237C10.0391 1.40237 10.3743 1.35034 10.6654 1.35034C11.1859 1.35034 11.7328 1.40237 12.2621 1.40237Z" fill="#97535E"/>
<path d="M15.1733 1.40234V3.34481C14.2029 3.34481 13.2237 3.38817 12.2621 3.29278C12.2709 2.66842 12.2621 2.02671 12.2621 1.40234C13.2325 1.40234 14.2029 1.40234 15.1733 1.40234Z" fill="#793D49"/>
<path d="M7.80718 1.40239L7.58664 3.29283C7.00441 3.29283 6.06049 3.24947 5.54883 3.29283C5.81348 2.47768 5.54001 1.67121 6.48393 1.35036C6.50157 1.35036 6.68682 1.50645 6.81033 1.32434C6.88972 1.20294 6.83679 0.604587 7.0044 0.431152L6.97794 1.37637C7.25141 1.41973 7.52488 1.39372 7.79836 1.40239H7.80718Z" fill="#97535E"/>
<path d="M9.84497 0.752021C9.63325 0.752021 9.7744 1.21162 9.73911 1.4024C9.2451 1.4024 8.75108 1.41107 8.25707 1.4024C8.1071 1.4024 7.96595 1.4024 7.81599 1.4024C7.54251 1.39373 7.26904 1.41975 6.99557 1.37639L7.02204 0.431167C6.85442 0.604602 6.91618 1.20295 6.82796 1.32436C6.70445 1.50646 6.5192 1.3417 6.50156 1.35037C6.57213 1.09889 6.55449 0.500541 6.80149 0.379136C7.23376 0.162343 9.32449 0.561243 9.85379 0.760693L9.84497 0.752021Z" fill="#612D38"/>
<path d="M22.8746 3.45755L22.9011 3.72637C20.334 3.63098 17.7492 3.67434 15.1733 3.67434V3.35349C17.3875 3.35349 20.1928 3.14537 22.3188 3.30146C22.5041 3.3188 22.6982 3.37083 22.8658 3.46622L22.8746 3.45755Z" fill="#793D49"/>
<path d="M7.58663 3.29283C7.72778 3.29283 7.87775 3.29283 8.02772 3.29283C9.43037 3.28416 10.8507 3.41424 12.2621 3.34487C12.2621 3.44893 12.2621 3.56166 12.2621 3.66572H4.78134C4.95778 3.36221 5.19596 3.31885 5.54883 3.28416C6.05166 3.2408 7.0044 3.28416 7.58663 3.28416V3.29283Z" fill="#B6777D"/>
<path d="M9.84499 0.751953C10.1714 0.873358 10.5948 0.899373 10.6654 1.3503C10.3743 1.3503 10.0391 1.41101 9.73031 1.40233C9.77442 1.21156 9.62445 0.760625 9.83617 0.751953H9.84499Z" fill="#612D38"/>
<path d="M15.1203 3.67432V4.91438C14.7322 4.91438 14.3529 4.91438 13.9647 4.91438C11.1947 4.91438 8.31001 5.00977 5.54883 4.91438L12.2268 4.86235C12.2798 4.81899 12.2533 3.83908 12.2533 3.67432C13.206 3.67432 14.1588 3.67432 15.1115 3.67432H15.1203Z" fill="#97535E"/>
<path d="M15.1733 3.34476V3.66561C15.1733 3.66561 15.138 3.66561 15.1203 3.66561C14.1676 3.66561 13.2149 3.66561 12.2621 3.66561C12.2621 3.56155 12.2621 3.44882 12.2621 3.34476C12.2621 3.32741 12.2621 3.31007 12.2621 3.29272C13.2237 3.38811 14.2117 3.34476 15.1733 3.34476Z" fill="#A4646E"/>
<path d="M8.24827 1.40234L8.02772 3.29278C7.88658 3.29278 7.72779 3.29278 7.58664 3.29278L7.80718 1.40234C7.95715 1.40234 8.0983 1.40234 8.24827 1.40234Z" fill="#A4646E"/>
<path d="M18.3667 28.1028C18.9843 30.9471 19.0372 33.9649 18.7549 36.8612L17.8198 36.5404C17.6698 35.9854 17.3787 35.361 17.2111 34.78C16.8671 33.566 16.5583 31.4501 16.1084 30.4008C15.8085 29.6984 14.7146 28.8312 14.3529 28.1028C15.6849 28.1028 17.0347 28.1375 18.3667 28.1028Z" fill="#1E5290"/>
<path d="M13.5236 28.1548C13.3825 28.7011 13.3737 29.3862 13.1972 29.9152C12.765 31.1639 9.43918 33.3925 8.24826 34.2163L7.75424 33.4099C8.00125 32.8289 10.6301 30.0539 10.6654 29.7591C10.6919 29.5683 10.1273 28.4496 10.0567 28.1635C11.2035 28.1808 12.3768 28.1635 13.5236 28.1635V28.1548Z" fill="#1E5290"/>
<path d="M20.1222 37.9452C20.2105 37.9886 20.3251 38.0406 20.3957 38.11L20.5369 38.3788C19.5665 38.3528 18.6314 38.1881 17.7051 37.8932C17.7139 37.7024 17.7139 37.3642 17.9257 37.2949C17.9609 37.2775 18.7108 37.2342 18.7461 37.2428C18.9843 37.2602 19.046 37.3035 19.2401 37.4336L19.0195 37.5377C19.0372 37.7111 19.1254 37.5377 19.2401 37.5897C19.2665 37.5984 19.0195 37.7371 19.5665 37.6417L19.2665 37.8845C19.6635 37.6938 19.7782 37.7892 20.1222 37.9366V37.9452Z" fill="#DB406E"/>
<path d="M8.24826 34.2164C8.08947 34.3204 7.92186 34.4939 7.75425 34.5979C7.64839 34.4158 7.26024 34.121 7.20731 33.8435C7.44549 33.7221 7.55135 33.566 7.75425 33.4099L8.24826 34.2164Z" fill="#E99B83"/>
<path d="M20.4045 38.1012C20.978 38.6041 20.1752 38.4914 19.7429 38.4827C19.5047 38.4741 17.7051 38.2746 17.6522 38.1879C17.5993 38.1012 17.7051 37.9364 17.7051 37.8931C18.6314 38.1879 19.5665 38.3527 20.5369 38.3787L20.3957 38.1099L20.4045 38.1012Z" fill="#C7335B"/>
<path d="M18.7549 36.8611C18.7461 36.9825 18.7549 37.1126 18.7549 37.2427C18.7108 37.2427 17.9698 37.2861 17.9345 37.2947C17.8904 37.0432 17.8904 36.7831 17.8286 36.5403L18.7637 36.8611H18.7549Z" fill="#E99B83"/>
<path d="M7.75425 36.9132C7.69249 36.9132 7.2073 36.2541 7.14555 36.1587C6.83679 35.6038 6.63389 34.7886 6.32513 34.2163C6.41335 34.1382 6.43099 34.1209 6.54568 34.0515L7.75425 36.9132Z" fill="#C7335B"/>
<path d="M7.20731 33.8347C7.26906 34.1122 7.64839 34.4071 7.75425 34.5892C8.11594 35.2049 7.58664 34.9274 7.78072 35.3436L7.48078 35.2656L7.58664 35.5084L7.56018 35.6124L7.31317 35.4737C7.52489 35.6211 7.52489 35.8812 7.86011 35.8292C7.92187 36.0113 7.99244 36.8958 7.75425 36.9132L6.54568 34.0515C6.78387 33.9128 7.17202 33.8521 7.20731 33.8347Z" fill="#DB406E"/>
<path d="M7.58664 35.5083C7.71015 35.569 7.82483 35.7078 7.86012 35.8292C7.52489 35.8899 7.52489 35.6297 7.31317 35.4736L7.56018 35.6124L7.58664 35.5083Z" fill="#DA355A"/>
<path d="M7.6131 34.9187L7.67485 34.9707V35.0228H7.6131V34.9187Z" fill="#F2F3F3"/>
<path d="M13.9647 12.1554C9.17454 12.1641 9.13926 19.3183 14.0176 19.2922C14.0794 20.0293 13.9647 20.7751 13.9647 21.5122C12.3151 21.5122 8.59231 21.781 7.19849 21.5122C7.11027 21.4949 7.04852 21.5382 6.97795 21.4342C6.78387 19.6651 6.62508 17.8787 6.431 16.1097C6.33396 15.2686 6.184 14.4101 6.1046 13.5689C5.9811 12.3548 5.9017 11.1321 5.7782 9.91809C5.80466 9.86606 5.89288 9.90074 5.94581 9.89207C5.94581 9.89207 21.1544 10.0048 22.0013 9.89207C22.0277 9.89207 22.1424 10.0568 22.1071 10.4037C22.0189 11.3836 21.4279 14.5922 21.6131 15.2946C21.4102 16.1097 21.3749 16.9509 21.2867 17.7834C21.1456 18.9887 21.0573 20.2288 20.8986 21.4342C20.8897 21.5209 20.7309 21.5035 20.7309 21.5122H13.9647C13.9647 20.7838 14.0794 20.0293 14.0176 19.2922C14.1059 19.2922 14.2999 19.3356 14.344 19.2402C15.1115 19.3269 16.3554 18.5031 16.8141 17.9134C18.6049 15.6241 16.9376 12.2161 14.0088 12.1554C13.9912 12.1554 13.9735 12.1554 13.9559 12.1554" fill="#4C251B"/>
<path d="M13.9647 21.5122C13.9647 23.6888 14.0794 25.8741 14.0176 28.0507C13.9382 28.0507 13.603 28.1634 13.5236 28.1548C12.3768 28.1548 11.2035 28.1721 10.0567 28.1548C9.96849 28.1548 10.0214 28.0507 9.97731 28.0507C9.53623 28.0507 8.10712 28.3109 7.91304 27.8599L7.19849 21.5122C8.59231 21.781 12.3151 21.5122 13.9647 21.5122Z" fill="#EFBE46"/>
<path d="M20.7309 21.5122C20.4487 23.6455 20.2193 25.7787 19.9635 27.9206C19.8047 28.2241 18.7196 28.1027 18.3667 28.1114C17.0347 28.1461 15.6849 28.1114 14.3529 28.1114C14.2294 28.1114 14.0353 28.0594 14.0265 28.0594C14.0882 25.8828 13.9735 23.6975 13.9735 21.5209H20.7398L20.7309 21.5122Z" fill="#EFBE46"/>
<path d="M13.9647 12.1553C13.9647 12.1553 14 12.1553 14.0176 12.1553L14.0706 13.881C12.8267 14.3926 11.8122 16.8554 12.9679 17.8266C12.9679 17.8266 12.9679 17.8439 13.0208 17.8786C13.4883 18.1821 13.7442 18.1561 14.2823 17.9827C14.4146 18.1908 14 18.0954 13.9559 18.2255C13.9382 18.2689 13.9824 19.11 14.0088 19.1447C14.0176 19.1621 14.3088 19.2228 14.3352 19.2228C14.2911 19.3181 14.097 19.2748 14.0088 19.2748C9.13043 19.3095 9.1569 12.1553 13.9559 12.1379L13.9647 12.1553Z" fill="#FAE6D9"/>
<path d="M14.3529 19.2402C14.3529 19.2402 14.0353 19.1708 14.0265 19.1622C14 19.1275 13.9559 18.2863 13.9735 18.243C14.0176 18.1129 14.4323 18.2083 14.2999 18.0001C16.673 17.2544 16.7876 12.7711 14.0794 13.8897L14.0265 12.1641C16.9553 12.2248 18.6226 15.6241 16.8318 17.9221C16.373 18.5118 15.1292 19.3356 14.3617 19.2489L14.3529 19.2402Z" fill="#F6D5BA"/>
<path d="M14.2999 17.9999C13.7618 18.1647 13.506 18.1994 13.0384 17.8959C13.9823 16.6211 14.8469 15.4678 15.3762 13.9502L12.9855 17.8438C11.821 16.8726 12.8443 14.4098 14.0882 13.8982C16.7965 12.7796 16.6818 17.2628 14.3087 18.0086L14.2999 17.9999Z" fill="#682E1B"/>
<path d="M13.0296 17.8873C12.9767 17.8526 12.9767 17.8353 12.9767 17.8353L15.3674 13.9417C14.8381 15.4592 13.9735 16.6125 13.0296 17.8873Z" fill="#F2F3F3"/>
</svg>
