<svg width="22" height="18" viewBox="0 0 22 18" fill="none" xmlns="http://www.w3.org/2000/svg">
<g clip-path="url(#clip0_721_2968)">
<path d="M20.525 11.8C19.55 10.85 18.275 10.325 16.95 10.325H15.525C14.15 10.325 12.825 10.9 11.875 11.925C10.95 11.325 9.8 10.975 8.675 10.975H6.85C3.45 10.975 0.675 13.75 0.675 17.15C0.675 17.575 1.025 17.925 1.475 17.925H14.05C14.475 17.925 14.825 17.575 14.825 17.15C14.825 16.8 14.8 16.475 14.725 16.15H21.2C21.65 16.15 22 15.8 22 15.375C22 14.05 21.475 12.775 20.525 11.8ZM13.175 16.35H2.325C2.7 14.15 4.6 12.55 6.825 12.55H8.65C9.675 12.55 10.7 12.925 11.55 13.6C11.675 13.7 11.775 13.775 11.875 13.9C12.35 14.35 12.75 14.975 12.975 15.625C13.05 15.825 13.125 16.075 13.175 16.325V16.35ZM15.525 11.925H16.95C17.875 11.925 18.75 12.275 19.4 12.925C19.85 13.4 20.175 13.975 20.3 14.575H14.275C14 14 13.625 13.425 13.125 12.9C13.775 12.275 14.6 11.925 15.5 11.925H15.525Z" fill="#828282"/>
<path d="M4.025 6.75C4.025 8.8 5.7 10.475 7.75 10.475C9.8 10.475 11.5 8.8 11.5 6.75C11.5 4.7 9.825 3 7.75 3C5.675 3 4.025 4.675 4.025 6.75ZM5.6 6.75C5.6 5.575 6.575 4.6 7.75 4.6C8.925 4.6 9.9 5.575 9.9 6.75C9.9 7.925 8.925 8.875 7.75 8.875C6.575 8.875 5.6 7.925 5.6 6.75Z" fill="#828282"/>
<path d="M15.125 10.225C16.825 10.225 18.225 8.825 18.225 7.125C18.225 5.425 16.825 4 15.125 4C13.425 4 12 5.4 12 7.125C12 8.85 13.4 10.225 15.125 10.225ZM13.6 7.125C13.6 6.275 14.275 5.6 15.125 5.6C15.975 5.6 16.65 6.275 16.65 7.125C16.65 7.975 15.975 8.65 15.125 8.65C14.275 8.65 13.6 7.975 13.6 7.125Z" fill="#828282"/>
<path opacity="0.1" d="M4.1 3.22495L2.2 1.82495L1.3 3.02495L3.2 4.42495L4.1 3.22495Z" fill="#828282"/>
<path opacity="0.1" d="M3.225 4.7751L0.875 4.4751L0.675 5.9501L3 6.2751L3.225 4.7751Z" fill="#828282"/>
<path opacity="0.1" d="M5.725 2.4L4.775 0.25L3.375 0.85L4.35 3L5.725 2.4Z" fill="#828282"/>
<path d="M2.75 6.22495C2.75 6.22495 2.7 6.22495 2.675 6.22495L0.55 5.94995C0.2 5.89995 -0.0250002 5.59995 0.0249998 5.24995C0.0749998 4.89995 0.375 4.67495 0.725 4.72495L2.85 4.99995C3.2 5.04995 3.425 5.34995 3.375 5.69995C3.325 6.02495 3.075 6.24995 2.75 6.24995V6.22495Z" fill="#828282"/>
<path d="M3.325 4.29992C3.2 4.29992 3.075 4.24992 2.95 4.17492L1.325 2.97492C1.05 2.77492 1 2.37492 1.2 2.09992C1.4 1.82492 1.8 1.77492 2.075 1.97492L3.7 3.17492C3.975 3.37492 4.025 3.77492 3.825 4.04992C3.7 4.22492 3.525 4.29992 3.325 4.29992Z" fill="#828282"/>
<path d="M4.8 2.97507C4.55 2.97507 4.325 2.82507 4.225 2.60007L3.475 0.875073C3.325 0.550073 3.475 0.200073 3.8 0.0500731C4.125 -0.0999269 4.475 0.0500731 4.625 0.375073L5.375 2.10007C5.525 2.42507 5.375 2.77507 5.05 2.92507C4.975 2.95007 4.875 2.97507 4.8 2.97507Z" fill="#828282"/>
</g>
<defs>
<clipPath id="clip0_721_2968">
<rect width="22" height="17.925" fill="white"/>
</clipPath>
</defs>
</svg>
