<svg width="111" height="111" viewBox="0 0 111 111" fill="none" xmlns="http://www.w3.org/2000/svg">
<path d="M55.5 111C47.9064 111 40.7596 109.548 34.0594 106.645C27.3592 103.779 21.4593 99.7958 16.3597 94.6962C11.2601 89.5966 7.25855 83.6967 4.35513 76.9965C1.45171 70.2963 0 63.1308 0 55.5C0 47.9064 1.4331 40.7596 4.2993 34.0594C7.20272 27.3592 11.2042 21.4593 16.3038 16.3597C21.4406 11.2601 27.3592 7.25855 34.0594 4.35513C40.7596 1.45171 47.8878 0 55.4442 0C63.0749 0 70.2404 1.45171 76.9406 4.35513C83.6408 7.25855 89.5407 11.2601 94.6403 16.3597C99.7772 21.4593 103.779 27.3592 106.645 34.0594C109.548 40.7596 111 47.9064 111 55.5C111 63.1308 109.548 70.2963 106.645 76.9965C103.779 83.6967 99.7958 89.5966 94.6962 94.6962C89.5966 99.7958 83.6967 103.779 76.9965 106.645C70.2963 109.548 63.1308 111 55.5 111ZM49.6932 81.91C51.9638 81.91 53.8063 80.8863 55.2208 78.839L79.7882 41.0946C80.2349 40.4245 80.5885 39.7545 80.8491 39.0845C81.1097 38.3773 81.2399 37.7072 81.2399 37.0744C81.2399 35.5111 80.6444 34.2269 79.4532 33.2218C78.2621 32.2168 76.922 31.7143 75.4331 31.7143C73.4603 31.7143 71.8038 32.7752 70.4638 34.8969L49.5815 68.1187L40.1454 56.4492C39.4381 55.5931 38.7123 54.9789 37.9678 54.6066C37.2233 54.1972 36.3858 53.9925 35.4552 53.9925C33.8918 53.9925 32.5518 54.5508 31.4351 55.6675C30.3556 56.7842 29.8159 58.1056 29.8159 59.6318C29.8159 61.1207 30.3742 62.5352 31.4909 63.8753L43.998 78.8949C44.8169 79.8999 45.673 80.663 46.5664 81.1841C47.497 81.668 48.5392 81.91 49.6932 81.91Z" fill="#FFB20E"/>
</svg>
