<svg width="42" height="43" viewBox="0 0 42 43" fill="none" xmlns="http://www.w3.org/2000/svg">
<path fill-rule="evenodd" clip-rule="evenodd" d="M30.9461 16.8245H27.1456V12.6778L32.7655 10.0967C33.1294 9.9698 33.3315 9.58898 33.2911 9.20816C33.2911 8.82735 33.0081 8.48884 32.6846 8.3619L26.4987 6.50012C26.2156 6.45781 25.9326 6.50012 25.7305 6.66938C25.4879 6.83863 25.3666 7.13482 25.3666 7.3887V17.7131C25.3666 18.2209 25.7709 18.644 26.2561 18.644H30.9461C32.7655 18.644 34.221 20.2096 34.221 22.1137C34.221 24.0178 32.7655 25.541 30.9461 25.541C28.0755 25.541 25.7305 27.9952 25.7305 30.9994C25.7305 33.0304 24.1536 34.6807 22.2129 34.6807H15.3396C17.3208 32.4804 20.3531 28.2914 20.3531 23.3407C20.3531 19.1941 17.159 15.809 13.1968 15.809C9.2345 15.809 6 19.1941 6 23.3407C6 30.534 11.8625 35.6539 12.5499 36.2039C12.5653 36.2201 12.5808 36.2301 12.5939 36.2386C12.6153 36.2524 12.6307 36.2624 12.6307 36.2886C12.6509 36.2886 12.6611 36.2991 12.6712 36.3097C12.6813 36.3203 12.6914 36.3309 12.7116 36.3309C12.7116 36.3732 12.7925 36.4155 12.8733 36.4155C12.9542 36.4578 13.0755 36.5001 13.1968 36.5001H22.2129C25.124 36.5001 27.469 34.046 27.469 30.9994C27.469 29.0107 29.0054 27.4028 30.9461 27.4028C33.7358 27.4028 36 25.0333 36 22.1137C36 19.1941 33.7358 16.8245 30.9461 16.8245ZM26.7412 8.06571L31.027 9.37742L26.7412 11.3238V8.06571ZM13.1563 34.3422C11.6604 32.9035 7.77898 28.6722 7.77898 23.3407C7.77898 20.2096 10.2049 17.6285 13.1968 17.6285C16.1887 17.6285 18.6146 20.2096 18.6146 23.3407C18.6146 28.4606 14.6119 32.9035 13.1563 34.3422ZM13.965 35.5269C13.965 35.5269 13.965 35.4846 14.0458 35.4846V35.5269C14.0458 35.5269 14.0054 35.4846 13.965 35.5269ZM9.11321 23.3407C9.11321 20.9712 10.9326 19.0671 13.1968 19.0671C15.4205 19.0671 17.2803 21.0135 17.2803 23.3407C17.2803 25.668 15.4609 27.5721 13.1968 27.5721C10.9326 27.5721 9.11321 25.7103 9.11321 23.3407ZM10.8922 23.3407C10.8922 24.6525 11.903 25.7526 13.1968 25.7526C14.4501 25.7526 15.5013 24.6948 15.5013 23.3407C15.5013 21.9867 14.4906 20.8866 13.1968 20.8866C11.903 20.8866 10.8922 22.029 10.8922 23.3407Z" fill="url(#paint0_linear_2493_27038)"/>
<defs>
<linearGradient id="paint0_linear_2493_27038" x1="13.8009" y1="14.6102" x2="32.0348" y2="32.0211" gradientUnits="userSpaceOnUse">
<stop stop-color="#D93E1F"/>
<stop offset="1" stop-color="#F0940F"/>
</linearGradient>
</defs>
</svg>
