<svg width="45" height="46" viewBox="0 0 45 46" fill="none" xmlns="http://www.w3.org/2000/svg">
<rect y="0.26001" width="45" height="45" rx="22.5" fill="url(#paint0_linear_2218_15486)" fill-opacity="0.85"/>
<path d="M32.3563 33.9066H13.5497C13.3266 33.9066 13.1672 33.7436 13.1672 33.5155V20.3183C13.1672 20.1228 13.3266 19.9272 13.5497 19.9272H32.3563C32.5795 19.9272 32.7388 20.0902 32.7388 20.3183V33.5155C32.7388 33.7436 32.5795 33.9066 32.3563 33.9066ZM13.9323 33.1571H32.0057V20.7093H13.9323V33.1571Z" fill="#FFB20E"/>
<path d="M32.3562 34.2325H13.5497C13.1671 34.2325 12.8484 33.9066 12.8484 33.5156V20.3183C12.8484 19.9273 13.1671 19.6014 13.5497 19.6014H32.3562C32.7388 19.6014 33.0575 19.9273 33.0575 20.3183V33.5156C33.0575 33.9066 32.7388 34.2325 32.3562 34.2325ZM13.5497 20.2532L13.4859 33.5156C13.4859 33.5156 13.4859 33.5808 13.5497 33.5808H32.3562C32.3562 33.5808 32.42 33.5808 32.42 33.5156V20.3183L13.5497 20.2532ZM32.2925 33.4504H13.6134V20.3835H32.3244V33.483L32.2925 33.4504ZM14.2509 32.8313H31.6869V21.0352H14.2509V32.8313Z" fill="#FFB20E"/>
<path d="M32.4845 20.7098H13.4229C12.2754 20.7098 11.3191 19.7322 11.3191 18.5591C11.3191 17.386 12.2754 16.4084 13.4229 16.4084H32.4845C33.632 16.4084 34.5883 17.386 34.5883 18.5591C34.5883 19.7322 33.632 20.7098 32.4845 20.7098ZM13.4229 17.1579C12.6579 17.1579 12.0522 17.7771 12.0522 18.5591C12.0522 19.3412 12.6579 19.9277 13.4229 19.9277H32.4845C33.2495 19.9277 33.8551 19.3086 33.8551 18.5591C33.8551 17.8096 33.2495 17.1579 32.4845 17.1579H13.4229Z" fill="#FFB20E"/>
<path d="M32.4841 21.0356H13.4225C12.0838 21.0356 11 19.9277 11 18.559C11 17.1904 12.0838 16.0825 13.4225 16.0825H32.4841C33.8229 16.0825 34.9067 17.1904 34.9067 18.559C34.9067 19.9277 33.8229 21.0356 32.4841 21.0356ZM13.4225 16.7342C12.4344 16.7342 11.6375 17.5489 11.6375 18.559C11.6375 19.5692 12.4344 20.3839 13.4225 20.3839H32.4841C33.4723 20.3839 34.2692 19.5692 34.2692 18.559C34.2692 17.5489 33.4723 16.7342 32.4841 16.7342H13.4225ZM32.4841 20.2535H13.4225C12.4982 20.2535 11.7331 19.4714 11.7331 18.559C11.7331 17.6466 12.4982 16.832 13.4225 16.832H32.4841C33.4085 16.832 34.1735 17.6141 34.1735 18.559C34.1735 19.504 33.4085 20.2535 32.4841 20.2535ZM13.4225 17.4837C12.8488 17.4837 12.3706 17.9725 12.3706 18.559C12.3706 19.1456 12.8488 19.6344 13.4225 19.6344H32.4841C33.0579 19.6344 33.536 19.1456 33.536 18.559C33.536 17.9725 33.0579 17.4837 32.4841 17.4837H13.4225Z" fill="#FFB20E"/>
<path d="M21.1043 17.158C21.1043 17.158 21.0405 17.158 20.9767 17.158C20.0205 16.8321 18.9367 16.1152 17.9804 15.1376C17.1198 14.2578 16.4504 13.2477 16.0998 12.3353C15.7173 11.3251 15.781 10.4779 16.2592 9.98908C16.7373 9.50029 17.5661 9.43512 18.5542 9.82615C19.4467 10.1846 20.4349 10.8689 21.2955 11.7487C23.208 13.7039 23.9731 15.9197 23.0168 16.8973C22.9212 16.995 22.8255 17.0602 22.698 17.1254C22.5068 17.2231 22.2836 17.1254 22.188 16.9624C22.0924 16.7669 22.188 16.5388 22.3474 16.4411C22.3793 16.4411 22.443 16.3759 22.4749 16.3433C23.0168 15.7894 22.443 13.9971 20.7536 12.2701C19.9567 11.4554 19.0642 10.8363 18.2673 10.5104C17.5979 10.2498 17.0242 10.2498 16.7692 10.5104C16.5142 10.7711 16.5142 11.3251 16.7692 12.042C17.0879 12.8566 17.6936 13.769 18.4905 14.5837C19.3511 15.4635 20.3392 16.1478 21.1999 16.4085C21.3911 16.4737 21.5186 16.7018 21.4549 16.8973C21.3911 17.0602 21.2636 17.158 21.1043 17.158Z" fill="#FFB20E"/>
<path d="M21.1043 17.4837C21.1043 17.4837 20.9768 17.4837 20.913 17.4837C19.893 17.1579 18.7455 16.3758 17.7574 15.3656C16.8648 14.4532 16.1636 13.4105 15.813 12.4655C15.3986 11.325 15.4623 10.38 16.0361 9.76087C16.6098 9.17432 17.5661 9.10915 18.6818 9.53276C19.6061 9.89121 20.6262 10.6081 21.5187 11.5205C22.4749 12.4981 23.2081 13.606 23.5268 14.5836C23.8775 15.6589 23.7818 16.5713 23.24 17.1253C23.1125 17.2556 22.985 17.3534 22.8575 17.4185C22.6981 17.5163 22.5387 17.5163 22.3474 17.4837C22.1562 17.4185 22.0287 17.2882 21.9331 17.1253C21.7418 16.7994 21.8693 16.3432 22.2199 16.1803C22.4112 16.0173 22.4112 15.5611 22.1562 14.9094C21.8693 14.16 21.2956 13.3127 20.5305 12.5307C19.7655 11.7486 18.9368 11.1621 18.1717 10.8688C17.5661 10.6407 17.1517 10.6407 17.0242 10.771C16.8967 10.9014 16.8648 11.325 17.1199 11.9441C17.4067 12.7262 17.9805 13.5734 18.7455 14.3555C19.5743 15.2027 20.5305 15.8544 21.3274 16.1151C21.6781 16.2455 21.9012 16.6365 21.7737 16.9949C21.6781 17.2882 21.4231 17.4837 21.1043 17.4837ZM17.343 9.89121C16.9923 9.89121 16.6736 9.98897 16.4823 10.2171C16.0998 10.6081 16.068 11.325 16.4186 12.2048C16.7373 13.0846 17.3749 14.0296 18.2355 14.9094C19.1599 15.8544 20.2118 16.5387 21.1043 16.8646C21.1043 16.8646 21.1362 16.8646 21.168 16.832C20.2437 16.4736 19.1918 15.7892 18.2992 14.8443C17.4705 13.997 16.833 13.052 16.5142 12.2048C16.1955 11.3576 16.2273 10.6733 16.578 10.3148C16.9286 9.95638 17.598 9.92379 18.4267 10.2497C19.2555 10.5755 20.1799 11.2272 21.0087 12.0745C21.8056 12.8891 22.4431 13.8015 22.7618 14.6487C23.1125 15.5286 23.0806 16.2129 22.73 16.6039C22.6662 16.6691 22.6025 16.7017 22.5387 16.7342V16.7994H22.6025C22.6662 16.7668 22.7618 16.7017 22.8256 16.6365C23.1762 16.278 23.24 15.5937 22.9531 14.7791C22.6343 13.8667 21.9968 12.8565 21.1043 11.9441C20.2755 11.0969 19.3511 10.4452 18.4586 10.0867C18.0442 9.92379 17.6936 9.85862 17.3749 9.85862L17.343 9.89121Z" fill="#FFB20E"/>
<path d="M24.3878 17.1574C24.2284 17.1574 24.0691 17.0596 24.0372 16.8967C23.9734 16.7012 24.0691 16.473 24.2922 16.4079C25.121 16.1472 26.1091 15.4629 27.0016 14.5831C27.7985 13.7684 28.4041 12.856 28.7229 12.0414C28.9779 11.3571 28.9779 10.7705 28.7229 10.5098C28.4679 10.2492 27.926 10.2492 27.2248 10.5098C26.4279 10.8357 25.5353 11.4548 24.7385 12.2695C24.0053 13.0189 23.3997 13.8662 23.0809 14.6482C22.9853 14.8438 22.794 14.9415 22.6028 14.8438C22.4115 14.7786 22.3159 14.5505 22.4115 14.355C22.7622 13.5077 23.3997 12.5627 24.2284 11.7481C25.0891 10.8683 26.0772 10.184 26.9697 9.82554C27.9579 9.43451 28.7867 9.49968 29.2648 9.98846C29.7429 10.4773 29.8067 11.3245 29.4242 12.3346C29.0735 13.2471 28.4041 14.2572 27.5435 15.137C26.5872 16.1146 25.5035 16.8641 24.5472 17.1574C24.5153 17.1574 24.4835 17.1574 24.4197 17.1574" fill="#FFB20E"/>
<path d="M24.3879 17.4836C24.101 17.4836 23.8141 17.2881 23.7185 16.9948C23.591 16.6038 23.8141 16.2127 24.1647 16.115C24.9616 15.8543 25.886 15.2352 26.7467 14.3554C27.5117 13.5733 28.0854 12.7261 28.3723 11.944C28.5954 11.3249 28.5954 10.9013 28.4679 10.7709C28.3404 10.6406 27.9261 10.608 27.3204 10.8687C26.5554 11.1619 25.7266 11.7485 24.9616 12.5305C24.2604 13.2474 23.6866 14.0621 23.3678 14.8116C23.3041 14.9745 23.1766 15.1048 22.9853 15.2026C22.826 15.2678 22.6347 15.2678 22.4435 15.2026C22.0928 15.0397 21.9334 14.6486 22.0609 14.2902C22.4435 13.3778 23.1128 12.4328 23.9416 11.553C24.8341 10.6406 25.8541 9.92368 26.7785 9.56524C27.8942 9.14162 28.8504 9.20679 29.4242 9.79334C29.998 10.3799 30.0936 11.3249 29.6473 12.498C29.2967 13.443 28.5954 14.4857 27.7029 15.3981C26.7148 16.4083 25.5673 17.1903 24.5472 17.5162C24.4835 17.5162 24.4197 17.5162 24.3241 17.5162L24.3879 17.4836ZM28.1492 9.98885C28.4998 9.98885 28.7548 10.0866 28.9461 10.2821C29.2967 10.6406 29.3286 11.3249 29.0098 12.1721C28.6911 13.0519 28.0536 13.9969 27.2248 14.8116C26.3004 15.724 25.2804 16.4408 24.3879 16.7341C24.3879 16.7341 24.356 16.7667 24.356 16.7993H24.4197C25.3123 16.506 26.3642 15.7891 27.2885 14.8767C28.1173 14.0295 28.7548 13.0519 29.1054 12.1721C29.4561 11.2923 29.4242 10.5754 29.0098 10.1844C28.5954 9.79334 27.9261 9.76075 27.0654 10.1192C26.2048 10.4451 25.2804 11.0968 24.4516 11.9766C23.6547 12.7912 23.0491 13.6711 22.6985 14.4857C22.6985 14.4857 22.6985 14.5509 22.7303 14.5509C23.1447 13.7036 23.7504 12.8238 24.5154 12.0418C25.3441 11.1945 26.2685 10.5428 27.0973 10.217C27.4798 10.054 27.8304 9.98885 28.1492 9.98885Z" fill="#FFB20E"/>
<path d="M19.2556 31.6913C19.2556 31.6913 19.0644 31.6587 19.0006 31.5935C18.8413 31.4306 18.8413 31.2025 19.0006 31.0396L26.332 23.5448C26.332 23.5448 26.7145 23.3819 26.8739 23.5448C27.0333 23.7078 27.0333 23.9359 26.8739 24.0988L19.5425 31.5935C19.5425 31.5935 19.3831 31.6913 19.2875 31.6913" fill="#FFB20E"/>
<path d="M19.2558 32.0169C19.0646 32.0169 18.9052 31.9518 18.7777 31.8214C18.6502 31.6911 18.5864 31.4956 18.5864 31.3C18.5864 31.1045 18.6502 30.9416 18.7777 30.8113L26.1091 23.3165C26.3641 23.0232 26.8103 23.0232 27.0972 23.3165C27.2247 23.4469 27.2885 23.6098 27.2885 23.8053C27.2885 24.0008 27.2247 24.1637 27.0972 24.3267L19.7658 31.8214C19.7658 31.8214 19.4789 32.0169 19.2877 32.0169H19.2558ZM26.5234 23.7727L19.1921 31.2675V31.3652C19.1921 31.3652 19.2558 31.3652 19.2877 31.3652L26.6191 23.8705L26.5234 23.7727Z" fill="#FFB20E"/>
<path d="M25.3441 32.0819C24.1966 32.0819 23.2722 31.1369 23.2722 29.9638C23.2722 28.7907 24.1966 27.8457 25.3441 27.8457C26.4917 27.8457 27.416 28.7907 27.416 29.9638C27.416 31.1369 26.4917 32.0819 25.3441 32.0819ZM25.3441 28.5952C24.611 28.5952 24.0372 29.1817 24.0372 29.9312C24.0372 30.6807 24.611 31.2672 25.3441 31.2672C26.0773 31.2672 26.651 30.6807 26.651 29.9312C26.651 29.1817 26.0773 28.5952 25.3441 28.5952Z" fill="#FFB20E"/>
<path d="M25.344 32.408C24.0371 32.408 22.9534 31.3001 22.9534 29.9641C22.9534 28.6281 24.0053 27.5201 25.344 27.5201C26.6828 27.5201 27.7347 28.5955 27.7347 29.9641C27.7347 31.3327 26.6828 32.408 25.344 32.408ZM25.344 28.1719C24.3878 28.1719 23.5909 28.9865 23.5909 29.9641C23.5909 30.9417 24.3878 31.7563 25.344 31.7563C26.3003 31.7563 27.0972 30.9417 27.0972 29.9641C27.0972 28.9865 26.3003 28.1719 25.344 28.1719ZM25.344 31.626C24.4515 31.626 23.7184 30.8765 23.7184 29.9641C23.7184 29.0517 24.4515 28.3022 25.344 28.3022C26.2366 28.3022 26.9697 29.0517 26.9697 29.9641C26.9697 30.8765 26.2366 31.626 25.344 31.626ZM25.344 28.9213C24.8022 28.9213 24.3559 29.3775 24.3559 29.9315C24.3559 30.4855 24.8022 30.9417 25.344 30.9417C25.8859 30.9417 26.3322 30.4855 26.3322 29.9315C26.3322 29.3775 25.8859 28.9213 25.344 28.9213Z" fill="#FFB20E"/>
<path d="M20.3395 27.0311C19.192 27.0311 18.2676 26.0861 18.2676 24.913C18.2676 23.7399 19.192 22.7949 20.3395 22.7949C21.487 22.7949 22.4114 23.7399 22.4114 24.913C22.4114 26.0861 21.487 27.0311 20.3395 27.0311ZM20.3395 23.577C19.6064 23.577 19.0326 24.1635 19.0326 24.913C19.0326 25.6625 19.6064 26.249 20.3395 26.249C21.0726 26.249 21.6464 25.6299 21.6464 24.913C21.6464 24.1961 21.0726 23.577 20.3395 23.577Z" fill="#FFB20E"/>
<path d="M20.3394 27.3572C19.0325 27.3572 17.9487 26.2819 17.9487 24.9133C17.9487 23.5447 19.0006 22.4694 20.3394 22.4694C21.6782 22.4694 22.7301 23.5447 22.7301 24.9133C22.7301 26.2819 21.6782 27.3572 20.3394 27.3572ZM20.3394 23.1211C19.3831 23.1211 18.5862 23.9357 18.5862 24.9133C18.5862 25.8909 19.3831 26.7055 20.3394 26.7055C21.2957 26.7055 22.0926 25.8909 22.0926 24.9133C22.0926 23.9357 21.2957 23.1211 20.3394 23.1211ZM20.3394 26.6078C19.4469 26.6078 18.7137 25.8583 18.7137 24.9459C18.7137 24.0335 19.4469 23.284 20.3394 23.284C21.2319 23.284 21.9651 24.0335 21.9651 24.9459C21.9651 25.8583 21.2319 26.6078 20.3394 26.6078ZM20.3394 23.9031C19.7975 23.9031 19.3513 24.3593 19.3513 24.9133C19.3513 25.4673 19.7975 25.9235 20.3394 25.9235C20.8813 25.9235 21.3275 25.4673 21.3275 24.9133C21.3275 24.3593 20.8813 23.9031 20.3394 23.9031Z" fill="#FFB20E"/>
<defs>
<linearGradient id="paint0_linear_2218_15486" x1="7.26923" y1="-66.3746" x2="81.5329" y2="-30.4475" gradientUnits="userSpaceOnUse">
<stop offset="0.28" stop-color="#FFF6EC"/>
<stop offset="0.558881" stop-color="white"/>
<stop offset="1" stop-color="#FFBF65"/>
</linearGradient>
</defs>
</svg>
