<svg width="111" height="111" viewBox="0 0 111 111" fill="none" xmlns="http://www.w3.org/2000/svg">
<path d="M55.5286 111C47.8734 111 40.6943 109.553 33.9913 106.66C27.2882 103.806 21.385 99.8277 16.2815 94.7269C11.1781 89.626 7.1791 83.7258 4.28461 77.0262C1.4282 70.2886 0 63.1132 0 55.5C0 47.8488 1.4282 40.6734 4.28461 33.9738C7.1791 27.2742 11.1781 21.374 16.2815 16.2731C21.385 11.1723 27.2882 7.19444 33.9913 4.33951C40.6943 1.4465 47.8734 0 55.5286 0C63.1837 0 70.3438 1.4465 77.0088 4.33951C83.7118 7.19444 89.615 11.1723 94.7185 16.2731C99.8219 21.374 103.802 27.2742 106.658 33.9738C109.553 40.6734 111 47.8488 111 55.5C111 63.1132 109.553 70.2886 106.658 77.0262C103.802 83.7258 99.8219 89.626 94.7185 94.7269C89.615 99.8277 83.7118 103.806 77.0088 106.66C70.3438 109.553 63.1837 111 55.5286 111ZM37.5903 78.3395C38.9995 78.3395 40.1611 77.8637 41.0751 76.912L55.5286 62.409L70.0391 76.912C70.9151 77.8637 72.0576 78.3395 73.4668 78.3395C74.8379 78.3395 75.9804 77.8637 76.8945 76.912C77.8466 75.9223 78.3227 74.7613 78.3227 73.429C78.3227 72.0586 77.8466 70.9357 76.8945 70.0602L62.3268 55.5571L76.9516 40.9969C77.9038 40.0833 78.3798 38.9604 78.3798 37.6281C78.3798 36.2958 77.9038 35.1728 76.9516 34.2593C76.0376 33.3076 74.9141 32.8318 73.5811 32.8318C72.2862 32.8318 71.1626 33.3076 70.2105 34.2593L55.5286 48.8765L40.9609 34.3164C39.9707 33.3647 38.8471 32.8889 37.5903 32.8889C36.2573 32.8889 35.1148 33.3647 34.1626 34.3164C33.2486 35.2299 32.7916 36.3529 32.7916 37.6852C32.7916 39.0175 33.2676 40.1404 34.2198 41.054L48.7874 55.5571L34.2198 70.1173C33.2676 71.0689 32.7916 72.1728 32.7916 73.429C32.7916 74.7613 33.2486 75.9223 34.1626 76.912C35.1148 77.8637 36.2573 78.3395 37.5903 78.3395Z" fill="url(#paint0_linear_3299_32108)"/>
<defs>
<linearGradient id="paint0_linear_3299_32108" x1="55.5" y1="111" x2="55.5" y2="0" gradientUnits="userSpaceOnUse">
<stop offset="1" stop-color="#D66F51"/>
</linearGradient>
</defs>
</svg>
