<svg width="32" height="40" viewBox="0 0 32 40" fill="none" xmlns="http://www.w3.org/2000/svg">
<path d="M26.2278 17.2266C27.0578 17.3066 27.6578 18.0366 27.5978 18.8466C27.5978 18.9066 27.5878 18.9666 27.5778 19.0166C27.5478 19.3166 27.6178 19.6466 27.1178 19.8366C27.0778 19.8366 26.7778 19.9166 26.7578 19.9166C23.3478 19.8966 19.9378 19.9666 16.5378 19.8766C17.8678 19.4366 17.7478 17.4566 18.8378 17.3266C19.8078 17.2166 23.9878 17.0166 26.2278 17.2266Z" fill="#9E3937"/>
<path d="M22.0878 21.4666C16.1278 21.7066 9.86779 21.1766 3.94779 21.4066C3.58779 21.3166 3.23779 20.9366 3.17779 20.6166C3.14779 20.4566 3.24779 19.7866 3.24779 19.5266V19.5066C3.24779 18.4066 4.34779 17.5066 5.75779 17.5166C10.0778 17.5166 15.0878 17.2366 18.6378 19.0466C19.9078 19.6966 20.9878 20.6366 22.0878 21.4666Z" fill="#9E3937"/>
<path d="M21.5878 17.7866C15.6278 18.0266 9.36779 17.4966 3.44779 17.7266C3.08779 17.6366 2.73779 17.2566 2.67779 16.9366C2.64779 16.7766 2.74779 16.1066 2.74779 15.8466V15.8266C2.74779 14.7266 3.84779 13.8266 5.25779 13.8366C9.5778 13.8366 19.6878 10.4266 23.2278 12.2466C24.4978 12.8966 20.4878 16.9566 21.5878 17.7966V17.7866Z" fill="#4D3821"/>
<path d="M28.6278 19.6966C29.5578 19.9666 27.7878 21.0566 27.6878 21.4266C27.6278 21.4266 27.3178 21.6766 27.2678 21.6866C26.8478 21.7466 26.6978 21.3166 26.3278 21.2366C25.1178 20.9766 24.2378 22.0266 23.6178 21.9466C23.1178 21.8766 22.9578 21.4466 22.1178 21.5566C21.5178 21.6466 20.7478 22.4866 20.4578 22.5166C19.9178 22.5766 19.2178 21.5366 18.5178 21.4866C17.7778 21.4366 16.9678 22.2366 16.4678 22.1266C16.2678 22.0866 16.0078 21.6966 15.8278 21.5466C15.0078 20.8866 14.7178 20.6366 13.6378 20.5166H2.32782C2.24782 20.3766 1.87782 20.0766 1.93782 19.8466L2.07782 19.6866C2.30782 19.7466 2.54782 19.6366 2.76782 19.6266C7.46782 19.3766 12.4378 19.9466 17.1678 19.6866C17.7178 20.1866 17.9378 19.9466 18.4378 19.6266C21.3078 19.7666 24.1778 19.6566 27.0478 19.6866C27.0678 19.6866 27.3178 19.5566 27.3478 19.5566C27.4778 19.5566 28.5478 19.6666 28.6178 19.6866L28.6278 19.6966Z" fill="#F6C746"/>
<path d="M27.6878 19.3568C28.6478 19.2668 28.5178 21.7868 27.5778 22.4368C25.2278 22.0968 22.8378 22.3968 20.4578 22.2468C19.1278 22.1668 17.7478 21.8168 16.4678 21.7368C13.1178 21.5168 9.3578 21.8468 5.9478 21.7968C4.8178 21.7768 2.7478 21.4868 1.7378 21.6668C1.5178 21.7068 1.6678 21.7368 1.5478 21.8568C1.4478 21.4468 1.5378 20.5168 1.9078 20.3168C2.4878 20.0068 3.1678 20.8268 3.5978 20.0568C3.6278 20.0068 3.6278 19.6768 3.7878 19.6068C4.5678 19.3068 6.3878 20.8368 7.3878 20.7668C8.4678 20.6868 8.9178 19.1368 10.5978 19.6068C10.9478 19.7068 11.5578 20.3568 11.8678 20.3168C11.9578 20.3068 12.2478 19.9768 12.3678 19.9268C12.9678 19.7068 14.5978 19.1368 15.1378 19.2168C15.3678 19.2568 15.6078 19.5368 15.8278 19.4768C16.0078 19.6168 16.2678 20.0068 16.4678 20.0568C16.9678 20.1668 17.7778 19.3668 18.5178 19.4168C19.2178 19.4668 19.9178 20.4968 20.4578 20.4468C20.7478 20.4168 21.5178 19.5668 22.1178 19.4868C22.9478 19.3668 23.1178 19.8068 23.6178 19.8768C24.2478 19.9668 25.1278 18.9168 26.3278 19.1668C26.6978 19.2468 26.8478 19.6768 27.2678 19.6168C27.3178 19.6168 27.6178 19.3668 27.6878 19.3568Z" fill="#82AC5D"/>
<path d="M27.5778 22.4368C27.5778 22.4368 27.5178 22.4368 27.5178 22.4968C18.9978 22.4468 10.4578 22.7168 1.93779 22.4968C1.80779 22.2868 1.61779 22.1168 1.54779 21.8568C1.66779 21.7268 1.51779 21.7068 1.73779 21.6668C2.74779 21.4868 4.81779 21.7768 5.94779 21.7968C9.36779 21.8468 13.1178 21.5168 16.4678 21.7368C17.7478 21.8168 19.1278 22.1668 20.4578 22.2468C22.8278 22.3968 25.2278 22.0968 27.5778 22.4368Z" fill="#82AC5D"/>
<path d="M26.7878 10.9665L26.9378 11.6265C26.6778 13.0365 22.2478 13.4165 21.2378 13.3665C20.6078 13.3365 19.7478 13.0865 19.2178 12.6865C19.7878 12.1165 19.6178 11.5965 20.7378 11.6165C21.4978 11.6365 22.2478 12.5965 22.7478 12.6165C23.3578 12.6365 24.0478 11.8365 24.6278 11.5765C25.3178 11.2665 26.0878 11.2265 26.7878 10.9565V10.9665Z" fill="#4D3821"/>
<path d="M27.6478 10.6766C27.4978 10.6366 27.5978 10.8866 27.6078 10.9066C27.7978 11.2666 28.2178 11.5166 27.5778 11.7766L22.5478 12.3266C22.0578 10.3966 21.4178 8.28662 20.3678 6.67662C20.2278 6.45662 19.9678 6.04662 19.7078 6.00662C19.6878 5.83662 19.5378 5.51662 19.4478 5.39662C19.2578 5.13662 17.0878 3.29662 16.8278 3.17662C16.7378 3.12662 16.4078 3.23662 16.3478 3.03662C20.7578 3.24662 25.6578 5.97662 27.6478 10.6866V10.6766Z" fill="#EA983E"/>
<path d="M16.3478 3.03666C16.4178 3.23666 16.7378 3.13666 16.8278 3.17666C17.0978 3.30666 19.2578 5.14666 19.4478 5.39666C19.1678 5.06666 19.1678 6.33666 19.2378 6.41666L19.6078 6.47666C19.7578 6.32666 19.7378 6.22666 19.7178 6.01666C19.9678 6.05666 20.2278 6.46666 20.3778 6.68666C21.4278 8.29666 22.0678 10.4067 22.5578 12.3367L27.5878 11.7867C28.2178 11.5267 27.8078 11.2767 27.6178 10.9167C27.6078 10.8967 27.5078 10.6467 27.6578 10.6867C27.8278 11.0767 28.3678 11.7367 27.6278 11.9167L1.47781 14.6767C1.24781 14.5667 1.44781 14.0367 1.41781 13.8167C1.17781 11.7167 2.47781 8.32666 3.89781 6.75666C7.01781 3.29666 12.3278 2.84666 16.3478 3.03666Z" fill="#EA983E"/>
<path d="M10.3878 9.27657C10.7078 9.12657 10.9178 10.5366 10.3578 10.4366C9.9578 10.3666 10.2078 9.35657 10.3878 9.27657Z" fill="#FAE4C6"/>
<path d="M15.1478 4.64659C15.3178 4.59659 16.3078 5.29659 15.7078 5.54659C15.3978 5.67659 15.0578 5.15659 15.0178 4.81659C15.0578 4.78659 15.1178 4.64659 15.1478 4.64659Z" fill="#FAE4C6"/>
<path d="M13.7378 10.3067C13.9078 10.1367 15.1078 10.8367 14.2478 11.2167C14.0278 11.2167 13.6078 10.4467 13.7378 10.3067Z" fill="#FAE4C6"/>
<path d="M19.4478 5.39665C19.5378 5.52665 19.6978 5.83665 19.7078 6.00665C19.7278 6.21665 19.7478 6.31665 19.5978 6.46665L19.2278 6.40665C19.1578 6.32665 19.1578 5.05665 19.4378 5.38665L19.4478 5.39665Z" fill="#FAE4C6"/>
<path d="M7.54785 8.03652C7.44785 8.29652 7.52785 8.71652 7.48785 8.84652C7.35785 9.27652 6.53785 9.00652 7.05785 8.28652C7.09785 8.22652 7.43785 7.96652 7.53785 8.03652H7.54785Z" fill="#FAE4C6"/>
<path d="M3.13782 12.4465C3.29782 12.4865 3.33782 13.6665 2.81782 13.5765C2.29782 13.4865 2.93782 12.5965 3.13782 12.4465Z" fill="#FAE4C6"/>
<path d="M7.11781 10.3367C7.37781 10.4567 7.71781 11.3567 7.41781 11.5267C6.85781 11.8367 7.01781 10.3667 7.11781 10.3367Z" fill="#FAE4C6"/>
<path d="M12.2278 6.75659C12.5278 6.90659 12.8478 7.80659 12.4778 7.95659C11.9578 8.16659 12.1678 6.78659 12.2278 6.75659Z" fill="#FAE4C6"/>
<path d="M16.6578 7.30667C16.9978 7.19667 17.1578 8.31667 17.0578 8.35667C16.5978 8.43667 16.2478 7.43667 16.6578 7.30667Z" fill="#FAE4C6"/>
<path d="M13.2478 27.7866C11.5578 29.9766 10.4178 31.7466 7.62782 31.0766C6.64782 30.8366 6.09782 30.4266 5.26782 30.0466C5.24782 30.3066 5.63782 30.2266 5.65782 30.4666C5.65782 30.5166 5.26782 31.3666 5.20782 31.4666C7.20782 31.9566 8.87782 33.0866 10.9978 32.4966C12.7478 32.0066 13.8778 29.1066 14.9378 27.7866C14.3778 27.7866 13.8078 27.7866 13.2578 27.7866H13.2478Z" fill="#363838"/>
<path d="M3.58783 32.8167C3.81783 32.6967 4.39783 32.7567 4.55783 32.9467C4.70783 32.8467 4.66783 32.5867 4.68783 32.5567C4.49783 32.6067 4.42783 32.3567 4.65783 32.3667C4.74783 32.3667 4.74783 32.5467 4.68783 32.5567C4.72783 32.4967 4.84783 32.6267 4.84783 32.6167C4.93783 32.4467 4.80783 32.3967 4.81783 32.3867C4.85783 32.2967 5.00783 32.2867 5.00783 32.2567C5.01783 32.1667 4.63783 32.1767 4.74783 31.9967C4.82783 31.8667 5.04783 32.1767 5.13783 31.8667L4.87783 31.6767C4.95783 31.5067 5.06783 31.6767 5.10783 31.6467C5.20783 31.5367 5.17783 31.4867 5.20783 31.4567C5.26783 31.3567 5.66783 30.5067 5.65783 30.4567C5.63783 30.2167 5.25783 30.2967 5.26783 30.0367C5.14783 29.9767 4.86783 29.7767 4.74783 29.8767C4.35783 30.8567 3.98783 31.8467 3.58783 32.8167Z" fill="#232021"/>
<path d="M4.26781 29.5166C4.14781 29.5166 4.12781 29.5166 4.03781 29.6166C3.93781 29.7366 2.91781 32.3866 2.87781 32.5866C2.83781 32.7466 2.73781 33.2466 2.97781 33.2666C3.18781 33.2766 4.31781 30.0466 4.55781 29.6766C4.54781 29.6266 4.28781 29.5166 4.26781 29.5166Z" fill="#F0B042"/>
<path d="M3.58781 32.8167C3.54781 32.9167 3.19781 33.3367 3.19781 33.3667C3.23781 34.0767 5.12781 33.5867 4.55781 32.9467C4.39781 32.7667 3.81781 32.6967 3.58781 32.8167Z" fill="#F7C946"/>
<path d="M15.9278 27.8267C17.6678 29.4467 21.1878 32.7967 21.7578 35.0167C21.7578 34.9267 21.7578 34.6367 21.8578 34.5667C22.2078 34.3967 22.5178 34.4267 22.8578 34.4367C22.5978 32.3967 18.9778 29.3767 17.6078 27.8267C17.0578 27.6267 16.4678 27.8367 15.9278 27.8267Z" fill="#363838"/>
<path d="M22.8578 34.4367C22.5078 34.4367 22.2078 34.3967 21.8578 34.5667C21.7578 34.6367 21.7578 34.9267 21.7578 35.0167C21.7578 35.0867 21.8678 35.6067 21.8878 35.6267C21.9978 35.8067 24.1178 35.2267 24.5078 35.1467C24.7178 35.0967 24.9078 34.8967 24.9278 34.8867C24.6378 34.5267 24.6778 34.1567 24.9878 33.8567C24.2678 33.8867 24.0078 33.7867 24.0478 34.6367C23.7578 34.2167 24.1778 34.0067 23.4678 34.1867L23.5978 34.7667L23.4078 34.3767L23.2778 34.8267C23.1178 34.7667 23.2378 34.3067 23.0878 34.3067C23.0278 34.3067 23.1678 34.4467 22.8578 34.4367Z" fill="#232021"/>
<path d="M22.0178 36.0466C21.8978 36.7066 23.1078 36.1966 23.5078 36.1066C23.9478 36.0166 25.7278 35.6666 25.9978 35.5266C26.1278 35.4566 26.4478 35.0966 26.1878 35.0066C25.9878 34.9366 22.5278 35.9566 22.0178 36.0366V36.0466Z" fill="#F0B042"/>
<path d="M25.3078 33.8567C25.0178 34.3467 25.3278 34.5967 25.6278 34.9567C25.7578 34.9367 26.2278 34.9167 26.2778 34.7967C26.0578 34.2067 25.9478 33.9667 25.3078 33.8567Z" fill="#F7C946"/>
<path d="M24.9878 33.8566C24.6778 34.1566 24.6378 34.5366 24.9278 34.8866C24.9678 34.8866 25.4378 34.9766 25.6378 34.9466C25.3278 34.5866 25.0178 34.3366 25.3178 33.8466C25.1078 33.8166 25.1578 33.8466 24.9978 33.8466L24.9878 33.8566Z" fill="#F7C946"/>
<path d="M4.68781 32.5565C4.74781 32.5365 4.74781 32.3665 4.65781 32.3665C4.43781 32.3665 4.50781 32.6065 4.68781 32.5565Z" fill="white"/>
<path d="M22.8578 17.5767C24.5423 17.5767 25.9078 16.4171 25.9078 14.9867C25.9078 13.5563 24.5423 12.3967 22.8578 12.3967C21.1733 12.3967 19.8078 13.5563 19.8078 14.9867C19.8078 16.4171 21.1733 17.5767 22.8578 17.5767Z" fill="white"/>
<path d="M20.1678 14.9167C20.1678 14.9167 20.8978 13.1567 23.2178 12.9567C25.0578 12.7967 25.3378 13.9467 25.3378 13.9467" stroke="#1E1E1E" stroke-width="0.75" stroke-linecap="round" stroke-linejoin="round"/>
<path d="M1.75781 18.2762L8.56781 17.9562L14.7078 23.1862L18.8078 18.8662L27.0078 17.0362C27.3478 16.9462 27.5878 16.6362 27.5878 16.2862V15.7562C27.5878 15.3562 27.2478 15.0462 26.8578 15.0762L2.88781 16.8062C2.28781 16.8462 1.75781 17.1862 1.44781 17.6962L1.31781 17.9162C1.34781 18.1362 1.53781 18.2862 1.75781 18.2762Z" fill="#F9DF4A"/>
<path d="M26.2478 11.3269C26.2478 11.3269 31.9778 9.80688 31.0078 10.9869C30.0378 12.1669 23.2278 12.2369 23.2278 12.2369L26.2478 11.3269Z" fill="#EA983E"/>
<path d="M1.93778 22.5066C1.93778 22.5066 -0.172222 25.8166 1.93778 27.7166C4.04778 29.6166 23.0578 29.0066 24.7378 28.5066C26.1978 28.0666 27.7378 25.1266 26.8578 23.3166C26.6378 22.8666 26.1678 22.5966 25.6678 22.5866L1.94778 22.4966L1.93778 22.5066Z" fill="#EA983E"/>
</svg>
