<svg width="35" height="36" viewBox="0 0 35 36" fill="none" xmlns="http://www.w3.org/2000/svg">
<g filter="url(#filter0_b_1101_22963)">
<circle cx="17.5" cy="18.02" r="17.5" fill="url(#paint0_linear_1101_22963)" fill-opacity="0.85"/>
</g>
<path d="M17.5 27C17.3886 27 17.2959 26.9609 17.2216 26.8828L10.2249 19.5C8.5917 17.8008 8.5917 15.0078 10.2249 13.2891C11.0229 12.4688 12.0622 12 13.1758 12C14.2893 12 15.3472 12.4492 16.1266 13.2891L17.5 14.7344L18.8734 13.2891C20.5066 11.5703 23.1605 11.5703 24.7751 13.2891C25.5546 14.1289 26 15.2227 26 16.3945C26 17.5664 25.5731 18.6797 24.7751 19.5L17.7784 26.8633C17.7784 26.8633 17.5928 26.9805 17.5 26.9805V27ZM13.1758 12.3906C12.155 12.3906 11.2085 12.8008 10.4847 13.5625C9 15.125 9 17.6641 10.4847 19.2266L17.5 26.5898C17.5 26.5898 17.5 26.5898 17.5186 26.5898L24.5153 19.2266C25.2391 18.4648 25.6288 17.4688 25.6288 16.3945C25.6288 15.3203 25.2391 14.3242 24.5153 13.5625C23.0306 12 20.6179 12 19.1332 13.5625L17.5 15.2812L15.8668 13.5625C15.143 12.8008 14.1965 12.3906 13.1758 12.3906ZM17.5 26.5312L10.5218 19.1875C9.07424 17.6445 9.07424 15.1445 10.5218 13.6211C11.2271 12.8789 12.1736 12.4688 13.1758 12.4688C14.1779 12.4688 15.1245 12.8789 15.8297 13.6211L17.4814 15.3594C17.4814 15.3594 18.2424 14.5 19.1889 13.6211C20.1354 12.7422 23.1042 12.0195 24.5704 13.5625C25.2756 14.3047 25.5731 15.3594 25.5731 16.4141C25.5731 17.4688 25.1834 18.4648 24.4782 19.207L17.5 26.5508V26.5312ZM13.1758 12.8594C12.2664 12.8594 11.4312 13.2305 10.7817 13.8945C9.46397 15.2812 9.46397 17.5273 10.7817 18.9141L17.5 25.9844L24.2183 18.9141C24.8493 18.25 25.202 17.3516 25.202 16.4141C25.202 15.4766 24.8493 14.5781 24.2183 13.8945C22.9007 12.5078 20.7664 12.5078 19.4487 13.8945L17.7969 15.6328C17.6485 15.7891 17.3701 15.7891 17.2216 15.6328L15.5699 13.8945C14.9389 13.2305 14.0852 12.8594 13.1758 12.8594Z" fill="#1F222C"/>
<g clip-path="url(#clip0_1101_22963)">
<path d="M24.7751 13.2907C23.1419 11.5698 20.488 11.5698 18.8548 13.2907L17.5 14.7379L16.1266 13.2907C15.3286 12.4498 14.2893 12 13.1758 12C12.0622 12 11.0044 12.4498 10.2063 13.2907C8.5917 15.0117 8.5917 17.7888 10.2063 19.5098L17.2031 26.8827C17.2031 26.8827 17.3886 27 17.5 27C17.5928 27 17.7041 26.9609 17.7784 26.8827L24.7751 19.5098C25.5546 18.6884 26 17.5737 26 16.4003C26 15.2269 25.5546 14.1121 24.7751 13.2907ZM13.1758 12.8409C14.0666 12.8409 14.9203 13.2125 15.5513 13.8774L17.2031 15.6375C17.3515 15.794 17.6299 15.794 17.7784 15.6375L19.4301 13.8774C20.7478 12.5085 22.8821 12.5085 24.1998 13.8774C24.8308 14.5619 25.1834 15.442 25.1834 16.4003C25.1834 17.3585 24.8308 18.2386 24.1998 18.9035L17.5 25.9831L10.7817 18.9035C9.46397 17.5346 9.46397 15.266 10.7817 13.8774C11.4127 13.2125 12.2664 12.8409 13.1758 12.8409Z" fill="#1F222C"/>
</g>
<defs>
<filter id="filter0_b_1101_22963" x="-38.4" y="-37.88" width="111.8" height="111.8" filterUnits="userSpaceOnUse" color-interpolation-filters="sRGB">
<feFlood flood-opacity="0" result="BackgroundImageFix"/>
<feGaussianBlur in="BackgroundImageFix" stdDeviation="19.2"/>
<feComposite in2="SourceAlpha" operator="in" result="effect1_backgroundBlur_1101_22963"/>
<feBlend mode="normal" in="SourceGraphic" in2="effect1_backgroundBlur_1101_22963" result="shape"/>
</filter>
<linearGradient id="paint0_linear_1101_22963" x1="5.65385" y1="-51.3069" x2="63.4144" y2="-23.3636" gradientUnits="userSpaceOnUse">
<stop offset="0.28" stop-color="#FFF6EC"/>
<stop offset="0.558881" stop-color="white"/>
<stop offset="1" stop-color="#FFBF65"/>
</linearGradient>
<clipPath id="clip0_1101_22963">
<rect width="17" height="15" fill="white" transform="translate(9 12)"/>
</clipPath>
</defs>
</svg>
