<svg width="34" height="33" viewBox="0 0 34 33" fill="none" xmlns="http://www.w3.org/2000/svg">
<path d="M11.6064 13.6192C8.82096 13.7963 2.09369 14.475 0.319142 16.8506C-0.211767 17.5662 0.0136877 19.1524 0.319142 19.9492C0.719142 21.0116 1.92642 21.9559 2.8646 22.5019C9.25732 26.2275 23.1191 26.139 29.8028 23.1806C31.1773 22.5756 33.0973 21.4247 33.6646 19.9492C33.8464 19.4623 34.1082 17.7802 33.9555 17.3228C33.4391 15.7882 29.8828 14.748 28.4646 14.416C26.4064 13.9291 24.2319 13.6782 22.1155 13.5602C22.1155 13.5602 15.5264 13.2061 11.5991 13.6192H11.6064Z" fill="#221F20"/>
<path d="M2.19552 20.2371L3.30097 20.7978C3.62825 20.8051 3.89006 21.0412 4.23188 20.9158C4.34097 20.8789 4.4137 20.7166 4.43552 20.7092C4.52279 20.6797 5.99916 21.1519 6.23916 21.2109C6.84279 21.3585 7.46097 21.4617 8.07188 21.565C8.26825 21.9192 7.76643 21.956 7.60643 22.0962C7.30825 22.3618 7.5337 22.8635 7.50461 23.2324C7.49006 23.4021 7.35188 23.616 7.34461 23.6898C7.33006 23.7931 7.43188 23.734 7.41734 23.7636C7.38097 23.8742 5.32279 23.1586 5.16279 23.0996C4.90825 23.0037 2.9737 22.1405 2.93734 22.0224C2.91552 21.956 3.09734 21.8454 2.99552 21.6093C2.88643 21.3437 1.89006 20.8199 2.19552 20.2371Z" fill="#0F1215"/>
<path d="M31.4973 20.3845C31.5773 20.7829 31.3591 21.1813 31.2791 21.5502C31.2573 21.6608 31.3373 21.8084 31.2937 21.8896C31.2282 22.0076 29.4755 22.8486 29.2282 22.9519C29.0246 23.0331 27.2064 23.7118 27.1482 23.6159C27.2719 23.579 27.0973 23.4388 27.0901 23.3503C27.061 23.07 27.2355 22.7232 27.0901 22.4355C26.8864 22.0297 25.7228 22.0002 25.8101 21.6387L29.5555 20.6796C30.0064 21.4469 30.9373 20.5985 31.5046 20.3845H31.4973Z" fill="#0F1215"/>
<path d="M29.0028 16.1573C29.6574 16.3786 31.4755 17.0574 31.5628 17.8541C31.6792 18.8427 29.5774 19.5657 28.8574 19.8166C25.7883 20.8789 21.9264 21.1814 18.6755 21.2626C14.4574 21.3732 9.28645 21.1741 5.26463 19.8756C3.90463 19.4329 0.915538 18.3263 3.38827 16.836C3.81008 16.5778 4.41372 16.3491 4.88645 16.1868C6.09372 15.7663 7.37372 15.5007 8.64645 15.3605C8.47917 15.5228 8.39917 15.7146 8.37008 15.7441C8.36281 15.7441 8.20281 15.7736 8.16645 15.8032C7.97008 15.9507 8.06463 16.1573 8.02099 16.1868C7.9919 16.2089 7.81736 16.1425 7.68645 16.2901C7.65008 16.3343 7.68645 16.445 7.61372 16.4819C7.58463 16.4967 7.41008 16.4524 7.36645 16.5852C7.31554 16.7475 7.4319 16.777 7.46827 16.895C7.26463 16.777 7.14099 16.9762 7.11917 16.9836C7.06827 16.9983 6.75554 16.8213 6.63917 17.0869C6.48645 17.4262 6.82827 17.5295 6.84281 17.618C6.8719 17.8025 6.63917 17.7656 6.56645 17.8099C6.4719 17.8689 6.49372 18.0681 6.3919 18.1345C6.3119 18.1861 6.05736 18.2009 5.92645 18.3115C5.65008 18.5476 5.59917 19.1452 5.92645 19.3739C6.22463 19.5805 6.63917 19.5141 6.88645 19.61C6.94463 19.6321 7.27917 20.0158 7.43917 20.1117C8.17372 20.5396 10.6537 20.6576 11.4901 20.4658C11.7664 20.3994 12.2246 20.1264 12.4501 20.1707C12.4864 20.1707 12.5955 20.2814 12.6537 20.2887C12.7701 20.3035 12.9301 20.1707 13.0901 20.2297C13.141 20.2519 13.2428 20.4215 13.3228 20.4363C13.461 20.4658 13.5701 20.3404 13.6719 20.3478C13.6937 20.3478 13.9483 20.4806 14.021 20.4953C14.0501 20.4953 14.1883 20.4363 14.1955 20.4363C14.2101 20.4363 14.341 20.5691 14.3992 20.5838C14.5592 20.6207 14.7046 20.5248 14.7483 20.5248C14.7701 20.5248 14.8937 20.6281 15.0683 20.6134C15.1919 20.606 15.7228 20.4658 15.8246 20.4658C15.9119 20.4658 15.9628 20.5543 15.9992 20.5543C16.1737 20.5691 16.2537 20.451 16.3774 20.4658C16.3992 20.4658 16.4501 20.5617 16.581 20.5543C16.8355 20.5396 16.8646 20.1633 16.9592 20.1412C16.9883 20.1412 17.461 20.333 17.541 20.3478C17.7519 20.2445 18.0646 20.3773 18.2101 20.3478C18.2392 20.3478 18.3337 20.2223 18.4428 20.2297C18.5228 20.2297 18.6028 20.3699 18.821 20.3478C18.9155 20.3404 19.0537 20.2297 19.0828 20.2297C19.0901 20.2297 19.221 20.3183 19.2283 20.3183C19.3446 20.3183 19.4174 20.2592 19.461 20.2592C19.4828 20.2592 19.5264 20.3846 19.6646 20.3478C19.6864 20.3478 19.7883 20.2002 19.8101 20.2002C19.8174 20.2002 19.9555 20.2887 19.9846 20.2887C20.0937 20.2887 20.661 20.274 20.741 20.2592C20.8501 20.2371 21.0974 20.0231 21.1483 20.0231C21.8174 20.001 22.4283 20.4584 23.1264 20.5543C23.7664 20.6429 24.4355 20.5691 25.0464 20.3773C25.2064 20.3256 25.5119 20.1043 25.6283 20.0822C26.0137 20.0084 26.4428 20.0822 26.9083 19.9641C27.4028 19.8313 28.0283 19.6026 27.9992 19.005C27.9628 18.2525 27.5919 18.0681 26.9228 17.9279C26.9446 17.8394 27.0246 17.8099 27.0974 17.7804C27.1264 17.7656 27.2064 17.7951 27.2283 17.7804C27.3301 17.7213 27.381 17.4926 27.3592 17.382C27.3228 17.1975 27.0464 17.109 27.0392 17.0869C27.0319 17.0574 27.1992 16.9836 26.9664 16.7475C26.9374 16.718 26.821 16.7254 26.8064 16.7032C26.7919 16.6885 26.7701 16.4303 26.7192 16.3491C26.7046 16.327 26.4574 16.0761 26.4137 16.0392C26.3628 15.995 26.2319 16.0245 26.2101 16.0097C26.1883 15.995 26.1955 15.8769 26.1664 15.8474C25.8828 15.5671 25.4392 15.5007 25.1192 15.272C26.4064 15.4638 27.7592 15.7441 28.9955 16.1573H29.0028Z" fill="url(#paint0_linear_1352_5863)"/>
<path d="M30.1374 19.942C26.5664 21.5208 21.2064 21.7643 17.3083 21.8012C13.4174 21.8454 8.84281 21.5651 5.11917 20.4142L5.26463 19.883C9.28644 21.1815 14.4574 21.3806 18.6755 21.27C21.9192 21.1815 25.7883 20.8863 28.8574 19.824L28.9883 20.3257L30.1374 19.942Z" fill="#C6BDBA"/>
<path d="M29.4682 15.744C30.2464 15.9211 31.9264 16.74 32.1737 17.5589C32.5446 18.7762 31.0173 19.5509 30.1373 19.9345L28.9882 20.3181L28.8573 19.8165C29.5846 19.5656 31.6791 18.8352 31.5628 17.854C31.4682 17.0572 29.6573 16.3785 29.0028 16.1572C29.1555 15.6776 28.9664 15.626 29.4682 15.744Z" fill="#929091"/>
<path d="M4.89372 16.1867C4.42099 16.349 3.81735 16.5777 3.39554 16.836C0.922809 18.3336 3.91917 19.4403 5.2719 19.8755L5.12645 20.4067C4.08645 20.0821 2.02099 19.396 1.83917 18.1344C1.94826 18.009 1.85372 17.7729 1.86826 17.677C1.93372 17.3155 2.28281 16.954 2.53735 16.7179C3.01735 16.3343 3.71554 15.9654 4.3119 15.8031C4.45735 15.7662 4.61735 15.7367 4.76281 15.6851L4.89372 16.1867Z" fill="#929091"/>
<path d="M29.4682 15.7441C28.9592 15.6261 29.1555 15.6777 29.0028 16.1573C27.7664 15.7441 26.4137 15.4638 25.1264 15.272C25.0392 15.2572 24.9446 15.3088 24.9082 15.3015C24.8937 15.3015 24.7337 15.0801 24.6755 15.0359C24.6173 14.9916 24.421 14.9842 24.4137 14.9769C24.3992 14.9695 24.3264 14.6891 24.2246 14.667C25.9992 14.8219 27.7882 15.1465 29.4682 15.7441Z" fill="#AFAEAE"/>
<path d="M8.64644 15.3605C7.38099 15.5007 6.09372 15.7662 4.88644 16.1868L4.75554 15.6851C4.61008 15.7367 4.45008 15.7662 4.30463 15.8031C5.8319 15.2646 7.56281 14.844 9.18463 14.7112C9.22826 14.7112 9.63554 14.667 9.63554 14.726C9.45372 14.726 9.29372 14.999 9.2719 15.0064C9.23554 15.0211 9.10463 14.9916 9.01008 15.0359C8.98826 15.0432 8.67554 15.331 8.64644 15.3605Z" fill="#AFAEAE"/>
<path d="M2.53007 16.718C2.27552 16.9615 1.91916 17.3156 1.86098 17.6771C1.84643 17.773 1.94098 18.0091 1.83189 18.1345C1.73007 17.441 2.03552 17.109 2.53007 16.718Z" fill="white"/>
<path d="M21.621 18.1346C21.3446 18.1346 21.0901 18.2305 20.8137 18.2158C20.0282 18.1568 19.6428 17.5739 19.7737 16.8067C19.8173 16.5558 19.8901 16.4673 20.0064 16.2607C21.2428 15.9214 21.7519 17.0723 21.621 18.1346Z" fill="#131A17"/>
<path d="M20.3337 16.4156C20.741 16.3787 21.6064 16.7181 21.0246 17.1976L20.7191 16.7254C20.5446 16.6886 20.4791 17.205 20.3701 17.1976C20.341 17.1976 20.2246 16.7845 20.0792 17.0574C20.0646 17.0943 20.5664 17.5665 20.5955 17.5812C20.6973 17.6403 20.981 17.6329 21.1337 17.7362C21.7228 18.1493 20.6391 18.0829 20.3991 17.9723C19.8028 17.6919 19.6573 16.4746 20.3192 16.4082L20.3337 16.4156Z" fill="#182B19"/>
<path d="M20.5664 17.0428C20.7119 16.9764 20.8646 17.1756 20.9301 17.2936C20.9519 17.4707 20.7919 17.2125 20.7919 17.5444C20.661 17.5002 20.3628 17.1239 20.5591 17.0354L20.5664 17.0428Z" fill="#F7D380"/>
<path d="M21.1773 17.4336L21.3955 17.5295L21.2937 17.7066L21.1628 17.5664L21.1773 17.4336Z" fill="#B8B24B"/>
<path d="M21.3373 17.1606C21.461 17.3377 21.3664 17.5517 21.1992 17.3377L21.3373 17.1606Z" fill="#DAD84E"/>
<path d="M20.6392 16.8066C20.6392 16.8066 20.7337 16.9321 20.6755 16.9616C20.5883 17.0132 20.581 16.8066 20.6392 16.8066Z" fill="#F9DB49"/>
<path d="M22.3919 14.6966C22.1737 14.94 20.9083 16.0909 20.6755 16.1426C20.6464 16.1426 20.181 16.1426 20.1373 16.1426C20.101 16.1426 20.1373 16.0245 20.101 16.0245C20.0864 16.0245 20.021 16.2311 20.0064 16.2606C19.8901 16.4672 19.8173 16.5557 19.7737 16.8066C17.6355 17.6771 15.2283 17.3673 13.0392 16.8434C13.0392 16.8361 13.0392 16.8213 13.0392 16.8066C13.0683 16.6738 12.9373 16.5336 13.0755 16.4524C15.2064 17.05 18.3919 16.9836 20.2901 15.7516C20.8137 15.4122 21.5773 14.5121 21.9628 14.3056C22.4573 14.04 22.0428 14.5638 22.0428 14.6007C22.0428 14.6523 22.3846 14.6228 22.3919 14.6966Z" fill="#EEBE45"/>
<path d="M22.8137 13.9589C22.8137 13.9589 22.6028 13.686 22.581 13.6048C22.8719 13.2507 23.1337 12.8818 23.3882 12.5129C23.3882 12.5129 23.4537 12.5129 23.4246 12.572C23.381 12.6531 23.0828 13.0072 23.0755 13.0441C23.0682 13.1695 23.221 13.1769 23.2282 13.2359C23.2428 13.3319 22.8137 13.7007 23.5555 13.4499C23.6864 13.5606 23.5555 13.6786 23.5337 13.8188C23.5337 13.8409 23.6573 14.1803 23.3591 14.1139C23.1773 14.077 23.2573 13.4573 22.7991 13.9589H22.8137Z" fill="#F9DB49"/>
<path d="M22.8137 13.9588C22.9083 14.2096 22.5592 14.5121 22.3919 14.7039C22.3919 14.6302 22.0428 14.6597 22.0428 14.608C22.0428 14.5711 22.4646 14.0473 21.9628 14.3129C22.1737 14.0842 22.3773 13.8481 22.581 13.6121C22.5955 13.6858 22.8064 13.9441 22.8137 13.9662V13.9588Z" fill="#EDA642"/>
<path d="M10.9228 15.2427C11.2064 15.5599 11.8028 15.9657 12.1955 16.1427L12.0573 16.4969C11.5628 16.1723 11.1119 15.7812 10.8064 15.2648L10.9228 15.2427Z" fill="#EDA642"/>
<path d="M26.8937 14.0327C26.7701 14.0622 26.6392 14.2761 26.4137 14.1876L26.4355 13.9368C26.2682 13.59 26.2464 14.3721 26.0282 14.1876C25.8464 14.0401 26.1228 13.9515 26.1228 13.9368C26.1373 13.8556 26.0792 13.4203 26.0864 13.2949C26.3192 13.3982 26.1446 13.5458 26.181 13.5679C26.2028 13.5826 26.5592 13.5605 26.6464 13.6048C26.8137 13.7081 26.6682 13.9368 26.8937 14.0327Z" fill="#F9DB49"/>
<path d="M13.0755 16.4525C12.9373 16.5337 13.0683 16.6665 13.0392 16.8066C12.8937 16.8583 12.8064 16.755 12.7337 16.7255C12.6392 16.6665 12.6464 16.4525 12.6973 16.3345C12.8137 16.3787 12.9592 16.4156 13.0828 16.4525H13.0755Z" fill="#EDA642"/>
<path d="M5.76642 15.5967C5.65006 15.8402 5.54824 15.7959 5.30096 15.7885C5.32278 15.7443 5.2646 15.641 5.35915 15.5967C5.38096 15.5893 5.70824 15.5672 5.76642 15.5967Z" fill="#F9DB49"/>
<path d="M10.9228 15.2426L10.8064 15.2647C11.1119 15.7811 11.5628 16.1648 12.0573 16.4967L12.1955 16.1426C12.3192 16.2016 12.5592 16.2902 12.6973 16.3344C12.6464 16.4525 12.6392 16.6664 12.7337 16.7255C12.5592 16.6738 12.1592 16.4746 12.1155 16.5484C12.1664 16.814 12.3992 16.7697 12.4428 16.7992C12.4646 16.8214 12.4937 17.0427 12.5955 17.0722C12.7264 17.1165 12.9882 16.9763 13.0392 16.8361C15.2282 17.3599 17.6355 17.6698 19.7737 16.7992C19.6428 17.5591 20.0282 18.1493 20.8137 18.2084C21.2137 18.8871 21.1846 18.3854 21.221 18.3633C21.4246 18.26 21.5701 18.5772 21.6282 18.1272C21.7592 17.0648 21.2501 15.9139 20.0137 16.2533C20.0282 16.2312 20.101 16.0172 20.1082 16.0172C20.1446 16.0172 20.1082 16.1279 20.1446 16.1352C20.1882 16.1352 20.6537 16.1352 20.6828 16.1352C20.9155 16.0836 22.181 14.9327 22.3992 14.6892C22.5737 14.4974 22.9155 14.1949 22.821 13.9441C23.2719 13.4424 23.1992 14.0621 23.381 14.099C23.6792 14.1654 23.5482 13.8261 23.5555 13.8039C23.5701 13.6638 23.7082 13.5457 23.5773 13.435C22.8355 13.6859 23.2646 13.317 23.2501 13.2211C23.2428 13.1621 23.0828 13.1547 23.0973 13.0293C23.0973 12.9924 23.4028 12.6383 23.4464 12.5571C23.4755 12.5055 23.4028 12.4981 23.4101 12.4981C23.4973 12.3432 23.5555 12.1735 23.6573 12.0259C23.7664 12.2546 23.8755 12.0628 24.0064 12.1071C24.181 12.1587 24.0355 12.5202 24.1592 12.5792C24.2319 12.6161 24.3264 12.5202 24.3919 12.5424C24.4792 12.5719 24.6682 12.6752 24.8137 12.6973C24.9301 12.712 24.9373 12.4538 25.1773 12.7784C25.3155 13.0514 24.7773 13.3022 25.2719 13.3244C25.3519 13.2875 25.3373 13.1252 25.3301 13.0514C25.7882 12.476 25.6646 13.2727 25.7737 13.3244C25.8682 13.3686 25.9992 13.2432 26.101 13.2875C26.101 13.4203 26.1519 13.8482 26.1373 13.9293C26.1373 13.9441 25.861 14.0326 26.0428 14.1802C26.261 14.3572 26.2828 13.5826 26.4501 13.9293L26.4282 14.1802C26.6537 14.2687 26.7846 14.0548 26.9082 14.0253C26.9882 14.0031 27.141 14.0105 27.2355 13.9884C27.381 14.0695 27.1919 14.3277 27.3155 14.3794C27.3373 14.3868 27.7882 14.4974 27.8173 14.4974C27.8537 14.4974 27.8901 14.3499 28.0282 14.3794C28.2828 14.8958 27.7664 14.5638 27.7373 14.9622C27.8901 15.0286 28.421 15.0581 28.3701 14.7261C28.3846 14.7261 28.4864 14.6007 28.6173 14.645C28.8137 14.7114 28.6028 14.977 28.7337 15.036C28.8501 15.0876 28.981 14.8811 29.0828 14.9179C29.1119 14.9327 29.2137 15.3901 29.3519 15.427C29.3737 15.427 29.6137 15.2499 29.6792 15.4491C29.7155 15.5524 29.6064 15.6926 29.6428 15.759C29.6864 15.8475 29.9482 15.7959 29.9919 15.9139C30.0282 16.0098 29.9192 16.1574 29.9555 16.2238C29.9992 16.3123 30.261 16.2385 30.3046 16.3418C30.3482 16.4451 30.2537 16.6959 30.2682 16.7328C30.3264 16.8878 30.6101 16.6443 30.6173 16.9837C30.4355 16.9984 30.5228 17.3673 30.4428 17.4116C30.3773 17.4485 29.9046 17.3009 29.7882 17.3304L29.9264 17.1534C29.701 17.1534 29.541 16.7697 29.3882 17.1902C29.5701 17.3673 28.9082 17.2493 28.7555 17.2493C28.7482 17.2493 28.6828 17.3673 28.5664 17.3304C28.3992 17.2788 28.5373 16.8583 28.2973 16.9763C28.2828 16.9837 28.2973 17.2714 28.2973 17.3304C27.7882 17.4632 27.5192 17.6329 26.9882 17.5222C26.8355 17.4927 26.8792 17.3673 26.8719 17.3673C26.8501 17.3673 26.5228 17.4558 26.3701 17.4485C25.4973 17.3894 24.661 17.3747 23.8319 17.7214C23.7592 17.7509 23.541 17.8468 23.541 17.9575C22.981 18.3338 22.9592 19.2412 23.061 19.8683C22.3192 19.4994 22.5155 19.9937 22.3701 20.0601C22.2901 20.1044 22.0646 20.0085 21.9482 20.0232C21.9192 20.0232 21.8392 20.1708 21.6428 20.1413C21.621 20.1413 21.3882 19.979 21.2937 19.9864C21.141 19.9864 21.1555 20.1191 21.0246 20.1044C20.9882 20.1044 20.8792 19.9864 20.8719 19.9864C20.4792 19.9273 20.6173 20.1708 20.5228 20.2224C20.3482 20.311 20.1592 20.0675 20.1373 20.0675C20.0573 20.0601 19.7301 20.2372 19.6355 20.2224C19.5773 20.2151 19.5337 20.0601 19.2137 20.0675C19.0101 20.0675 18.8137 20.2224 18.7919 20.2224C18.7264 20.2224 18.4428 20.1487 18.3701 20.1413C18.3555 20.1413 18.1882 20.2593 18.181 20.2593C18.0792 20.2593 17.9773 20.0306 17.9482 20.0232C17.8973 20.0159 17.8028 20.1413 17.7155 20.1413C17.6573 20.1413 17.4392 19.9937 17.3664 19.9864C16.5373 19.8831 16.981 20.3921 16.7482 20.4585C16.7192 20.4585 16.3192 20.4216 16.2101 20.4216C16.2028 20.4216 16.1664 20.4954 16.021 20.5028C16.0137 20.5028 15.8973 20.3847 15.8682 20.3847C15.6501 20.3921 15.4319 20.5175 15.2501 20.5397C15.2282 20.5397 15.0173 20.4143 14.981 20.4216C14.9592 20.4216 14.7773 20.6577 14.7119 20.6577C14.6464 20.6577 14.4719 20.429 14.4428 20.4216C14.2901 20.3921 14.2464 20.6577 14.0573 20.6134C14.0282 20.6134 13.8901 20.4143 13.7882 20.3774C13.6937 20.3479 13.5846 20.4216 13.5555 20.4143C13.5337 20.4143 13.4173 20.2741 13.2864 20.2593C13.2282 20.2593 13.1555 20.3405 13.0973 20.3405C13.0828 20.3405 13.0392 20.2519 12.8646 20.2593C12.7846 20.2593 12.6682 20.4143 12.5592 20.3774C12.4282 20.3331 12.4937 20.0601 12.3701 20.0232C12.3046 20.0085 11.7082 20.0601 11.6355 20.1413C11.5773 18.9166 11.9919 18.4666 10.7701 17.7952L10.8646 17.6772L10.5737 17.7141C9.51188 17.2124 7.26461 16.814 6.20279 17.4042C5.99916 17.5149 5.82461 17.8468 5.78097 17.8764C5.65734 17.9575 4.96643 18.0239 4.74097 18.1124C4.39188 18.2452 4.27552 18.4739 3.99188 18.5846C3.99188 18.4887 3.97734 18.3264 3.95552 18.2305C3.95552 18.201 3.97734 18.1862 3.99188 18.1715C3.97734 18.142 3.91188 18.1493 3.87552 18.1493C3.83916 18.0903 3.83188 18.0313 3.75916 17.9944C3.90461 18.0092 3.79552 17.8247 3.8537 17.7583C3.86097 17.7509 4.06461 17.7436 4.10097 17.6993C4.11552 17.6845 4.15188 17.3083 4.18097 17.2714C4.29006 17.1165 5.1337 17.2935 3.99188 16.6443C3.99188 16.6 4.5737 16.6517 4.68279 16.6664C4.74825 16.6664 5.06097 16.8804 5.10461 16.6443C5.11188 16.5927 4.71188 16.2459 4.93006 16.1574C5.39552 15.9582 5.24279 16.6517 5.31552 16.7033C5.5337 16.8287 5.64279 16.5927 5.66461 16.5853C5.68643 16.5853 6.08643 16.7845 5.89734 16.4303C5.08279 16.6591 6.07188 16.0172 5.26461 16.0762C5.22825 15.9287 5.2937 15.877 5.34461 15.7664C5.58461 15.7664 5.68643 15.8106 5.81006 15.5745C5.89734 15.3901 5.79552 15.1983 5.89006 15.0876C5.99188 14.9548 6.23188 15.0729 6.3337 15.0286C6.45734 14.9696 6.34825 14.6228 6.39188 14.5417C6.44279 14.4384 6.79915 14.5122 6.83552 14.4827C6.90097 14.4384 6.79188 14.1064 6.91552 14.0548C7.58461 14.3204 7.35188 13.922 7.5337 13.8187C7.68643 13.7301 7.95552 13.9367 7.91916 13.4646C8.21734 13.4941 8.10825 13.6859 8.4937 13.5457C8.55188 13.5236 8.55188 13.4055 8.61006 13.3908C8.71188 13.3613 8.85006 13.5383 8.87916 13.5088C8.93006 13.4646 8.87916 13.3022 8.90097 13.258C8.99552 13.0735 9.27188 13.2654 9.34461 13.2358C9.47552 13.1842 9.30097 12.7637 9.57734 12.6899C9.62097 12.6752 9.72279 12.7711 9.73006 12.7711C9.82461 12.7415 9.75916 12.5645 9.81006 12.535C9.84643 12.5055 10.3555 12.594 10.4646 12.535C10.4864 12.5202 10.6173 12.1882 10.6392 12.1661C10.8428 11.9226 11.0901 11.7161 11.3155 11.48C10.5592 12.653 9.91188 14.0031 10.9882 15.2278L10.9228 15.2426Z" fill="#EEBE45"/>
<path d="M10.7264 17.8248C10.661 17.7879 10.5882 17.7732 10.5373 17.7437L10.8282 17.7068L10.7337 17.8248H10.7264Z" fill="#682F1C"/>
<path d="M30.5955 16.9986C30.5955 17.0798 30.4573 17.3011 30.6755 17.3085C30.581 17.3528 30.4719 17.3823 30.4428 17.5003C29.8901 17.3823 29.141 17.3306 28.5737 17.3823C28.2173 17.4118 27.5991 17.6848 27.381 17.6921C27.2137 17.6995 26.6901 17.5077 26.4573 17.5003C25.5991 17.4634 24.2464 17.4708 23.5119 17.9725C23.5119 17.8618 23.7228 17.7659 23.8028 17.7364C24.6391 17.3897 25.4682 17.4044 26.341 17.4634C26.4937 17.4708 26.8137 17.3823 26.8428 17.3823C26.8501 17.3823 26.8064 17.5077 26.9591 17.5372C27.4901 17.6479 27.7591 17.4708 28.2682 17.3454C28.2682 17.2937 28.2537 16.9986 28.2682 16.9913C28.5082 16.8732 28.3701 17.2937 28.5373 17.3454C28.661 17.3823 28.7191 17.2642 28.7264 17.2642C28.8864 17.2642 29.5482 17.3823 29.3591 17.2052C29.5119 16.7773 29.6719 17.1683 29.8973 17.1683L29.7591 17.3454C29.8755 17.3159 30.3482 17.4561 30.4137 17.4265C30.4937 17.3823 30.4137 17.0134 30.5882 16.9986H30.5955Z" fill="#F9DB49"/>
<path d="M4.6464 16.6887C4.99549 16.2166 4.49367 16.1575 5.22095 16.1059C6.02822 16.0469 5.03913 16.6887 5.85368 16.46C6.04277 16.8215 5.65004 16.6076 5.62095 16.615C5.59913 16.615 5.49731 16.8584 5.27186 16.733C5.19913 16.6814 5.35186 15.9879 4.8864 16.1871C4.66822 16.2756 5.06822 16.6223 5.06095 16.674C5.01004 16.9101 4.70458 16.7035 4.63913 16.6961L4.6464 16.6887Z" fill="#F9DB49"/>
<path d="M28.3628 14.7337C28.4137 15.0657 27.8828 15.0362 27.73 14.9698C27.7519 14.5714 28.2755 14.9034 28.0209 14.387C28.2028 14.4239 28.0428 14.7337 28.37 14.7411L28.3628 14.7337Z" fill="#FCE884"/>
<path d="M25.3155 13.0589C25.3228 13.1326 25.3373 13.2949 25.2573 13.3318C24.7628 13.3097 25.301 13.0589 25.1628 12.7859C25.1846 12.8228 25.3155 13.0441 25.3155 13.0589Z" fill="#F9DB49"/>
<path d="M12.7337 16.7254C12.8137 16.7476 12.8937 16.8582 13.0391 16.8066C13.0391 16.8213 13.0391 16.8361 13.0391 16.8435C12.9882 16.9837 12.7337 17.1238 12.5955 17.0796C12.4937 17.0427 12.4646 16.8287 12.4428 16.8066C12.3991 16.7697 12.1664 16.814 12.1155 16.5558C12.1591 16.482 12.5591 16.6812 12.7337 16.7328V16.7254Z" fill="#F9DB49"/>
<path d="M23.9119 13.9958C24.1082 13.9958 24.1882 14.2541 24.0282 14.3869C23.9773 14.4311 23.8537 14.409 23.8173 14.4459C23.7446 14.5197 23.9628 14.9918 23.4682 14.6377C23.4246 14.2172 24.0646 14.468 23.8173 14.0549C23.8537 14.0549 23.9046 13.9958 23.9119 13.9958Z" fill="#F9DB49"/>
<path d="M21.621 18.1348C21.5628 18.5848 21.4246 18.2676 21.2137 18.3708C21.1773 18.3856 21.2137 18.8947 20.8064 18.2159C21.0828 18.2381 21.3446 18.1348 21.6137 18.1348H21.621Z" fill="#F9DB49"/>
<path d="M22.2973 15.5969C22.3773 15.5379 22.6101 15.8035 22.6246 15.8477C22.7846 16.2387 21.7664 16.0543 22.2973 15.5969Z" fill="#EEBE45"/>
<path d="M22.5664 17.0427C23.0101 16.9689 22.8137 17.4632 22.4501 17.4337C22.2682 17.3968 22.3628 17.0796 22.5664 17.0427Z" fill="#EEBE45"/>
<path d="M14.7555 19.1086C14.9228 19.1012 14.7919 19.2783 14.8137 19.3226C14.8282 19.3595 15.1046 19.3373 14.8719 19.5365C14.6028 19.507 14.5664 19.2562 14.3555 19.4775C14.3846 19.0865 14.581 19.2709 14.6028 19.2636C14.6391 19.2488 14.7337 19.1086 14.7555 19.1086Z" fill="#F9DB49"/>
<path d="M16.1373 18.0166C16.53 18.0166 16.0355 18.7986 15.7737 18.1568C15.89 18.0018 15.9337 18.1937 15.9846 18.1789C15.9919 18.1789 16.0573 18.024 16.1373 18.024V18.0166Z" fill="#EEBE45"/>
<path d="M17.33 18.3264C17.3882 18.3043 17.4537 18.3854 17.541 18.3485L17.4464 18.8355C17.3009 18.8945 17.09 18.4223 17.33 18.3264Z" fill="#F9DB49"/>
<path d="M12.021 19.1896C12.2028 19.0863 12.2246 19.4478 12.3482 19.5216C12.1155 20.0306 11.8464 19.2855 12.021 19.1896Z" fill="#F9DB49"/>
<path d="M10.6682 16.9248C10.8864 16.8289 10.9737 17.338 10.7846 17.4339C10.5737 17.4781 10.5591 16.9765 10.6682 16.9248Z" fill="#EEBE45"/>
<path d="M21.5264 19.5364C21.6646 19.647 21.9337 19.4774 21.9337 19.6323C21.7301 20.0307 21.381 20.0012 21.5264 19.5364Z" fill="#F9DB49"/>
<path d="M5.66458 16.9247C5.81731 16.91 5.83913 17.0797 5.89731 17.1166C5.91186 17.1239 6.17367 17.0059 6.07186 17.2936C6.0064 17.4781 5.57731 17.1534 5.57004 16.9838C5.6064 16.9838 5.65731 16.9247 5.66458 16.9247Z" fill="#F9DB49"/>
<path d="M19.2573 18.0534C19.4901 18.0313 19.4391 18.3264 19.3373 18.4444C19.2719 18.3559 18.9882 18.4149 18.9737 18.3043C18.9664 18.2526 19.221 18.0534 19.2646 18.0534H19.2573Z" fill="#F9DB49"/>
<path d="M28.1082 16.4969C28.2464 16.4527 28.3555 16.5264 28.4355 16.6371C28.3991 17.1904 27.8537 16.5781 28.1082 16.4969Z" fill="#F9DB49"/>
<path d="M9.74458 16.8436C9.79549 16.8215 9.91913 16.8436 9.95549 16.9026C10.0137 17.7216 9.45368 16.9617 9.74458 16.8436Z" fill="#F9DB49"/>
<path d="M13.5991 17.5888C13.8755 17.4855 13.9628 17.965 13.7882 17.9798C13.7664 17.9798 13.5991 17.7954 13.461 17.8027C13.4319 17.7363 13.5555 17.6035 13.5991 17.5888Z" fill="#F9DB49"/>
<path d="M14.981 18.5994C15.1191 18.6363 15.1773 18.71 15.2719 18.8133C15.0973 19.2117 14.7773 18.6731 14.981 18.5994Z" fill="#F9DB49"/>
<path d="M20.4137 18.7617C20.5882 18.8207 20.29 19.1969 20.1809 19.1158C20.0355 19.0051 20.2173 18.6953 20.4137 18.7617Z" fill="#F9DB49"/>
<path d="M7.43915 16.4157C7.5846 16.3272 7.97006 16.8068 7.43915 16.7256V16.4157Z" fill="#F9DB49"/>
<path d="M12.0937 18.6807C12.0937 18.6807 12.4573 18.7249 12.3846 18.8946C12.3046 19.0791 11.8682 18.8799 12.0937 18.6807Z" fill="#F9DB49"/>
<path d="M24.2246 13.3687C24.4282 13.3982 24.181 13.863 24.0719 13.7966C24.05 13.6786 24.0719 13.3466 24.2246 13.3687Z" fill="#F9DB49"/>
<path d="M15.4028 18.0166C15.7737 18.0387 15.2937 18.6437 15.2282 18.1937L15.4028 18.0166Z" fill="#F9DB49"/>
<path d="M18.2537 18.4077C18.3264 18.3782 18.5955 18.6954 18.37 18.7618C18.1155 18.8356 18.1882 18.4372 18.2537 18.4077Z" fill="#F9DB49"/>
<path d="M22.6828 14.6968C22.9519 14.6157 22.8428 15.0288 22.6028 15.0509C22.3628 15.0731 22.6537 14.7042 22.6828 14.6968Z" fill="#F9DB49"/>
<path d="M22.45 16.5338C22.5809 16.46 22.77 16.7256 22.6028 16.8068C22.4064 16.9101 22.2609 16.6371 22.45 16.5338Z" fill="#F9DB49"/>
<path d="M13.8682 18.4445C14.3482 18.3855 13.8319 18.9978 13.7155 18.5256C13.8101 18.5404 13.861 18.4519 13.8682 18.4445Z" fill="#F9DB49"/>
<path d="M22.0646 19.1528C22.2537 19.1086 22.3555 19.4332 22.1446 19.4627C21.9119 19.4996 21.9482 19.1823 22.0646 19.1528Z" fill="#F9DB49"/>
<path d="M12.8282 18.9905C12.8282 18.9905 13.0246 19.0052 13.0391 19.0864C13.0901 19.411 12.5446 19.2118 12.8282 18.9905Z" fill="#F9DB49"/>
<path d="M26.7991 14.3058C26.9082 14.2837 27.1191 14.3943 26.9519 14.5419C26.7482 14.5419 26.4501 14.387 26.7991 14.3058Z" fill="#F9DB49"/>
<path d="M19.7591 18.8725C19.9191 18.8651 19.8609 19.1602 19.8391 19.1823C19.7155 19.2856 19.5337 18.8872 19.7591 18.8725Z" fill="#F9DB49"/>
<path d="M16.8282 17.4338C16.8282 17.4338 16.9955 17.4633 17.0028 17.5297C17.0464 17.9281 16.5882 17.6404 16.8282 17.4338Z" fill="#F9DB49"/>
<path d="M17.7519 18.1714C17.9555 18.0829 17.9701 18.4223 17.8319 18.4444C17.7155 18.4665 17.6064 18.2378 17.7519 18.1714Z" fill="#F9DB49"/>
<path d="M5.49733 17.1609C5.43188 17.1462 5.38097 17.065 5.38097 17.1978C5.13369 17.0429 5.2646 17.065 5.40278 16.8879L5.49733 17.1609Z" fill="#EEBE45"/>
<path d="M17.2573 17.6257C17.3737 17.6183 17.4391 17.847 17.3373 17.8986C17.1337 18.0019 17.0828 17.6404 17.2573 17.6257Z" fill="#F9DB49"/>
<path d="M12.9446 19.6177C13.25 19.6472 12.9446 19.9423 12.7337 19.7579L12.7555 19.6619C12.8209 19.6988 12.9373 19.6251 12.9446 19.6251V19.6177Z" fill="#F9DB49"/>
<path d="M8.3264 15.9067C8.3264 15.9067 8.47913 15.9658 8.55913 15.9067C8.5955 16.283 8.05004 16.0764 8.3264 15.9067Z" fill="#F9DB49"/>
<path d="M13.4828 18.7986C13.6501 18.9904 13.6864 19.2929 13.3882 19.0494L13.4828 18.7986Z" fill="#F9DB49"/>
<path d="M6.0137 16.6519C6.0137 16.6519 6.22461 16.6961 6.22461 16.7478C6.23188 17.0502 5.81006 16.7994 6.0137 16.6519Z" fill="#F9DB49"/>
<path d="M25.0682 15.3976C25.2137 15.3386 25.2573 15.6263 25.1482 15.6706C25.0028 15.7296 24.9591 15.4419 25.0682 15.3976Z" fill="#EEBE45"/>
<path d="M16.7555 18.7986C16.9446 18.7838 16.9664 18.9978 16.8355 19.0347C16.661 19.0789 16.6101 18.8133 16.7555 18.7986Z" fill="#F9DB49"/>
<path d="M24.0282 17.1608C24.1082 17.1461 24.2682 17.2199 24.2391 17.301C24.1809 17.4707 23.7664 17.2199 24.0282 17.1608Z" fill="#F9DB49"/>
<path d="M24.6828 12.9039C24.9228 12.926 24.7846 13.2063 24.5664 13.0957C24.5446 13.0883 24.5591 12.8891 24.6828 12.9039Z" fill="#F9DB49"/>
<path d="M6.58823 15.6335C6.69732 15.6335 6.71914 15.8254 6.66823 15.8696C6.53005 15.9803 6.39914 15.6409 6.58823 15.6335Z" fill="#F9DB49"/>
<path d="M28.9155 15.6337C29.1119 15.6189 29.0464 15.8033 28.9519 15.8255C28.7701 15.8697 28.7264 15.641 28.9155 15.6337Z" fill="#F9DB49"/>
<path d="M26.181 16.2975C26.2828 16.2606 26.3919 16.541 26.2173 16.5336C26.1155 16.5336 26.0719 16.3344 26.181 16.2975Z" fill="#F9DB49"/>
<path d="M8.36279 13.8777C8.50097 13.9736 8.19551 14.1802 8.15188 14.0179C8.13006 13.9367 8.35551 13.8777 8.36279 13.8777Z" fill="#F9DB49"/>
<path d="M24.2973 12.8596C24.4937 12.7859 24.4573 13.0514 24.3337 13.0514C24.2173 13.0514 24.2028 12.8891 24.2973 12.8596Z" fill="#F9DB49"/>
<path d="M26.4573 15.1245C26.5737 15.1245 26.5882 15.2868 26.4937 15.3163C26.3264 15.3827 26.3482 15.1245 26.4573 15.1245Z" fill="#F9DB49"/>
<path d="M5.49731 17.1609C5.54095 17.1757 5.59186 17.2052 5.65004 17.2199C5.52641 17.3601 5.4755 17.2642 5.38095 17.1978C5.38095 17.0576 5.43186 17.1388 5.49731 17.1609Z" fill="#DC8D53"/>
<path d="M28.7991 16.8066C29.0319 16.8878 28.6319 17.0722 28.6246 16.9025C28.6246 16.8804 28.7919 16.7992 28.7991 16.8066Z" fill="#EDA642"/>
<path d="M26.1082 15.6706C26.2028 15.6485 26.2391 15.8034 26.1446 15.8255C26.0501 15.8477 26.0137 15.6927 26.1082 15.6706Z" fill="#F9DB49"/>
<path d="M15.2137 19.8538C15.2137 19.8538 15.3155 19.9054 15.3082 19.9128C15.2792 19.9792 15.1264 19.9128 15.2137 19.8538Z" fill="#4C251B"/>
<path d="M4.74097 17.4337C4.79916 17.4116 4.82825 17.4927 4.77734 17.5149C4.71916 17.537 4.69007 17.4559 4.74097 17.4337Z" fill="#B14742"/>
<path d="M3.91914 18.2528C3.87551 18.2528 3.86096 18.2085 3.83914 18.1716C3.87551 18.1716 3.93369 18.1569 3.95551 18.1937C3.94096 18.2085 3.91187 18.2233 3.91914 18.2528Z" fill="#EDA642"/>
<path d="M23.4901 17.0428C23.5482 17.0207 23.5773 17.1019 23.5264 17.124C23.4682 17.1461 23.4392 17.065 23.4901 17.0428Z" fill="#EA9840"/>
<path d="M24.1082 12.749L24.1664 12.7638L24.1446 12.8228L24.1228 12.8007L24.1082 12.749Z" fill="#C8833D"/>
<path d="M20.5228 19.6545L20.581 19.6767L20.5228 19.7357L20.5082 19.7136L20.5228 19.6545Z" fill="#95532E"/>
<path d="M9.13369 14.1138C9.48279 14.0253 10.2173 14.527 10.3482 14.8737C10.4864 15.2426 10.4064 16.032 10.0573 16.2607C9.94097 16.3345 9.49006 16.364 9.28642 16.2976C8.34824 16.0025 8.66824 14.2319 9.13369 14.1138Z" fill="#221F20"/>
<path d="M9.09007 14.4236C9.17007 14.4089 9.49007 14.9548 9.49735 14.9917C9.49735 15.036 9.34462 15.0581 9.38098 15.1097C9.41007 15.154 9.49735 15.1097 9.51916 15.1319C9.67189 15.2721 9.93371 16.0836 9.78825 16.1869C9.67189 16.268 9.29371 16.15 9.17007 16.0688C8.69735 15.7516 8.7628 14.8368 9.09007 14.431V14.4236Z" fill="#182B19"/>
<path d="M9.32279 14.3057C9.70097 14.4016 10.0864 14.5934 10.2246 14.9918C10.1955 15.0656 9.76643 15.0729 9.70825 15.0508C9.66461 15.036 9.20643 14.3352 9.32279 14.3057Z" fill="#182B19"/>
<path d="M9.78825 15.0876L10.2683 15.1467C10.3046 15.1983 10.181 15.8107 10.1301 15.8328C10.0064 15.8918 9.68643 15.154 9.78098 15.0876H9.78825Z" fill="#182B19"/>
<path d="M3.72281 18.0165C3.79554 18.0534 3.80281 18.1124 3.83917 18.1714C3.57008 18.1936 3.56281 18.3706 3.57008 18.5993C3.34463 18.3928 3.31554 18.8502 3.65008 18.7912C3.74463 18.7764 3.8319 18.71 3.91917 18.6731C3.89735 18.8207 3.87554 18.9756 3.88281 19.1231C3.77372 19.3445 1.9119 18.7469 2.74826 18.0903C2.79917 18.0534 3.33008 17.8468 3.36644 17.8542C3.39554 17.8542 3.48281 17.9944 3.51917 18.0091C3.56281 18.0239 3.70099 17.9944 3.73008 18.0091L3.72281 18.0165Z" fill="#D8E49F"/>
<path d="M2.50825 18.7173C2.8137 19.1747 3.42461 19.1378 3.87552 19.3591C3.83916 19.5583 2.35552 19.1452 2.50825 18.7173Z" fill="#15864C"/>
<path d="M3.91916 18.2527C3.94098 18.3412 3.9628 18.5109 3.95552 18.6068C3.95552 18.6437 3.91916 18.6437 3.91916 18.688C3.83189 18.7248 3.74461 18.7912 3.65007 18.806C3.65007 18.7765 3.57734 18.6216 3.57007 18.6142C3.57007 18.3855 3.57007 18.2084 3.83916 18.1863C3.86098 18.2158 3.86825 18.2601 3.91916 18.2674V18.2527Z" fill="#C5D86B"/>
<path d="M2.50825 18.9904C2.56643 18.9682 2.59552 19.0494 2.54461 19.0715C2.48643 19.0936 2.45734 19.0125 2.50825 18.9904Z" fill="#149A54"/>
<path d="M3.57006 18.5993C3.57006 18.5993 3.64279 18.7616 3.65006 18.7912C3.31552 18.8428 3.35188 18.3854 3.57006 18.5993Z" fill="#CDC157"/>
<path d="M10.9519 24.5235C10.8719 25.7482 10.0574 26.7663 9.09008 27.445C8.89372 27.5852 7.7519 28.1016 7.72281 28.1754C7.69372 28.2418 7.96281 28.9205 7.99917 29.0533C10.0137 28.3156 12.0574 27.1352 12.2464 24.7227L12.1737 24.6194C11.7664 24.6342 11.3592 24.5604 10.9592 24.5161L10.9519 24.5235Z" fill="#292423"/>
<path d="M21.5046 32.8087C21.7228 33.1038 24.5955 32.8824 25.1046 33.0078C25.1992 32.9636 25.1919 32.7423 25.1773 32.6537C24.9882 32.5873 24.341 31.7094 24.261 31.6946C24.1373 31.6799 23.8028 32.2037 23.5919 32.1225C24.1737 31.2667 24.0792 31.2815 23.0973 31.1634L23.6428 30.9643C23.141 30.2855 22.7701 30.3667 21.9773 30.3372L21.6282 32.4988L25.0246 32.6759L21.6282 32.6021L21.5046 32.8013V32.8087Z" fill="#DA3837"/>
<path d="M6.04279 30.7208C6.13734 30.9126 6.60279 32.093 6.71188 32.0783C6.83552 31.9824 7.25006 31.0528 7.23552 30.9938C7.22097 30.9347 6.63188 30.6027 6.69006 30.4921C7.14825 30.5216 7.30825 30.9642 7.5337 30.4183C7.71552 29.9756 7.35188 29.8797 7.1337 29.4887C7.38097 29.3854 7.88279 30.1748 7.87552 29.6363C7.87552 29.4149 7.20643 28.1312 7.27916 27.9763C7.30825 27.9173 7.5337 27.9173 7.57734 27.8288C7.32279 27.814 5.46825 28.2198 5.44643 28.3304C6.02097 29.4002 6.42097 30.5363 6.88643 31.6504L6.76279 31.7758C6.56643 31.3774 5.51916 28.4116 5.32279 28.3526C5.25734 28.3378 5.17006 28.3673 5.14825 28.4263C5.10461 28.5444 6.03552 30.3962 6.04279 30.7208Z" fill="#DA3837"/>
<path d="M21.1555 25.1505C21.7155 26.6851 22.0937 28.286 22.1446 29.9312C22.3337 29.9312 22.5301 30.005 22.741 29.9828C22.8137 29.9755 23.0028 30.0124 23.0392 29.9607C23.0901 28.286 23.0755 26.6924 22.4937 25.0989C22.0573 25.1136 21.5919 25.1431 21.1555 25.1505Z" fill="#292423"/>
<path d="M6.9737 11.982C7.35188 12.1885 7.75188 12.4689 8.21006 12.373C8.34097 12.2033 7.38824 11.4877 7.25006 11.377C6.46461 10.7352 5.01733 9.84984 4.50824 8.98666C4.46461 8.90551 3.86097 7.13489 3.64279 7.68821C3.57734 7.85051 3.94097 8.37432 3.84643 8.40383C3.3737 7.64394 2.60279 7.24555 3.36643 8.47023C3.09006 8.19726 2.55188 7.94642 2.86461 8.61041C3.03915 8.98666 6.43552 11.6721 6.98097 11.9746L6.9737 11.982Z" fill="#292423"/>
<path d="M25.5119 11.6131C25.5119 11.6131 25.33 11.8123 25.3955 11.8418C25.6573 11.8196 25.8973 11.8491 26.101 12.0262C26.6755 11.6352 27.3446 11.3401 27.9555 10.8679C28.181 10.6909 29.8246 9.25961 29.8537 9.12681C29.9337 8.74318 29.4028 8.97188 29.3955 8.94237C30.0719 8.1751 29.2646 8.16772 28.9155 8.82433C28.9591 8.66202 29.3591 7.88 28.9155 7.99066C28.5882 8.07181 28.2755 9.51045 28.021 9.87195C27.4973 10.6171 26.0864 11.0155 25.5046 11.6131H25.5119Z" fill="#292423"/>
<path d="M7.27187 11.2295C7.40278 11.3402 8.31914 12.0263 8.19551 12.1886C7.75914 12.2771 7.37369 12.0115 7.01005 11.8123C6.85005 11.9672 7.06823 12.255 7.05369 12.2771C7.03914 12.3066 6.6246 12.2033 6.57369 12.4984C6.53732 12.6755 6.71187 12.7935 6.7046 12.8083C6.69005 12.8599 5.99914 13.2509 5.86823 13.428C5.81732 13.5018 5.78096 13.7821 5.75914 13.8043C5.71551 13.8338 5.19914 13.9149 5.12641 14.1805C4.98823 14.6896 5.54823 14.5863 5.56278 14.6232C5.56278 14.6379 5.5046 14.8593 5.49732 14.8666C5.47551 14.8814 5.36641 14.7855 5.27914 14.8224C5.14096 14.874 5.03187 15.0806 4.99551 15.088C4.99551 15.1617 4.99551 15.2355 4.99551 15.3093C5.00278 15.4864 5.14096 15.7962 5.12641 15.8184C5.09005 15.87 4.93732 15.7888 4.82096 15.9512C4.75551 16.0397 4.77005 16.2758 4.73369 16.3495C4.69005 16.4528 4.53732 16.5782 4.51551 16.6594C4.43551 16.9988 4.60278 17.3676 4.90823 17.53C5.35914 17.766 8.05732 17.9283 8.74823 17.9726C15.0464 18.43 22.1664 18.3858 28.4137 17.5742C28.4282 17.3824 28.7628 17.4045 28.9155 17.3086C29.701 16.7996 29.6573 16.1208 28.5882 16.7332C28.2828 17.0652 27.6282 17.1685 27.2064 17.0873C26.6755 16.9914 26.9664 16.7848 26.9664 16.7553C26.9664 16.7037 26.6391 16.4971 26.5955 16.5118C26.5664 16.5192 26.2682 16.984 26.2464 16.9988C25.9628 17.1685 24.8719 17.043 24.45 17.0873C24.1591 17.1168 23.1264 17.4709 22.8719 17.3972C22.8355 17.3898 22.7191 17.2127 22.5228 17.1758C22.0937 17.0873 21.3446 17.3972 21.1628 17.3529C21.09 17.3381 20.821 16.9324 20.6391 16.9102C20.3628 16.8734 20.2973 17.1242 20.1155 17.1758C19.6428 17.316 18.6828 17.3824 18.2319 17.2644C18.05 17.2201 17.6791 17.4267 18.2101 17.0209C18.2391 16.475 17.6064 17.2496 17.5991 17.375C17.5991 17.4045 17.8755 17.6185 17.4464 17.707C17.09 17.7808 17.0319 17.434 16.7919 17.3972C16.3773 17.3308 16.2755 17.8472 15.8246 17.6628C15.7591 17.6406 15.621 17.4119 15.5191 17.3972C15.3228 17.375 15.0828 17.6775 14.9519 17.707C14.1737 17.8767 13.0901 16.6889 12.6246 16.8143C12.5301 16.8438 12.3701 17.198 12.1882 17.1242C12.0355 16.1799 11.6282 16.711 11.1773 16.6373C10.9737 16.6004 10.4282 16.2167 10.1228 16.1946C9.81732 16.1725 9.54096 16.3717 9.24278 16.4159C9.1046 16.3495 9.30096 15.9364 9.22096 15.7298C9.17005 15.6044 8.9446 15.5528 8.91551 15.3314C8.85005 14.8445 9.21369 14.5273 9.2646 14.3059C9.33005 14.0404 9.14096 13.5608 9.41732 13.3469C9.5046 13.2805 9.78096 13.2509 9.78823 13.2362C9.86096 13.1329 9.59914 12.3435 9.89732 12.2328C9.99914 12.196 10.6973 12.2107 10.7555 12.1222C10.8064 11.7754 10.5228 11.2959 10.6246 10.9639C10.6464 10.8975 11.061 10.5876 11.1482 10.4327C11.3373 10.1007 11.3446 9.17851 11.7373 9.07523C11.8755 9.03834 12.2537 9.11949 12.3482 9.07523C12.4428 9.03096 12.4428 8.31534 12.6973 8.2268C12.8719 8.17516 13.5773 8.30058 13.621 8.27107C13.6646 8.00548 13.5119 7.60709 13.6428 7.35625C13.7446 7.15705 14.2319 7.16443 14.2973 7.00212C14.3191 6.9431 14.2755 6.74391 14.2973 6.69226C14.6101 6.00615 15.4028 6.36027 15.5919 6.22748C15.6719 6.16845 15.4973 5.68153 15.9191 5.85122C15.7737 5.40118 15.6428 5.50447 16.0064 5.12084C15.5264 5.04706 15.7155 5.26839 15.6355 5.2979C15.6064 5.30528 15.3519 5.04706 15.1119 5.07657C14.9737 5.09132 14.8355 5.29052 14.8064 5.2979C14.3191 5.40118 13.781 5.12084 13.8828 6.00615C13.2282 5.43807 13.1628 6.14632 13.0901 6.18321C13.0828 6.18321 12.981 6.0873 12.9155 6.13894C12.7337 6.27174 12.7119 6.52258 12.6973 6.53733C12.6537 6.56684 11.7519 6.20534 12.261 6.93572C11.861 7.12016 11.7882 6.88408 11.6064 6.84719C11.1846 6.75866 10.9082 7.33412 10.9082 7.69562C10.7555 7.43002 10.421 7.17181 10.1882 7.45216L10.2537 7.82841C8.93732 7.38576 8.82096 8.15303 10.1446 8.33747C9.99187 8.35222 9.63551 8.88341 9.59914 8.89079C9.47551 8.91292 8.98096 8.426 8.98823 9.33344C8.31914 8.69159 8.26096 9.85725 8.19551 9.9089C8.15914 9.93841 7.54096 9.71708 7.47551 10.3294C7.4246 10.7721 7.77369 10.7278 7.30096 11.2L7.27187 11.2295Z" fill="#EEBE45"/>
<path d="M8.29733 14.7855C7.76642 14.7633 8.86461 15.9364 8.75551 15.206C8.74097 15.1322 8.35551 14.7855 8.29733 14.7855Z" fill="#FAD447"/>
<path d="M10.2319 10.2925C10.0209 10.322 9.89731 10.8901 10.0573 10.9122C10.13 10.9196 10.5082 10.381 10.2319 10.2925Z" fill="#FAD447"/>
<path d="M15.9992 5.13547C15.6355 5.51911 15.7664 5.41582 15.9119 5.86586C15.4901 5.69617 15.6573 6.19047 15.5846 6.24211C15.3955 6.38229 14.6028 6.02079 14.2901 6.7069C14.2682 6.76592 14.3119 6.95774 14.2901 7.01676C14.2246 7.17907 13.7373 7.17169 13.6355 7.37089C13.5046 7.62172 13.6573 8.02012 13.6137 8.28571C13.5773 8.31522 12.8646 8.1898 12.6901 8.24144C12.4355 8.3226 12.4355 9.0456 12.341 9.08987C12.2464 9.13413 11.861 9.05298 11.7301 9.08987C11.3373 9.19315 11.3301 10.108 11.141 10.4473C11.0537 10.6097 10.6319 10.9121 10.6173 10.9785C10.5228 11.3105 10.7992 11.7901 10.7482 12.1368C10.6973 12.2253 9.99188 12.2106 9.89006 12.2475C9.59188 12.3581 9.8537 13.1402 9.78097 13.2508C9.76643 13.2656 9.49734 13.2951 9.41006 13.3615C9.1337 13.5681 9.32279 14.0476 9.25734 14.3206C9.20643 14.5345 8.84279 14.8518 8.90825 15.3461C8.93734 15.5674 9.17006 15.619 9.2137 15.7445C9.2937 15.951 9.09734 16.3716 9.23552 16.4306C9.5337 16.3863 9.79552 16.1871 10.1155 16.2092C10.4355 16.2314 10.9664 16.6224 11.1701 16.6519C11.621 16.7257 12.021 16.1945 12.181 17.1388C12.3628 17.2126 12.5228 16.8585 12.6173 16.829C13.0828 16.6962 14.1664 17.884 14.9446 17.7217C15.0755 17.6921 15.3228 17.3897 15.5119 17.4118C15.6137 17.4266 15.7519 17.6553 15.8173 17.6774C16.2682 17.8545 16.3701 17.3454 16.7846 17.4118C17.0319 17.4487 17.0901 17.7954 17.4392 17.7217C17.8682 17.6331 17.5919 17.4118 17.5919 17.3897C17.5992 17.2642 18.2392 16.4822 18.2028 17.0355C17.6719 17.4413 18.0428 17.2347 18.2246 17.279C18.6828 17.397 19.6355 17.3306 20.1082 17.1905C20.2901 17.1388 20.3555 16.888 20.6319 16.9249C20.8137 16.947 21.0901 17.3528 21.1555 17.3675C21.3373 17.4118 22.0864 17.1019 22.5155 17.1905C22.7119 17.2274 22.8282 17.4044 22.8646 17.4118C23.1192 17.4782 24.1519 17.1315 24.4428 17.1019C24.8719 17.0577 25.9555 17.1831 26.2392 17.0134C26.2682 16.9987 26.5592 16.5339 26.5882 16.5265C26.6319 16.5117 26.9592 16.7183 26.9592 16.7699C26.9592 16.7995 26.6682 17.006 27.1992 17.1019C27.621 17.1831 28.2755 17.0724 28.581 16.7478C28.8501 16.4601 28.9446 16.2388 28.4501 16.1945C29.0682 15.7813 28.421 15.4936 27.9701 15.442C28.0646 15.4272 28.1228 15.3018 28.1882 15.287L28.1446 15.0657C27.6646 14.9551 28.1519 14.6009 27.621 14.4239C29.1192 14.3427 27.9337 13.5459 27.0973 13.7599C28.261 13.391 27.6719 12.8303 26.7482 13.0959C26.9155 13.0443 26.9664 12.6459 26.9882 12.6311C27.0028 12.6237 27.1337 12.7196 27.2501 12.6754C27.8973 12.4319 26.7482 11.9302 26.4573 12.0557C26.5664 12.0557 26.6028 11.886 26.6101 11.8786C26.4064 11.7089 26.181 11.6794 25.9337 11.7015C25.8682 11.6646 26.021 11.5023 26.0428 11.4802C26.1082 11.0228 25.5773 11.1335 25.5628 11.104C25.5482 11.0744 25.7592 10.8974 25.6937 10.6613C25.5992 10.3293 25.0319 10.4105 24.9737 10.3736C24.9228 10.3441 24.6828 9.45875 24.1155 9.68745C25.0828 8.80214 23.6792 9.18578 23.5701 9.13413C23.3737 9.03822 23.6282 8.64721 23.5919 8.53655C23.5192 8.32997 22.8573 8.42588 22.6901 8.55868C22.9592 7.8947 22.3337 8.08651 22.3192 8.04963C22.2973 7.99798 22.9373 7.35613 21.8828 7.8283C22.341 7.25285 21.9628 6.82494 21.381 7.27498C21.3301 7.23809 21.4246 6.9061 21.1628 6.74379C20.8792 6.56673 20.6755 6.79543 20.6392 6.78806C20.6028 6.78806 20.3773 6.33065 20.1592 6.25687C19.9264 6.17572 19.6864 6.25687 19.461 6.30113C20.2173 5.4896 19.4028 5.62977 18.8501 5.94701C19.1482 4.92152 18.501 5.65191 18.4573 5.63715C18.4428 5.63715 18.3919 5.40107 18.2828 5.37156C18.1155 5.32729 17.8755 5.51173 17.7592 5.50435C17.7155 5.50435 16.9664 5.34942 16.9228 5.32729C16.8792 5.30516 16.6537 4.61904 16.4428 4.57478C16.1882 4.53051 16.0719 5.08383 16.1592 5.26089C16.1082 5.29778 16.0864 5.20187 16.0282 5.1945L15.9992 5.13547Z" fill="#EEBE45"/>
<path d="M20.3991 12.9189C19.1191 12.705 18.8355 13.8042 19.9628 13.9001C20.93 13.9813 21.3737 13.0812 20.3991 12.9189Z" fill="#DE6190"/>
<path d="M14.3919 12.919C13.1919 12.7272 12.8573 13.7822 13.9555 13.9002C14.9737 14.0035 15.3882 13.0813 14.3919 12.919Z" fill="#DE6190"/>
<path d="M18.1882 13.1846C17.9337 13.915 16.3191 14.092 15.9991 13.3174C15.461 13.5313 15.701 13.9297 16.0428 14.2543C16.7119 13.9445 17.4828 14.0477 18.1446 14.3429C18.5082 14.0109 18.9228 13.3469 18.1882 13.1846Z" fill="#292423"/>
<path d="M15.9991 13.3173C16.3264 14.092 17.9337 13.9149 18.1882 13.1845C17.7519 13.0886 16.4137 13.155 15.9991 13.3173Z" fill="white"/>
<path d="M16.0428 14.2544C16.6246 14.8151 17.5482 14.8888 18.1446 14.3429C17.4828 14.0478 16.7119 13.9445 16.0428 14.2544Z" fill="#DA365D"/>
<path d="M17.6428 8.69145C17.4973 8.65456 16.8573 8.66194 16.9228 8.93491C17.1337 9.28904 18.4064 8.86114 17.6428 8.69145Z" fill="#FFE549"/>
<path d="M12.0719 11.9378C11.5991 11.805 10.9664 13.0518 12.181 12.0484C12.1446 12.0263 12.0937 11.9451 12.0719 11.9378Z" fill="#E7B645"/>
<path d="M22.6392 12.1147C22.4573 12.373 22.7992 12.7197 23.0319 12.823C23.3082 12.6533 22.7846 12.2918 22.6392 12.1147Z" fill="#E7B645"/>
<path d="M19.0028 10.5581C19.0028 10.5581 18.6246 10.5581 18.61 10.5581C18.13 10.6983 19.2864 11.0745 19.2428 10.713C19.2428 10.6909 19.0173 10.5581 19.0028 10.5581Z" fill="#E7B645"/>
<path d="M11.2791 13.4943C11.1264 13.4574 10.9373 14.1951 11.1046 14.2468C11.3301 14.3279 11.4319 13.5311 11.2791 13.4943Z" fill="#E7B645"/>
<path d="M15.2282 15.4495C15.1628 15.4348 15.0464 15.4421 14.9882 15.4716C14.9592 15.7225 15.6646 15.9512 15.6864 15.7815C15.5482 15.6782 15.4028 15.479 15.2282 15.4495Z" fill="#E7B645"/>
<path d="M25.5337 13.3172C25.0319 13.3394 25.6864 13.8484 25.8828 13.8484C26.021 13.7525 25.5628 13.3099 25.5337 13.3172Z" fill="#E7B645"/>
<path d="M23.1192 10.2925C23.0537 10.3367 22.5446 10.7056 22.6828 10.7794C22.8937 10.8384 23.5337 10.4105 23.1192 10.2925Z" fill="#E7B645"/>
<path d="M23.25 16.652C23.1046 16.6225 22.69 17.0725 22.77 17.1832C22.8791 17.3455 23.49 16.7037 23.25 16.652Z" fill="#E7B645"/>
<path d="M16.6755 6.4635C16.421 6.51514 16.9591 7.17913 17.0682 7.03895C17.1919 6.88402 16.7191 6.44875 16.6755 6.4635Z" fill="#E7B645"/>
<path d="M17.4682 12.0263C17.2428 12.0042 17.4028 12.8231 17.5991 12.6903C17.5482 12.5354 17.6719 12.0411 17.4682 12.0263Z" fill="#E7B645"/>
<path d="M24.9228 15.228C24.7846 15.2059 24.5446 15.2133 24.421 15.2944C24.4937 15.4641 25.17 15.4863 25.1628 15.3387C25.1191 15.2871 24.9737 15.2354 24.9228 15.228Z" fill="#FFE549"/>
<path d="M12.1591 10.1597C11.7228 10.0269 11.2137 10.8532 12.2246 10.2704C12.2391 10.2335 12.181 10.1671 12.1591 10.1597Z" fill="#FFE549"/>
<path d="M21.1482 15.8109C21.0173 15.7445 20.9082 16.2979 21.061 16.3864C21.1846 16.3052 21.25 15.8626 21.1482 15.8109Z" fill="#FFE549"/>
<path d="M10.7991 15.538C10.7191 15.5233 10.3991 15.9069 10.581 15.9364C10.6828 15.9512 10.981 15.5601 10.7991 15.538Z" fill="#FFE549"/>
<path d="M14.5737 11.0894C13.6864 10.9566 13.6282 12.255 14.2682 12.3804C15.2137 12.5723 15.2573 11.1926 14.5737 11.0894Z" fill="#292423"/>
<path d="M14.5737 11.2739C14.3482 11.1706 14.2319 11.5911 14.4864 11.5838C14.6028 11.5838 14.7264 11.3403 14.5737 11.2739Z" fill="white"/>
<path d="M19.8319 11.3623C19.01 11.2516 18.9446 12.4763 19.5264 12.6091C20.4864 12.8231 20.5882 11.4656 19.8319 11.3623Z" fill="#292423"/>
<path d="M19.7882 11.8492C19.5919 11.8123 19.541 12.0779 19.701 12.1148C19.8828 12.1517 19.9337 11.8787 19.7882 11.8492Z" fill="white"/>
<path d="M31.73 18.7986C31.6937 19.4331 30.53 19.7135 29.9991 19.7725C29.9118 19.7799 28.77 19.8905 29.1555 19.6176C29.1991 19.588 29.9918 19.5733 30.1591 19.5364C30.7264 19.4257 31.3373 19.2265 31.7373 18.7913L31.73 18.7986Z" fill="#15864C"/>
<path d="M28.7991 17.5075C29.4391 17.4632 31.8828 17.6034 31.6282 18.6584C31.49 19.2339 29.6209 19.5659 29.1046 19.4626C29.0537 19.4257 29.0682 18.8355 29.0464 18.7396C28.9155 18.1641 28.0937 17.9649 27.6209 17.7657C27.6355 17.7067 28.6682 17.5223 28.7919 17.5149L28.7991 17.5075Z" fill="#C5D86B"/>
<path d="M29.7446 18.2896C29.6282 18.4814 29.7155 18.511 29.7809 18.7175C29.6209 18.747 29.5482 18.6511 29.3955 18.6585L29.49 18.3634C29.2282 18.3265 28.9518 18.4888 28.93 18.0683C28.9955 18.0019 29.09 18.0904 29.1191 18.0904C29.17 18.238 29.3373 18.415 29.3082 18.1273C29.3737 18.1495 29.4173 18.238 29.4464 18.2454C29.7009 18.297 29.6428 18.0609 29.9118 18.0093C29.97 18.1495 29.7737 18.2306 29.7373 18.2822L29.7446 18.2896Z" fill="#FFFAF1"/>
<path d="M30.1082 18.2158C30.2464 18.3191 30.3918 18.3265 30.4355 18.5109L30.2246 18.7249C30.0355 18.5699 30.0864 18.4298 30.1082 18.2158Z" fill="#FFFAF1"/>
<path d="M29.7809 18.7175C29.7082 18.5035 29.6282 18.474 29.7446 18.2896L29.8973 18.7027C29.8318 18.7986 29.8173 18.7175 29.7809 18.7248V18.7175Z" fill="#A3AF4D"/>
<path d="M30.7628 18.3708C30.7846 18.4963 30.9591 18.4077 30.9737 18.511C31.0173 18.8209 30.8064 18.5332 30.6682 18.6291L30.7628 18.3782V18.3708Z" fill="#FFF1B0"/>
<path d="M30.4937 18.2895C30.5737 18.2748 30.7482 18.4887 30.61 18.5256C30.4718 18.5625 30.3918 18.3117 30.4937 18.2895Z" fill="#EEF5EA"/>
<path d="M29.3228 18.1348C29.3446 18.4225 29.1846 18.2455 29.1337 18.0979C29.2573 18.0979 29.2209 18.0979 29.3228 18.1348Z" fill="#C5D86B"/>
<path d="M29.9918 18.4888L30.0136 18.5478L29.9555 18.5625L29.9409 18.5478L29.9918 18.4888Z" fill="#A49142"/>
<path d="M23.1846 18.9903C23.461 19.61 24.4137 19.9272 25.0319 20.0453C26.2537 20.2814 28.0719 20.2519 28.9955 19.3001C29.0682 19.8018 28.1955 20.1338 27.8028 20.2371C26.8355 20.4953 25.4537 20.4437 24.4937 20.1559C23.9991 20.0084 23.0755 19.6469 23.1846 18.9829V18.9903Z" fill="#15864C"/>
<path d="M23.141 19.3813C23.141 19.3813 23.301 19.6174 23.1773 19.6174C23.1191 19.6174 23.0391 19.3739 23.141 19.3813Z" fill="#15864C"/>
<path d="M25.1482 17.6623C26.0282 17.5886 27.9046 17.7951 28.6101 18.3632C29.0682 18.7321 28.9955 19.219 28.5301 19.5362C27.4973 20.2445 24.6246 20.1338 23.6428 19.3444C22.3773 18.3263 24.341 17.7361 25.141 17.6623H25.1482Z" fill="#D8E49F"/>
<path d="M27.2064 19.1084L27.2646 18.9904C27.5337 19.1527 27.3519 18.9609 27.381 18.9092C27.7664 19.101 27.6137 18.6805 27.461 18.6363C27.4319 18.6289 27.221 18.8428 27.0173 18.5551C27.0173 18.5477 26.9373 18.4297 26.981 18.3633C27.0973 18.3928 27.7373 18.6215 27.7519 18.6953C27.7737 18.8281 27.6792 18.7617 27.6719 18.8502C27.6719 18.8723 27.8319 19.0273 27.5773 19.1453C27.4392 19.2117 27.3664 19.0863 27.2137 19.1084H27.2064Z" fill="#C5D86B"/>
<path d="M27.0101 19.0716C27.0973 19.0863 27.1337 18.9535 27.1264 19.1527C26.7846 19.1822 26.5883 19.3224 26.2392 19.0716C26.2901 19.0052 26.2901 18.8133 26.3555 18.7396C26.3846 18.7101 26.4137 18.7838 26.4719 18.7174C26.5592 19.5511 26.9664 19.0494 26.5883 18.5994C26.6028 18.592 26.6537 18.5699 26.6683 18.5625C26.6901 18.6141 26.8937 18.7986 26.901 18.8133C26.9083 18.8502 26.6319 18.983 27.0173 19.0642L27.0101 19.0716Z" fill="#DFEABA"/>
<path d="M27.2064 19.1083C27.1701 19.1083 27.1628 19.1451 27.1264 19.1451C27.141 18.9533 27.0973 19.0861 27.0101 19.064C26.9664 18.8943 27.0319 18.732 27.0101 18.5549C27.2137 18.8427 27.4246 18.6287 27.4537 18.6361C27.6064 18.6804 27.7591 19.1009 27.3737 18.9091C27.3446 18.9607 27.5337 19.1525 27.2573 18.9902L27.1991 19.1083H27.2064Z" fill="white"/>
<path d="M26.821 18.3706C26.7774 18.4222 26.7192 18.5255 26.6683 18.5624C26.661 18.5698 26.6028 18.5919 26.5883 18.5993C26.5083 18.6583 26.5228 18.6583 26.4719 18.7173C26.4137 18.7837 26.3846 18.7026 26.3555 18.7394C26.2901 18.8132 26.2901 19.005 26.2392 19.0714C26.2246 19.0936 26.0574 19.1821 26.0501 19.1673L26.1664 18.7985C26.3555 18.7394 26.261 18.6657 26.0864 18.6804C26.181 18.2378 26.1301 18.614 26.3774 18.5624C26.5592 18.5255 26.3628 18.3484 26.821 18.3706Z" fill="#FFF7DD"/>
<path d="M24.8937 18.6804L24.9155 18.8722L25.0537 18.7763C25.0246 18.8575 24.9955 18.946 25.0173 19.0271C24.8937 19.219 24.7119 18.7911 24.6537 18.7911C24.5446 18.7911 24.581 19.0788 24.4064 18.9312C24.5519 18.7394 24.3701 18.5624 24.581 18.4812C24.6173 18.4812 24.8573 18.6509 24.9083 18.673L24.8937 18.6804Z" fill="#FFFAF1"/>
<path d="M25.5483 18.6436C25.5192 18.5846 25.4973 18.5477 25.5119 18.4665C25.5337 18.4296 25.7883 18.5624 25.5919 18.3263C25.6646 18.3042 25.7883 18.164 25.8828 18.2083C25.9337 18.2378 25.7955 18.2894 25.8246 18.3485C25.8537 18.4075 26.0501 18.5477 26.0137 18.6214C25.9773 18.7173 25.7446 18.5698 25.8755 18.8723C25.8101 18.8944 25.5555 18.6583 25.5483 18.6362V18.6436Z" fill="#FFFAF1"/>
<path d="M26.9737 18.3706C26.9373 18.437 27.0101 18.555 27.0101 18.5624C27.0319 18.7321 26.9664 18.9018 27.0101 19.0715C26.6246 18.9903 26.901 18.8501 26.8937 18.8206C26.8937 18.8059 26.6828 18.6141 26.661 18.5698C26.7119 18.5255 26.7701 18.4296 26.8137 18.378C26.8646 18.378 26.8283 18.3411 26.9664 18.378L26.9737 18.3706Z" fill="#C5D86B"/>
<path d="M25.0101 19.0346C24.9883 18.9461 25.0174 18.8575 25.0464 18.7837L24.9083 18.8797L24.8864 18.6878C24.8864 18.6878 25.1046 18.6583 25.1555 18.7837C25.1846 18.8575 25.0828 19.3813 25.0028 19.0346H25.0101Z" fill="#E4C555"/>
<path d="M25.5846 18.3262C25.7883 18.5623 25.5264 18.4221 25.5046 18.4664C25.4901 18.5402 25.5046 18.5771 25.541 18.6435C25.4173 18.8796 25.3373 18.3705 25.3519 18.3484C25.4464 18.2156 25.5628 18.3336 25.5846 18.3262Z" fill="#D7D473"/>
<path d="M27.8755 18.6436C28.0428 18.6657 27.9555 18.9608 27.9701 18.9755C28.0355 19.0419 28.1301 18.8501 28.1592 18.9387C28.1955 19.0346 27.8755 19.2116 27.7737 19.1305C27.9992 18.9239 27.8464 18.9018 27.8683 18.6436H27.8755Z" fill="#A3C660"/>
<path d="M25.4173 18.8355C25.4683 18.8281 25.5264 18.8207 25.5119 18.8945L25.2646 19.0716C25.2064 19.0126 25.4028 18.8429 25.4173 18.8355Z" fill="#E4C555"/>
<path d="M26.1664 18.7984C26.1664 18.7984 26.0137 18.8279 26.0137 18.8206C25.9846 18.7025 26.0792 18.7394 26.0937 18.6804C26.261 18.6656 26.3628 18.7394 26.1737 18.7984H26.1664Z" fill="#E4C555"/>
<path d="M26.4719 18.7174C26.5228 18.6658 26.5083 18.6658 26.5883 18.5994C26.9664 19.0494 26.5592 19.5437 26.4719 18.7174Z" fill="#82AC5C"/>
<path d="M5.47552 18.0981C5.52643 18.0981 5.66461 18.0834 5.68643 18.1203C5.41734 18.6662 5.24279 19.2933 5.78098 19.7433C5.24279 19.7581 3.63552 19.0351 4.50825 18.4154C4.59552 18.3563 5.36643 18.1129 5.46825 18.1055L5.47552 18.0981Z" fill="#D8E49F"/>
<path d="M4.28278 19.345L6.18824 20.1049C6.15915 20.2893 4.39915 19.8393 4.28278 19.4999C4.26824 19.4556 4.23915 19.3745 4.28278 19.345Z" fill="#15864C"/>
<path d="M4.08642 18.8728C4.29733 19.1532 4.21733 19.3523 4.16642 19.6917C3.9046 19.4925 4.09369 19.1458 4.08642 18.8728Z" fill="#137544"/>
<path d="M11.4391 19.7727L11.4973 19.7948L11.4391 19.8539L11.4246 19.8317L11.4391 19.7727Z" fill="#137544"/>
<path d="M5.74461 18.408C5.89734 18.976 6.61734 19.3523 7.1337 19.5367C8.35552 19.9868 10.2101 20.1564 11.3664 19.4998C11.461 19.4482 11.461 19.2785 11.541 19.4039C10.9664 20.422 9.00279 20.2302 8.02097 20.0458C7.30825 19.913 6.22461 19.5515 5.82461 18.917C5.62825 18.9539 5.87552 19.2269 5.70825 19.3449C5.6137 19.249 5.52643 19.0203 5.57006 18.8949C5.60643 18.7916 5.70825 18.9096 5.72279 18.858C5.72279 18.8359 5.64279 18.5039 5.74461 18.408Z" fill="#15864C"/>
<path d="M7.35916 17.316C8.39189 17.2349 10.1301 17.5595 10.981 18.1718C11.6064 18.6218 11.6719 19.2489 10.901 19.5809C9.88279 20.0162 7.8537 19.7359 6.85734 19.2711C5.25734 18.5186 5.73007 17.4414 7.35916 17.316Z" fill="#C5D86B"/>
<path d="M9.61371 18.3711C9.63553 18.5629 9.57735 18.7399 9.61371 18.9391L9.70826 18.9982C9.70826 18.7104 9.83917 18.9391 9.8828 18.9613C9.61371 19.2047 9.52644 18.9023 9.30826 18.8801C9.38099 18.7178 9.30826 18.5408 9.19189 18.408C9.25008 18.3489 9.43189 18.2752 9.49735 18.1719C9.51917 18.1719 9.58462 18.0981 9.61371 18.194C9.62826 18.2309 9.61371 18.3194 9.61371 18.3711Z" fill="#C5D86B"/>
<path d="M10.3046 18.9539C10.0501 19.1014 10.0864 19.0203 9.91916 18.9539C9.97735 18.9539 9.94825 18.9096 9.95553 18.8727C9.99189 18.8358 10.0573 18.8432 10.0719 18.8358C10.1228 18.8063 10.1883 18.8358 10.1519 18.6956C10.0792 18.4596 9.69371 18.6809 9.68644 18.3268C9.68644 18.3194 9.67189 18.2456 9.70825 18.2456C9.73007 18.2456 10.1155 18.4227 10.1301 18.4374C10.2392 18.526 10.0792 18.6588 10.421 18.6514L10.3046 18.9465V18.9539Z" fill="#D7D473"/>
<path d="M7.57008 18.29C7.57008 18.29 7.60644 18.2826 7.60644 18.3269L7.45372 18.349L7.53372 18.408C7.52644 18.4818 7.51917 18.6589 7.49735 18.7179C7.4319 18.6884 7.38099 18.6146 7.34463 18.563C7.26463 18.4449 7.23553 18.2015 7.15553 18.5261C7.14099 18.5113 7.01008 18.563 7.00281 18.4302C7.00281 18.408 7.15553 18.0613 7.17735 18.0613C7.38099 18.1719 7.33008 18.2974 7.52644 18.0613C7.48281 18.231 7.58463 18.2826 7.58463 18.2974L7.57008 18.29Z" fill="#FFFAF1"/>
<path d="M10.0719 18.836C9.95553 18.6663 9.97735 18.7696 9.95553 18.8728C9.95553 18.9024 9.97735 18.954 9.91917 18.954C9.90462 18.954 9.89008 18.954 9.8828 18.954C9.83917 18.9319 9.70099 18.7032 9.70826 18.9909L9.61371 18.9319C9.57735 18.74 9.63553 18.5556 9.61371 18.3638C9.62826 18.3638 9.68644 18.3269 9.69371 18.3269C9.69371 18.681 10.0864 18.4597 10.1592 18.6958C10.2028 18.8286 10.1373 18.7991 10.0792 18.836H10.0719Z" fill="#FCF2EE"/>
<path d="M9.30826 18.8728C9.17008 19.1827 9.06826 18.6146 9.07553 18.5187C9.0828 18.4301 9.10462 18.4597 9.11189 18.4375C9.11189 18.4375 9.18462 18.408 9.1919 18.4006C9.30099 18.5334 9.38099 18.7031 9.30826 18.8728Z" fill="#82AC5C"/>
<path d="M9.49732 18.1718C9.4246 18.2751 9.25005 18.3488 9.19187 18.4079C9.19187 18.4079 9.11914 18.4447 9.11187 18.4447C8.9446 18.2234 9.30823 18.1201 9.49732 18.1718Z" fill="#FFFAF1"/>
<path d="M8.26826 18.0538L8.34826 18.1128C8.15189 18.1128 8.2028 18.1939 8.15917 18.253C8.15189 18.2677 8.18098 18.3784 8.10098 18.4079L8.00644 18.253L8.06462 17.98L8.27553 18.0611L8.26826 18.0538Z" fill="#D7D473"/>
<path d="M8.7628 18.489C8.63189 18.4595 8.64644 18.3636 8.72644 18.2529C8.81371 18.3415 9.18462 18.4005 8.7628 18.489Z" fill="white"/>
<path d="M7.34461 18.563C7.30097 18.8064 7.2137 18.5777 7.15552 18.5261C7.23552 18.2088 7.27188 18.4449 7.34461 18.563Z" fill="#BAC15C"/>
<path d="M7.99916 18.2531L8.0937 18.408C8.1737 18.3785 8.14461 18.2604 8.15188 18.2531L8.44279 18.6441C8.47916 18.2899 8.66825 18.3342 8.50097 18.017C8.76279 18.1645 8.62461 18.135 8.7337 18.2531C8.6537 18.3637 8.63916 18.4596 8.77007 18.4891C8.76279 18.526 8.74097 18.6219 8.7337 18.6441C8.7337 18.6514 8.60279 18.6957 8.67552 18.7621C8.7337 18.74 8.72643 18.6514 8.7337 18.6441C8.82825 18.5629 9.02461 18.3932 9.08279 18.526C9.07552 18.6146 9.17007 19.19 9.31552 18.8801C9.54098 18.8949 9.62098 19.1974 9.89007 18.9613C9.89734 18.9613 9.91916 18.9613 9.92643 18.9613C10.0937 19.0277 10.0573 19.1089 10.3119 18.9613C10.5737 18.8064 10.4064 18.6219 10.6973 18.9023C10.7773 19.3966 9.17007 19.2564 8.90825 19.2343C8.11552 19.1605 7.25734 18.9465 6.59552 18.4891L6.63188 18.408C6.85734 18.6293 7.16279 18.7326 7.43916 18.8359C7.50461 18.8064 7.48279 18.7474 7.49734 18.7178C7.52643 18.6588 7.52643 18.4818 7.5337 18.408C7.5337 18.408 7.60643 18.3858 7.6137 18.3268C7.6137 18.2752 7.57734 18.2899 7.57734 18.2899L7.78825 17.8989L7.99916 18.2531Z" fill="#D8E49F"/>
<path d="M8.49371 18.0169C8.66826 18.3341 8.4719 18.2825 8.43553 18.644L8.14462 18.2529C8.18826 18.1939 8.14462 18.1201 8.33371 18.1128L8.25371 18.0537C8.25371 17.9283 8.42099 17.9283 8.50099 17.9357C8.54462 17.9578 8.45735 18.0021 8.47917 18.0169H8.49371Z" fill="white"/>
<path d="M8.13005 18.6809C8.21733 18.6809 8.23914 18.8284 8.16642 18.8358C8.05733 18.8506 8.00642 18.6735 8.13005 18.6809Z" fill="#C5D86B"/>
<path d="M7.61371 18.3269C7.61371 18.3859 7.5337 18.4007 7.5337 18.4081L7.4537 18.349L7.60643 18.3269H7.61371Z" fill="#EEBE45"/>
<path d="M8.72643 18.644C8.72643 18.644 8.72643 18.74 8.66825 18.7621C8.59552 18.6957 8.71916 18.6514 8.72643 18.644Z" fill="#D8E49F"/>
<path d="M10.0719 18.8358C10.0719 18.8358 9.99187 18.8358 9.95551 18.8727C9.97732 18.7694 9.95551 18.6588 10.0719 18.8358Z" fill="#DFEABA"/>
<path d="M26.4501 1.13665C26.3264 1.25469 26.1592 1.34322 26.0282 1.4465C25.9992 1.46864 25.8682 1.49815 25.8392 1.58668C25.941 1.65308 26.021 1.45388 26.0282 1.4465C26.3555 1.26944 27.221 1.26944 27.5119 1.52766C27.621 1.62357 27.6137 1.79325 27.7228 1.83752C27.701 1.98507 27.4319 2.2728 27.2792 2.30968C26.9519 2.37608 26.8137 2.19902 26.5664 2.15475C26.2901 2.10311 25.9992 2.29493 25.7373 2.42773C25.3373 2.6343 24.901 2.95891 24.5228 3.20975C24.341 3.24664 24.2755 3.26877 24.101 3.17286C24.0428 3.14335 23.9264 2.94416 23.8901 2.93678C23.8028 2.93678 23.4173 3.71881 23.3301 3.8516C22.3264 5.40828 21.0828 6.751 19.381 7.5404C17.1773 8.56589 13.4682 8.9569 11.701 6.95757C11.5701 5.90257 12.0573 4.98775 12.8137 4.30164C13.0901 5.56321 15.3373 5.17957 16.2173 4.84758C16.821 4.61887 17.9701 3.92538 16.9519 3.36468L16.0064 3.1286C17.0246 2.98842 18.0792 2.98842 19.1046 2.85563C20.5519 2.66381 21.9919 2.38346 23.4319 2.15475C23.5482 2.18426 23.6719 2.2064 23.781 2.2728C23.7664 2.32444 23.781 2.64905 23.8028 2.66381C24.0864 1.96294 24.8573 1.79325 25.381 1.33584C25.6792 1.07762 26.0937 0.325109 26.5373 0.480039C26.821 0.583325 26.5373 0.996471 26.4428 1.14402L26.4501 1.13665Z" fill="url(#paint1_linear_1352_5863)"/>
<path d="M24.101 3.16558C23.8028 3.65988 23.621 4.2132 23.3301 4.7075C22.5155 6.07973 20.6391 7.96839 19.1555 8.55123C17.4028 9.23734 13.7737 9.17094 12.1664 8.12332C11.941 7.71018 11.7664 7.43721 11.701 6.95029C13.4682 8.95699 17.1773 8.5586 19.381 7.53312C21.0828 6.74371 22.3191 5.40099 23.3301 3.84432C23.4173 3.71152 23.8028 2.92212 23.89 2.92949C23.9264 2.92949 24.0428 3.12869 24.101 3.16558Z" fill="#A36A38"/>
<path d="M23.4464 2.14724C22.0064 2.37595 20.5664 2.66367 19.1192 2.84811C18.0937 2.98091 17.0392 2.98091 16.021 3.12108C14.8792 3.27601 13.701 3.50472 12.8282 4.29412C12.0719 4.98024 11.5773 5.89506 11.7155 6.95006C11.7737 7.43698 11.9482 7.70995 12.181 8.1231C10.8792 7.27467 10.8501 6.02786 11.6792 4.78104C12.7919 3.10633 14.0064 2.94402 15.8537 2.69318C17.4101 2.48661 22.1592 1.85951 23.4537 2.14724H23.4464Z" fill="#E3BD79"/>
<path d="M26.4501 1.13662C26.5519 0.98907 26.8355 0.575924 26.5446 0.472638C26.1083 0.317708 25.6864 1.0776 25.3883 1.32844C24.8646 1.78585 24.0937 1.95554 23.8101 2.65641C23.781 2.64165 23.781 2.31704 23.7883 2.26539C23.861 1.94816 25.4028 1.26204 25.7155 0.760364C25.781 0.657078 25.8246 0.369352 25.8683 0.288198C26.2901 -0.412674 27.3228 0.280821 26.4428 1.12924L26.4501 1.13662Z" fill="#F2D2A5"/>
<path d="M27.7228 1.83759C27.6137 1.79333 27.621 1.62364 27.5119 1.52773C27.221 1.26952 26.3555 1.27689 26.0283 1.44658C26.1664 1.34329 26.3264 1.25476 26.4501 1.13672L27.4319 1.25476C27.6355 1.3728 27.7592 1.58675 27.7228 1.83759Z" fill="#E4AB76"/>
<path d="M26.5664 2.14729C25.8973 2.2432 25.1192 3.06949 24.5228 3.20229C24.901 2.95145 25.3373 2.62683 25.7373 2.42026C25.9992 2.28746 26.2828 2.09565 26.5664 2.14729Z" fill="#EBBA95"/>
<path d="M26.0283 1.44653C26.0283 1.44653 25.941 1.65311 25.8392 1.58671C25.8683 1.49818 25.9992 1.47604 26.0283 1.44653Z" fill="#E4AB76"/>
<path d="M16.021 3.12866L16.9664 3.36475C17.9846 3.92544 16.8355 4.62631 16.2319 4.84764C15.3519 5.17963 13.1046 5.56327 12.8282 4.3017C13.701 3.5123 14.8864 3.29097 16.021 3.12866Z" fill="#CA9541"/>
<path d="M13.381 4.06564C13.8028 3.96973 13.8101 4.61158 13.3446 4.72962C13.0683 4.54518 13.0755 4.13941 13.381 4.06564Z" fill="#FFF7DD"/>
<defs>
<linearGradient id="paint0_linear_1352_5863" x1="23.7536" y1="13.7559" x2="-1.75112" y2="13.9312" gradientUnits="userSpaceOnUse">
<stop stop-color="#CAC9CA"/>
<stop offset="0.15" stop-color="#FAFAFC"/>
<stop offset="0.33" stop-color="white"/>
<stop offset="0.84" stop-color="white"/>
<stop offset="1" stop-color="#D0D1D2"/>
</linearGradient>
<linearGradient id="paint1_linear_1352_5863" x1="6.6025" y1="1.3143" x2="20.0312" y2="1.49841" gradientUnits="userSpaceOnUse">
<stop stop-color="#DA9E42"/>
<stop offset="1" stop-color="#B26C37"/>
</linearGradient>
</defs>
</svg>
