<svg width="20" height="18" viewBox="0 0 20 18" fill="none" xmlns="http://www.w3.org/2000/svg">
<path d="M19.6639 6.88919L10.0008 0.122759C9.72928 -0.058283 9.3672 -0.0356528 9.09563 0.168019L0.315119 6.88919C0.043557 7.09286 -0.069594 7.43231 0.043557 7.74913C0.134078 8.04333 0.42827 8.247 0.767723 8.247H2.94022V17.118C2.94022 17.548 3.27967 17.8875 3.68702 17.8875H16.292C16.722 17.8875 17.0615 17.548 17.0615 17.118V8.247H19.234C19.5734 8.247 19.8676 8.0207 19.9808 7.70387C20.0486 7.38705 19.9355 7.0476 19.6639 6.86656V6.88919ZM8.34884 12.8409C8.34884 11.9357 9.073 11.2116 10.0008 11.2116C10.9287 11.2116 11.6302 11.9357 11.6302 12.8409V16.3712H8.34884V12.8409ZM10.0008 9.6727C8.25832 9.6727 6.83261 11.0984 6.83261 12.8409V16.3712H4.45644V7.52283C4.45644 7.09286 4.11699 6.7534 3.68702 6.7534H3.03074L9.61613 1.70687L16.8125 6.73077H16.292C15.8621 6.73077 15.5452 7.07023 15.5452 7.5002V16.3486H13.1691V12.8183C13.1691 11.0758 11.7434 9.65007 10.0008 9.65007V9.6727Z" fill="#828282"/>
</svg>
