<svg width="48" height="39" viewBox="0 0 48 39" fill="none" xmlns="http://www.w3.org/2000/svg">
<g clip-path="url(#clip0_3518_45436)">
<path d="M3.32528 28.9456L0.14456 11.177C-0.168693 9.36198 0.0481749 7.92903 0.819259 6.83044C1.59034 5.73185 2.89155 5.03926 4.74697 4.72879L30.9638 0.143363C32.7952 -0.190991 34.265 0.0239504 35.3735 0.788188C36.4819 1.55243 37.1807 2.81819 37.5181 4.63326L38.5783 10.6277H36.1928L35.2048 5.18255C35.012 4.10785 34.5542 3.34361 33.9036 2.88984C33.253 2.43608 32.3855 2.29278 31.3253 2.48384L5.2048 6.99762C4.12046 7.18868 3.37348 7.61856 2.89155 8.26339C2.40962 8.90821 2.28914 9.79186 2.50601 10.8666L5.61444 28.4202C5.80721 29.4949 6.24095 30.2591 6.91564 30.7129C7.59034 31.1666 8.43372 31.3099 9.51805 31.1189L11.5903 30.7606V33.125L9.8554 33.4355C8.02408 33.7459 6.5542 33.531 5.44577 32.7906C4.33733 32.0503 3.63854 30.7606 3.32528 28.9456ZM15.759 39.0001C13.8795 39.0001 12.4578 38.5463 11.5181 37.6149C10.5783 36.6835 10.0964 35.2983 10.0964 33.4594V15.4042C10.0964 13.5653 10.5783 12.1801 11.5181 11.2487C12.4578 10.3173 13.8795 9.86351 15.759 9.86351H42.3614C44.2168 9.86351 45.6385 10.3412 46.5783 11.2726C47.5181 12.204 48 13.5892 48 15.4042V33.4594C48 35.2744 47.5181 36.6596 46.5783 37.591C45.6385 38.5224 44.2168 39.0001 42.3614 39.0001H15.759ZM15.759 38.1164C14.1928 38.1164 12.9879 37.7343 12.1928 36.9462C11.3976 36.1581 10.9638 34.9878 10.9638 33.4355L17.2771 27.8709C17.6385 27.5604 18.0241 27.3216 18.3855 27.1544C18.747 26.9872 19.1325 26.9156 19.5181 26.9156C19.9759 26.9156 20.3855 26.9872 20.747 27.1544C21.1084 27.3216 21.494 27.5604 21.8795 27.9186L24.9156 30.6651L32.6988 23.9064C33.1084 23.5481 33.5421 23.2616 33.9759 23.0944C34.4096 22.9272 34.8675 22.8317 35.3735 22.8317C35.8795 22.8317 36.3373 22.9272 36.7952 23.1183C37.253 23.3093 37.6626 23.572 38.0723 23.9541L46.8675 32.0742V33.4832C46.8675 35.0356 46.4578 36.2058 45.6626 36.9939C44.8675 37.7821 43.6626 38.1642 42.0723 38.1642H15.759V38.1164ZM15.8072 36.6596H42.3373C43.3976 36.6596 44.2168 36.373 44.7952 35.8237C45.3735 35.2744 45.6626 34.4385 45.6626 33.3399V15.4998C45.6626 14.4012 45.3735 13.5892 44.7952 13.016C44.2168 12.4428 43.3976 12.1801 42.3373 12.1801H15.8072C14.7229 12.1801 13.9036 12.4667 13.3253 13.016C12.747 13.5653 12.4819 14.4012 12.4819 15.4998V33.3399C12.4819 34.4385 12.7711 35.2744 13.3253 35.8237C13.8795 36.373 14.7229 36.6596 15.8072 36.6596Z" fill="#C8C8C8"/>
<path d="M21.4699 16.7414L22.6747 19.0102L25.2048 19.4401C25.6626 19.5117 25.8554 20.0849 25.5181 20.4193L23.7108 22.2582L24.0964 24.7897C24.1687 25.2674 23.6867 25.6017 23.253 25.4107L20.9398 24.2882L18.6265 25.4107C18.1928 25.6256 17.7108 25.2674 17.7831 24.7897L18.1687 22.2582L16.3614 20.4193C16.0241 20.0849 16.2169 19.5117 16.6747 19.4401L19.2048 19.0102L20.4096 16.7414C20.6265 16.3115 21.2289 16.3115 21.4458 16.7414H21.4699Z" fill="#C8C8C8"/>
</g>
<defs>
<clipPath id="clip0_3518_45436">
<rect width="48" height="39" fill="white"/>
</clipPath>
</defs>
</svg>
