<svg width="15" height="20" viewBox="0 0 15 20" fill="none" xmlns="http://www.w3.org/2000/svg">
<path d="M7.46018 19.03C7.3588 19.03 7.25743 18.9819 7.1953 18.892L3.46078 13.3594C1.70797 10.7682 -0.283552 7.83011 1.20437 4.50673C2.2966 2.06638 4.75249 0.486572 7.46018 0.486572C7.63677 0.486572 7.77411 0.624645 7.77411 0.794827C7.77411 0.96501 7.6335 1.10629 7.46018 1.10629C5.00429 1.10629 2.77404 2.53839 1.78319 4.75398C0.435882 7.7691 2.24101 10.4374 3.984 13.0191L7.72179 18.5484C7.8199 18.6897 7.77738 18.8855 7.6335 18.9755C7.58117 19.014 7.51904 19.0268 7.45691 19.0268" fill="url(#paint0_linear_2625_17051)"/>
<path d="M7.46056 19.2967C7.26435 19.2967 7.0845 19.2036 6.97331 19.043L3.23552 13.5105C1.44348 10.855 -0.58729 7.8527 0.956223 4.40089C2.09424 1.8642 4.64496 0.223389 7.46056 0.223389C7.78104 0.223389 8.04592 0.480268 8.04592 0.798156C8.04592 1.11604 7.78431 1.37292 7.46056 1.37292C5.10932 1.37292 2.97718 2.7408 2.02883 4.86327C0.743663 7.74353 2.50301 10.3541 4.21003 12.8747L7.94782 18.404C8.03611 18.5325 8.06554 18.6866 8.03284 18.8375C8.00014 18.9884 7.91185 19.1169 7.78104 19.2003C7.69275 19.2613 7.57829 19.2967 7.46056 19.2967ZM7.46056 0.753202C4.85752 0.753202 2.49974 2.26879 1.45002 4.61281C0.024229 7.80133 1.9667 10.6752 3.68026 13.2086L7.42132 18.7476C7.43767 18.7701 7.45729 18.7765 7.48019 18.7604L7.50635 18.7283C7.50635 18.7283 7.50635 18.7091 7.49981 18.6962L3.76202 13.1669C1.97651 10.5242 0.132144 7.7949 1.53504 4.65134C2.57168 2.33943 4.89676 0.84311 7.46056 0.84311C7.48672 0.84311 7.50635 0.820633 7.50635 0.794945C7.50635 0.769257 7.48672 0.749991 7.46056 0.749991V0.753202Z" fill="url(#paint1_linear_2625_17051)"/>
<path d="M7.4605 10.3793C5.66845 10.3793 4.20996 8.94723 4.20996 7.18761C4.20996 5.42799 5.66845 3.99268 7.4605 3.99268C7.63708 3.99268 7.77443 4.13396 7.77443 4.30414C7.77443 4.47432 7.63381 4.6124 7.4605 4.6124C6.01509 4.6124 4.8411 5.76835 4.8411 7.18761C4.8411 8.60687 6.01509 9.75961 7.4605 9.75961C7.63708 9.75961 7.77443 9.9009 7.77443 10.0711C7.77443 10.2413 7.63381 10.3793 7.4605 10.3793Z" fill="url(#paint2_linear_2625_17051)"/>
<path d="M7.46043 10.6462C5.51796 10.6462 3.93848 9.0953 3.93848 7.18797C3.93848 5.28064 5.51796 3.72974 7.46043 3.72974C7.78091 3.72974 8.04579 3.98983 8.04579 4.3045C8.04579 4.61918 7.78418 4.87927 7.46043 4.87927C6.16545 4.87927 5.10919 5.91642 5.10919 7.18797C5.10919 8.45953 6.16218 9.49668 7.46043 9.49668C7.78091 9.49668 8.04579 9.75677 8.04579 10.0714C8.04579 10.3861 7.78418 10.6462 7.46043 10.6462ZM7.46043 4.25634C5.81555 4.25634 4.47805 5.56963 4.47805 7.18797C4.47805 8.80631 5.81555 10.1164 7.46043 10.1164C7.4866 10.1164 7.50622 10.0971 7.50622 10.0714C7.50622 10.0458 7.4866 10.0233 7.46043 10.0233C5.86787 10.0233 4.57289 8.75173 4.57289 7.18797C4.57289 5.62422 5.86787 4.34946 7.46043 4.34946C7.4866 4.34946 7.50622 4.33019 7.50622 4.3045C7.50622 4.27882 7.4866 4.25634 7.46043 4.25634Z" fill="url(#paint3_linear_2625_17051)"/>
<path d="M7.45767 19.03C7.3988 19.03 7.33667 19.0139 7.28108 18.9786C7.13719 18.8855 7.09468 18.6928 7.19278 18.5516L10.9306 13.0222C12.6736 10.4406 14.4787 7.76906 13.1314 4.75715C12.1405 2.54157 9.91355 1.10947 7.4544 1.10947C7.27781 1.10947 7.14046 0.968184 7.14046 0.798001C7.14046 0.627819 7.28108 0.489746 7.4544 0.489746C10.1621 0.489746 12.618 2.06634 13.7102 4.50991C15.1949 7.83328 13.2066 10.7713 11.4538 13.3626L7.71928 18.8951C7.65715 18.985 7.55904 19.0332 7.4544 19.0332" fill="url(#paint4_linear_2625_17051)"/>
<path d="M7.45713 19.2969C7.33614 19.2969 7.22495 19.2616 7.12685 19.1973C7.00258 19.1203 6.91429 18.9918 6.88159 18.8409C6.84888 18.69 6.88158 18.5359 6.96661 18.4074L10.7044 12.8781C12.4081 10.3543 14.1708 7.74695 12.8823 4.86669C11.934 2.74743 9.80184 1.37634 7.45059 1.37634C7.13012 1.37634 6.86523 1.11625 6.86523 0.801574C6.86523 0.486897 7.12685 0.226807 7.45059 0.226807C10.2629 0.226807 12.8169 1.86762 13.9517 4.4043C15.4952 7.85612 13.4677 10.8584 11.6789 13.5043L7.93785 19.0432C7.82666 19.2038 7.64353 19.3001 7.45059 19.3001L7.45713 19.2969ZM7.45713 0.753409C7.43097 0.753409 7.41135 0.772675 7.41135 0.798363C7.41135 0.824051 7.43097 0.846528 7.45713 0.846528C10.0209 0.846528 12.346 2.33964 13.3794 4.65155C14.7856 7.79511 12.9412 10.5277 11.1557 13.1671L7.41462 18.6964C7.41462 18.6964 7.40481 18.7221 7.40808 18.7317L7.45386 18.7671C7.45386 18.7671 7.48329 18.7639 7.4931 18.7446L11.2276 13.2153C12.9445 10.6754 14.8869 7.80153 13.4611 4.61302C12.418 2.269 10.0602 0.753409 7.45713 0.753409Z" fill="url(#paint5_linear_2625_17051)"/>
<path d="M7.46042 10.3793C7.28383 10.3793 7.14648 10.2381 7.14648 10.0711C7.14648 9.90411 7.2871 9.75961 7.46042 9.75961C8.90583 9.75961 10.0831 8.60687 10.0831 7.18761C10.0831 5.76835 8.90583 4.6124 7.46042 4.6124C7.28383 4.6124 7.14648 4.47432 7.14648 4.30414C7.14648 4.13396 7.2871 3.99268 7.46042 3.99268C9.25246 3.99268 10.711 5.42478 10.711 7.18761C10.711 8.95044 9.25246 10.3793 7.46042 10.3793Z" fill="url(#paint6_linear_2625_17051)"/>
<path d="M7.46036 10.6462C7.13988 10.6462 6.875 10.3893 6.875 10.0714C6.875 9.75355 7.13661 9.49668 7.46036 9.49668C8.75861 9.49668 9.8116 8.46274 9.8116 7.18797C9.8116 5.91321 8.75534 4.87927 7.46036 4.87927C7.13988 4.87927 6.875 4.62239 6.875 4.3045C6.875 3.98662 7.13661 3.72974 7.46036 3.72974C9.40283 3.72974 10.9823 5.28064 10.9823 7.18797C10.9823 9.0953 9.40283 10.6462 7.46036 10.6462ZM7.46036 4.25634C7.4342 4.25634 7.41458 4.27882 7.41458 4.3045C7.41458 4.33019 7.4342 4.34946 7.46036 4.34946C9.05292 4.34946 10.3512 5.62422 10.3512 7.18797C10.3512 8.75173 9.05292 10.0233 7.46036 10.0233C7.4342 10.0233 7.41458 10.0458 7.41458 10.0714C7.41458 10.0971 7.4342 10.1164 7.46036 10.1164C9.10525 10.1164 10.4427 8.8031 10.4427 7.18797C10.4427 5.57284 9.10525 4.25634 7.46036 4.25634Z" fill="url(#paint7_linear_2625_17051)"/>
<defs>
<linearGradient id="paint0_linear_2625_17051" x1="2.52682" y1="5.50642" x2="9.79715" y2="8.16293" gradientUnits="userSpaceOnUse">
<stop stop-color="#D93E1F"/>
<stop offset="1" stop-color="#F0940F"/>
</linearGradient>
<linearGradient id="paint1_linear_2625_17051" x1="2.39495" y1="5.38666" x2="10.1359" y2="8.34767" gradientUnits="userSpaceOnUse">
<stop stop-color="#D93E1F"/>
<stop offset="1" stop-color="#F0940F"/>
</linearGradient>
<linearGradient id="paint2_linear_2625_17051" x1="5.13683" y1="5.72159" x2="8.36178" y2="7.4411" gradientUnits="userSpaceOnUse">
<stop stop-color="#D93E1F"/>
<stop offset="1" stop-color="#F0940F"/>
</linearGradient>
<linearGradient id="paint3_linear_2625_17051" x1="5.0065" y1="5.60207" x2="8.61697" y2="7.6504" gradientUnits="userSpaceOnUse">
<stop stop-color="#D93E1F"/>
<stop offset="1" stop-color="#F0940F"/>
</linearGradient>
<linearGradient id="paint4_linear_2625_17051" x1="8.9835" y1="5.50959" x2="16.2528" y2="8.16519" gradientUnits="userSpaceOnUse">
<stop stop-color="#D93E1F"/>
<stop offset="1" stop-color="#F0940F"/>
</linearGradient>
<linearGradient id="paint5_linear_2625_17051" x1="8.8503" y1="5.39008" x2="16.5892" y2="8.34925" gradientUnits="userSpaceOnUse">
<stop stop-color="#D93E1F"/>
<stop offset="1" stop-color="#F0940F"/>
</linearGradient>
<linearGradient id="paint6_linear_2625_17051" x1="8.07335" y1="5.72159" x2="11.2983" y2="7.4411" gradientUnits="userSpaceOnUse">
<stop stop-color="#D93E1F"/>
<stop offset="1" stop-color="#F0940F"/>
</linearGradient>
<linearGradient id="paint7_linear_2625_17051" x1="7.94302" y1="5.60207" x2="11.5535" y2="7.6504" gradientUnits="userSpaceOnUse">
<stop stop-color="#D93E1F"/>
<stop offset="1" stop-color="#F0940F"/>
</linearGradient>
</defs>
</svg>
