<svg width="20" height="19" viewBox="0 0 20 19" fill="none" xmlns="http://www.w3.org/2000/svg">
<g clip-path="url(#clip0_721_3026)">
<path d="M17.6726 0H2.30179C1.02302 0 0 1.01198 0 2.27696V13.3835C0 14.6485 1.02302 15.6605 2.30179 15.6605H2.48082V18.2157C2.48082 18.494 2.65985 18.7723 2.89003 18.8988C3.04348 19 3.17136 19 3.29923 19C3.42711 19 3.58056 18.9747 3.75959 18.8735L8.38875 15.6605H17.6726C18.9514 15.6605 20 14.6485 20 13.3835V2.27696C20 1.01198 18.9514 0 17.6726 0ZM3.29923 14.0666H2.30179C1.94373 14.0666 1.61125 13.7377 1.61125 13.3835V2.27696C1.61125 1.92277 1.94373 1.59387 2.30179 1.59387H17.6726C18.0563 1.59387 18.3632 1.89747 18.3632 2.27696V13.3835C18.3632 13.763 18.0563 14.0666 17.6726 14.0666H8.15857C7.95396 14.0666 7.80051 14.1172 7.67263 14.2184L4.11765 16.6724V14.8762C4.11765 14.4208 3.75959 14.0666 3.29923 14.0666Z" fill="#828282"/>
<path d="M4.83376 6.70447H15.1407C15.5754 6.70447 15.9591 6.29968 15.9591 5.79369C15.9591 5.2877 15.601 4.9082 15.1407 4.9082H4.83376C4.3734 4.9082 4.01534 5.2877 4.01534 5.79369C4.01534 6.29968 4.3734 6.70447 4.83376 6.70447Z" fill="#828282"/>
<path d="M4.83376 10.3728H15.1407C15.601 10.3728 15.9591 9.96805 15.9591 9.46205C15.9591 8.95606 15.5754 8.55127 15.1407 8.55127H4.83376C4.3734 8.55127 4.01534 8.95606 4.01534 9.46205C4.01534 9.96805 4.3734 10.3728 4.83376 10.3728Z" fill="#828282"/>
</g>
<defs>
<clipPath id="clip0_721_3026">
<rect width="20" height="19" fill="white"/>
</clipPath>
</defs>
</svg>
