<svg width="7" height="12" viewBox="0 0 7 12" fill="none" xmlns="http://www.w3.org/2000/svg">
<path d="M6.99998 6.00037C7.00065 5.90201 6.9818 5.80462 6.94468 5.71465C6.9024 5.61796 6.84046 5.53263 6.76338 5.46493L1.25163 0.210227C1.11393 0.070582 0.930189 -0.00491948 0.740638 0.000249456C0.610744 -0.00186197 0.482364 0.0303322 0.366841 0.093989C0.258789 0.153759 0.166938 0.242347 0.100143 0.351213C0.0334391 0.459488 -0.00142817 0.586702 4.43131e-05 0.716425C0.000514006 0.812998 0.020606 0.908305 0.0589256 0.99572C0.0972452 1.08314 0.152873 1.16056 0.221942 1.22262L5.2297 6.00037L0.222643 10.7781C0.153574 10.8402 0.0979465 10.9176 0.059627 11.005C0.0213074 11.0924 0.00121443 11.1878 0.000744757 11.2843C-0.00169902 11.4154 0.0332212 11.5441 0.100844 11.6533C0.168557 11.7602 0.260268 11.8471 0.367542 11.906C0.483065 11.9697 0.611445 12.0019 0.741339 11.9998C0.93089 12.0049 1.11463 11.9294 1.25233 11.7898L6.76268 6.53507C6.83975 6.46736 6.9017 6.38204 6.94398 6.28535C6.98124 6.19566 7.00033 6.09854 6.99998 6.00037Z" fill="url(#paint0_linear_1800_9590)"/>
<defs>
<linearGradient id="paint0_linear_1800_9590" x1="5.1798" y1="8.75151" x2="-1.02648" y2="5.29286" gradientUnits="userSpaceOnUse">
<stop stop-color="#D93E1F"/>
<stop offset="1" stop-color="#F0940F"/>
</linearGradient>
</defs>
</svg>
