<svg width="27" height="42" viewBox="0 0 27 42" fill="none" xmlns="http://www.w3.org/2000/svg">
<g clip-path="url(#clip0_1352_5646)">
<path d="M22.1097 29.7548C21.8394 29.7675 20.3208 29.7548 20.2436 29.5767C20.205 29.5003 20.2822 29.3349 20.3723 29.2967C20.4624 29.2713 21.9166 29.3603 22.2126 29.3476C23.1907 29.2967 24.4905 29.004 25.2627 28.3932C25.3527 28.3296 25.8933 27.7697 25.8933 27.7188C25.8933 27.6552 25.4814 27.4516 25.3913 27.2734C25.0053 26.5099 25.623 26.6372 25.6487 26.5736C25.6745 26.4972 25.6487 26.2554 25.7002 26.1282C26.2279 24.9575 27.592 25.9628 26.704 27.3243C25.6616 28.9404 24.0015 29.6403 22.1097 29.7421V29.7548Z" fill="#28355A"/>
<path d="M10.9132 37.0972C10.0767 38.4969 8.45519 39.1459 6.89799 39.3877C6.7693 39.5531 7.07816 40.3803 7.18112 40.5839C7.2712 40.7747 7.58007 41.3092 7.76024 41.3855C8.28789 41.6146 8.59675 40.9911 8.4938 40.533C8.39084 40.0748 7.94041 39.884 7.63155 39.604C9.1244 39.235 10.5915 38.4969 11.3122 37.0845C11.2221 37.0845 11.0419 37.0845 10.9132 37.0845V37.0972Z" fill="#28355A"/>
<path d="M16.357 36.7537C16.7946 38.0134 16.7688 39.2478 16.7045 40.5457C16.7045 40.6857 16.5886 41.2329 16.6015 41.271C16.6659 41.5128 19.4328 41.8564 18.918 40.6475C18.6735 40.0622 17.8756 40.2658 17.4509 40.4948C17.3351 40.5584 17.1806 40.6984 17.0777 40.8002C16.9876 40.7111 17.1034 40.5203 17.1034 40.4948C17.1292 39.1969 17.0777 37.8989 16.7045 36.6519C16.5114 36.6646 16.3699 36.7537 16.357 36.7537Z" fill="#28355A"/>
<path d="M17.1163 40.4949C17.1163 40.4949 17.0005 40.7112 17.0906 40.8003C17.1935 40.7112 17.348 40.5712 17.4638 40.4949H17.1163Z" fill="#EBB084"/>
<path d="M1.33844 21.3818C1.33844 21.3818 6.29316 35.8247 6.64063 36.6391C6.98811 37.4535 11.7884 37.9371 13.4872 37.8226C15.1859 37.708 21.1316 23.596 21.1316 23.596L1.33844 21.3818Z" fill="#DB4546"/>
<path d="M9.99952 1.33981C10.3213 1.22529 11.3251 2.76501 11.428 3.09586C12.1873 5.64087 9.5877 6.45527 9.89657 8.82212C9.93518 9.10207 10.5915 10.769 10.3985 10.8327C9.35605 9.94192 8.44233 8.59307 8.6225 7.16787C8.80267 5.74267 11.0291 4.78829 10.8103 3.43944C10.7717 3.19766 9.69066 1.45434 9.99952 1.33981Z" fill="#F3BD44"/>
<path d="M6.28028 0.500072C6.6921 0.334646 7.73452 2.20522 7.79887 2.6506C8.10773 5.0429 5.85559 5.69188 6.17733 8.03328C6.21593 8.33868 6.8208 9.85296 6.67923 9.96748C5.5982 9.16581 4.67161 7.63881 4.90325 6.2645C5.1349 4.8902 7.47713 3.974 7.01384 2.40882C6.94949 2.17977 6.01002 0.640047 6.29315 0.525522L6.28028 0.500072Z" fill="#F3BD44"/>
<path d="M21.0929 2.76518C21.0801 2.82881 21.1702 2.96878 21.183 3.00696C21.2602 3.61776 18.9051 9.26766 18.5062 10.3366C17.4895 13.0979 16.55 15.8719 15.572 18.646C15.5205 18.5951 15.3146 18.4678 15.3146 18.4551C15.3146 18.4297 15.3789 18.2006 15.4047 18.1243C15.4433 17.9588 15.5334 17.7552 15.5848 17.5644C16.8975 12.678 18.5834 7.89336 20.0634 3.05786C20.3079 2.72701 20.7326 2.65066 21.1187 2.77791L21.0929 2.76518Z" fill="#DF6362"/>
<path d="M16.357 17.5135C16.3055 17.6534 16.164 17.8316 16.2283 17.9843C16.0739 18.0225 16.1253 18.2261 16.0996 18.2897C15.9967 18.4933 15.9709 18.5315 15.9194 18.7605C15.9194 18.7605 15.8165 18.7732 15.8293 18.8878H15.7393L15.7007 18.8496C15.7007 18.7732 15.6234 18.6842 15.572 18.6333C16.55 15.8719 17.5024 13.0852 18.5062 10.3238C18.9051 9.25492 21.2602 3.60502 21.183 2.99422C21.183 2.95604 21.0801 2.81607 21.0929 2.75244C21.4275 2.86697 21.582 3.36324 21.5691 3.68137C19.7545 8.24965 17.9657 12.8434 16.3441 17.488L16.357 17.5135Z" fill="#C03735"/>
<path d="M17.5024 1.63271C17.6568 1.92539 17.6568 2.19261 17.5925 2.52346L13.7831 17.5899C13.7059 17.5644 13.603 17.5263 13.5258 17.5008L16.4471 2.05264C16.6788 1.59454 17.0391 1.46729 17.5024 1.64544V1.63271Z" fill="#DF6362"/>
<path d="M14.1177 17.6791C14.1177 17.6791 13.8346 17.6154 13.7703 17.59L17.5925 2.52356C17.6568 2.19271 17.6697 1.92549 17.5024 1.63281C17.9142 1.78551 18.03 2.11636 18.0686 2.52356L14.1177 17.6791Z" fill="#C03735"/>
<path d="M24.2331 21.5854C19.7417 23.9777 14.1177 24.614 9.0858 23.965C6.47331 23.6342 3.62918 22.8961 1.40277 21.4836C4.86464 24.6776 12.1873 25.1739 16.7302 24.8303L18.8665 24.4867C18.725 26.6373 17.734 29.0423 16.6787 30.9256C15.0315 33.8651 11.6468 37.3263 7.94043 37.1609C8.68685 37.3645 9.47188 37.5426 10.244 37.6444C10.3341 37.6444 10.45 37.6826 10.54 37.6953C11.9685 37.8607 13.4357 37.8607 14.8642 37.7462C14.9929 37.7462 15.0958 37.708 15.2116 37.6953C16.164 37.5935 19.1625 37.199 19.6773 36.4101L21.8909 29.5895L24.246 21.5727" fill="#DB4546"/>
<path d="M18.6735 29.793C19.9605 30.1111 18.133 31.1928 17.9014 30.0857C17.9014 29.9839 18.1459 29.6658 18.6735 29.793Z" fill="#EBAAB1"/>
<path d="M6.78217 24.703C6.96234 24.6394 7.11677 24.7921 7.18112 24.9448C7.46425 25.6574 7.88894 28.1642 8.01763 29.0168C8.0305 29.1186 8.1978 30.1621 8.06911 30.1621C7.64442 29.1695 7.36129 28.0879 7.1039 27.0444C7.00095 26.6372 6.6406 25.3011 6.65347 24.983C6.65347 24.8939 6.69208 24.7285 6.78217 24.703Z" fill="#E58B8C"/>
<path d="M16.3828 30.2384C16.0868 29.9966 15.6492 30.0602 15.4047 30.3402C15.3017 30.2257 14.9414 29.5385 15.1344 29.4622H16.653C16.7302 29.7803 16.5243 30.0348 16.3828 30.2384Z" fill="#073133"/>
<path d="M12.715 29.8185C13.0496 29.7548 13.4228 29.8694 13.6287 30.1366C13.3456 31.3709 11.3508 30.0602 12.715 29.8185Z" fill="#EBAAB1"/>
<path d="M8.58388 30.8874C9.12439 30.7219 9.47187 31.7272 8.72544 31.5618C8.45519 31.4982 8.24928 30.9892 8.58388 30.8874Z" fill="#E58B8C"/>
<path d="M16.3827 30.2385C16.3827 30.2385 16.3313 30.3021 16.3313 30.3148C16.0224 30.6966 15.7135 30.6966 15.4047 30.3403C15.6492 30.0603 16.0996 29.9967 16.3827 30.2385Z" fill="#EBAAB1"/>
<path d="M0.360347 18.9132C1.2226 21.9799 8.77694 23.0234 11.4924 23.1379C14.4266 23.2524 17.8627 22.9088 20.6811 22.069C22.071 21.6491 25.5715 20.3511 25.327 18.5187L25.52 18.4932C26.0863 19.8421 25.2498 20.7837 24.246 21.5727C19.7545 23.965 14.1306 24.6013 9.09867 23.9523C6.48618 23.6214 3.64204 22.8834 1.41564 21.4709C1.41564 21.4709 1.37703 21.3818 1.36416 21.3691C0.386086 20.4402 -0.424687 19.9184 0.308869 18.3533C0.334608 18.5441 0.334608 18.6968 0.386086 18.8877L0.360347 18.9132Z" fill="#FEFAF1"/>
<path d="M0.65633 18.0352C0.694938 18.4551 0.965195 18.8878 1.24832 19.2059C1.54432 19.5495 1.95614 19.7785 2.32935 20.033C2.38083 20.0712 2.41944 20.0967 2.47091 20.1348C2.80552 20.3512 2.99856 20.453 3.3589 20.6184C3.42325 20.6566 3.51334 20.7202 3.60342 20.7584C3.74499 20.822 3.91229 20.8474 4.04098 20.8983C4.13107 20.9365 4.19541 20.962 4.2855 21.0001C4.47854 21.0765 4.67158 21.1783 4.87749 21.2419C4.92897 21.2546 5.00619 21.2674 5.07053 21.2928C5.28931 21.3564 5.49522 21.4328 5.714 21.4837C5.77835 21.4964 5.8427 21.5091 5.90704 21.5346C6.10009 21.5855 6.306 21.6364 6.49904 21.6746C6.56338 21.6873 6.60199 21.7127 6.6406 21.7255C7.09103 21.8273 7.5672 21.8909 8.01763 21.9672C8.09484 21.9672 8.14632 22.0054 8.21067 22.0181C8.41658 22.0563 8.63536 22.0818 8.85414 22.1199C8.94422 22.1199 9.03431 22.1581 9.09866 22.1708C9.2917 22.1963 9.49761 22.1963 9.69065 22.2217C9.80647 22.2217 9.93517 22.2599 10.0381 22.2726C10.2955 22.2981 10.5658 22.3108 10.8232 22.3235C10.9518 22.3235 11.0805 22.3235 11.2221 22.3235C12.2645 22.3744 13.3198 22.4126 14.3622 22.3744C14.4781 22.3744 14.6582 22.3363 14.7998 22.3235C15.0443 22.3108 15.2888 22.2981 15.5334 22.2726C15.6492 22.2726 15.765 22.2345 15.8808 22.2217C16.061 22.209 16.2412 22.1963 16.4213 22.1708C16.5243 22.1708 16.6144 22.1327 16.7173 22.1199C16.9104 22.0945 17.1163 22.0563 17.3093 22.0181C17.5024 21.98 17.7083 21.9545 17.9013 21.9163C18.2745 21.8527 18.622 21.7509 18.9824 21.6746C19.0467 21.6618 19.111 21.6237 19.1239 21.6237C19.2784 21.5855 19.4457 21.5728 19.613 21.5219C19.7416 21.4837 19.8703 21.4582 20.0119 21.4201C20.1792 21.3692 20.3465 21.3183 20.5009 21.2801C20.5524 21.2674 20.6682 21.191 20.694 21.1783C20.8999 21.1147 21.0801 21.051 21.286 20.9874C21.3761 20.9492 21.4533 20.9238 21.5305 20.8856C21.6592 20.8347 21.8265 20.7965 21.9681 20.7456C22.0195 20.7202 22.0968 20.6566 22.1096 20.6438C23.0233 20.2366 23.7183 19.9567 24.4132 19.1805C24.6964 18.8751 25.0052 18.506 25.0567 18.0607C25.327 17.9843 25.2755 18.3152 25.3012 18.4933C25.5457 20.313 22.0453 21.6237 20.6554 22.0436C17.8498 22.8834 14.4008 23.227 11.4666 23.1125C8.76405 22.998 1.19684 21.9545 0.334595 18.8878C0.347464 18.646 0.257378 18.0352 0.630591 18.0098L0.65633 18.0352Z" fill="#FEFAF1"/>
<path d="M4.929 15.0193C4.633 15.4265 4.43996 15.8973 4.28553 16.3809C3.79649 16.5463 3.33319 16.7881 2.9085 17.0553C2.09773 17.577 1.41565 18.2133 1.23548 19.1931C0.952355 18.875 0.694967 18.4423 0.643489 18.0224C0.527665 16.8644 3.06294 15.6301 4.0024 15.2484C4.28553 15.1338 4.59439 15.032 4.91613 15.0066L4.929 15.0193Z" fill="#FEFAF1"/>
<path d="M25.0696 18.0861C25.031 18.5315 24.7093 18.9005 24.4261 19.2059C24.5033 18.3533 23.5124 17.488 22.8303 17.0681C22.5215 16.8772 21.6463 16.5845 21.4533 16.4318C21.3503 16.3428 21.0157 15.3884 20.8356 15.1212C21.1959 15.0703 21.7364 15.312 22.0839 15.4647C23.0105 15.8465 25.1597 16.9408 25.0567 18.0861H25.0696Z" fill="#FEFAF1"/>
<path d="M16.756 13.3777C16.7045 13.594 16.6015 13.8231 16.5629 14.0139C16.1125 14.103 15.9967 14.103 15.6235 13.7722C15.9323 13.5686 16.3956 13.4795 16.756 13.3777Z" fill="#F3BD44"/>
<path d="M17.2965 22.018C17.1034 22.0434 16.9104 22.0943 16.7045 22.1198C15.1859 19.0912 10.3599 19.0403 8.84128 22.1198C8.63537 22.0943 8.41659 22.0562 8.19781 22.018C10.0896 18.455 15.3918 18.4295 17.2836 22.018H17.2965Z" fill="#F3BD44"/>
<path d="M16.4214 22.1706C16.2412 22.196 16.061 22.196 15.8809 22.2215C14.5167 20.0582 11.0548 20.071 9.69069 22.2215C9.49765 22.196 9.29173 22.196 9.09869 22.1706C10.6688 19.5111 14.9028 19.4347 16.4214 22.1706Z" fill="#F3BD44"/>
<path d="M15.5334 22.2597C15.2889 22.2851 15.0443 22.2978 14.7998 22.3106C13.8475 21.2417 11.7755 21.1908 10.8232 22.3106C10.5658 22.2978 10.2955 22.2851 10.0381 22.2597C11.4152 20.5291 14.1692 20.5036 15.5334 22.2597Z" fill="#F3BD44"/>
<path d="M16.7173 22.1199C16.6144 22.1326 16.5243 22.1581 16.4213 22.1708C14.9027 19.4349 10.6687 19.5113 9.09864 22.1708C9.0343 22.1708 8.94421 22.1326 8.85413 22.1199C10.3727 19.0404 15.1987 19.0913 16.7173 22.1199Z" fill="#FDE883"/>
<path d="M15.8809 22.209C15.765 22.209 15.6492 22.2472 15.5334 22.2599C14.1692 20.5038 11.4152 20.5293 10.0381 22.2599C9.93519 22.2599 9.81937 22.2217 9.69067 22.209C11.0548 20.0585 14.5167 20.0457 15.8809 22.209Z" fill="#FDE883"/>
<path d="M14.3494 22.3617C13.3069 22.4126 12.2516 22.3617 11.2092 22.3108C12.0715 21.6364 13.5643 21.5855 14.3494 22.3617Z" fill="#F3BD44"/>
<path d="M14.7998 22.3106C14.6454 22.3106 14.4781 22.3488 14.3623 22.3615C13.5772 21.5853 12.0844 21.6489 11.2221 22.3106C11.0934 22.3106 10.9647 22.3106 10.8232 22.3106C11.7755 21.1908 13.8475 21.2417 14.7998 22.3106Z" fill="#FDE883"/>
<path d="M21.9681 20.7583C21.8266 20.8219 21.6593 20.8474 21.5306 20.8983C20.7327 18.6078 18.0172 17.6152 15.9066 18.9132C15.4176 19.2186 15.1731 19.8676 14.6326 19.4476C16.5887 16.7627 21.0544 17.628 21.981 20.7583H21.9681Z" fill="#F3BD44"/>
<path d="M21.286 21C21.0801 21.0763 20.8999 21.1272 20.694 21.1909C20.102 19.3457 18.1459 18.7731 16.4471 19.5875C15.9838 19.8165 15.8551 20.351 15.3918 19.7529C17.1292 17.8314 20.5396 18.5186 21.286 20.9873V21Z" fill="#F3BD44"/>
<path d="M20.501 21.2929C20.3337 21.3438 20.1664 21.3947 20.012 21.4329C19.51 20.3767 18.4548 19.8041 17.2836 20.1222C17.0649 20.1858 16.4471 20.6185 16.3956 20.6057C16.3699 20.6057 16.0739 20.3003 16.0739 20.2367C16.0868 20.1476 16.9104 19.6768 17.0262 19.6259C18.4161 19.1678 20.0634 19.8677 20.4881 21.2802L20.501 21.2929Z" fill="#F3BD44"/>
<path d="M19.613 21.5345C19.4457 21.5854 19.2655 21.5981 19.1239 21.6363C18.9824 21 18.133 20.8092 17.5796 20.911C17.4381 20.9364 16.9748 21.2036 16.9362 21.2036C16.9104 21.2036 16.6659 20.911 16.6659 20.8855C16.6659 20.771 17.3866 20.4528 17.5281 20.4274C18.3647 20.2747 19.3942 20.6692 19.613 21.5472V21.5345Z" fill="#F3BD44"/>
<path d="M18.9695 21.6744C18.6092 21.7635 18.2617 21.8526 17.8885 21.9162C17.5796 21.5981 17.3351 22.018 17.1035 21.4581C17.541 20.8855 18.6092 21.1018 18.9695 21.6744Z" fill="#F3BD44"/>
<path d="M20.8356 15.1211C21.0029 15.3884 21.3375 16.3427 21.4533 16.4318C21.6335 16.5845 22.5086 16.8645 22.8304 17.0681C23.5124 17.488 24.5034 18.3533 24.4262 19.2059C23.7312 19.9694 23.0234 20.262 22.1225 20.6692C21.3375 17.857 17.8628 16.7754 15.4176 18.2897C15.1473 18.4551 14.3623 19.2949 14.2851 19.3077C14.1564 19.3331 13.9505 19.2059 13.8218 19.1804C15.1473 17.2717 17.7727 16.6481 19.9347 17.4116C20.0763 17.4625 20.8613 17.9588 20.9386 17.8697C21.1573 15.8083 19.6259 13.8741 17.5024 13.8614C17.4381 13.6832 17.5925 13.4796 17.644 13.3269C18.8923 13.3651 20.1535 14.0904 20.8356 15.1211Z" fill="#F3BD44"/>
<path d="M21.0157 17.9333C22.0196 17.9333 23.0234 18.2642 23.2035 19.3713C22.8947 18.6078 22.2898 18.0224 21.4147 18.086L21.3632 18.1878C21.4919 18.3151 22.7917 19.4095 22.4957 19.6003L21.0157 17.9461V17.9333Z" fill="#FBD757"/>
<path d="M23.3451 18.188C22.8432 17.679 22.2641 17.4881 21.582 17.3354C22.3027 17.31 22.9462 17.6281 23.3451 18.188Z" fill="#FBD757"/>
<path d="M23.3452 18.1877C23.461 18.3023 23.654 18.4168 23.6154 18.6204C23.5639 18.6331 23.3838 18.2386 23.3452 18.1877Z" fill="#FBD757"/>
<path d="M3.35891 20.6056C2.99856 20.4275 2.81839 20.3257 2.47092 20.1221C2.26501 19.1295 3.16586 18.0352 4.19542 18.1497C3.60342 18.6969 3.05004 19.3586 2.84413 20.1603C4.56863 16.6863 9.42039 15.9101 11.9042 19.0659C11.9042 19.0914 11.3765 19.2313 11.2865 19.1932C11.1063 19.0914 10.5272 18.4297 10.1539 18.2261C8.12058 17.0808 5.36653 17.6534 3.98951 19.5113C3.74499 19.8549 3.59055 20.2621 3.34604 20.6056H3.35891Z" fill="#F3BD44"/>
<path d="M4.04101 20.8983C3.89945 20.8474 3.73215 20.8092 3.60345 20.7583C4.54292 17.7934 9.03434 16.8263 10.9519 19.3967C10.8361 19.3713 10.643 19.5494 10.5529 19.5367C10.5015 19.5367 9.87085 18.9641 9.66494 18.8623C7.50288 17.717 4.95474 18.6969 4.04101 20.8983Z" fill="#F3BD44"/>
<path d="M4.87751 21.2417C4.6716 21.1781 4.47856 21.0763 4.28552 20.9999C5.17351 18.6331 8.42947 17.895 10.2312 19.7147C9.6778 20.2364 9.45902 19.6511 8.8799 19.4475C7.30983 18.8876 5.37942 19.6256 4.87751 21.2417Z" fill="#F3BD44"/>
<path d="M5.71403 21.4835C5.49525 21.4199 5.28934 21.3562 5.07056 21.2926C5.7655 19.5875 8.06913 18.9385 9.49763 20.1983C9.12442 20.8091 8.63538 20.1346 8.00478 20.071C7.09105 19.9947 5.86846 20.5164 5.7269 21.4835H5.71403Z" fill="#F3BD44"/>
<path d="M6.49904 21.6743C6.30599 21.6234 6.10008 21.5853 5.90704 21.5344C6.46043 20.4909 7.88893 20.0201 8.85414 20.8345C8.49379 21.3817 8.44232 20.9618 7.99189 20.9109C7.47711 20.8472 6.57625 21.1017 6.49904 21.6871V21.6743Z" fill="#F3BD44"/>
<path d="M8.01765 21.9671C7.56722 21.8907 7.09105 21.8271 6.64062 21.7253C7.00097 21.1781 7.88896 20.9618 8.40373 21.3563L8.00478 21.9671H8.01765Z" fill="#F3BD44"/>
<path d="M4.28547 16.3809C4.25973 16.4827 4.28547 16.8644 4.15678 16.9153L2.90845 17.0553C3.33314 16.7753 3.79644 16.5463 4.28547 16.3809Z" fill="#FBD757"/>
<path d="M9.9352 13.7085C9.54912 14.3066 8.80269 13.8485 8.19783 13.8485C7.06532 13.874 5.79125 14.5993 5.225 15.5664C5.12204 15.7445 4.69735 16.8134 4.73596 16.928C4.73596 16.9661 4.94187 17.0552 4.95474 17.0552C5.01909 17.0298 5.2636 15.9863 5.41804 15.7191C6.11299 14.5357 7.77314 13.8103 9.09869 14.2557C8.68687 14.9429 8.19783 14.6502 7.55436 14.8156C7.20688 14.9047 6.8208 15.1719 6.55054 15.401C5.71403 16.1008 5.79125 17.0298 5.3923 17.3861C5.01909 17.7296 4.87752 17.3988 4.55579 17.3861C3.32033 17.3224 2.22643 17.7169 1.90469 18.9894C2.32938 17.8569 3.69354 17.0807 4.82605 17.6533C4.31127 18.1877 3.69354 17.9205 3.08868 18.3532C2.54816 18.7349 2.38086 19.3966 2.32938 20.0074C1.95617 19.7529 1.54435 19.5239 1.24835 19.1803C1.41565 18.2005 2.1106 17.5642 2.92137 17.0425L4.16971 16.9025C4.28553 16.8516 4.25979 16.4699 4.2984 16.3681C4.43996 15.8845 4.633 15.4137 4.94187 15.0065C5.89421 13.7085 7.55436 13.0977 9.13729 13.4031C9.38181 13.454 9.72929 13.6704 9.94807 13.6958L9.9352 13.7085Z" fill="#F3BD44"/>
<path d="M10.3728 13.6194C10.5916 13.6449 10.4114 13.7339 10.347 13.7594C9.57487 14.1793 8.94427 14.5865 8.35228 15.2609L8.24932 15.1591C8.31367 15.0701 8.3008 14.9683 8.44236 14.9428L8.36515 14.8665C7.74742 14.8283 7.09108 15.0573 6.62778 15.4518L6.52482 15.4009C6.79508 15.1719 7.18116 14.9046 7.52864 14.8156C8.17211 14.6501 8.66114 14.9428 9.07296 14.2557C7.74742 13.7976 6.08726 14.5229 5.39231 15.719C5.23788 15.9863 4.99336 17.0297 4.92902 17.0552C4.92902 17.0552 4.72311 16.9661 4.71024 16.9279C4.67163 16.8134 5.09632 15.7445 5.19927 15.5663C5.76553 14.5865 7.0396 13.8612 8.17211 13.8485C8.78984 13.8485 9.53626 14.3066 9.90947 13.7085C10.1411 13.7339 10.1283 13.6703 10.347 13.6067L10.3728 13.6194Z" fill="#FDE883"/>
<path d="M8.26215 15.1719C7.82459 15.7699 7.2712 15.7445 6.83364 16.2662C6.44756 16.737 6.61486 17.0679 5.82983 17.2079C5.61105 16.6734 6.22878 15.7954 6.6406 15.4645C7.11677 15.0828 7.77311 14.841 8.37797 14.8792L8.45519 14.9555C8.31362 14.981 8.32649 15.0828 8.26215 15.1719Z" fill="#F3BD44"/>
<path d="M17.155 14.7393C17.2064 14.472 17.2451 14.4339 17.348 14.2048C19.2269 13.9249 20.8871 15.8082 20.6426 17.6278C19.8447 17.4879 20.0892 16.9152 19.8575 16.3172C19.4457 15.2737 18.2489 14.6756 17.155 14.7393Z" fill="#F3BD44"/>
<path d="M17.052 14.8792C17.052 14.8792 17.3351 15.2482 17.3995 15.3627C17.1807 15.1973 17.0777 14.981 16.9619 14.8792H17.0649H17.052Z" fill="#FDE883"/>
<path d="M17.3995 15.3627C17.3351 15.2482 17.0649 14.9046 17.052 14.8792C17.7984 14.8792 18.3261 14.9173 18.9438 15.3627C19.4586 15.7445 20.0763 16.6607 19.8833 17.3096C18.9695 17.1188 19.2913 16.9152 18.9309 16.368C18.5706 15.8208 17.8885 15.7317 17.4123 15.3754L17.3995 15.3627Z" fill="#F3BD44"/>
<path d="M14.4523 13.3268C14.5424 13.3522 14.6583 13.3904 14.7483 13.4286C14.8256 13.454 15.1216 13.5177 15.1473 13.5304C15.173 13.5304 15.469 13.7467 15.5849 13.8231C16.0224 14.0776 16.5243 14.5102 16.9104 14.8411C16.9104 14.8411 16.9361 14.8665 16.9619 14.892C17.0906 14.9938 17.1935 15.2101 17.3994 15.3755C17.6697 15.8718 17.9657 16.3426 18.1845 16.8516L18.1587 16.9789C17.3222 17.1061 17.5539 16.7498 17.245 16.279C15.3146 13.225 11.1449 12.7414 8.80268 15.6046C8.63538 15.8082 8.06912 16.8643 7.99191 16.8898C7.88895 16.928 7.59296 16.8643 7.45139 16.8898C7.24548 16.7753 8.2493 15.4264 8.36512 15.2864C8.94424 14.612 9.57484 14.1921 10.3599 13.7849C10.4242 13.7594 10.6044 13.6576 10.3856 13.6449C11.9557 13.2123 12.7536 12.9196 14.4652 13.3522L14.4523 13.3268Z" fill="#F3BD44"/>
<path d="M16.5629 14.0013C16.55 14.0776 16.4599 14.3321 16.4599 14.3703C16.4599 14.383 16.7045 14.5357 16.7559 14.5866C16.8074 14.6503 16.8975 14.7393 16.8975 14.8284C16.5114 14.4976 16.0095 14.0649 15.572 13.8104C15.572 13.7595 15.6106 13.7722 15.6234 13.7595C15.9838 14.0904 16.1125 14.0904 16.5629 14.0013Z" fill="#FDE883"/>
<path d="M17.3994 15.3629C17.8756 15.7192 18.5448 15.7828 18.918 16.3555C19.2912 16.9281 18.9695 17.1062 19.8704 17.2971C20.0634 16.6481 19.4585 15.7319 18.9309 15.3502C18.3132 14.8921 17.7855 14.8666 17.0391 14.8666C17.0262 14.7394 17.1292 14.7267 17.142 14.7267C18.2359 14.663 19.4328 15.2611 19.8446 16.3046C20.0763 16.9026 19.8446 17.4753 20.6296 17.6152C20.887 15.7956 19.214 13.9123 17.3351 14.1922C17.3608 14.1286 17.3093 13.8995 17.4766 13.8486C19.613 13.8486 21.1316 15.7956 20.9128 17.857C20.8227 17.9334 20.0505 17.4498 19.909 17.3989C17.7469 16.6354 15.1215 17.2589 13.796 19.1677C13.9247 19.1931 14.1306 19.3204 14.2593 19.2949C14.3365 19.2822 15.1215 18.4424 15.3918 18.2769C17.837 16.7627 21.3117 17.8443 22.0968 20.6565C22.0839 20.6565 22.0067 20.7329 21.9552 20.7583C21.0286 17.628 16.5758 16.7627 14.6068 19.4476C15.1473 19.8676 15.3918 19.2186 15.8808 18.9132C17.9914 17.6152 20.7069 18.6205 21.5048 20.8983C21.4275 20.9365 21.3503 20.9619 21.2602 21.0001C20.5138 18.5314 17.1034 17.8443 15.3661 19.7658C15.8294 20.3511 15.9581 19.8167 16.4214 19.6003C18.1201 18.7859 20.0763 19.3586 20.6683 21.2037C20.6296 21.2037 20.5267 21.28 20.4752 21.3055C20.0505 19.893 18.4032 19.2059 17.0133 19.6512C16.8847 19.6894 16.0739 20.173 16.061 20.262C16.061 20.3129 16.357 20.6183 16.3827 20.6311C16.4342 20.6311 17.0391 20.2111 17.2707 20.1475C18.4419 19.8294 19.4971 20.402 19.999 21.4582C19.8704 21.4964 19.7417 21.5218 19.6001 21.56C19.3813 20.6947 18.3518 20.2875 17.5153 20.4402C17.3866 20.4656 16.653 20.7838 16.653 20.8983C16.653 20.9237 16.8975 21.2164 16.9233 21.2164C16.9619 21.2164 17.4252 20.9492 17.5667 20.9237C18.1201 20.8219 18.9695 21.0128 19.1111 21.6491C19.0982 21.6491 19.0338 21.6872 18.9695 21.7C18.6092 21.1273 17.541 20.911 17.1034 21.4836C17.3351 22.0563 17.5796 21.6236 17.8885 21.9417C17.6954 21.9799 17.4895 22.0054 17.2965 22.0435C15.4047 18.4551 10.1025 18.4805 8.21068 22.0435C8.13346 22.0435 8.08198 22.0054 8.01764 21.9926L8.41659 21.3818C7.88894 20.9874 7.00095 21.2037 6.65348 21.7509C6.61487 21.7509 6.57626 21.7127 6.51192 21.7C6.602 21.1146 7.48999 20.8601 8.00477 20.9237C8.44233 20.9746 8.50667 21.3946 8.86702 20.8474C7.90181 20.033 6.47331 20.5038 5.91992 21.5473C5.85558 21.5345 5.79123 21.5218 5.72688 21.4964C5.88132 20.542 7.09104 20.0075 8.00477 20.0839C8.63537 20.1348 9.12441 20.8092 9.49762 20.2111C8.06911 18.9514 5.77836 19.6003 5.07054 21.3055C4.99333 21.28 4.91611 21.2673 4.8775 21.2546C5.37941 19.6258 7.30982 18.9005 8.87989 19.4604C9.45901 19.664 9.67779 20.2493 10.2312 19.7276C8.42946 17.9079 5.18637 18.646 4.28551 21.0128C4.19543 20.9746 4.13108 20.9492 4.04099 20.911C4.95472 18.7096 7.50286 17.7298 9.66492 18.875C9.87083 18.9895 10.4886 19.5494 10.5529 19.5494C10.643 19.5622 10.8232 19.3713 10.9519 19.4095C9.03432 16.839 4.55577 17.8061 3.60343 20.771C3.51335 20.7329 3.42326 20.6565 3.35891 20.6311C3.59056 20.2875 3.745 19.8803 4.00238 19.5367C5.37941 17.6661 8.13346 17.1062 10.1668 18.2515C10.54 18.4678 11.1192 19.1295 11.2993 19.2186C11.3894 19.2695 11.9042 19.1295 11.9171 19.0913C9.43327 15.9355 4.58151 16.7118 2.85701 20.1857C3.06292 19.384 3.6163 18.7223 4.20829 18.1751C3.19161 18.0606 2.27788 19.155 2.48379 20.1475C2.43232 20.1093 2.39371 20.0839 2.34223 20.0457C2.39371 19.4349 2.56101 18.7732 3.10153 18.3915C3.71926 17.9588 4.32412 18.226 4.83889 17.6916C3.70639 17.119 2.34223 17.8952 1.91754 19.0277C2.25215 17.7552 3.33318 17.3607 4.56864 17.4244C4.89037 17.4371 5.03194 17.7679 5.40515 17.4244C5.8041 17.0681 5.72688 16.1391 6.56339 15.4393L6.66635 15.4902C6.25453 15.8337 5.6368 16.699 5.85558 17.2335C6.64061 17.0808 6.47331 16.7499 6.85939 16.2918C7.28408 15.7701 7.85033 15.7956 8.28789 15.1975L8.39085 15.2993C8.27502 15.4393 7.28408 16.7881 7.47712 16.9026C7.61868 16.8772 7.91468 16.9408 8.01764 16.9026C8.09485 16.8772 8.66111 15.821 8.82841 15.6174C11.1706 12.767 15.3532 13.2378 17.2707 16.2918C17.5796 16.7754 17.348 17.119 18.1845 16.9917L18.2102 16.8645C17.9914 16.3427 17.6954 15.8719 17.4252 15.3884L17.3994 15.3629Z" fill="#FDE883"/>
<path d="M12.419 14.0522C14.4781 13.9122 16.4728 15.0702 17.2064 16.9917C16.4342 17.208 16.7302 16.9917 16.4213 16.559C14.5939 14.014 11.3122 13.8995 9.30456 16.3172C9.00857 16.6608 9.09865 17.0935 8.49379 16.928C8.32649 16.8517 8.91848 15.9991 9.00857 15.8846C9.78073 14.9302 11.1835 14.154 12.419 14.0649V14.0522Z" fill="#F3BD44"/>
<path d="M12.7149 14.8793C13.8732 14.8411 15.1344 15.3883 15.8808 16.2663C15.9709 16.3681 16.4471 17.0553 16.4213 17.1444C16.4085 17.1953 15.958 17.3352 15.9065 17.3098C15.8679 17.2971 15.5848 16.7626 15.4947 16.6481C14.2078 15.2611 12.1487 15.0066 10.6044 16.19C10.3598 16.3809 9.78072 17.1953 9.71637 17.208C9.66489 17.208 9.35602 17.068 9.27881 17.068C9.78072 15.8082 11.3765 14.9175 12.7149 14.8793Z" fill="#F3BD44"/>
<path d="M12.612 15.8084C13.5515 15.7575 14.7355 16.241 15.2889 17.0045C15.3275 17.0554 15.5849 17.4626 15.5849 17.4881C15.5849 17.5262 15.1988 17.7171 15.173 17.7044C15.1087 17.6917 14.6325 16.9536 14.388 16.7755C13.4099 16.0883 12.0329 16.1647 11.0934 16.8773C10.7331 17.1572 10.5658 17.7553 10.1154 17.4117C10.4242 16.5337 11.724 15.8593 12.6249 15.8084H12.612Z" fill="#F3BD44"/>
<path d="M12.6635 16.6735C13.5515 16.6354 14.4652 17.1062 14.8513 17.9079C14.3751 18.4169 14.4395 17.9206 14.092 17.6406C13.4357 17.1189 12.4576 17.0553 11.7369 17.5007C11.4666 17.6661 11.2736 18.0733 11.0548 17.9842C10.3856 17.7424 11.6983 16.9153 11.9943 16.8135C12.1358 16.7626 12.5477 16.6735 12.6764 16.6735H12.6635Z" fill="#F3BD44"/>
<path d="M12.7536 17.5515C13.101 17.5515 14.3365 17.9587 14.2979 18.3532C14.2979 18.3659 14.0405 18.6204 14.0276 18.6204C13.9761 18.6204 13.6287 18.1369 13.3455 18.0351C12.6377 17.7806 12.1101 18.0224 11.5824 18.4677C11.2478 18.2769 11.4795 18.0605 11.724 17.8824C11.9428 17.7297 12.4962 17.5515 12.7536 17.5388V17.5515Z" fill="#F3BD44"/>
<path d="M12.612 18.3279C12.8952 18.3024 13.8604 18.4551 13.8218 18.8878C13.7831 19.3204 13.307 19.015 13.204 19.015C12.9209 19.015 11.7369 19.2059 11.8527 18.6969C11.8785 18.5824 12.4962 18.3406 12.612 18.3279Z" fill="#F3BD44"/>
<path d="M17.8627 15.8972C18.3131 16.0754 18.8794 16.4571 18.8407 17.017C18.1458 17.1061 18.0686 16.4062 17.8627 15.8972Z" fill="#F3BD44"/>
<path d="M7.6444 15.9482C7.45136 16.4318 7.42562 17.0171 6.75641 16.9153C6.8851 16.47 7.24545 16.1518 7.6444 15.9482Z" fill="#F3BD44"/>
<path d="M7.15539 29.9329C6.67923 29.9457 5.90706 29.9966 5.68828 29.9838C4.71021 29.9329 3.4104 29.6403 2.63823 29.0295C2.54815 28.9658 2.00763 28.4059 2.00763 28.355C2.00763 28.2914 2.41945 28.0878 2.50954 27.9097C2.89562 27.1462 2.27789 27.2734 2.25215 27.2098C2.22641 27.1334 2.25215 26.8917 2.20067 26.7644C1.67303 25.5937 0.308873 26.599 1.19686 27.9606C2.23928 29.5766 3.89944 30.2765 5.79124 30.3783C5.98428 30.3783 6.80792 30.3783 7.29696 30.3147C7.24548 30.1874 7.194 30.0602 7.15539 29.9329Z" fill="#28355A"/>
<path d="M18.9566 27.9988C18.5834 28.9405 17.734 27.7316 18.6735 27.5662C17.6826 26.9427 16.9361 28.4315 17.5281 29.2332C18.1716 30.1239 19.4714 29.3222 18.9695 27.9861L18.9566 27.9988Z" fill="#073133"/>
<path d="M14.2593 27.9988C13.899 28.8896 13.0882 27.9225 13.8217 27.5662C12.5219 26.9299 12.2517 29.1186 13.0624 29.4877C14.0405 29.933 14.6325 28.8387 14.2464 27.9988H14.2593Z" fill="#073133"/>
<path d="M13.8217 27.5662C13.0882 27.9097 13.8861 28.8896 14.2593 27.9988C14.1306 27.7189 14.092 27.7061 13.8217 27.5662Z" fill="#FEFAF1"/>
<path d="M18.9566 27.9988C18.8794 27.7825 18.8923 27.7061 18.6735 27.5662C17.734 27.7316 18.5834 28.9277 18.9566 27.9988Z" fill="#FEFAF1"/>
</g>
<defs>
<clipPath id="clip0_1352_5646">
<rect width="27" height="41" fill="white" transform="translate(0 0.5)"/>
</clipPath>
</defs>
</svg>
