<svg width="24" height="25" viewBox="0 0 24 25" fill="none" xmlns="http://www.w3.org/2000/svg">
<path d="M11.9609 22.0303C11.8595 22.0303 11.7582 21.9822 11.696 21.8923L7.96151 16.3597C6.20871 13.7685 4.21718 10.8304 5.7051 7.50704C6.79733 5.06668 9.25322 3.48688 11.9609 3.48688C12.1375 3.48688 12.2748 3.62495 12.2748 3.79513C12.2748 3.96531 12.1342 4.1066 11.9609 4.1066C9.50502 4.1066 7.27478 5.5387 6.28392 7.75428C4.93661 10.7694 6.74174 13.4377 8.48473 16.0194L12.2225 21.5487C12.3206 21.69 12.2781 21.8859 12.1342 21.9758C12.0819 22.0143 12.0198 22.0271 11.9576 22.0271" fill="url(#paint0_linear_2335_16327)"/>
<path d="M11.9611 22.2969C11.7648 22.2969 11.585 22.2038 11.4738 22.0432L7.73601 16.5107C5.94397 13.8552 3.9132 10.8529 5.45671 7.40113C6.59473 4.86445 9.14545 3.22363 11.9611 3.22363C12.2815 3.22363 12.5464 3.48051 12.5464 3.7984C12.5464 4.11629 12.2848 4.37317 11.9611 4.37317C9.60981 4.37317 7.47767 5.74105 6.52932 7.86351C5.24415 10.7438 7.0035 13.3543 8.71052 15.8749L12.4483 21.4043C12.5366 21.5327 12.566 21.6868 12.5333 21.8377C12.5006 21.9887 12.4123 22.1171 12.2815 22.2006C12.1932 22.2616 12.0788 22.2969 11.9611 22.2969ZM11.9611 3.75345C9.35801 3.75345 7.00023 5.26903 5.95051 7.61306C4.52472 10.8016 6.46719 13.6754 8.18075 16.2089L11.9218 21.7478C11.9382 21.7703 11.9578 21.7767 11.9807 21.7607L12.0068 21.7286C12.0068 21.7286 12.0068 21.7093 12.0003 21.6965L8.26251 16.1671C6.477 13.5245 4.63263 10.7951 6.03553 7.65159C7.07217 5.33968 9.39725 3.84335 11.9611 3.84335C11.9872 3.84335 12.0068 3.82088 12.0068 3.79519C12.0068 3.7695 11.9872 3.75024 11.9611 3.75024V3.75345Z" fill="url(#paint1_linear_2335_16327)"/>
<path d="M11.9612 13.3796C10.1692 13.3796 8.71069 11.9475 8.71069 10.1879C8.71069 8.42829 10.1692 6.99298 11.9612 6.99298C12.1378 6.99298 12.2752 7.13426 12.2752 7.30445C12.2752 7.47463 12.1345 7.6127 11.9612 7.6127C10.5158 7.6127 9.34183 8.76866 9.34183 10.1879C9.34183 11.6072 10.5158 12.7599 11.9612 12.7599C12.1378 12.7599 12.2752 12.9012 12.2752 13.0714C12.2752 13.2416 12.1345 13.3796 11.9612 13.3796Z" fill="url(#paint2_linear_2335_16327)"/>
<path d="M11.9612 13.6466C10.0187 13.6466 8.43921 12.0957 8.43921 10.1883C8.43921 8.28101 10.0187 6.7301 11.9612 6.7301C12.2816 6.7301 12.5465 6.99019 12.5465 7.30487C12.5465 7.61955 12.2849 7.87964 11.9612 7.87964C10.6662 7.87964 9.60992 8.91679 9.60992 10.1883C9.60992 11.4599 10.6629 12.497 11.9612 12.497C12.2816 12.497 12.5465 12.7571 12.5465 13.0718C12.5465 13.3865 12.2849 13.6466 11.9612 13.6466ZM11.9612 7.25671C10.3163 7.25671 8.97878 8.57 8.97878 10.1883C8.97878 11.8067 10.3163 13.1168 11.9612 13.1168C11.9873 13.1168 12.0069 13.0975 12.0069 13.0718C12.0069 13.0461 11.9873 13.0236 11.9612 13.0236C10.3686 13.0236 9.07362 11.7521 9.07362 10.1883C9.07362 8.62459 10.3686 7.34982 11.9612 7.34982C11.9873 7.34982 12.0069 7.33056 12.0069 7.30487C12.0069 7.27918 11.9873 7.25671 11.9612 7.25671Z" fill="url(#paint3_linear_2335_16327)"/>
<path d="M11.9582 22.0302C11.8993 22.0302 11.8372 22.0141 11.7816 21.9788C11.6377 21.8857 11.5952 21.693 11.6933 21.5517L15.4311 16.0224C17.1741 13.4408 18.9792 10.7692 17.6319 7.75734C16.641 5.54175 14.414 4.10965 11.9549 4.10965C11.7783 4.10965 11.6409 3.96837 11.6409 3.79818C11.6409 3.628 11.7816 3.48993 11.9549 3.48993C14.6626 3.48993 17.1185 5.06653 18.2107 7.51009C19.6953 10.8335 17.7071 13.7715 15.9543 16.3628L12.2198 21.8953C12.1576 21.9852 12.0595 22.0334 11.9549 22.0334" fill="url(#paint4_linear_2335_16327)"/>
<path d="M11.9579 22.2972C11.8369 22.2972 11.7257 22.2619 11.6276 22.1976C11.5033 22.1206 11.415 21.9921 11.3823 21.8412C11.3496 21.6903 11.3823 21.5362 11.4673 21.4077L15.2051 15.8784C16.9089 13.3546 18.6715 10.7473 17.3831 7.86699C16.4347 5.74774 14.3026 4.37665 11.9513 4.37665C11.6308 4.37665 11.366 4.11656 11.366 3.80188C11.366 3.4872 11.6276 3.22711 11.9513 3.22711C14.7637 3.22711 17.3177 4.86793 18.4524 7.40461C19.9959 10.8564 17.9684 13.8587 16.1796 16.5046L12.4386 22.0435C12.3274 22.2041 12.1443 22.3004 11.9513 22.3004L11.9579 22.2972ZM11.9579 3.75371C11.9317 3.75371 11.9121 3.77298 11.9121 3.79867C11.9121 3.82436 11.9317 3.84683 11.9579 3.84683C14.5217 3.84683 16.8467 5.33994 17.8801 7.65186C19.2863 10.7954 17.4419 13.528 15.6564 16.1674L11.9154 21.6967C11.9154 21.6967 11.9055 21.7224 11.9088 21.732L11.9546 21.7674C11.9546 21.7674 11.984 21.7642 11.9938 21.7449L15.7284 16.2156C17.4452 13.6757 19.3877 10.8018 17.9619 7.61332C16.9187 5.2693 14.5609 3.75371 11.9579 3.75371Z" fill="url(#paint5_linear_2335_16327)"/>
<path d="M11.9609 13.3796C11.7843 13.3796 11.647 13.2384 11.647 13.0714C11.647 12.9044 11.7876 12.7599 11.9609 12.7599C13.4063 12.7599 14.5836 11.6072 14.5836 10.1879C14.5836 8.76866 13.4063 7.6127 11.9609 7.6127C11.7843 7.6127 11.647 7.47463 11.647 7.30445C11.647 7.13426 11.7876 6.99298 11.9609 6.99298C13.753 6.99298 15.2114 8.42508 15.2114 10.1879C15.2114 11.9507 13.753 13.3796 11.9609 13.3796Z" fill="url(#paint6_linear_2335_16327)"/>
<path d="M11.9608 13.6466C11.6404 13.6466 11.3755 13.3897 11.3755 13.0718C11.3755 12.7539 11.6371 12.497 11.9608 12.497C13.2591 12.497 14.3121 11.4631 14.3121 10.1883C14.3121 8.91358 13.2558 7.87964 11.9608 7.87964C11.6404 7.87964 11.3755 7.62276 11.3755 7.30487C11.3755 6.98698 11.6371 6.7301 11.9608 6.7301C13.9033 6.7301 15.4828 8.28101 15.4828 10.1883C15.4828 12.0957 13.9033 13.6466 11.9608 13.6466ZM11.9608 7.25671C11.9347 7.25671 11.9151 7.27918 11.9151 7.30487C11.9151 7.33056 11.9347 7.34982 11.9608 7.34982C13.5534 7.34982 14.8517 8.62459 14.8517 10.1883C14.8517 11.7521 13.5534 13.0236 11.9608 13.0236C11.9347 13.0236 11.9151 13.0461 11.9151 13.0718C11.9151 13.0975 11.9347 13.1168 11.9608 13.1168C13.6057 13.1168 14.9432 11.8035 14.9432 10.1883C14.9432 8.57321 13.6057 7.25671 11.9608 7.25671Z" fill="url(#paint7_linear_2335_16327)"/>
<defs>
<linearGradient id="paint0_linear_2335_16327" x1="7.02755" y1="8.50673" x2="14.2979" y2="11.1632" gradientUnits="userSpaceOnUse">
<stop stop-color="#FF2800"/>
<stop offset="1" stop-color="#FF8D00"/>
</linearGradient>
<linearGradient id="paint1_linear_2335_16327" x1="6.89544" y1="8.38691" x2="14.6364" y2="11.3479" gradientUnits="userSpaceOnUse">
<stop stop-color="#FF2800"/>
<stop offset="1" stop-color="#FF8D00"/>
</linearGradient>
<linearGradient id="paint2_linear_2335_16327" x1="9.63756" y1="8.72189" x2="12.8625" y2="10.4414" gradientUnits="userSpaceOnUse">
<stop stop-color="#FF2800"/>
<stop offset="1" stop-color="#FF8D00"/>
</linearGradient>
<linearGradient id="paint3_linear_2335_16327" x1="9.50723" y1="8.60244" x2="13.1177" y2="10.6508" gradientUnits="userSpaceOnUse">
<stop stop-color="#FF2800"/>
<stop offset="1" stop-color="#FF8D00"/>
</linearGradient>
<linearGradient id="paint4_linear_2335_16327" x1="13.484" y1="8.50978" x2="20.7532" y2="11.1654" gradientUnits="userSpaceOnUse">
<stop stop-color="#FF2800"/>
<stop offset="1" stop-color="#FF8D00"/>
</linearGradient>
<linearGradient id="paint5_linear_2335_16327" x1="13.351" y1="8.39038" x2="21.09" y2="11.3496" gradientUnits="userSpaceOnUse">
<stop stop-color="#FF2800"/>
<stop offset="1" stop-color="#FF8D00"/>
</linearGradient>
<linearGradient id="paint6_linear_2335_16327" x1="12.5738" y1="8.72189" x2="15.7988" y2="10.4414" gradientUnits="userSpaceOnUse">
<stop stop-color="#FF2800"/>
<stop offset="1" stop-color="#FF8D00"/>
</linearGradient>
<linearGradient id="paint7_linear_2335_16327" x1="12.4435" y1="8.60244" x2="16.054" y2="10.6508" gradientUnits="userSpaceOnUse">
<stop stop-color="#FF2800"/>
<stop offset="1" stop-color="#FF8D00"/>
</linearGradient>
</defs>
</svg>
