<svg width="25" height="25" viewBox="0 0 25 25" fill="none" xmlns="http://www.w3.org/2000/svg">
<path d="M12.4609 22.0298C12.3595 22.0298 12.2582 21.9816 12.196 21.8917L8.46151 16.3592C6.70871 13.7679 4.71718 10.8299 6.2051 7.50649C7.29733 5.06614 9.75322 3.48633 12.4609 3.48633C12.6375 3.48633 12.7748 3.6244 12.7748 3.79458C12.7748 3.96477 12.6342 4.10605 12.4609 4.10605C10.005 4.10605 7.77478 5.53815 6.78392 7.75373C5.43661 10.7689 7.24174 13.4372 8.98473 16.0188L12.7225 21.5481C12.8206 21.6894 12.7781 21.8853 12.6342 21.9752C12.5819 22.0137 12.5198 22.0266 12.4576 22.0266" fill="#C8C8C8"/>
<path d="M12.4611 22.2959C12.2648 22.2959 12.085 22.2028 11.9738 22.0423L8.23601 16.5097C6.44397 13.8542 4.4132 10.852 5.95671 7.40015C7.09473 4.86347 9.64545 3.22266 12.4611 3.22266C12.7815 3.22266 13.0464 3.47954 13.0464 3.79742C13.0464 4.11531 12.7848 4.37219 12.4611 4.37219C10.1098 4.37219 7.97767 5.74007 7.02932 7.86254C5.74415 10.7428 7.5035 13.3533 9.21052 15.874L12.9483 21.4033C13.0366 21.5317 13.066 21.6859 13.0333 21.8368C13.0006 21.9877 12.9123 22.1161 12.7815 22.1996C12.6932 22.2606 12.5788 22.2959 12.4611 22.2959ZM12.4611 3.75247C9.85801 3.75247 7.50023 5.26806 6.45051 7.61208C5.02472 10.8006 6.96719 13.6744 8.68075 16.2079L12.4218 21.7469C12.4382 21.7693 12.4578 21.7758 12.4807 21.7597L12.5068 21.7276C12.5068 21.7276 12.5068 21.7083 12.5003 21.6955L8.76251 16.1662C6.977 13.5235 5.13263 10.7942 6.53553 7.65061C7.57217 5.3387 9.89725 3.84238 12.4611 3.84238C12.4872 3.84238 12.5068 3.8199 12.5068 3.79421C12.5068 3.76852 12.4872 3.74926 12.4611 3.74926V3.75247Z" fill="#C8C8C8"/>
<path d="M12.4612 13.3788C10.6692 13.3788 9.21069 11.9467 9.21069 10.1871C9.21069 8.4275 10.6692 6.99219 12.4612 6.99219C12.6378 6.99219 12.7752 7.13347 12.7752 7.30365C12.7752 7.47384 12.6345 7.61191 12.4612 7.61191C11.0158 7.61191 9.84183 8.76787 9.84183 10.1871C9.84183 11.6064 11.0158 12.7591 12.4612 12.7591C12.6378 12.7591 12.7752 12.9004 12.7752 13.0706C12.7752 13.2408 12.6345 13.3788 12.4612 13.3788Z" fill="#C8C8C8"/>
<path d="M12.4612 13.645C10.5187 13.645 8.93921 12.0941 8.93921 10.1868C8.93921 8.27942 10.5187 6.72852 12.4612 6.72852C12.7816 6.72852 13.0465 6.98861 13.0465 7.30328C13.0465 7.61796 12.7849 7.87805 12.4612 7.87805C11.1662 7.87805 10.1099 8.9152 10.1099 10.1868C10.1099 11.4583 11.1629 12.4955 12.4612 12.4955C12.7816 12.4955 13.0465 12.7555 13.0465 13.0702C13.0465 13.3849 12.7849 13.645 12.4612 13.645ZM12.4612 7.25512C10.8163 7.25512 9.47878 8.56841 9.47878 10.1868C9.47878 11.8051 10.8163 13.1152 12.4612 13.1152C12.4873 13.1152 12.5069 13.0959 12.5069 13.0702C12.5069 13.0445 12.4873 13.0221 12.4612 13.0221C10.8686 13.0221 9.57362 11.7505 9.57362 10.1868C9.57362 8.623 10.8686 7.34824 12.4612 7.34824C12.4873 7.34824 12.5069 7.32897 12.5069 7.30328C12.5069 7.27759 12.4873 7.25512 12.4612 7.25512Z" fill="#C8C8C8"/>
<path d="M12.4582 22.0305C12.3993 22.0305 12.3372 22.0144 12.2816 21.9791C12.1377 21.886 12.0952 21.6933 12.1933 21.5521L15.9311 16.0227C17.6741 13.4411 19.4792 10.7695 18.1319 7.75764C17.141 5.54206 14.914 4.10996 12.4549 4.10996C12.2783 4.10996 12.1409 3.96867 12.1409 3.79849C12.1409 3.62831 12.2816 3.49023 12.4549 3.49023C15.1626 3.49023 17.6185 5.06683 18.7107 7.51039C20.1953 10.8338 18.2071 13.7718 16.4543 16.3631L12.7198 21.8956C12.6576 21.9855 12.5595 22.0337 12.4549 22.0337" fill="#C8C8C8"/>
<path d="M12.4579 22.2966C12.3369 22.2966 12.2257 22.2613 12.1276 22.1971C12.0033 22.12 11.915 21.9916 11.8823 21.8407C11.8496 21.6898 11.8823 21.5356 11.9673 21.4072L15.7051 15.8779C17.4089 13.354 19.1715 10.7467 17.8831 7.86644C16.9347 5.74719 14.8026 4.3761 12.4513 4.3761C12.1308 4.3761 11.866 4.11601 11.866 3.80133C11.866 3.48665 12.1276 3.22656 12.4513 3.22656C15.2637 3.22656 17.8177 4.86738 18.9524 7.40406C20.4959 10.8559 18.4684 13.8582 16.6796 16.504L12.9386 22.043C12.8274 22.2035 12.6443 22.2998 12.4513 22.2998L12.4579 22.2966ZM12.4579 3.75316C12.4317 3.75316 12.4121 3.77243 12.4121 3.79812C12.4121 3.82381 12.4317 3.84628 12.4579 3.84628C15.0217 3.84628 17.3467 5.33939 18.3801 7.65131C19.7863 10.7949 17.9419 13.5274 16.1564 16.1669L12.4154 21.6962C12.4154 21.6962 12.4055 21.7219 12.4088 21.7315L12.4546 21.7668C12.4546 21.7668 12.484 21.7636 12.4938 21.7443L16.2284 16.215C17.9452 13.6751 19.8877 10.8013 18.4619 7.61277C17.4187 5.26875 15.0609 3.75316 12.4579 3.75316Z" fill="#C8C8C8"/>
<path d="M12.4609 13.3788C12.2843 13.3788 12.147 13.2376 12.147 13.0706C12.147 12.9036 12.2876 12.7591 12.4609 12.7591C13.9063 12.7591 15.0836 11.6064 15.0836 10.1871C15.0836 8.76787 13.9063 7.61191 12.4609 7.61191C12.2843 7.61191 12.147 7.47384 12.147 7.30365C12.147 7.13347 12.2876 6.99219 12.4609 6.99219C14.253 6.99219 15.7114 8.42429 15.7114 10.1871C15.7114 11.95 14.253 13.3788 12.4609 13.3788Z" fill="#C8C8C8"/>
<path d="M12.4608 13.645C12.1404 13.645 11.8755 13.3881 11.8755 13.0702C11.8755 12.7523 12.1371 12.4955 12.4608 12.4955C13.7591 12.4955 14.8121 11.4615 14.8121 10.1868C14.8121 8.91199 13.7558 7.87805 12.4608 7.87805C12.1404 7.87805 11.8755 7.62117 11.8755 7.30328C11.8755 6.98539 12.1371 6.72852 12.4608 6.72852C14.4033 6.72852 15.9828 8.27942 15.9828 10.1868C15.9828 12.0941 14.4033 13.645 12.4608 13.645ZM12.4608 7.25512C12.4347 7.25512 12.4151 7.27759 12.4151 7.30328C12.4151 7.32897 12.4347 7.34824 12.4608 7.34824C14.0534 7.34824 15.3517 8.623 15.3517 10.1868C15.3517 11.7505 14.0534 13.0221 12.4608 13.0221C12.4347 13.0221 12.4151 13.0445 12.4151 13.0702C12.4151 13.0959 12.4347 13.1152 12.4608 13.1152C14.1057 13.1152 15.4432 11.8019 15.4432 10.1868C15.4432 8.57162 14.1057 7.25512 12.4608 7.25512Z" fill="#C8C8C8"/>
</svg>
