<svg width="32" height="33" viewBox="0 0 32 33" fill="none" xmlns="http://www.w3.org/2000/svg">
<path d="M16 26.76C14.6165 26.76 13.3211 26.4989 12.1139 25.9767C10.9135 25.4613 9.85215 24.7424 8.92981 23.82C8.01424 22.9045 7.29535 21.8465 6.77314 20.6461C6.25771 19.4389 6 18.1435 6 16.76C6 15.3765 6.25771 14.0811 6.77314 12.8739C7.29535 11.6668 8.01424 10.6054 8.92981 9.68982C9.85215 8.77425 10.9135 8.05876 12.1139 7.54333C13.3211 7.02112 14.6165 6.76001 16 6.76001C17.3835 6.76001 18.6789 7.02112 19.8861 7.54333C21.0933 8.05876 22.1546 8.77425 23.0702 9.68982C23.9858 10.6054 24.7013 11.6668 25.2167 12.8739C25.7389 14.0811 26 15.3765 26 16.76C26 18.1435 25.7389 19.4389 25.2167 20.6461C24.7013 21.8465 23.9858 22.9045 23.0702 23.82C22.1546 24.7424 21.0933 25.4613 19.8861 25.9767C18.6789 26.4989 17.3835 26.76 16 26.76ZM16 24.6542C17.0919 24.6542 18.1126 24.4474 19.0621 24.0337C20.0183 23.6267 20.8593 23.0638 21.5849 22.345C22.3106 21.6193 22.8769 20.7817 23.2838 19.8322C23.6907 18.876 23.8942 17.8519 23.8942 16.76C23.8942 15.6681 23.6907 14.6474 23.2838 13.698C22.8769 12.7417 22.3106 11.9041 21.5849 11.1852C20.8593 10.4596 20.0183 9.89328 19.0621 9.48636C18.1126 9.07266 17.0919 8.86581 16 8.86581C14.9081 8.86581 13.884 9.07266 12.9278 9.48636C11.9783 9.89328 11.1407 10.4596 10.4151 11.1852C9.68939 11.9041 9.12309 12.7417 8.71618 13.698C8.30926 14.6474 8.1058 15.6681 8.1058 16.76C8.1058 17.8519 8.30926 18.876 8.71618 19.8322C9.12309 20.7817 9.68939 21.6193 10.4151 22.345C11.1407 23.0638 11.9783 23.6267 12.9278 24.0337C13.884 24.4474 14.9081 24.6542 16 24.6542ZM11.5544 16.76C11.5544 16.4819 11.6426 16.2548 11.8189 16.0784C11.9953 15.8953 12.2224 15.8038 12.5005 15.8038H15.0539V13.2503C15.0539 12.9723 15.1421 12.7451 15.3184 12.5688C15.4947 12.3924 15.7152 12.3043 15.9797 12.3043C16.2645 12.3043 16.4951 12.3924 16.6714 12.5688C16.8477 12.7451 16.9359 12.9723 16.9359 13.2503V15.8038H19.4995C19.7708 15.8038 19.9946 15.8953 20.1709 16.0784C20.3472 16.2548 20.4354 16.4819 20.4354 16.76C20.4354 17.0313 20.3472 17.2551 20.1709 17.4314C19.9946 17.6078 19.7708 17.6959 19.4995 17.6959H16.9359V20.2493C16.9359 20.5274 16.8477 20.7546 16.6714 20.9309C16.4951 21.1005 16.2645 21.1852 15.9797 21.1852C15.7152 21.1852 15.4947 21.0971 15.3184 20.9207C15.1421 20.7444 15.0539 20.5206 15.0539 20.2493V17.6959H12.5005C12.2224 17.6959 11.9953 17.6078 11.8189 17.4314C11.6426 17.2551 11.5544 17.0313 11.5544 16.76Z" fill="url(#paint0_linear_2335_16309)"/>
<defs>
<linearGradient id="paint0_linear_2335_16309" x1="11.2006" y1="12.1742" x2="23.3506" y2="23.7817" gradientUnits="userSpaceOnUse">
<stop stop-color="#FF2800"/>
<stop offset="1" stop-color="#FF8D00"/>
</linearGradient>
</defs>
</svg>
