<svg width="358" height="105" viewBox="0 0 358 105" fill="none" xmlns="http://www.w3.org/2000/svg">
<g filter="url(#filter0_b_4623_25659)">
<path d="M0 12.6919C0 6.06448 5.37258 0.691895 12 0.691895H346C352.627 0.691895 358 6.06448 358 12.6919V92.6919C358 99.3193 352.627 104.692 346 104.692H12C5.37259 104.692 0 99.3193 0 92.6919V12.6919Z" fill="url(#paint0_linear_4623_25659)"/>
<path d="M62.5425 25.6919V15.9199H68.8285V17.5579H64.3905V19.9239H68.2545V21.5619H64.3905V25.6919H62.5425ZM72.9848 25.8599C72.4621 25.8599 71.9908 25.7712 71.5708 25.5939C71.1601 25.4166 70.8054 25.1599 70.5068 24.8239C70.2174 24.4879 69.9934 24.0866 69.8348 23.6199C69.6761 23.1439 69.5968 22.6119 69.5968 22.0239C69.5968 21.4359 69.6761 20.9086 69.8348 20.4419C69.9934 19.9752 70.2174 19.5786 70.5068 19.2519C70.8054 18.9159 71.1601 18.6592 71.5708 18.4819C71.9908 18.3046 72.4621 18.2159 72.9848 18.2159C73.5074 18.2159 73.9788 18.3046 74.3988 18.4819C74.8188 18.6592 75.1734 18.9159 75.4628 19.2519C75.7614 19.5786 75.9901 19.9752 76.1488 20.4419C76.3074 20.9086 76.3868 21.4359 76.3868 22.0239C76.3868 22.6119 76.3074 23.1439 76.1488 23.6199C75.9901 24.0866 75.7614 24.4879 75.4628 24.8239C75.1734 25.1599 74.8188 25.4166 74.3988 25.5939C73.9788 25.7712 73.5074 25.8599 72.9848 25.8599ZM72.9848 24.4179C73.4608 24.4179 73.8341 24.2732 74.1048 23.9839C74.3754 23.6946 74.5108 23.2699 74.5108 22.7099V21.3519C74.5108 20.8012 74.3754 20.3812 74.1048 20.0919C73.8341 19.8026 73.4608 19.6579 72.9848 19.6579C72.5181 19.6579 72.1494 19.8026 71.8788 20.0919C71.6081 20.3812 71.4728 20.8012 71.4728 21.3519V22.7099C71.4728 23.2699 71.6081 23.6946 71.8788 23.9839C72.1494 24.2732 72.5181 24.4179 72.9848 24.4179ZM77.9755 25.6919V18.3839H79.7675V19.8959H79.8375C79.8841 19.6999 79.9541 19.5132 80.0475 19.3359C80.1501 19.1492 80.2808 18.9859 80.4395 18.8459C80.5981 18.7059 80.7848 18.5939 80.9995 18.5099C81.2235 18.4259 81.4801 18.3839 81.7695 18.3839H82.1615V20.0779H81.6015C80.9948 20.0779 80.5375 20.1666 80.2295 20.3439C79.9215 20.5212 79.7675 20.8106 79.7675 21.2119V25.6919H77.9755ZM91.2601 18.3839H92.9401L90.0001 26.9939C89.9068 27.2552 89.7995 27.4792 89.6781 27.6659C89.5661 27.8619 89.4308 28.0206 89.2721 28.1419C89.1135 28.2632 88.9221 28.3519 88.6981 28.4079C88.4741 28.4639 88.2128 28.4919 87.9141 28.4919H86.8361V27.0639H88.1521L88.4881 26.0419L85.8701 18.3839H87.6481L88.9221 22.2479L89.3981 24.0959H89.4821L89.9861 22.2479L91.2601 18.3839ZM96.9242 25.8599C96.4016 25.8599 95.9302 25.7712 95.5102 25.5939C95.0996 25.4166 94.7449 25.1599 94.4462 24.8239C94.1569 24.4879 93.9329 24.0866 93.7742 23.6199C93.6156 23.1439 93.5362 22.6119 93.5362 22.0239C93.5362 21.4359 93.6156 20.9086 93.7742 20.4419C93.9329 19.9752 94.1569 19.5786 94.4462 19.2519C94.7449 18.9159 95.0996 18.6592 95.5102 18.4819C95.9302 18.3046 96.4016 18.2159 96.9242 18.2159C97.4469 18.2159 97.9182 18.3046 98.3382 18.4819C98.7582 18.6592 99.1129 18.9159 99.4022 19.2519C99.7009 19.5786 99.9296 19.9752 100.088 20.4419C100.247 20.9086 100.326 21.4359 100.326 22.0239C100.326 22.6119 100.247 23.1439 100.088 23.6199C99.9296 24.0866 99.7009 24.4879 99.4022 24.8239C99.1129 25.1599 98.7582 25.4166 98.3382 25.5939C97.9182 25.7712 97.4469 25.8599 96.9242 25.8599ZM96.9242 24.4179C97.4002 24.4179 97.7736 24.2732 98.0442 23.9839C98.3149 23.6946 98.4502 23.2699 98.4502 22.7099V21.3519C98.4502 20.8012 98.3149 20.3812 98.0442 20.0919C97.7736 19.8026 97.4002 19.6579 96.9242 19.6579C96.4576 19.6579 96.0889 19.8026 95.8182 20.0919C95.5476 20.3812 95.4122 20.8012 95.4122 21.3519V22.7099C95.4122 23.2699 95.5476 23.6946 95.8182 23.9839C96.0889 24.2732 96.4576 24.4179 96.9242 24.4179ZM106.283 24.4739H106.213C106.148 24.6606 106.059 24.8379 105.947 25.0059C105.844 25.1646 105.709 25.3092 105.541 25.4399C105.382 25.5706 105.186 25.6732 104.953 25.7479C104.729 25.8226 104.468 25.8599 104.169 25.8599C103.413 25.8599 102.834 25.6126 102.433 25.1179C102.032 24.6232 101.831 23.9186 101.831 23.0039V18.3839H103.623V22.8219C103.623 23.3259 103.721 23.7132 103.917 23.9839C104.113 24.2452 104.426 24.3759 104.855 24.3759C105.032 24.3759 105.205 24.3526 105.373 24.3059C105.55 24.2592 105.704 24.1892 105.835 24.0959C105.966 23.9932 106.073 23.8719 106.157 23.7319C106.241 23.5826 106.283 23.4099 106.283 23.2139V18.3839H108.075V25.6919H106.283V24.4739ZM110.145 25.6919V18.3839H111.937V19.8959H112.007C112.054 19.6999 112.124 19.5132 112.217 19.3359C112.32 19.1492 112.451 18.9859 112.609 18.8459C112.768 18.7059 112.955 18.5939 113.169 18.5099C113.393 18.4259 113.65 18.3839 113.939 18.3839H114.331V20.0779H113.771C113.165 20.0779 112.707 20.1666 112.399 20.3439C112.091 20.5212 111.937 20.8106 111.937 21.2119V25.6919H110.145Z" fill="url(#paint1_linear_4623_25659)"/>
<path d="M24.3051 85.6919V75.9199H30.5631V77.3199H25.8871V80.0359H30.1291V81.4359H25.8871V84.2919H30.5631V85.6919H24.3051ZM34.0739 85.6919L31.5959 78.4119H33.1079L34.2139 81.7299L34.9559 84.2779H35.0399L35.7819 81.7299L36.9159 78.4119H38.3719L35.8659 85.6919H34.0739ZM42.4026 85.8599C41.8799 85.8599 41.4133 85.7712 41.0026 85.5939C40.5919 85.4166 40.2419 85.1646 39.9526 84.8379C39.6633 84.5019 39.4393 84.1006 39.2806 83.6339C39.1313 83.1579 39.0566 82.6306 39.0566 82.0519C39.0566 81.4732 39.1313 80.9506 39.2806 80.4839C39.4393 80.0079 39.6633 79.6066 39.9526 79.2799C40.2419 78.9439 40.5919 78.6872 41.0026 78.5099C41.4133 78.3326 41.8799 78.2439 42.4026 78.2439C42.9346 78.2439 43.4013 78.3372 43.8026 78.5239C44.2133 78.7106 44.5539 78.9719 44.8246 79.3079C45.0953 79.6346 45.2959 80.0172 45.4266 80.4559C45.5666 80.8946 45.6366 81.3659 45.6366 81.8699V82.4439H40.6386V82.6819C40.6386 83.2419 40.8019 83.7039 41.1286 84.0679C41.4646 84.4226 41.9406 84.5999 42.5566 84.5999C43.0046 84.5999 43.3826 84.5019 43.6906 84.3059C43.9986 84.1099 44.2599 83.8439 44.4746 83.5079L45.3706 84.3899C45.0999 84.8379 44.7079 85.1972 44.1946 85.4679C43.6813 85.7292 43.0839 85.8599 42.4026 85.8599ZM42.4026 79.4339C42.1413 79.4339 41.8986 79.4806 41.6746 79.5739C41.4599 79.6672 41.2733 79.7979 41.1146 79.9659C40.9653 80.1339 40.8486 80.3346 40.7646 80.5679C40.6806 80.8012 40.6386 81.0579 40.6386 81.3379V81.4359H44.0266V81.2959C44.0266 80.7359 43.8819 80.2879 43.5926 79.9519C43.3033 79.6066 42.9066 79.4339 42.4026 79.4339ZM47.3259 85.6919V78.4119H48.8519V79.8119H48.9219C49.0246 79.4386 49.2392 79.1119 49.5659 78.8319C49.8926 78.5519 50.3452 78.4119 50.9239 78.4119H51.3299V79.8819H50.7279C50.1212 79.8819 49.6546 79.9799 49.3279 80.1759C49.0106 80.3719 48.8519 80.6612 48.8519 81.0439V85.6919H47.3259ZM57.2743 78.4119H58.7443L55.6783 87.1339C55.5943 87.3766 55.4963 87.5819 55.3843 87.7499C55.2816 87.9272 55.1556 88.0672 55.0063 88.1699C54.8663 88.2819 54.6936 88.3612 54.4883 88.4079C54.283 88.4639 54.0403 88.4919 53.7603 88.4919H52.8783V87.2459H54.1103L54.5303 86.0139L51.8843 78.4119H53.4103L54.8663 82.6959L55.2863 84.2779H55.3563L55.8183 82.6959L57.2743 78.4119ZM76.5687 71.1629H76.4527L74.8867 74.3819L70.7397 82.0379L66.5927 74.3819L65.0267 71.1629H64.9107V85.6919H61.2857V65.4499H65.6067L70.7977 75.3389H70.9137L76.0467 65.4499H80.1937V85.6919H76.5687V71.1629ZM90.8485 86.0399C89.7272 86.0399 88.7218 85.8562 87.8325 85.4889C86.9625 85.1022 86.2182 84.5706 85.5995 83.8939C85.0002 83.1979 84.5362 82.3666 84.2075 81.3999C83.8788 80.4139 83.7145 79.3119 83.7145 78.0939C83.7145 76.8952 83.8692 75.8126 84.1785 74.8459C84.5072 73.8792 84.9712 73.0576 85.5705 72.3809C86.1698 71.6849 86.9045 71.1532 87.7745 70.7859C88.6445 70.3992 89.6305 70.2059 90.7325 70.2059C91.9118 70.2059 92.9365 70.4089 93.8065 70.8149C94.6765 71.2209 95.3918 71.7719 95.9525 72.4679C96.5132 73.1639 96.9288 73.9759 97.1995 74.9039C97.4895 75.8126 97.6345 76.7889 97.6345 77.8329V79.0509H87.5715V79.4279C87.5715 80.5299 87.8808 81.4192 88.4995 82.0959C89.1182 82.7532 90.0365 83.0819 91.2545 83.0819C92.1825 83.0819 92.9365 82.8886 93.5165 82.5019C94.1158 82.1152 94.6475 81.6222 95.1115 81.0229L97.1125 83.2559C96.4938 84.1259 95.6432 84.8122 94.5605 85.3149C93.4972 85.7982 92.2598 86.0399 90.8485 86.0399ZM90.7905 72.9899C89.8045 72.9899 89.0215 73.3186 88.4415 73.9759C87.8615 74.6332 87.5715 75.4839 87.5715 76.5279V76.7599H93.7775V76.4989C93.7775 75.4549 93.5165 74.6139 92.9945 73.9759C92.4918 73.3186 91.7572 72.9899 90.7905 72.9899ZM112.036 85.6919C111.224 85.6919 110.577 85.4599 110.093 84.9959C109.629 84.5126 109.339 83.8746 109.223 83.0819H109.049C108.798 84.0679 108.286 84.8122 107.512 85.3149C106.739 85.7982 105.782 86.0399 104.641 86.0399C103.095 86.0399 101.906 85.6339 101.074 84.8219C100.243 84.0099 99.8274 82.9272 99.8274 81.5739C99.8274 80.0079 100.388 78.8479 101.509 78.0939C102.631 77.3206 104.226 76.9339 106.294 76.9339H108.875V75.8319C108.875 74.9812 108.653 74.3239 108.208 73.8599C107.764 73.3959 107.048 73.1639 106.062 73.1639C105.192 73.1639 104.487 73.3572 103.945 73.7439C103.423 74.1112 102.979 74.5559 102.611 75.0779L100.407 73.1059C100.968 72.2359 101.712 71.5399 102.64 71.0179C103.568 70.4766 104.796 70.2059 106.323 70.2059C108.373 70.2059 109.929 70.6699 110.992 71.5979C112.056 72.5259 112.587 73.8599 112.587 75.5999V82.7339H114.095V85.6919H112.036ZM105.888 83.3429C106.72 83.3429 107.425 83.1592 108.005 82.7919C108.585 82.4246 108.875 81.8832 108.875 81.1679V79.1669H106.497C104.564 79.1669 103.597 79.7856 103.597 81.0229V81.5159C103.597 82.1346 103.791 82.5986 104.177 82.9079C104.583 83.1979 105.154 83.3429 105.888 83.3429ZM120.812 85.6919C119.536 85.6919 118.598 85.3729 117.999 84.7349C117.399 84.0969 117.1 83.1979 117.1 82.0379V64.2319H120.812V82.7339H122.813V85.6919H120.812ZM130.583 86.0399C129.133 86.0399 127.915 85.7982 126.929 85.3149C125.943 84.8122 125.073 84.1259 124.319 83.2559L126.581 81.0519C127.142 81.6899 127.751 82.1926 128.408 82.5599C129.085 82.9272 129.858 83.1109 130.728 83.1109C131.617 83.1109 132.255 82.9562 132.642 82.6469C133.048 82.3376 133.251 81.9122 133.251 81.3709C133.251 80.9262 133.106 80.5782 132.816 80.3269C132.545 80.0562 132.072 79.8726 131.395 79.7759L129.887 79.5729C128.244 79.3602 126.987 78.8962 126.117 78.1809C125.266 77.4462 124.841 76.3829 124.841 74.9909C124.841 74.2562 124.976 73.5989 125.247 73.0189C125.518 72.4196 125.904 71.9169 126.407 71.5109C126.91 71.0856 127.509 70.7666 128.205 70.5539C128.92 70.3219 129.713 70.2059 130.583 70.2059C131.318 70.2059 131.965 70.2639 132.526 70.3799C133.106 70.4766 133.628 70.6312 134.092 70.8439C134.556 71.0372 134.981 71.2886 135.368 71.5979C135.755 71.8879 136.132 72.2166 136.499 72.5839L134.324 74.7589C133.879 74.2949 133.348 73.9082 132.729 73.5989C132.11 73.2896 131.434 73.1349 130.699 73.1349C129.887 73.1349 129.297 73.2799 128.93 73.5699C128.582 73.8599 128.408 74.2369 128.408 74.7009C128.408 75.2036 128.553 75.5902 128.843 75.8609C129.152 76.1122 129.665 76.2959 130.38 76.4119L131.917 76.6149C135.184 77.0789 136.818 78.5676 136.818 81.0809C136.818 81.8156 136.663 82.4922 136.354 83.1109C136.064 83.7102 135.648 84.2322 135.107 84.6769C134.566 85.1022 133.908 85.4406 133.135 85.6919C132.381 85.9239 131.53 86.0399 130.583 86.0399ZM141.662 79.6019L140.473 71.1629V65.4499H144.417V71.1629L143.286 79.6019H141.662ZM142.445 86.0399C141.613 86.0399 141.014 85.8466 140.647 85.4599C140.279 85.0732 140.096 84.5802 140.096 83.9809V83.4009C140.096 82.8016 140.279 82.3086 140.647 81.9219C141.014 81.5352 141.613 81.3419 142.445 81.3419C143.257 81.3419 143.846 81.5352 144.214 81.9219C144.581 82.3086 144.765 82.8016 144.765 83.4009V83.9809C144.765 84.5802 144.581 85.0732 144.214 85.4599C143.846 85.8466 143.257 86.0399 142.445 86.0399Z" fill="url(#paint2_linear_4623_25659)"/>
<path d="M164 53.1919C164 38.0041 176.312 25.6919 191.5 25.6919H305.5C320.688 25.6919 333 38.0041 333 53.1919C333 68.3797 320.688 80.6919 305.5 80.6919H191.5C176.312 80.6919 164 68.3797 164 53.1919Z" fill="url(#paint3_linear_4623_25659)"/>
<path d="M247.202 58.6919L246.418 56.3079H242.386L241.602 58.6919H239.506L243.298 47.8599H245.506L249.298 58.6919H247.202ZM242.914 54.6919H245.89L244.914 51.7479L244.418 49.9559H244.386L243.874 51.7639L242.914 54.6919ZM254.923 50.7399C256.939 50.7399 257.883 51.9719 257.883 54.5959C257.883 57.5399 256.635 58.8839 253.931 58.8839C253.451 58.8839 252.987 58.8359 252.571 58.7399V61.9559H250.507V50.9319H252.251L252.379 51.7799C253.051 51.0759 253.883 50.7399 254.923 50.7399ZM253.627 57.3159C255.179 57.3159 255.883 56.4999 255.883 54.6759C255.883 53.0759 255.339 52.3399 254.187 52.3399C253.515 52.3399 252.955 52.5799 252.555 53.0759V57.1399C252.875 57.2679 253.227 57.3159 253.627 57.3159ZM263.798 50.7399C265.814 50.7399 266.758 51.9719 266.758 54.5959C266.758 57.5399 265.51 58.8839 262.806 58.8839C262.326 58.8839 261.862 58.8359 261.446 58.7399V61.9559H259.382V50.9319H261.126L261.254 51.7799C261.926 51.0759 262.758 50.7399 263.798 50.7399ZM262.502 57.3159C264.054 57.3159 264.758 56.4999 264.758 54.6759C264.758 53.0759 264.214 52.3399 263.062 52.3399C262.39 52.3399 261.83 52.5799 261.43 53.0759V57.1399C261.75 57.2679 262.102 57.3159 262.502 57.3159ZM268.305 58.6919V47.7319H270.369V58.6919H268.305ZM277.295 50.9319H279.359V58.5959C279.359 60.9479 278.031 62.0359 275.135 62.0359C274.271 62.0359 273.343 61.9239 272.623 61.7319V60.1319C273.327 60.3399 274.159 60.4519 274.895 60.4519C276.495 60.4519 277.295 59.8279 277.295 58.6119V57.7639C276.671 58.3079 275.823 58.6119 274.879 58.6119C273.071 58.6119 272.255 57.7959 272.255 56.0359V50.9319H274.319V55.7959C274.319 56.6919 274.703 57.1079 275.551 57.1079C276.207 57.1079 276.799 56.8519 277.295 56.3239V50.9319ZM289.052 50.7399C290.844 50.7399 291.66 51.5559 291.66 53.3639V58.6919H289.596V53.7319C289.596 52.7719 289.196 52.3399 288.3 52.3399C287.644 52.3399 287.036 52.6119 286.54 53.1239V58.6919H284.476V50.9319H286.22L286.348 51.7799C287.052 51.0919 287.996 50.7399 289.052 50.7399ZM296.899 58.8839C294.307 58.8839 293.107 57.6039 293.107 54.8039C293.107 52.0039 294.291 50.7399 296.899 50.7399C299.507 50.7399 300.707 52.0199 300.707 54.8039C300.707 57.5879 299.507 58.8839 296.899 58.8839ZM296.899 57.3159C298.147 57.3159 298.707 56.5319 298.707 54.8039C298.707 53.0919 298.147 52.3079 296.899 52.3079C295.667 52.3079 295.107 53.0919 295.107 54.8039C295.107 56.5319 295.667 57.3159 296.899 57.3159ZM310.146 50.9319H312.21L310.402 58.6919H308.29L306.93 54.3719L305.538 58.6919H303.426L301.618 50.9319H303.714L304.818 56.5159L306.482 50.9319H308.098L307.682 52.1959L309.01 56.4999L310.146 50.9319ZM313.923 55.6359L313.731 50.0679V47.8919H315.795V50.0679L315.603 55.6359H313.923ZM314.771 58.8359C314.083 58.8359 313.618 58.3719 313.618 57.6999C313.618 57.0279 314.083 56.5639 314.771 56.5639C315.459 56.5639 315.939 57.0279 315.939 57.6999C315.939 58.3719 315.459 58.8359 314.771 58.8359Z" fill="white"/>
<path d="M197.194 54.8833C197.044 54.591 196.794 54.3474 196.494 54.3474H192.895L191.796 50.8401C191.646 50.5479 191.396 50.353 191.096 50.353C190.796 50.353 190.546 50.4992 190.446 50.8401L189.347 54.3474H185.698C185.398 54.3474 185.148 54.591 185.048 54.8833C184.948 55.1755 185.048 55.5165 185.298 55.6627L188.247 57.8547L187.147 61.362C186.998 61.6543 187.147 61.9952 187.397 62.2388C187.547 62.3362 187.647 62.3849 187.797 62.3849C187.947 62.3849 188.097 62.2875 188.197 62.2388L191.146 60.0468L194.095 62.2388C194.095 62.2388 194.645 62.3849 194.894 62.2388C195.194 61.9952 195.294 61.703 195.194 61.362L194.095 57.8547L196.944 55.6627C196.944 55.6627 197.343 55.1755 197.244 54.8833H197.194ZM193.195 57.6111L194.445 61.5568L194.345 61.6543L190.996 59.1699L187.747 61.6543L187.597 61.5568L188.847 57.6111L185.598 55.1268V55.0294H189.746L190.996 50.9863L191.096 51.0837L192.345 55.0294H196.394L196.494 55.1268L193.145 57.6111H193.195Z" fill="white"/>
<path d="M193.195 57.6112L194.445 61.5569L194.345 61.6543L190.996 59.17L187.747 61.6543L187.597 61.5569L188.847 57.6112L185.598 55.1269V55.0294H189.747L190.996 50.9863L191.096 51.0838L192.345 55.0294H196.394L196.494 55.1269L193.145 57.6112H193.195Z" fill="white"/>
<path d="M203.091 55.1272H207.789C208.289 55.1272 208.689 54.7375 208.689 54.2504C208.689 53.7632 208.289 53.3735 207.789 53.3735H203.091C202.591 53.3735 202.192 53.7632 202.192 54.2504C202.192 54.7375 202.591 55.1272 203.091 55.1272Z" fill="white"/>
<path d="M209.339 58.1473C209.339 57.6602 208.939 57.2705 208.439 57.2705H197.394C196.894 57.2705 196.494 57.6602 196.494 58.1473C196.494 58.6345 196.894 59.0241 197.394 59.0241H208.439C208.939 59.0241 209.339 58.6345 209.339 58.1473Z" fill="white"/>
<path d="M212.338 61.3623H201.992C201.492 61.3623 201.092 61.752 201.092 62.2391C201.092 62.7262 201.492 63.1159 201.992 63.1159H212.338C212.837 63.1159 213.237 62.7262 213.237 62.2391C213.237 61.752 212.837 61.3623 212.338 61.3623Z" fill="white"/>
<path d="M217.236 53.6657V67.2077C217.236 67.4513 217.036 67.6949 216.736 67.6949H183.599C183.349 67.6949 183.099 67.5 183.099 67.2077V47.6741C183.099 47.4306 183.299 47.187 183.599 47.187H207.49L207.59 45.1411H183.599C182.15 45.1411 181 46.2615 181 47.6741V67.159C181 68.5717 182.15 69.6921 183.599 69.6921H216.736C218.185 69.6921 219.335 68.5717 219.335 67.159V53.617H217.236V53.6657Z" fill="#F0EDED"/>
<path d="M210.139 42.9002L208.439 63.0183C208.439 63.408 208.689 63.7977 209.089 63.8464L229.031 67.4998C229.431 67.5485 229.831 67.3537 229.931 66.964L236.478 47.9175C236.578 47.5765 236.378 47.1868 235.978 47.0894L211.388 42.0233C210.788 41.8772 210.189 42.3156 210.139 42.9489V42.9002Z" fill="white"/>
<path d="M213.487 40.3672L234.429 45.141L237.078 41.9747L228.182 35.496L223.933 40.9031C223.933 40.9031 223.983 34.5705 220.085 33.9372C216.186 33.304 213.437 39.2469 213.537 40.4159L213.487 40.3672Z" fill="white"/>
<path d="M234.429 45.5795H234.329L213.387 40.8057C213.387 40.8057 213.038 40.5621 212.988 40.3673C212.938 39.393 214.187 36.4703 216.136 34.7167C217.386 33.645 218.735 33.1579 220.085 33.4014C223.234 33.9373 224.033 37.542 224.283 39.5392L227.732 35.2038C227.732 35.2038 228.182 34.9602 228.431 35.1064L237.328 41.5851C237.328 41.5851 237.528 41.7799 237.528 41.9261C237.528 42.0722 237.528 42.1696 237.428 42.3158L234.779 45.482C234.779 45.482 234.529 45.6769 234.379 45.6769L234.429 45.5795ZM214.037 39.9776L234.229 44.6052L236.328 42.0722L228.282 36.178L224.333 41.1954C224.333 41.1954 223.983 41.4389 223.783 41.3415C223.583 41.2928 223.433 41.098 223.433 40.8544C223.433 40.8057 223.433 34.9115 219.985 34.3757C218.935 34.1808 217.886 34.5705 216.836 35.4473C215.287 36.8113 214.237 39.0033 214.037 39.9776Z" fill="white"/>
<path d="M216.936 50.2559C217.515 50.2559 217.985 49.7979 217.985 49.2329C217.985 48.668 217.515 48.21 216.936 48.21C216.356 48.21 215.886 48.668 215.886 49.2329C215.886 49.7979 216.356 50.2559 216.936 50.2559Z" fill="url(#paint4_linear_4623_25659)"/>
<path d="M227.432 52.5938C228.011 52.5938 228.481 52.1358 228.481 51.5708C228.481 51.0058 228.011 50.5479 227.432 50.5479C226.852 50.5479 226.382 51.0058 226.382 51.5708C226.382 52.1358 226.852 52.5938 227.432 52.5938Z" fill="url(#paint5_linear_4623_25659)"/>
<path d="M221.575 59.9849C220.926 59.9849 220.226 59.8875 219.526 59.7414C218.077 59.4491 216.977 58.7184 216.228 57.5493C214.728 55.1624 215.528 51.85 215.578 51.7038C215.678 51.3141 216.028 51.1193 216.427 51.2167C216.777 51.3141 217.027 51.6551 216.927 52.0448C216.927 52.0448 216.178 54.9676 217.427 56.8673C217.927 57.6954 218.727 58.1826 219.826 58.4261C221.625 58.8158 223.075 58.621 224.174 57.939C225.574 57.0135 226.124 55.3573 226.374 54.1395C226.424 53.7498 226.773 53.5062 227.173 53.6036C227.573 53.6523 227.823 54.042 227.723 54.383C227.473 55.8931 226.773 57.8903 224.924 59.1081C223.974 59.7414 222.875 60.0336 221.575 60.0336V59.9849Z" fill="url(#paint6_linear_4623_25659)"/>
<path fill-rule="evenodd" clip-rule="evenodd" d="M28.1456 54.0392L27 55.8511H27.0441C30.2166 58.0255 34.3585 59.3845 39.4257 59.3845C46.3876 59.3845 51.7632 56.8477 51.7632 51.6383C51.7632 46.4264 45.9302 44.8315 40.6559 43.3894C36.3035 42.1993 32.3316 41.1132 32.3316 38.1846C32.3316 35.8743 34.3144 34.3795 39.8663 34.3795C43.5676 34.3795 46.696 35.2854 48.7229 37.0974H49.2957L50.3973 35.2854C47.5772 33.3829 43.8319 32.6128 39.8663 32.6128C32.2875 32.6128 28.3219 35.9196 28.3219 39.4076C28.3219 44.3198 33.5941 45.7139 38.6147 47.0415C43.1779 48.2481 47.5332 49.3997 47.5332 53.0879C47.5332 56.2588 44.581 57.6178 39.3816 57.6178C34.9313 57.6178 30.8775 56.0323 28.7184 54.0392H28.1456ZM68.8974 35.1304C62.2881 35.1304 56.3396 39.3885 56.3396 47.044C56.3396 54.6542 62.244 58.9576 68.8974 58.9576C75.5509 58.9576 81.4553 54.6995 81.4553 47.044C81.4553 39.3885 75.5068 35.1304 68.8974 35.1304ZM68.9415 36.7158C73.7884 36.7158 76.8728 38.8449 76.8728 44.5526V49.5354C76.8728 55.2884 73.7884 57.3721 68.9415 57.3721C64.0946 57.3721 60.9662 55.2431 60.9662 49.5354V44.5526C60.9662 38.7996 64.0946 36.7158 68.9415 36.7158ZM84.4136 47.4712C84.4136 39.8157 90.362 35.5576 96.9714 35.5576C103.581 35.5576 109.529 39.8157 109.529 47.4712C109.529 55.1268 103.625 59.3849 96.9714 59.3849C90.318 59.3849 84.4136 55.0815 84.4136 47.4712ZM104.903 44.9798C104.903 39.2721 101.818 37.1431 96.9714 37.1431C92.1245 37.1431 88.9961 39.2268 88.9961 44.9798V49.9627C88.9961 55.6703 92.1245 57.7994 96.9714 57.7994C101.818 57.7994 104.903 55.7156 104.903 49.9627V44.9798ZM119.576 51.2759L124.555 46.8819V46.9272L133.808 59.022H138.875L127.375 44.4357L136.936 35.9648H134.557L119.576 49.2374V35.9648H115.742V58.9767H119.576V51.2759Z" fill="url(#paint7_linear_4623_25659)"/>
</g>
<defs>
<filter id="filter0_b_4623_25659" x="-38.4" y="-37.7081" width="434.8" height="180.8" filterUnits="userSpaceOnUse" color-interpolation-filters="sRGB">
<feFlood flood-opacity="0" result="BackgroundImageFix"/>
<feGaussianBlur in="BackgroundImageFix" stdDeviation="19.2"/>
<feComposite in2="SourceAlpha" operator="in" result="effect1_backgroundBlur_4623_25659"/>
<feBlend mode="normal" in="SourceGraphic" in2="effect1_backgroundBlur_4623_25659" result="shape"/>
</filter>
<linearGradient id="paint0_linear_4623_25659" x1="370" y1="-37.8081" x2="-92.25" y2="133.442" gradientUnits="userSpaceOnUse">
<stop stop-color="#FFB20E"/>
<stop offset="0.611698" stop-color="white"/>
</linearGradient>
<linearGradient id="paint1_linear_4623_25659" x1="70.7221" y1="15.8353" x2="76.6529" y2="37.3063" gradientUnits="userSpaceOnUse">
<stop stop-color="#D93E1F"/>
<stop offset="1" stop-color="#F0940F"/>
</linearGradient>
<linearGradient id="paint2_linear_4623_25659" x1="55.2436" y1="65.0616" x2="71.3325" y2="110.441" gradientUnits="userSpaceOnUse">
<stop stop-color="#D93E1F"/>
<stop offset="1" stop-color="#F0940F"/>
</linearGradient>
<linearGradient id="paint3_linear_4623_25659" x1="207.945" y1="40.5808" x2="228.364" y2="100.52" gradientUnits="userSpaceOnUse">
<stop stop-color="#D93E1F"/>
<stop offset="1" stop-color="#F0940F"/>
</linearGradient>
<linearGradient id="paint4_linear_4623_25659" x1="216.936" y1="50.2559" x2="216.936" y2="48.21" gradientUnits="userSpaceOnUse">
<stop stop-color="#FC3C17"/>
<stop offset="1" stop-color="#FD8C00"/>
</linearGradient>
<linearGradient id="paint5_linear_4623_25659" x1="227.432" y1="52.5938" x2="227.432" y2="50.5479" gradientUnits="userSpaceOnUse">
<stop stop-color="#FC3C17"/>
<stop offset="1" stop-color="#FD8C00"/>
</linearGradient>
<linearGradient id="paint6_linear_4623_25659" x1="221.533" y1="60.0336" x2="221.533" y2="51.1919" gradientUnits="userSpaceOnUse">
<stop stop-color="#FC3C17"/>
<stop offset="1" stop-color="#FD8C00"/>
</linearGradient>
<linearGradient id="paint7_linear_4623_25659" x1="56.0907" y1="39.8602" x2="63.7656" y2="70.4999" gradientUnits="userSpaceOnUse">
<stop stop-color="#D93E1F"/>
<stop offset="1" stop-color="#F0940F"/>
</linearGradient>
</defs>
</svg>
