<?xml version="1.0" encoding="UTF-8"?>
<svg version="1.1" viewBox="0 0 2048 2048" width="2133" height="2133" xmlns="http://www.w3.org/2000/svg">
<path transform="translate(352,12)" d="m0 0h1343l2 2 25 5 19 5 32 10 15 6 28 13 17 9 17 10 11 8 14 10 14 11 13 11 8 7 23 23 7 8 11 14 10 13 11 16 10 16 10 17 12 26 6 14 8 21 7 25 5 21 4 20 3 22 1 12 2 1v1277l-2 3-4 30-6 31-7 27-12 34-11 24-11 21-4 6-5 9-12 18-10 13-7 9-12 14-9 10-19 19-8 7-13 11-16 12-10 7-12 8-13 8-18 10-10 5-15 7-27 11-16 5-44 11-35 5-20 1h-1258l-19-1-19-3-16-2-21-5-30-8-22-8-23-10-27-14-19-11-9-6-13-9-9-7-13-10-8-7-7-7-10-8-14-15-7-7-7-9-10-12-13-18-10-15-7-13-8-13-10-21-7-16-7-19-7-25-6-25-4-23-2-14-3-15-2-9h-1v-1261l2-1 5-27 3-21 5-23 5-19 6-20 6-16 8-19 7-16 12-21 6-10 9-14 10-14 8-10 10-13 12-13 13-14 8-7 11-10 14-11 10-8 14-10 20-13 14-7 6-4 24-11 19-8 24-8 17-5 22-5 16-3z" fill="#0F3364"/>
<path transform="translate(375,836)" d="m0 0h220l13 2 13 1 13 5 7 3 16 8 9 7 10 8 10 11 9 14 4 6 5 12 4 15 2 5 1 9 1 207 63 63v2l4 2 53 53 1 3 4 2 7 7 2 3v4l-2 1h-475l-17-3-14-4-16-7-16-10-15-14-9-11-7-11-7-14-6-18-1-7v-254l2-12 3-6 2-8 4-8 6-11 8-11 11-12 15-12 10-6 13-6 10-3 5-2 21-2z" fill="#FEFEFE"/>
<path transform="translate(352,12)" d="m0 0h22l5 1v1l-20 3-16 2-10 3-17 3-39 12-9 3-22 10-13 6-14 7-6 4-6 3-13 8-11 8-10 7-11 9-16 13-16 15-13 13-8 10h-2l-2 5-10 12-12 17-7 10-7 11-4 8-7 11-6 13-9 20-5 12-8 25-4 13-3 14-3 11-4 23-2 22-1 20v1255l1 20 3 24 4 22 4 16 9 31 8 21 6 13 10 21 10 16 6 11 11 16 9 12 7 9 9 10 7 9 21 21 8 7 11 10 28 21 16 10 11 7 8 4 15 8 12 6 24 10 11 4 23 7 24 6 12 2 16 3 29 3 18 1h1238l37-3 18-2 12-3 13-2 31-8 20-7 15-6 17-7 18-10 15-8 11-7 18-12 14-11 12-9 13-12 8-7 11-11 7-8 9-10 11-14 10-13 13-20 13-22 6-12 7-15 5-11 7-20 5-15 4-14 5-22 6-40 1-18v-1261l-2-26-6-38-4-14-2-10-5-17-7-20-8-19-8-18-10-19-12-19-11-16-20-26-12-13-9-10-7-7-8-7-12-10-2-1v-2l-4-2-10-8-11-8-13-9-13-8-12-7-17-8-16-8-28-11-13-4-15-4-12-3-26-6-26-3-6-1v-1l6-1h22l2 2 25 5 19 5 32 10 15 6 28 13 17 9 17 10 11 8 14 10 14 11 13 11 8 7 23 23 7 8 11 14 10 13 11 16 10 16 10 17 12 26 6 14 8 21 7 25 5 21 4 20 3 22 1 12 2 1v1277l-2 3-4 30-6 31-7 27-12 34-11 24-11 21-4 6-5 9-12 18-10 13-7 9-12 14-9 10-19 19-8 7-13 11-16 12-10 7-12 8-13 8-18 10-10 5-15 7-27 11-16 5-44 11-35 5-20 1h-1258l-19-1-19-3-16-2-21-5-30-8-22-8-23-10-27-14-19-11-9-6-13-9-9-7-13-10-8-7-7-7-10-8-14-15-7-7-7-9-10-12-13-18-10-15-7-13-8-13-10-21-7-16-7-19-7-25-6-25-4-23-2-14-3-15-2-9h-1v-1261l2-1 5-27 3-21 5-23 5-19 6-20 6-16 8-19 7-16 12-21 6-10 9-14 10-14 8-10 10-13 12-13 13-14 8-7 11-10 14-11 10-8 14-10 20-13 14-7 6-4 24-11 19-8 24-8 17-5 22-5 16-3z" fill="#4C6488"/>
<path transform="translate(1541,887)" d="m0 0h11l23 4 15 8 9 7 8 9 7 11 5 11 1 10 2 5 1 6v23l-5 22-6 13-2 3 1 5 3 3v2l5 2 10 10-1 5-12 12-3 2-6-1-18-18-5 1-4 3-18 5-10 1h-11l-12-1-8-3-8-2-13-7-14-14-10-17-5-17-1-7v-29l3-12 4-13 8-13 9-10 8-7 16-8z" fill="#FEFEFE"/>
<path transform="translate(512,888)" d="m0 0h84l13 1 8 3 12 6 9 7 10 11 7 12 5 18v88l-3 3h-77l-3-3-1-8v-33l-4-10-9-8-4-2-46-1-3-1-1-2v-78z" fill="#0F3364"/>
<path transform="translate(314,1087)" d="m0 0h79l2 3 1 47 6 9 5 4 7 3 41 1 4 3 1 3v74l-4 4h-85l-23-7-11-7-8-7-10-14-6-13-1-4v-97z" fill="#0F3364"/>
<path transform="translate(375,888)" d="m0 0h81l3 3 1 3v74l-5 4-43 1-9 6h-2l-2 5-3 4-1 45-3 4h-77l-3-3v-95l8-19 7-9 9-9 9-6 13-6z" fill="#0F3364"/>
<path transform="translate(579,1093)" d="m0 0 5 2 117 117v2l4 2 17 17-1 4h-210l-1-1v-79l2-2 45-1 11-6 7-10 1-2 1-41z" fill="#21AA97"/>
<path transform="translate(28,290)" d="m0 0 1 4-5 17-6 26-4 24-3 27-2 14v1252l2 11 4 34 5 26 8 30 8 24 5 13 4 8 7 16 6 11 8 13 8 14 8 11 10 14 8 10 8 9 8 10 21 21 8 7 10 9 11 8 10 8 18 12 14 9 11 6 15 8 26 12 24 9 26 8 23 5 15 3 31 4 13 1h1263l22-2 23-3 36-8 21-6 12-4 20-8 20-9 19-10 19-11 25-17 14-11 10-8 14-13 8-7 8-8 7-8 9-10 9-11 12-16 10-15 8-13 9-15 8-16 10-23 8-23 4-12 4-15 5-23 6-37 1-14v-1272l-2-20-5-30-1-5v-7h1l5 25 3 22 1 12 2 1v1277l-2 3-4 30-6 31-7 27-12 34-11 24-11 21-4 6-5 9-12 18-10 13-7 9-12 14-9 10-19 19-8 7-13 11-16 12-10 7-12 8-13 8-18 10-10 5-15 7-27 11-16 5-44 11-35 5-20 1h-1258l-19-1-19-3-16-2-21-5-30-8-22-8-23-10-27-14-19-11-9-6-13-9-9-7-13-10-8-7-7-7-10-8-14-15-7-7-7-9-10-12-13-18-10-15-7-13-8-13-10-21-7-16-7-19-7-25-6-25-4-23-2-14-3-15-2-9h-1v-1261l2-1 5-27 3-21 5-23 5-19z" fill="#798DA8"/>
<path transform="translate(1657,891)" d="m0 0h67l15 6 10 8 5 6 5 10 3 10v11l-5 15-8 11-11 8-3 2 1 7 8 12 6 10 8 13 4 6 10 16v5l-2 1h-28l-5-4-5-9-11-19-6-11-3-4-6-11-4-6-2-1h-11l-3 2-1 59-3 4h-24l-3-4v-151z" fill="#FEFEFE"/>
<path transform="translate(1245,1099)" d="m0 0h30l3 3 5 11 3 10 4 10 4 11 4 12 3 6 3 9 6 16 4-2 4-8 4-12 3-7 7-20 5-14 5-11 2-8 4-5 2-1h30l2 2v134l-2 2h-22l-2-2-1-78-5 2-3 9-5 13-6 17-5 11-3 10-4 6-2 1h-19l-5-2-5-13-5-15-3-6-4-11-4-12-4-11-2-6-3-1-1 5v80l-2 3h-21l-2-2v-134z" fill="#FEFEFE"/>
<path transform="translate(1047,891)" d="m0 0h27l2 2 1 60 1 1h60l3-3 1-58 2-2h26l2 2v152l-4 3h-22l-4-3-1-59-1-2-3-1h-58l-2 1-1 5v55l-2 4h-25l-4-4v-151z" fill="#FEFEFE"/>
<path transform="translate(1255,891)" d="m0 0h21l5 8 8 19 4 11 4 10 7 18 3 7 3 9 3 7 6 15 5 11 4 11 10 25-1 5-1 1h-27l-5-6-7-20-3-5-2-1h-52l-5 3-3 7-2 8-5 12-3 2h-28l-1-1v-7l3-5 4-12 5-12 4-10 3-7 6-15 4-12 4-8 6-16 6-14 6-16 6-15 3-6z" fill="#FEFEFE"/>
<path transform="translate(1539,1099)" d="m0 0h23l5 5 3 6 8 13 9 16 7 10 5 9 12 20 4 5h2l1-82 3-2h20l4 3v132l-3 3h-23l-5-4-9-16-3-4-6-11-8-13-13-22-7-12-2-4h-3l-1 3v80l-2 3h-21l-2-2v-134z" fill="#FEFEFE"/>
<path transform="translate(1039,1099)" d="m0 0h18l5 8 5 13 36 90 5 13 4 9-1 4-1 1h-25l-3-4-5-13-3-10-8-2h-39l-6 4-6 18-5 7h-24l-2-2 1-7 5-12 5-13 7-17 4-9 3-9 3-6 4-10 4-12 3-5 4-11 5-13 5-11z" fill="#FEFEFE"/>
<path transform="translate(900,1099)" d="m0 0h52l9 1 14 7 8 7 5 9 3 12v11l-3 12-8 11-10 6-8 4-15 2-18 1-3 3-1 49-2 3h-23l-2-2v-134z" fill="#FEFEFE"/>
<path transform="translate(1419,1099)" d="m0 0h87l3 3v17l-3 4-58 1-4 2-1 2v26l4 2 55 1 2 3v16l-2 3-55 1-4 2v27l1 2 3 1 59 1 3 4v17l-2 3h-89l-3-3v-132z" fill="#FEFEFE"/>
<path transform="translate(900,891)" d="m0 0h124l2 2v19l-4 5-42 1-2 2-1 124-3 4h-25l-4-4-1-124-3-2-40-1-3-3v-21z" fill="#FEFEFE"/>
<path transform="translate(1537,917)" d="m0 0h20l10 3 11 7 8 11 5 11 1 5v30l-3 10-2 2-7-1-12-11h-6l-8 7-5 5v6l13 12-1 5-6 3h-16l-16-5-8-7-5-5-6-10-4-18v-17l4-18 8-11 4-5 11-7z" fill="#0F3364"/>
<path transform="translate(1099,1099)" d="m0 0h27l5 5 12 21 13 23 3 5 4-2 6-9 6-11 8-14 5-9 7-9h28l2 2-1 4-6 9-7 12-8 13-4 6-10 17-6 10-6 9-2 5-1 49-2 2h-23l-3-3v-49l-3-7-3-4-3-6-6-9-5-9-5-8-12-19-11-18-1-4z" fill="#FEFEFE"/>
<path transform="translate(375,832)" d="m0 0h220l8 3 19 1 8 3 3 2 9 2 6 4 10 5 8 6 13 11 11 12 12 20 3 7 3 6 1 9 4 7 1 10v207l6 7 5 4 7 8 115 115 4 5-1 4-4 2h-478l-16-2-6-3-12-3-5-3-8-3-11-7-13-10-14-14-8-13-5-7-5-11-3-10-3-7-1-13v-246l1-15 5-10 1-7 4-6 8-16 8-9 7-8 10-9 8-6 14-8 8-4 11-4 6-2 20-1zm0 4-15 2-13 2-16 6-12 6-11 7-13 11-10 11-7 10-6 11-5 10-2 8-3 7-1 9v254l2 10 6 17 6 12 7 11 11 13 7 7 11 8 13 8 16 7 12 3 17 3h475l2-1-1-5-7-8-3-3h-2l-2-4-54-54h-2l-2-4-61-61-1-207-2-12-3-9-2-8-6-14-6-9-8-11-9-10-11-9-9-6-17-9-12-4-5-2-21-2-5-1z" fill="#5C7393"/>
<path transform="translate(1664,1099)" d="m0 0h108l3 3v17l-2 2-36 1-5 1-1 112-2 2h-22l-3-4v-110l-5-1-36-1-2-2v-18z" fill="#FEFEFE"/>
<path transform="translate(375,836)" d="m0 0h220l13 2 13 1 13 5 7 3 16 8 9 7 10 8 10 11 9 14 4 6 5 12 4 15 2 5 1 9 1 207 63 63v2l4 2 53 53 1 3 4 2 7 7 2 3v4l-2 1h-475l-17-3-14-4-16-7-16-10-15-14-9-11-7-11-7-14-6-18-1-7v-254l2-12 3-6 2-8 4-8 6-11 8-11 11-12 15-12 10-6 13-6 10-3 5-2 21-2zm-2 3-14 1-11 3-14 4-8 4-11 6-13 10-8 7-9 11-6 9-10 19-4 15-2 8v253l6 22 6 14 5 8 9 12 15 15 8 6 7 5 13 6 14 5 20 4 474 1 2-1-1-5-16-15-46-46-7-8-18-18h-2l-2-4-40-40-1-3-1-207-5-23-7-16-10-16-9-10-5-6-6-4-10-8-22-11-22-6-15-1z" fill="#BDC4D0"/>
<path transform="translate(1673,12)" d="m0 0h22l2 2 25 5 19 5 32 10 15 6 28 13 17 9 17 10 11 8 14 10 14 11 13 11 8 7 23 23 7 8 11 14 10 13 11 16 10 16 10 17 12 26 6 14 8 21 7 25 3 12 2 16 5 30 2 20v1272l-2 20-6 37-6 25-5 16-7 20-5 13-9 20-10 19-13 21-10 15-13 17-9 11-14 15-7 8-9 9-8 7-11 10-5 2 6-7 12-11 8-7 11-11 7-8 9-10 11-14 10-13 13-20 13-22 6-12 7-15 5-11 7-20 5-15 4-14 5-22 6-40 1-18v-1261l-2-26-6-38-4-14-2-10-5-17-7-20-8-19-8-18-10-19-12-19-11-16-20-26-12-13-9-10-7-7-8-7-12-10-2-1v-2l-4-2-10-8-11-8-13-9-13-8-12-7-17-8-16-8-28-11-13-4-15-4-12-3-26-6-26-3-6-1v-1z" fill="#4C6488"/>
<path transform="translate(1361,891)" d="m0 0h25l2 2v157l-2 2h-24l-2-2v-158z" fill="#FEFEFE"/>
<path transform="translate(19,1721)" d="m0 0h2l4 16 9 31 8 21 6 13 10 21 10 16 6 11 11 16 9 12 7 9 9 10 7 9 21 21 8 7 11 10 28 21 16 10 11 7 8 4 15 8 12 6 24 10 11 4 23 7 24 6 12 2 16 3 29 3 18 1h1238l37-3 18-2 12-3 13-2 31-8 20-7 15-6 17-7 18-10 15-8 11-7 18-12 14-11 5-4h2l-2 4-15 12-24 16-21 12-21 11-23 10-13 5-18 6-32 8-19 4-32 4-13 1h-1263l-29-3-25-4-19-4-23-6-29-10-29-13-16-8-10-6-12-7-21-14-12-9-10-8-11-9-7-7-8-7-17-17-14-17-7-8-13-18-10-15-9-16-6-9-10-21-4-10-5-12-6-16-9-32-2-8z" fill="#4C6488"/>
<path transform="translate(1245,1096)" d="m0 0h30l5 3 6 13 2 9 3 4 3 12 3 5 3 11 3 4 2 10 3 4 2 11 3-1 3-6 2-9 4-7 2-9 4-8 2-9 4-9 2-7 3-4 2-9 4-6 5-2h30l4 2 1 2v136l-4 4h-23l-5-3-1-2v-62l1-9h-3l-2 10-3 6-3 11-3 6-3 10-3 5-2 8-4 6-3 2h-26l-4-4-2-9-3-4-3-12-3-5-2-9-4-6-2-10-4-9v-3h-2v80l-4 3h-21l-5-3-1-2v-135l4-3zm0 3-3 2v134l2 2h21l2-3v-80l1-5 3 1 8 24 5 12 3 9 3 8 6 15 3 7 4 1h19l5-5 3-8 4-10 6-16 7-19 3-9 5-2 1 78 2 2h22l2-2v-134l-2-2h-30l-5 5-2 3-2 9-4 8-7 20-5 14-3 7-6 17-4 5-3-1-4-13-3-6-3-10-3-7-6-17-4-10-4-12-5-11-2-1z" fill="#4C6488"/>
<path transform="translate(1046,888)" d="m0 0h29l3 2 1 61h58l1-1v-58l3-3 2-1h28l3 1 2 4v152l-3 5-3 2h-26l-5-4-1-3v-58l-1-1h-58l-1 62-3 4h-27l-5-3-2-5v-151zm1 3-2 2v151l4 4h25l2-4v-56l1-4 2-1h58l3 1 1 2 1 59 4 3h22l4-3v-152l-2-2h-26l-2 2-1 58-3 3h-60l-1-1-1-60-2-2z" fill="#4C6488"/>
<path transform="translate(1540,1096)" d="m0 0h21l7 3 5 10 7 11 3 6 4 6 3 6 7 10 4 8 3 4 4 8 2 5 4 1v-74l4-3 3-1h21l5 3 2 3v132l-2 4-5 2h-24l-5-3-9-16-5-8-10-17-4-6-9-16-4-6-3-6-3-5-2-1v81l-4 3h-21l-5-3-1-1v-136l4-3zm-1 3-2 2v134l2 2h21l2-3v-80l1-3 4 1 7 14 10 16 8 14 9 14 3 6 8 13 4 6 3 2h23l3-3v-132l-4-3h-20l-3 2-1 82h-2l-6-8-20-34-5-8-6-10-8-13-5-9-3-2z" fill="#4C6488"/>
<path transform="translate(1418,1096)" d="m0 0h88l5 3 1 2v19l-3 6-1 1-13 1h-48l-1 24 1 1 55 1 4 3v22l-3 3-56 1-1 5 1 19 1 1 59 1 4 4 1 3v19l-2 4-3 1h-89l-6-3-1-9v-126l2-4zm1 3-4 3v132l3 3h89l2-3v-17l-3-4-59-1-3-1-1-2v-27l4-2 55-1 2-3v-16l-2-3-55-1-4-2v-26l2-3 3-1 58-1 3-4v-17l-3-3z" fill="#4C6488"/>
<path transform="translate(375,832)" d="m0 0h220l8 3 19 1 8 3 3 2 9 2 6 4 10 5 8 6 13 11 11 12 5 8 1 5 4 6 4 10 2 3 3 13 3 10 1 212 5 5-1 2-6-6-1-207-2-12-3-9-2-8-6-14-6-9-8-11-9-10-10-8-9-6-17-9-12-4-5-2-21-2-5-1h-220l-15 2-13 2-16 6-12 6-11 7-13 11-9 10-7 10-6 11-5 10-2 8-3 7-1 9v254l2 10 6 17 6 12 6 9-1 2-4-5-6-10-5-11-3-10-3-9v-264l2-9 3-6 1-9 11-21 8-9 7-8 10-9 8-6 14-8 8-4 11-4 6-2 20-1z" fill="#657B9A"/>
<path transform="translate(1245,1099)" d="m0 0h30l3 3 5 11 3 10 4 10 4 11 4 12 3 6 3 9 6 16 4-2 4-8 4-12 3-7 7-20 5-14 5-11 2-8 4-5 2-1h30l2 2v134l-2 2h-22l-2-2-1-78-5 2-3 9-5 13-6 17-5 11-3 10-4 6-2 1h-19l-5-2-5-13-5-15-3-6-4-11-4-12-4-11-2-6-3-1-1 5v80l-2 3h-21l-2-2v-134zm1 2-2 2v130l1 2h19l1-1 1-86 2-4 4 1 2 6 3 10 6 16 3 9 4 8 3 10 5 14 3 5 2 1h19l3-4 4-11 6-17 5-12 4-11 5-15 5-8 5-1-1 88 2 2h20l1-1v-131l-1-2h-30l-5 8-3 10-6 16-5 14-4 9-5 14-4 12-5 7h-5l-5-16-3-7-6-18-4-8-4-13-4-11-4-9-2-7-1-1z" fill="#BDC4D0"/>
<path transform="translate(1656,888)" d="m0 0h68l7 2 15 8 10 10 5 10 4 10 1 11-2 9-3 7-3 6-8 10-11 8-1 5 6 8 4 5 4 8 7 10 4 8 7 10 6 10v7l-2 2h-32l-6-4-6-11-6-10-5-9-3-4-4-8-9-16-4-4-7-1-3 2v59l-4 5-2 1h-26l-4-4-1-3v-153zm1 3-2 2v151l3 4h24l3-4 1-59 3-2h11l5 5 6 10 3 6 4 7 10 17 9 16 5 4h28l2-1-1-7-7-11-6-9-8-13-6-10-9-14v-5l14-10 8-11 5-15v-11l-5-15-6-9-9-8-18-8z" fill="#768AA6"/>
<path transform="translate(1047,891)" d="m0 0h27l2 2 1 60 1 1h60l3-3 1-58 2-2h26l2 2v152l-4 3h-22l-4-3-1-59-1-2-3-1h-58l-2 1-1 5v55l-2 4h-25l-4-4v-151zm3 1-2 2v149l1 2h24l1-1 1-60 1-2h65l3 3 1 59 1 1h21l2-1 1-149-3-3h-20l-3 3v58l-4 3h-63l-2-3-1-60-1-1z" fill="#BDC4D0"/>
<path transform="translate(1542,883)" d="m0 0h9l12 2 5 2 11 2 6 4 6 3 11 8 8 11 6 8 5 10 2 14 3 5 1 7v21l-5 19-2 8-6 12 1 6 10 8 7 7 1 4-4 5-7 6-9 9-5-1-7-6-5-5-7-8-4 1-4 3-13 4-8 2h-29l-7-2-7-3-7-2-4-3-8-4-14-14-6-9-5-10-3-9-2-5-1-9v-31l2-11 3-6 3-10 5-8 8-11 9-8 8-5 5-3 6-3 10-1 3-2zm-1 4-23 4-16 8-12 11-8 10-6 11-5 17-1 6v29l2 10 5 16 9 15 14 14 15 8 9 2 5 2 12 1h11l13-2 15-4 6-4 5 1 9 10 7 7 6 1 10-9 6-6-1-5-9-9-5-2-2-4-2-2 1-6 3-5 5-12 4-19v-23l-2-9-1-2-1-10-8-16-8-11-7-7-11-7-10-5-23-4z" fill="#627897"/>
<path transform="translate(1254,888)" d="m0 0h23l3 3 5 8 4 12 2 3 2 9 4 6 3 10 3 5 2 9 3 4 4 13 3 6 2 7 3 5 3 10 3 4 3 10 3 6 3 9 3 6 2 7 2 3v6l-4 3h-29l-7-6-5-15-4-11-5-1-49 1-4 5-2 11-7 13-5 3h-28l-3-4v-9l5-11 3-8 3-7 6-16 5-10 3-10 3-6 3-9 3-6 2-7 3-5 3-10 3-5 3-10 3-6 3-8 3-6 3-9zm1 3-4 4-5 13-6 15-5 13-12 30-3 8-6 15-4 8-4 12-5 13-4 9-3 7-1 2v7l1 1h28l4-4 5-12 2-9 3-5 4-2h52l4 4 9 24 4 4h27l2-2-1-6-10-25-5-13-9-22-3-7-5-15-3-5-7-20-5-11-6-16-7-14-1-1z" fill="#647A99"/>
<path transform="translate(899,888)" d="m0 0h126l5 5v20l-3 6-2 1-44 1-1 6v118l-3 6-2 1h-28l-5-5-1-125-1-1-42-1-3-4v-25zm1 3-2 2v21l3 3 40 1 3 2 1 124 4 4h25l3-4 1-124 2-2 42-1 4-5v-19l-2-2z" fill="#4C6488"/>
<path transform="translate(1539,1099)" d="m0 0h23l5 5 3 6 8 13 9 16 7 10 5 9 12 20 4 5h2l1-82 3-2h20l4 3v132l-3 3h-23l-5-4-9-16-3-4-6-11-8-13-13-22-7-12-2-4h-3l-1 3v80l-2 3h-21l-2-2v-134zm2 2-2 2v130l1 2h19l1-1v-80l1-7h6l4 9 27 45 5 8 3 6 6 9 5 9 2 2h22l1-1v-132l-1-1h-20l-1 6v79l-1 2-5-1-7-10-3-6-24-40-10-17-4-6-3-5-2-2z" fill="#BDC4D0"/>
<path transform="translate(1663,1096)" d="m0 0h109l5 3 1 2v19l-4 4-38 1-1 4v107l-3 3-3 1h-22l-5-2-1-2v-111l-39-1-4-4v-20l3-3zm1 3-3 2v18l2 2 36 1 5 1v110l3 4h22l2-2 1-112 5-1 36-1 2-2v-17l-3-3z" fill="#617797"/>
<path transform="translate(512,888)" d="m0 0h84l13 1 8 3 12 6 9 7 10 11 7 12 5 18v88l-3 3h-77l-3-3-1-8v-33l-4-10-9-8-4-2-46-1-3-1-1-2v-78zm1 3-2 3v73l1 2 47 1 7 3 7 6 6 12 1 41 2 2h74l2-3-1-86-4-11-2-8-4-5-4-6-9-10-10-7-9-3-4-3-20-1z" fill="#687E9C"/>
<path transform="translate(375,888)" d="m0 0h81l3 3 1 3v74l-5 4-43 1-9 6h-2l-2 5-3 4-1 45-3 4h-77l-3-3v-95l8-19 7-9 9-9 9-6 13-6zm5 3-19 1-10 5-7 3-8 6-10 10-6 10-3 9-2 3-1 93 2 3h74l2-2 1-45 7-9v-2l4-2 7-4 44-1 2-2-1-74-2-2z" fill="#637998"/>
<path transform="translate(1689,917)" d="m0 0h19l12 2 8 7 3 6v10l-3 6-7 6-7 2h-25l-4-4v-32z" fill="#0F3364"/>
<path transform="translate(314,1087)" d="m0 0h79l2 3 1 47 6 9 5 4 7 3 41 1 4 3 1 3v74l-4 4h-85l-23-7-11-7-8-7-10-14-6-13-1-4v-97zm2 2-2 2 1 96 4 8 3 7 8 11 5 6 14 9 9 3 9 2 4 2 82 1 4-3-1-74-5-2h-36l-14-7-7-9-1-3-1-48-1-1z" fill="#6B809E"/>
<path transform="translate(1657,891)" d="m0 0h67l15 6 10 8 5 6 5 10 3 10v11l-5 15-8 11-11 8-3 2 1 7 8 12 6 10 8 13 4 6 10 16v5l-2 1h-28l-5-4-5-9-11-19-6-11-3-4-6-11-4-6-2-1h-11l-3 2-1 59-3 4h-24l-3-4v-151zm2 1-2 2v148l2 3h22l1-1 1-60 2-3 3-1h11l7 4 5 10 6 10 6 11 7 11 4 8 6 9 2 2h26l1-4-6-8-3-6-6-9-6-10-16-26v-5l12-8 7-7 5-8 3-12v-10l-3-13-7-11-7-6-6-4-16-5-5-1z" fill="#BDC4D0"/>
<path transform="translate(1098,1096)" d="m0 0h28l5 3 6 10 4 6 4 8 3 5 5 8 6 11v2h3l2-4 6-11 5-9 11-19 5-8 4-2h29l4 3-1 7-4 5-6 11-4 6-10 17-3 3-4 8-8 13-3 5-3 4-4 7-1 7v43l-2 4-2 1h-25l-4-3-1-3v-51l-5-7-3-6-7-10-4-8-4-5-6-11-6-9-8-13-7-11 1-5zm1 3-2 2 1 4 14 23 7 11 6 10 3 4 6 11 5 7 3 6 3 4 1 4v49l3 3h23l2-2 1-49 6-12 4-5 9-16 6-9 6-10 9-14 6-11 4-5-1-4-1-1h-28l-8 10-5 10-9 16-4 7-7 10h-4l-14-26-5-8-8-14-5-5z" fill="#617797"/>
<path transform="translate(374,885)" d="m0 0h84l4 4 1 2v78l-4 4-42 1-7 3-8 6-4 7-1 45-2 4-2 1h-80l-3-3-1-3v-90l3-12 8-16 9-10 10-9 15-8zm1 3-17 2-16 8-9 7-9 9-6 10-6 15v95l3 3h77l3-4 1-45 5-7v-2l4-2 7-4 43-1 5-4v-74l-3-5-1-1z" fill="#BDC4D0"/>
<path transform="translate(1419,1099)" d="m0 0h87l3 3v17l-3 4-58 1-4 2-1 2v26l4 2 55 1 2 3v16l-2 3-55 1-4 2v27l1 2 3 1 59 1 3 4v17l-2 3h-89l-3-3v-132zm0 2-1 1v132l1 1h87l1-1v-15l-2-3-58-1-6-2-1-3v-28l3-3 12-1h45l2-1v-17l-1-1-55-1-5-2-1-2v-28l1-3 2-1 61-1 3-3v-15l-2-2z" fill="#BDC4D0"/>
<path transform="translate(1039,1096)" d="m0 0h18l5 5 4 7 3 9 3 6 3 9 3 7 2 7 4 8 6 16 5 11 3 9 3 6 3 9 3 6 3 9 3 7 2 5v5l-5 3h-24l-5-3-6-12-3-12-4-2h-41l-4 4-2 5-2 10-4 5-5 5h-25l-4-4 1-9 4-7 3-10 4-10 5-10 3-10 3-7 3-8 3-6 3-9 3-8 5-10 3-10 3-6 3-9 5-9zm0 3-3 3-6 13-4 11-5 13-3 7-4 10-4 11-3 6-3 9-5 12-4 9-6 16-5 11v5l2 2h24l6-9 5-16 6-4h39l8 2 5 15 4 10 2 2h25l2-2-1-5-5-11-4-11-12-30-5-13-24-60-4-6z" fill="#5C7394"/>
<path transform="translate(313,1085)" d="m0 0h80l4 3 1 47 5 9 5 4 7 2 42 1 3 1 3 6v77l-4 4-3 1h-85l-14-3-12-5-10-7-10-9-9-14-5-10-2-13v-90zm1 2-2 2v97l3 8 4 9 8 11 5 6 8 6 10 6 21 6h85l4-4v-74l-3-5-2-1-41-1-10-5-6-7-2-4-1-47-2-3z" fill="#BDC4D0"/>
<path transform="translate(575,1088)" d="m0 0 9 3 11 12 126 126 4 3v5l-2 2h-213l-2-2v-81l3-4 4-1h39l11-4 6-7 2-5v-44zm4 5-2 2-1 41-7 11-10 6-2 1-45 1-2 2v79l1 1h210l1-4-19-19h-2l-2-4-116-116z" fill="#BDC4D0"/>
<path transform="translate(1244,1098)" d="m0 0h32l3 3 5 11 3 10 3 6 3 11 3 6 3 10 3 6 3 9 2 3 3 11h3l4-8 3-10 3-5 3-11 4-11 5-12 3-9 3-7 3-9 5-4h32l3 4v132l-2 4-3 1h-16l-8-2-1-2v-72l-1-2-3 1-9 27-3 6-4 11-6 16-5 5h-22l-5-3-3-10-3-6-3-11-3-5-3-10-4-11-5-14-1-5-2 1-1 82-4 4h-17l-5-2-2-3v-132zm1 1-3 2v134l2 2h21l2-3v-80l1-5 3 1 8 24 5 12 3 9 3 8 6 15 3 7 4 1h19l5-5 3-8 4-10 6-16 7-19 3-9 5-2 1 78 2 2h22l2-2v-134l-2-2h-30l-5 5-2 3-2 9-4 8-7 20-5 14-3 7-6 17-4 5-3-1-4-13-3-6-3-10-3-7-6-17-4-10-4-12-5-11-2-1z" fill="#798DA8"/>
<path transform="translate(1541,887)" d="m0 0h11l23 4 15 8 9 7 8 9 7 11 5 11 1 10 2 5 1 6v23l-5 22-6 13-2 3 1 5 3 3v2l5 2 10 10-1 5-12 12-3 2-6-1-18-18-5 1-4 3-18 5-10 1h-11l-12-1-8-3-8-2-13-7-14-14-10-17-5-17-1-7v-29l3-12 4-13 8-13 9-10 8-7 16-8zm1 3-18 2-9 3-10 5-9 7-8 8-8 14-3 7-4 17v32l5 20 7 13 7 9 7 7 8 5 8 4 6 2 9 2 18 2 3-1 11-1 16-4 7-4 7 1 11 12 5 5 7-1 4-5 7-6-1-5-10-9-6-5-1-2v-7l4-5 4-11 2-6 2-15v-21l-3-20-6-14-7-10-7-8-13-9-11-5-11-2-11-1z" fill="#BDC4D0"/>
<path transform="translate(1673,12)" d="m0 0h22l2 2 25 5 19 5 32 10 15 6 28 13 17 9 17 10 11 8 14 10 14 11 13 11 8 7 23 23 7 8 11 14 10 13 11 16 10 16 10 17 12 26 6 14 8 21 7 25 3 12-1 4-2-9-3-1-2-10-5-17-7-20-8-19-8-18-10-19-12-19-11-16-20-26-12-13-9-10-7-7-8-7-12-10-2-1v-2l-4-2-10-8-11-8-13-9-13-8-12-7-17-8-16-8-28-11-13-4-15-4-12-3-26-6-26-3-6-1v-1z" fill="#5D7494"/>
<path transform="translate(511,885)" d="m0 0h86l20 4 15 8 12 11 6 7 6 10 5 13 1 6v90l-3 6h-81l-4-4-1-3-1-43-3-7-6-5-9-4-44-1-3-4v-78l2-5zm1 3-3 3v78l1 2 3 1 46 1 9 6 5 6 3 8v38l3 5 1 1h77l3-3v-88l-5-18-8-13-12-13-11-7-9-4-6-2-13-1z" fill="#BDC4D0"/>
<path transform="translate(900,891)" d="m0 0h124l2 2v19l-4 5-42 1-2 2-1 124-3 4h-25l-4-4-1-124-3-2-40-1-3-3v-21zm2 1-2 2v17l2 3 42 1 3 3 1 125 2 2h23l2-3v-122l3-5 43-1 2-2v-19l-2-1z" fill="#BDC4D0"/>
<path transform="translate(1255,891)" d="m0 0h21l5 8 8 19 4 11 4 10 7 18 3 7 3 9 3 7 6 15 5 11 4 11 10 25-1 5-1 1h-27l-5-6-7-20-3-5-2-1h-52l-5 3-3 7-2 8-5 12-3 2h-28l-1-1v-7l3-5 4-12 5-12 4-10 3-7 6-15 4-12 4-8 6-16 6-14 6-16 6-15 3-6zm3 1-5 5-5 13-12 30-3 8-6 15-4 8-3 10-4 9-5 12-3 9-3 6-4 10-4 11-2 3v4l3 1 24-1 3-5 8-23 3-3 3-1h54l5 5 4 10 5 14 3 3h24l1-5-5-10-4-11-12-30-5-13-5-12-6-17-3-6-4-10-10-26-5-12-2-1z" fill="#BDC4D0"/>
<path transform="translate(1049,889)" d="m0 0h25l3 3 1 60 7 1h51l3-2 1-58 3-3 2-1h24l4 2 1 2v151l-2 4-4 2h-22l-5-3-1-2v-60h-62l-1 61-4 4h-24l-5-5v-153zm-2 2-2 2v151l4 4h25l2-4v-56l1-4 2-1h58l3 1 1 2 1 59 4 3h22l4-3v-152l-2-2h-26l-2 2-1 58-3 3h-60l-1-1-1-60-2-2z" fill="#798DA8"/>
<path transform="translate(900,1096)" d="m0 0h51l11 1 14 7 9 8 6 9 1 9 3 6v9l-3 8-2 8-5 6-4 5-13 8-6 2-12 1-4 2-17 1-1 6v43l-5 5h-24l-4-3v-137l2-3zm0 3-2 2v134l2 2h23l2-3 1-49 3-3 18-1 15-2 14-7 6-5 6-9 3-12v-11l-4-14-6-9-9-7-11-5-9-1z" fill="#637998"/>
<path transform="translate(352,12)" d="m0 0h22l5 1v1l-20 3-16 2-10 3-17 3-39 12-9 3-22 10-13 6-14 7-6 4-6 3-13 8-11 8-10 7-11 9-16 13-16 15-13 13-8 10h-2l-2 5-10 12-12 17-7 10-7 11-4 8-7 11-6 13-9 20-5 12-6 18-3 1 1-7 6-16 8-19 7-16 12-21 6-10 9-14 10-14 8-10 10-13 12-13 13-14 8-7 11-10 14-11 10-8 14-10 20-13 14-7 6-4 24-11 19-8 24-8 17-5 22-5 16-3z" fill="#5E7595"/>
<path transform="translate(929,1123)" d="m0 0h17l13 5 5 8v8l-4 6-8 5-8 2h-16l-4-4 1-26z" fill="#0F3364"/>
<path transform="translate(1417,1098)" d="m0 0h91l2 2v21l-4 4-61 1-1 27 5 2 54 1 2 3v18l-4 4-56 1-1 1 1 26 2 1 59 1 4 4v21l-2 2-6 1h-81l-6-2-1-2v-134zm2 1-4 3v132l3 3h89l2-3v-17l-3-4-59-1-3-1-1-2v-27l4-2 55-1 2-3v-16l-2-3-55-1-4-2v-26l2-3 3-1 58-1 3-4v-17l-3-3z" fill="#798DA8"/>
<path transform="translate(1360,888)" d="m0 0h28l3 5v156l-3 5-3 1h-23l-4-2-1-2v-159zm1 3-1 1v158l2 2h24l2-2v-157l-2-2z" fill="#4C6488"/>
<path transform="translate(1099,1099)" d="m0 0h27l5 5 12 21 13 23 3 5 4-2 6-9 6-11 8-14 5-9 7-9h28l2 2-1 4-6 9-7 12-8 13-4 6-10 17-6 10-6 9-2 5-1 49-2 2h-23l-3-3v-49l-3-7-3-4-3-6-6-9-5-9-5-8-12-19-11-18-1-4zm2 2-1 4 6 8 6 11 6 9 8 13 9 15 4 6 8 13 1 5v48l1 2h23l1-5v-46l3-6 8-12 4-7 9-15 10-16 10-17 5-7v-3h-27l-3 6v2h-2l-7 13-11 19-9 14-1 1h-5l-8-16-4-6-3-6-7-12-8-14-1-1z" fill="#BDC4D0"/>
<path transform="translate(1039,1099)" d="m0 0h18l5 8 5 13 36 90 5 13 4 9-1 4-1 1h-25l-3-4-5-13-3-10-8-2h-39l-6 4-6 18-5 7h-24l-2-2 1-7 5-12 5-13 7-17 4-9 3-9 3-6 4-10 4-12 3-5 4-11 5-13 5-11zm0 2-2 3-3 9-3 8-5 11-3 9-3 6-3 9-3 7-4 9-4 12-4 9-5 12-3 8-6 15-2 2v5h24l6-15 3-10 6-4h47l4 2 4 12 4 13 2 2h23l-1-7-4-8-3-8-24-60-5-13-3-7-4-10-7-19-2-2z" fill="#BDC4D0"/>
<path transform="translate(1664,1099)" d="m0 0h108l3 3v17l-2 2-36 1-5 1-1 112-2 2h-22l-3-4v-110l-5-1-36-1-2-2v-18zm0 2-1 1v16l3 2 38 1 2 1 1 3v109l1 1h20l1-1v-110l3-3 38-1 3-2v-15l-2-2z" fill="#BDC4D0"/>
<path transform="translate(1537,917)" d="m0 0h20l10 3 11 7 8 11 5 11 1 5v30l-3 10-2 2-7-1-12-11h-6l-8 7-5 5v6l13 12-1 5-6 3h-16l-16-5-8-7-5-5-6-10-4-18v-17l4-18 8-11 4-5 11-7zm3 3-11 1-11 7-7 8-3 6-2 3-2 15v17l2 16 4 7 4 6 9 8 4 2 12 2h17l2-1-1-4-7-6-5-5v-6l14-14 2-1h7l11 9 3 3 4-1 3-6v-35l-4-6-3-8-6-8-11-7-9-2z" fill="#627897"/>
<path transform="translate(1263,942)" d="m0 0 4 1 5 8 4 12 6 17 2 3-1 5-2 1h-30l-3-2 1-9 5-12 5-13 3-10z" fill="#0F3364"/>
<path transform="translate(900,1099)" d="m0 0h52l9 1 14 7 8 7 5 9 3 12v11l-3 12-8 11-10 6-8 4-15 2-18 1-3 3-1 49-2 3h-23l-2-2v-134zm1 2-1 1v132l1 1h21l1-1v-49l1-5 5-1h12l19-2 14-7 8-7 5-9 1-4v-17l-2-9-6-10-11-8-12-4-6-1z" fill="#BDC4D0"/>
<path transform="translate(1536,914)" d="m0 0h21l12 4 11 8 7 9 5 10 2 9 1 10v9l-2 16-3 9-2 1h-6l-4-2-5-6-6-5h-5l-7 8-4 4 1 4 12 10 1 2v7l-5 3-16 1-10-1-14-6-11-10-6-9-5-16-1-6v-17l6-21 4-5 4-6 8-7 7-4zm1 3-10 2-11 7-7 9-5 7-4 18v17l4 18 7 12 8 7 6 4 14 4h16l6-3 1-5-8-8-5-4v-6l11-11 2-1h6l12 11 7 1 3-4 2-8v-30l-3-9-6-12-6-7-12-7-8-2z" fill="#BDC4D0"/>
<path transform="translate(900,889)" d="m0 0h123l4 3 1 4-1 18-3 4-3 1h-40l-2 2-1 125-5 4h-23l-5-3-1-1-1-124-3-3h-38l-4-2-2-5v-19zm0 2-2 2v21l3 3 40 1 3 2 1 124 4 4h25l3-4 1-124 2-2 42-1 4-5v-19l-2-2z" fill="#798DA8"/>
<path transform="translate(1047,1147)" d="m0 0h4l3 6 3 10 5 14 2 5-4 4h-23l-4-2v-6l8-21 4-8z" fill="#0F3364"/>
<path transform="translate(1098,1096)" d="m0 0h28l5 3 6 10 4 6 4 8 3 5 5 8 6 11v2h3l2-4 6-11 5-9 11-19 5-8 4-2h29l4 3-1 7-4 5-6 11-4 6-8 14-6 5-8 14-2 1 2-5 7-12 5-8 11-17 6-11 4-5-1-4h-28l-8 11-4 8-9 16-4 7-7 10-4 2-5-8-10-18-6-10-8-14-1-5h-31l-2 1 1 5v3l-4-5 1-5z" fill="#5E7595"/>
<path transform="translate(1477,927)" d="m0 0 1 2-6 19-1 6v29l2 10 5 16 9 15 13 13 15 8 9 2 5 2 12 1h11l13-2 15-4 6-4 5 1 11 12 7 6 5-1 8-7 6-6-1-5-5-6 4 2 5 6-1 4-11 13-6 5-5-1-7-6-5-5-7-8-4 1-4 3-13 4-8 2h-29l-7-2-7-3-7-2-4-3-8-4-14-14-6-9-4-7-1-10-3-7-1-5v-37l6-21z" fill="#657A99"/>
<path transform="translate(1361,891)" d="m0 0h25l2 2v157l-2 2h-24l-2-2v-158zm2 1-2 2v155l1 1h24l1-5v-150l-2-3z" fill="#BDC4D0"/>
<path transform="translate(266,908)" d="m0 0 1 3-3 10-2 4-1 6v264l5 14 3 9 6 12 3 5-1 2-7-10-5-11-3-10-3-7-1-13v-246l1-15 5-10z" fill="#4C6488"/>
<path transform="translate(391,1089)" d="m0 0h2l1 6v40l5 10 4 4 4 1v2l9 3 39 1 3 3v75l-3 3h-82l-14-4-10-3-11-7-2-4 11 7 6 3 14 3 4 2 82 1 3-2-1-74-4-1h-36l-14-7-8-10-1-3z" fill="#4C6488"/>
<path transform="translate(1039,1096)" d="m0 0h18l5 5 4 7 3 9 3 6 3 9 3 7 2 7 4 8 6 16 1 7 3 6 4 11 2 5-1 4-10-25-5-13-24-60-3-5h-20l-3 9-4 10-5 12-3 8-3 7-4 10-4 11-3 6-3 9-5 12-4 9-1-4 4-8 4-11 3-8 5-11 3-9 3-7 4-9 1-8 3-7 5-14 5-9z" fill="#687D9C"/>
<path transform="translate(1362,889)" d="m0 0h24l3 2v160l-2 2h-26l-3-4v-156zm-1 2-1 1v158l2 2h24l2-2v-157l-2-2z" fill="#798DA8"/>
<path transform="translate(1653,892)" d="m0 0h1l1 153 4 4h22l4-3 1-3v-57l4-3h9l6 5 2 7-3-3-3-5-4-2-7 1-1 5v55l-4 5-2 1h-26l-4-4-1-3v-152z" fill="#4C6488"/>
<path transform="translate(1620,1098)" d="m0 0h23l3 3v134l-3 3-4 1h-15l-8-2-2-4 5 3h25v-134l-3-2h-20l-2 1-1 82h-4l-6-8-1-4 7 7h1l1-77z" fill="#798DA8"/>
<path transform="translate(694,891)" d="m0 0h2l4 6 4 10 3 4 2 12 4 7 1 10v207l6 7-2 1-6-7-1-212-3-10-4-15-7-14z" fill="#4C6488"/>
<path transform="translate(1537,1099)" d="m0 0 2 1-1 1v134l1 1h21l1-6v-76l2-4 4 1 5 9-1 2-6-9-2 3v79l-4 4h-17l-5-2-2-2v-134z" fill="#798DA8"/>
<path transform="translate(1537,1097)" d="m0 0m-2 1h2l-1 3v134l2 2 4 1h17l3-3v-79l2-4 4 4 3 5 3 3 3 7 11 19 3 5-1 2-7-10-6-11-5-8-3-6-3-5-2-1v81l-4 3h-21l-5-3-1-1v-136z" fill="#4C6488"/>
<path transform="translate(1609,917)" d="m0 0 4 2 3 4 5 10 2 14 3 5 1 7v21l-5 19-2 8-6 12 1 6 10 8 7 7 1 4-4 5-2-1 3-3-1-5-5-5-7-4-8-8 1-6 3-5 5-12 4-19v-23l-2-9-1-2-1-10-8-16z" fill="#617797"/>
<path transform="translate(1689,917)" d="m0 0h19l12 2 8 7 3 6v10l-3 6-7 6-7 2h-25l-4-4v-32zm3 3-4 4v24l2 4 2 1h18l9-1 8-7 1-3v-10l-4-6-6-5-14-1z" fill="#4C6488"/>
<path transform="translate(1686,914)" d="m0 0h22l15 4 8 8 3 8v7l-4 9-6 5-10 4h-28l-4-5v-35zm3 3-4 3v32l4 4h25l9-3 7-8 1-3v-10l-3-6-8-7-12-2z" fill="#BDC4D0"/>
<path transform="translate(352,12)" d="m0 0h22l5 1v1l-20 3-16 2-10 3-17 3-39 12-9 3-22 10-5 1 3-3 6-3h2v-2l19-8 24-8 17-5 22-5 16-3z" fill="#597091"/>
<path transform="translate(510,899)" d="m0 0h2v70h47l7 3 8 7 6 12 1 41 1 1 68 1v1l-68 1-4-4-1-41-1-3-3-3-2-5-7-6-8-3-45-1-1-2z" fill="#4C6488"/>
<path transform="translate(1506,940)" d="m0 0 1 2-2 5-2 13-1 3v11l4 20 5 9 11 9 5 3 12 2h19l-3-5-10-8-1-7 10-9 7-6 4-1 3 2-8 2-11 11v6l13 12-1 5-6 3h-16l-16-5-8-7-5-5-6-10-4-18v-17l4-18z" fill="#6C819E"/>
<path transform="translate(1263,942)" d="m0 0 4 1 5 8 4 12 6 17 2 3-1 5-2 1h-30l-3-2 1-9 5-12 5-13 3-10zm1 6-3 9-4 9-3 10-3 4v5l3 2 26-1 1-2-3-5-3-10-3-7-2-9-3-5z" fill="#4C6488"/>
<path transform="translate(1262,937)" d="m0 0 6 1 5 8 4 13 4 11 5 12v6l-4 3h-32l-5-3 1-7 7-19 5-14 2-9zm1 5-3 6-3 10-7 18-2 5v6l3 2h30l3-3-1-5-3-6-4-12-6-16-4-5z" fill="#BDC4D0"/>
<path transform="translate(929,1123)" d="m0 0h17l13 5 5 8v8l-4 6-8 5-8 2h-16l-4-4 1-26zm0 4-2 4v22l3 2 15-1 13-5 2-3 1-7-4-9-11-3z" fill="#617796"/>
<path transform="translate(1656,888)" d="m0 0h68l7 2 15 8 10 10 5 10 4 10 1 11-2 9-3 7-3 6-5 3 1-4 4-8 3-10v-11l-5-15-6-9-8-7-2-3-15-6-6-1h-61l-5 2 1-3z" fill="#5F7595"/>
<path transform="translate(90,174)" d="m0 0v3l-10 14-11 17-4 8-7 11-6 13-9 20-5 12-6 18-3 1 1-7 6-16 8-19 7-16 12-21 6-10 9-14 8-11z" fill="#607696"/>
<path transform="translate(1049,1140)" d="m0 0 4 2 5 17 4 11 4 8v7l-5 3h-24l-6-2-1-1v-6l4-11 5-13 3-9zm-2 7-4 5-10 26v6l4 2h23l4-4-5-14-4-10-3-9-1-2z" fill="#BDC4D0"/>
<path transform="translate(926,1121)" d="m0 0h24l11 6 6 9v8l-6 9-9 5-7 1h-17l-5-3-1-2v-28l2-4zm3 2-4 4-1 26 4 4h16l8-2 8-5 4-6v-8l-5-8-13-5z" fill="#BDC4D0"/>
<path transform="translate(1540,1096)" d="m0 0h21l7 3 5 10 7 11 3 6 4 6 3 6 7 10 4 8 3 4 4 8 2 5-5-3-7-12-10-17-5-8-6-10-8-13-5-9-2-1-25-1z" fill="#5E7495"/>
<path transform="translate(1983,216)" d="m0 0 4 1 10 19 7 16 6 14 8 21 7 25 3 12-1 4-2-9-3-1-2-10-5-17-7-20-8-19-8-18-9-17z" fill="#5B7192"/>
<path transform="translate(1047,1147)" d="m0 0h4l3 6 3 10 5 14 2 5-4 4h-23l-4-2v-6l8-21 4-8zm0 5-3 4-3 12-5 10 1 5h22l1-4-2-3-2-8-3-5-2-10z" fill="#607696"/>
<path transform="translate(1298,939)" d="m0 0 3 1 2 4 2 9 3 4 4 13 3 6 2 7 3 5 3 10 3 4 3 10 3 6 3 9 3 6 2 7 2 3v6l-4 3h-29l-7-6-2-5v-3h2l3 7 5 4h25l3-2v-6l-8-20-5-12-3-8-3-7-4-10-4-11-3-6-3-10-3-6-3-9z" fill="#4C6488"/>
<path transform="translate(1098,1098)" d="m0 0h29l2 1-1 2-2-1h-27l-1 4 7 11 12 19 9 15 3 4 6 11 5 7-1 3-4-6-4-4-4-6-3-6-4-5-6-11-6-9-8-13-3-6-2-5 1-4z" fill="#51698B"/>
<path transform="translate(959,1097)" d="m0 0 6 1 12 7 8 7 6 9 1 9 3 6v9l-3 8-2 8-5 6-4 5-4 3-2-1 6-7 6-9 3-12v-11l-4-14-6-9-5-6-16-7z" fill="#5C7394"/>
<path transform="translate(249,44)" d="m0 0 3 1-10 5-3 3-9 4-14 8-9 5-13 8-11 8-10 7-8 7-2-1 7-8 11-8 13-9 14-9 14-7 6-4z" fill="#5E7595"/>
<path transform="translate(1705,988)" d="m0 0 3 4 5 9 5 7 4 8 9 16 6 10 5 5h30l-1-7 3 3v5l-3 2h-28l-6-4-6-10-1-3-3-1-5-9-4-6-12-22z" fill="#5D7394"/>
<path transform="translate(1673,12)" d="m0 0h22l2 2 25 5 3 1v2l9 1 15 5v1l-9-1-9-3-24-5-8-2-26-3-6-1v-1z" fill="#4C6488"/>
<path transform="translate(1621,1096)" d="m0 0h21l1 2-23 1-3 2-1 77h-3l-4-4 3-1 2 1v-74l4-3z" fill="#4C6488"/>
<path transform="translate(1689,917)" d="m0 0h19l12 2 8 7 3 6v10l-3 6-7 6-7 2h-25l-4-4v-32zm3 1-5 3-1 2v27l3 4h28l6-3 6-7 1-9-2-7-7-7-7-2z" fill="#798DA8"/>
<path transform="translate(1194,1098)" d="m0 0h31l2 4-1 5-3 4-6 11-4 6-8 14-6 5-8 14-2 1 2-5 7-12 5-8 11-17 6-11 4-5-1-4h-28l-5 5 2-5z" fill="#576E90"/>
<path transform="translate(324,846)" d="m0 0m-2 1h2v2l-6 3-8 5-4 5-10 8-10 11-4 5-4 4-6 11-3 6h-3l11-21 8-9 7-8 10-9 8-6z" fill="#576E8F"/>
<path transform="translate(1195,1096)" d="m0 0h29l4 3v5h-2l-1-5h-31l-3 4-2 5-6 11-5 8-3 3-4 7h-2l6-12 11-19 5-8z" fill="#536B8D"/>
<path transform="translate(1263,942)" d="m0 0 4 1 5 8 4 12 6 17 2 3-1 5-2 1h-30l-3-2 1-9 5-12 5-13 3-10zm1 2-2 2-4 13-5 15-4 8 1 5 2 1h28l2-1v-5l-3-6-4-12-6-16-3-4z" fill="#798DA8"/>
<path transform="translate(1583,939)" d="m0 0h2l4 9 1 2 1 22-1 16-4 6h-5l-5-5-5-2-3-3v-2l-7 1-8 7-6 6h-2l1-3 8-7 7-6h7l11 9 3 3 4-1 2-5v-35l-4-6z" fill="#546B8D"/>
<path transform="translate(277,1237)" d="m0 0 4 2 5 5 12 13 11 9 7 6 13 7-4 1-12-7-11-8-10-9-9-9z" fill="#597091"/>
<path transform="translate(1477,925)" d="m0 0v3l-6 18-1 5v37l3 9 2 7-1 4-5-12-2-12v-31l2-11 3-6 3-9z" fill="#4C6488"/>
<path transform="translate(352,12)" d="m0 0h22l5 1v1l-20 3-19 2-10 1-12 3h-6v-1l22-5 16-3z" fill="#5B7192"/>
<path transform="translate(1574,1166)" d="m0 0 4 4 11 19 9 15 5 9 7 11 3 5-1 2-4-6v-2l-4-2-5-8-9-15-1-5-15-25z" fill="#697E9C"/>
<path transform="translate(1573,1114)" d="m0 0 3 3 7 12 4 7 5 4 6 11 4 6 6 11 2 5-5-3-7-12-10-17-5-8-6-10-4-7z" fill="#6B809E"/>
<path transform="translate(2011,271)" d="m0 0 2 2 7 21 5 18 3 12-1 4-2-9-3-1-2-10-5-17-4-12z" fill="#617797"/>
<path transform="translate(351,895)" d="m0 0m-6 1h6v2l-7 3-8 6-9 9-6 10-3 9-3 6-1-4 4-9 4-8 3-7 11-11z" fill="#597091"/>
<path transform="translate(1728,1033)" d="m0 0h2l6 10 5 5 2 1h28l2-1-1-7-2-4 3 1 3 5v7l-2 2h-32l-6-4-6-11z" fill="#4C6488"/>
<path transform="translate(660,854)" d="m0 0 5 3 14 12 11 12 5 8-1 2-4-5-5-5-12-13-9-7-4-5z" fill="#5B7192"/>
<path transform="translate(1506,940)" d="m0 0 1 2-2 5-2 13-1 3v11l4 20 5 9 8 7 4 6-4-2-8-7-7-12-4-18v-17l4-18z" fill="#798DA8"/>
<path transform="translate(1072,1130)" d="m0 0h2l4 9 2 7 4 8 6 16 1 7 3 6 4 11 2 5-1 4-12-30-2-9-12-30z" fill="#5D7394"/>
<path transform="translate(1474,1008)" d="m0 0h2l7 12 17 17 11 6-2 1-8-2-8-7-9-9-6-9-4-7z" fill="#5B7293"/>
<path transform="translate(1509,939)" d="m0 0v3l-2 3-2 15v17l2 16 4 7 1 4-3-3-5-10-3-17v-11l2-7 2-12z" fill="#4C6488"/>
<path transform="translate(1503,895)" d="m0 0m-2 1h2l-2 5-10 9-8 10-4 7-2-3 5-9 7-9 8-7z" fill="#5D7494"/>
<path transform="translate(1583,935)" d="m0 0 3 3 5 11 1 5v30l-3 10-2 2-7-1-6-7 4 2 3 3h5l3-5 1-24-1-14-4-8z" fill="#798DA8"/>
<path transform="translate(1098,1096)" d="m0 0h28l5 3 6 10-1 2-3-5-4-3v-4h-31l-2 1 1 5v3l-4-5 1-5z" fill="#4C6488"/>
<path transform="translate(43,252)" d="m0 0 1 4-3 9-5 13-4 12-3 1 1-7 6-16z" fill="#5B7192"/>
<path transform="translate(1729,1030)" d="m0 0 4 5 6 10 3 2h30l-1-7 3 3v5l-3 2h-28l-6-4-6-10-2-3z" fill="#798DA8"/>
<path transform="translate(511,969)" d="m0 0h48l7 3 8 7 2 6-2 2-3-7-7-6-8-3-45-1z" fill="#4C6488"/>
<path transform="translate(1110,1125)" d="m0 0 4 4 12 20 3 4 6 11 5 7-1 3-4-6-4-4-4-6-1-6-4-5-8-14-4-6z" fill="#798DA8"/>
<path transform="translate(1725,21)" d="m0 0 10 1 22 7 16 5 2 2-15-2-11-4v-2l-24-6z" fill="#697E9C"/>
<path transform="translate(1964,183)" d="m0 0 5 5 10 16 6 10v2l-4-2-8-14-10-14z" fill="#5E7494"/>
<path transform="translate(167,93)" d="m0 0 2 1-9 10-13 10-6 6-4-1 13-12 14-11z" fill="#5F7595"/>
<path transform="translate(1759,918)" d="m0 0h2l4 10 1 11-2 9-3 7-3 6-4 2 5-10 4-12v-9l-4-12z" fill="#4C6488"/>
<path transform="translate(1707,18)" d="m0 0 9 1 21 5 12 4v1l-9-1-9-3-24-5z" fill="#4C6488"/>
<path transform="translate(1583,939)" d="m0 0h2l4 9 1 2 1 22-1 16-4 6-2-1 3-4 1-3v-35l-4-6z" fill="#4C6488"/>
<path transform="translate(1768,34)" d="m0 0 16 4 8 4v2l6 2 3 3-6-2-20-8-7-3z" fill="#586F91"/>
<path transform="translate(1613,1017)" d="m0 0 1 2 1 6 10 8 7 7 1 4-4 5-2-1 3-3-1-5-5-5-7-4-5-5-1-7z" fill="#4E668A"/>
<path transform="translate(249,44)" d="m0 0 3 1-10 5-3 3-9 4-7 4-3-1 5-4 16-8z" fill="#637999"/>
<path transform="translate(1194,1098)" d="m0 0h31l2 4-3 5-8 13-1-3 7-11 2-2-1-4h-28l-5 5 2-5z" fill="#798DA8"/>
<path transform="translate(136,120)" d="m0 0 3 1-22 22h-2l2-4 7-7 7-8z" fill="#5D7394"/>
<path transform="translate(189,77)" d="m0 0 2 1-4 5-14 10-8 7-2-1 7-8 11-8z" fill="#5B7293"/>
<path transform="translate(340,17)" d="m0 0m-5 1h5v2l-7 2-17 3-9 3-4-1 9-4z" fill="#4C6488"/>
<path transform="translate(1754,1013)" d="m0 0 6 5 4 6 7 11v5l-3-3-7-11-5-8z" fill="#657B9A"/>
<path transform="translate(1132,1105)" d="m0 0 3 3 6 7 4 8 2 2v7l-3-4-6-10-6-11z" fill="#647A99"/>
<path transform="translate(1519,1011)" d="m0 0 8 4 12 2 17 1v2h-18l-15-4z" fill="#4C6488"/>
<path transform="translate(1740,895)" d="m0 0 7 4 9 9 4 7-1 3-5-8-11-9-3-4z" fill="#576E90"/>
<path transform="translate(718,1155)" d="m0 0 5 1 10 11 8 7-1 3-7-6-15-15z" fill="#617797"/>
<path transform="translate(329,1279)" d="m0 0 14 5 14 4 11 2v1h-12l-10-4-12-3-5-3z" fill="#4C6488"/>
<path transform="translate(2e3 250)" d="m0 0h2l1 5 3 1 5 13 1 8-2-1-10-24z" fill="#586F90"/>
<path transform="translate(1684,12)" d="m0 0h11l2 2 25 5 3 2-9-1-20-4-14-2z" fill="#798DA8"/>
<path transform="translate(320,1201)" d="m0 0 4 2 10 14 2 3-5-1-7-9-3-4z" fill="#5D7394"/>
<path transform="translate(1586,894)" d="m0 0 5 2 11 8 8 11-1 3-4-4-3-6-8-7-8-5z" fill="#526A8C"/>
<path transform="translate(1565,921)" d="m0 0 12 5 6 7 1 6-5-4-3-4v-2l-5-2-6-4z" fill="#586F91"/>
<path transform="translate(1606,1223)" d="m0 0h2l4 7 2 1 2 5 8 2 14 1v1h-20l-5-3z" fill="#4D6589"/>
<path transform="translate(1098,1098)" d="m0 0h29l2 1-1 2-2-1h-27l-1 4 6 9-1 2-8-12 1-4z" fill="#798DA8"/>
<path transform="translate(263,38)" d="m0 0 3 1-4 4-19 8-2-1 9-5h2v-2z" fill="#566D8F"/>
<path transform="translate(54,232)" d="m0 0v3l-9 21-2-1 2-9 5-10h2z" fill="#5A7192"/>
<path transform="translate(1206,1133)" d="m0 0 2 4-3 5-6 5-8 14-2 1 2-5 7-12 5-8z" fill="#6D829F"/>
<path transform="translate(2011,271)" d="m0 0 2 2 6 18v3l-3-1-5-14z" fill="#607696"/>
<path transform="translate(90,174)" d="m0 0v3l-10 14-4 4 1-6 9-12z" fill="#5D7494"/>
<path transform="translate(308,23)" d="m0 0 4 1-8 3-1 2-13 3h-7l4-2 16-5z" fill="#677C9B"/>
<path transform="translate(1572,1166)" d="m0 0h2l8 14 9 15-1 2-7-10-6-11-5-8z" fill="#4C6488"/>
<path transform="translate(990,1156)" d="m0 0 1 3-6 8-4 5-4 3-2-1 6-7 5-7z" fill="#566D8F"/>
<path transform="translate(1203,1142)" d="m0 0v3l-3 3-4 8-6 9-4 2 2-5 4-4 7-12z" fill="#50688B"/>
<path transform="translate(324,846)" d="m0 0m-2 1h2v2l-6 3-8 5-4 5-5 4-2-1 6-5 5-6z" fill="#5A7192"/>
<path transform="translate(1993,231)" d="m0 0 3 3 8 18-1 3-1-5-3-1-4-10z" fill="#667C9A"/>
<path transform="translate(1792,43)" d="m0 0 5 1 11 5 3 3 5 3-3 1-12-6-3-3-6-3z" fill="#5E7495"/>
<path transform="translate(1752,963)" d="m0 0h3l-2 5-7 6-5 2 1-4 8-6z" fill="#5B7192"/>
<path transform="translate(1127,1156)" d="m0 0 4 1 6 10 3 4-1 3-4-6-4-4-4-6z" fill="#657B9A"/>
<path transform="translate(35,270)" d="m0 0 1 3-1 9-3 8-3 1 1-7z" fill="#637999"/>
<path transform="translate(560,970)" d="m0 0 5 1 9 8 2 6-2 2-3-7-7-6-4-2z" fill="#50688B"/>
<path transform="translate(1519,924)" d="m0 0 2 1-9 11-1 3-4 2 1-4 4-6 4-5z" fill="#5F7595"/>
<path transform="translate(1705,988)" d="m0 0 3 4 5 9 3 4-1 2-5-4-4-8z" fill="#677C9B"/>
<path transform="translate(218,60)" d="m0 0h3v2l-8 5-6 3h-3l4-5z" fill="#5B7192"/>
<path transform="translate(1808,50)" d="m0 0 6 2 11 6v2l3 1-2 1-10-5-3-3-5-3z" fill="#637898"/>
<path transform="translate(1586,1040)" d="m0 0 5 1 9 10h-3l-8-7v-2l-7 2z" fill="#6A7F9D"/>
<path transform="translate(1575,1116)" d="m0 0 4 2 4 8 4 6 1 5-3-3-10-17z" fill="#4C6488"/>
<path transform="translate(1146,1128)" d="m0 0h2l5 8 1 8-3-3-4-7z" fill="#607696"/>
<path transform="translate(1976,201)" d="m0 0 4 4 5 9v2l-4-2-6-11z" fill="#5F7595"/>
<path transform="translate(114,142)" d="m0 0 2 1-2 4-5 6-5 2 2-4z" fill="#627898"/>
<path transform="translate(1739,974)" d="m0 0 3 1-4 5-2 5-2-2v-5z" fill="#617797"/>
<path transform="translate(351,895)" d="m0 0m-6 1h6v2l-7 3-5 2v-3z" fill="#5D7394"/>
<path transform="translate(352,12)" d="m0 0h10l2 2-13 2h-7v-1l8-2z" fill="#798DA8"/>
<path transform="translate(1176,1127)" d="m0 0 1 2-5 9-4 7-2-3 3-5 3-3z" fill="#6C819F"/>
<path transform="translate(1747 1e3)" d="m0 0h2l10 15-1 3-5-5-3-7z" fill="#4E6689"/>
<path transform="translate(1622,1034)" d="m0 0 4 2 5 6-1 4-4 5-3-1 5-5-1-5z" fill="#768AA6"/>
<path transform="translate(58,221)" d="m0 0 2 1-4 10-5 4 1-4z" fill="#637998"/>
<path transform="translate(1564,1152)" d="m0 0 4 4 3 5 3 3v2l-3-1-5-8-3-1z" fill="#51688B"/>
<path transform="translate(1127,1097)" d="m0 0 4 2 6 10-1 2-3-5-4-3v-4h-2z" fill="#546B8D"/>
<path transform="translate(1483,915)" d="m0 0 1 4-5 8-2-3 5-8z" fill="#607696"/>
<path transform="translate(1613,1017)" d="m0 0 1 2 1 6 4 5h-3l-4-4-1-7z" fill="#586F91"/>
<path transform="translate(1511 1e3)" d="m0 0 4 2 8 9h-3l-7-7-2-1z" fill="#647A99"/>
<path transform="translate(1559,981)" d="m0 0m-1 1v3l-11 11h-2l1-3 8-7z" fill="#4C6488"/>
<path transform="translate(1587,1137)" d="m0 0 4 2 6 9-1 3-5-5-3-7z" fill="#4F668A"/>
<path transform="translate(167,93)" d="m0 0 2 1-9 10-3-1 5-5z" fill="#677D9B"/>
<path transform="translate(1568,1104)" d="m0 0h2l6 10-1 2-4-3z" fill="#52698C"/>
<path transform="translate(66,211)" d="m0 0v3l-5 8h-2l1-5 5-5z" fill="#576E90"/>
<path transform="translate(1989,223)" d="m0 0 3 3 4 11-1 2-5-8z" fill="#5C7393"/>
<path transform="translate(83,184)" d="m0 0v3l-6 8-1-4 5-5z" fill="#586F90"/>
</svg>
