<svg width="43" height="42" viewBox="0 0 43 42" fill="none" xmlns="http://www.w3.org/2000/svg">
<g clip-path="url(#clip0_2493_6765)">
<path d="M37.4618 17.3914C37.3464 17.0403 37.0387 16.8062 36.6541 16.8062H26.0772L22.7695 6.58518C22.6925 6.23407 22.3464 6 22.0002 6C21.6156 6 21.3079 6.23407 21.1925 6.58518L17.9233 16.8062H7.30792C6.96177 16.8062 6.61562 17.0403 6.53869 17.3914C6.42331 17.7425 6.53869 18.1326 6.80792 18.3277L15.3848 24.6476L12.1156 34.8687C12.0002 35.2198 12.1156 35.6099 12.4233 35.844C12.5772 35.922 12.731 36 12.9233 36C13.0772 36 13.2695 35.922 13.4233 35.844L22.0002 29.5241L30.5772 35.844C30.8464 36.039 31.231 36.078 31.5387 35.844C31.8464 35.6099 31.9618 35.2198 31.8464 34.8687L28.5772 24.6476L37.1541 18.3277C37.4618 18.1326 37.5772 17.7425 37.4618 17.3914ZM17.1925 24.6086C17.3079 24.2575 17.1541 23.8674 16.8848 23.6333L9.88485 18.4837H18.5387C18.8848 18.4837 19.1925 18.2497 19.3079 17.8986L22.0002 9.58908L24.6541 17.8986C24.7695 18.2497 25.0772 18.4837 25.4618 18.4837H34.0772L27.1156 23.6333C26.8079 23.8674 26.6925 24.2575 26.8079 24.6086L29.4618 32.9181L22.4618 27.7685C22.4618 27.7685 22.1541 27.6125 22.0002 27.6125C21.8079 27.6125 21.6541 27.6905 21.5002 27.7685L14.5002 32.9181L17.1925 24.6086Z" fill="url(#paint0_linear_2493_6765)"/>
</g>
<defs>
<linearGradient id="paint0_linear_2493_6765" x1="14.558" y1="14.1226" x2="32.8039" y2="32.1383" gradientUnits="userSpaceOnUse">
<stop stop-color="#D93E1F"/>
<stop offset="1" stop-color="#F0940F"/>
</linearGradient>
<clipPath id="clip0_2493_6765">
<rect width="31" height="30" fill="white" transform="translate(6.5 6)"/>
</clipPath>
</defs>
</svg>
