<svg width="17" height="16" viewBox="0 0 17 16" fill="none" xmlns="http://www.w3.org/2000/svg">
<path d="M15.2954 14.777L12.0382 11.5198M12.0382 11.5198C12.5954 10.9626 13.0373 10.3011 13.3389 9.57317C13.6404 8.8452 13.7956 8.06496 13.7956 7.27701C13.7956 6.48906 13.6404 5.70882 13.3389 4.98085C13.0373 4.25288 12.5954 3.59143 12.0382 3.03426C11.481 2.47709 10.8196 2.03513 10.0916 1.73359C9.36363 1.43205 8.58339 1.27686 7.79544 1.27686C7.00749 1.27686 6.22726 1.43205 5.49928 1.73359C4.77131 2.03513 4.10986 2.47709 3.55269 3.03426C2.42745 4.15951 1.79529 5.68567 1.79529 7.27701C1.79529 8.86835 2.42745 10.3945 3.55269 11.5198C4.67794 12.645 6.2041 13.2772 7.79544 13.2772C9.38678 13.2772 10.9129 12.645 12.0382 11.5198Z" stroke="url(#paint0_linear_402_1035)" stroke-width="2" stroke-linecap="round" stroke-linejoin="round"/>
<defs>
<linearGradient id="paint0_linear_402_1035" x1="5.30572" y1="4.93144" x2="13.5071" y2="12.7666" gradientUnits="userSpaceOnUse">
<stop stop-color="#D93E1F"/>
<stop offset="1" stop-color="#F0940F"/>
</linearGradient>
</defs>
</svg>
