<svg width="24" height="24" viewBox="0 0 24 24" fill="none" xmlns="http://www.w3.org/2000/svg">
<path d="M19 18L15.6221 14.6221M15.6221 14.6221C16.1999 14.0444 16.6583 13.3584 16.971 12.6035C17.2837 11.8486 17.4446 11.0394 17.4446 10.2223C17.4446 9.40519 17.2837 8.59606 16.971 7.84114C16.6583 7.08621 16.1999 6.40027 15.6221 5.82247C15.0444 5.24468 14.3584 4.78635 13.6035 4.47365C12.8486 4.16094 12.0394 4 11.2223 4C10.4052 4 9.59606 4.16094 8.84114 4.47365C8.08621 4.78635 7.40027 5.24468 6.82247 5.82247C5.65556 6.98938 5 8.57205 5 10.2223C5 11.8726 5.65556 13.4552 6.82247 14.6221C7.98938 15.7891 9.57205 16.4446 11.2223 16.4446C12.8726 16.4446 14.4552 15.7891 15.6221 14.6221Z" stroke="#1F222C" stroke-width="2" stroke-linecap="round" stroke-linejoin="round"/>
</svg>
