<svg width="35" height="36" viewBox="0 0 35 36" fill="none" xmlns="http://www.w3.org/2000/svg">
<g filter="url(#filter0_b_1101_22959)">
<circle cx="17.5" cy="18.02" r="17.5" fill="url(#paint0_linear_1101_22959)" fill-opacity="0.85"/>
</g>
<path d="M18.1137 23C17.9209 23 17.7603 22.9361 17.6317 22.8083C17.5075 22.6804 17.4454 22.5206 17.4454 22.3289V19.9768H17.259C16.4536 19.9768 15.7403 20.0556 15.1191 20.2132C14.5022 20.3709 13.9603 20.6394 13.4933 21.0186C13.0306 21.3936 12.6301 21.9092 12.2916 22.5654C12.1931 22.7486 12.0817 22.8658 11.9575 22.9169C11.8375 22.9723 11.7154 23 11.5912 23C11.4413 23 11.3042 22.934 11.1799 22.8019C11.06 22.6698 11 22.4823 11 22.2394C11 21.1102 11.1264 20.1003 11.3791 19.2098C11.6319 18.3149 12.0153 17.5586 12.5294 16.9407C13.0435 16.3186 13.6925 15.8456 14.4765 15.5218C15.2648 15.1979 16.1923 15.036 17.259 15.036H17.4454V12.6967C17.4454 12.5092 17.5075 12.3473 17.6317 12.2109C17.7603 12.0703 17.9252 12 18.1265 12C18.2679 12 18.3943 12.032 18.5057 12.0959C18.6171 12.1598 18.7477 12.2621 18.8977 12.4027L23.6851 16.8512C23.8094 16.9663 23.8929 17.0792 23.9357 17.19C23.9786 17.2965 24 17.3988 24 17.4968C24 17.5948 23.9764 17.6992 23.9293 17.81C23.8865 17.9165 23.8051 18.0273 23.6851 18.1424L18.8977 22.6293C18.7606 22.7529 18.6299 22.8445 18.5057 22.9041C18.3857 22.968 18.2551 23 18.1137 23ZM18.4286 21.8239C18.4628 21.8239 18.4993 21.8048 18.5378 21.7664L22.9268 17.6502C22.9568 17.6204 22.9783 17.5948 22.9911 17.5735C23.004 17.5479 23.0104 17.5224 23.0104 17.4968C23.0104 17.4542 22.9825 17.4052 22.9268 17.3498L18.5378 13.1888C18.525 13.1761 18.5078 13.1633 18.4864 13.1505C18.465 13.1377 18.4457 13.1313 18.4286 13.1313C18.3643 13.1313 18.3322 13.1633 18.3322 13.2272V15.6688C18.3322 15.8009 18.2679 15.8669 18.1394 15.8669H17.3811C16.3572 15.8669 15.494 16.0246 14.7914 16.3399C14.0888 16.6552 13.5212 17.0856 13.0885 17.631C12.6558 18.1764 12.3366 18.8007 12.131 19.5038C11.9296 20.2026 11.8161 20.9376 11.7904 21.7089C11.7904 21.76 11.8075 21.7856 11.8418 21.7856C11.859 21.7856 11.8697 21.7792 11.8739 21.7664C11.8825 21.7536 11.8932 21.7345 11.9061 21.7089C12.2702 20.9163 12.9107 20.2921 13.8275 19.8361C14.7443 19.3759 15.9288 19.1458 17.3811 19.1458H18.1394C18.2679 19.1458 18.3322 19.2119 18.3322 19.344V21.7281C18.3322 21.792 18.3643 21.8239 18.4286 21.8239Z" fill="#1F222C"/>
<defs>
<filter id="filter0_b_1101_22959" x="-38.4" y="-37.88" width="111.8" height="111.8" filterUnits="userSpaceOnUse" color-interpolation-filters="sRGB">
<feFlood flood-opacity="0" result="BackgroundImageFix"/>
<feGaussianBlur in="BackgroundImageFix" stdDeviation="19.2"/>
<feComposite in2="SourceAlpha" operator="in" result="effect1_backgroundBlur_1101_22959"/>
<feBlend mode="normal" in="SourceGraphic" in2="effect1_backgroundBlur_1101_22959" result="shape"/>
</filter>
<linearGradient id="paint0_linear_1101_22959" x1="5.65385" y1="-51.3069" x2="63.4144" y2="-23.3636" gradientUnits="userSpaceOnUse">
<stop offset="0.28" stop-color="#FFF6EC"/>
<stop offset="0.558881" stop-color="white"/>
<stop offset="1" stop-color="#FFBF65"/>
</linearGradient>
</defs>
</svg>
